%TF.GenerationSoftware,KiCad,Pcbnew,7.0.8*%
%TF.CreationDate,2024-02-20T10:29:55+01:00*%
%TF.ProjectId,stopwatchy,73746f70-7761-4746-9368-792e6b696361,rev?*%
%TF.SameCoordinates,Original*%
%TF.FileFunction,Legend,Top*%
%TF.FilePolarity,Positive*%
%FSLAX46Y46*%
G04 Gerber Fmt 4.6, Leading zero omitted, Abs format (unit mm)*
G04 Created by KiCad (PCBNEW 7.0.8) date 2024-02-20 10:29:55*
%MOMM*%
%LPD*%
G01*
G04 APERTURE LIST*
%ADD10C,0.150000*%
%ADD11C,0.200000*%
%ADD12C,0.600000*%
%ADD13C,0.120000*%
%ADD14C,0.100000*%
G04 APERTURE END LIST*
D10*
X107586779Y-107619819D02*
X107586779Y-106619819D01*
X107586779Y-106619819D02*
X107920112Y-107334104D01*
X107920112Y-107334104D02*
X108253445Y-106619819D01*
X108253445Y-106619819D02*
X108253445Y-107619819D01*
X108729636Y-107619819D02*
X108729636Y-106619819D01*
X109205826Y-107619819D02*
X109205826Y-106619819D01*
X109205826Y-106619819D02*
X109777254Y-107619819D01*
X109777254Y-107619819D02*
X109777254Y-106619819D01*
X107920112Y-103096009D02*
X108062969Y-103143628D01*
X108062969Y-103143628D02*
X108110588Y-103191247D01*
X108110588Y-103191247D02*
X108158207Y-103286485D01*
X108158207Y-103286485D02*
X108158207Y-103429342D01*
X108158207Y-103429342D02*
X108110588Y-103524580D01*
X108110588Y-103524580D02*
X108062969Y-103572200D01*
X108062969Y-103572200D02*
X107967731Y-103619819D01*
X107967731Y-103619819D02*
X107586779Y-103619819D01*
X107586779Y-103619819D02*
X107586779Y-102619819D01*
X107586779Y-102619819D02*
X107920112Y-102619819D01*
X107920112Y-102619819D02*
X108015350Y-102667438D01*
X108015350Y-102667438D02*
X108062969Y-102715057D01*
X108062969Y-102715057D02*
X108110588Y-102810295D01*
X108110588Y-102810295D02*
X108110588Y-102905533D01*
X108110588Y-102905533D02*
X108062969Y-103000771D01*
X108062969Y-103000771D02*
X108015350Y-103048390D01*
X108015350Y-103048390D02*
X107920112Y-103096009D01*
X107920112Y-103096009D02*
X107586779Y-103096009D01*
X108539160Y-103334104D02*
X109015350Y-103334104D01*
X108443922Y-103619819D02*
X108777255Y-102619819D01*
X108777255Y-102619819D02*
X109110588Y-103619819D01*
X109301065Y-102619819D02*
X109872493Y-102619819D01*
X109586779Y-103619819D02*
X109586779Y-102619819D01*
X165736779Y-95969819D02*
X165736779Y-94969819D01*
X165736779Y-94969819D02*
X166117731Y-94969819D01*
X166117731Y-94969819D02*
X166212969Y-95017438D01*
X166212969Y-95017438D02*
X166260588Y-95065057D01*
X166260588Y-95065057D02*
X166308207Y-95160295D01*
X166308207Y-95160295D02*
X166308207Y-95303152D01*
X166308207Y-95303152D02*
X166260588Y-95398390D01*
X166260588Y-95398390D02*
X166212969Y-95446009D01*
X166212969Y-95446009D02*
X166117731Y-95493628D01*
X166117731Y-95493628D02*
X165736779Y-95493628D01*
X167308207Y-95969819D02*
X166974874Y-95493628D01*
X166736779Y-95969819D02*
X166736779Y-94969819D01*
X166736779Y-94969819D02*
X167117731Y-94969819D01*
X167117731Y-94969819D02*
X167212969Y-95017438D01*
X167212969Y-95017438D02*
X167260588Y-95065057D01*
X167260588Y-95065057D02*
X167308207Y-95160295D01*
X167308207Y-95160295D02*
X167308207Y-95303152D01*
X167308207Y-95303152D02*
X167260588Y-95398390D01*
X167260588Y-95398390D02*
X167212969Y-95446009D01*
X167212969Y-95446009D02*
X167117731Y-95493628D01*
X167117731Y-95493628D02*
X166736779Y-95493628D01*
X167927255Y-94969819D02*
X168117731Y-94969819D01*
X168117731Y-94969819D02*
X168212969Y-95017438D01*
X168212969Y-95017438D02*
X168308207Y-95112676D01*
X168308207Y-95112676D02*
X168355826Y-95303152D01*
X168355826Y-95303152D02*
X168355826Y-95636485D01*
X168355826Y-95636485D02*
X168308207Y-95826961D01*
X168308207Y-95826961D02*
X168212969Y-95922200D01*
X168212969Y-95922200D02*
X168117731Y-95969819D01*
X168117731Y-95969819D02*
X167927255Y-95969819D01*
X167927255Y-95969819D02*
X167832017Y-95922200D01*
X167832017Y-95922200D02*
X167736779Y-95826961D01*
X167736779Y-95826961D02*
X167689160Y-95636485D01*
X167689160Y-95636485D02*
X167689160Y-95303152D01*
X167689160Y-95303152D02*
X167736779Y-95112676D01*
X167736779Y-95112676D02*
X167832017Y-95017438D01*
X167832017Y-95017438D02*
X167927255Y-94969819D01*
X169308207Y-95017438D02*
X169212969Y-94969819D01*
X169212969Y-94969819D02*
X169070112Y-94969819D01*
X169070112Y-94969819D02*
X168927255Y-95017438D01*
X168927255Y-95017438D02*
X168832017Y-95112676D01*
X168832017Y-95112676D02*
X168784398Y-95207914D01*
X168784398Y-95207914D02*
X168736779Y-95398390D01*
X168736779Y-95398390D02*
X168736779Y-95541247D01*
X168736779Y-95541247D02*
X168784398Y-95731723D01*
X168784398Y-95731723D02*
X168832017Y-95826961D01*
X168832017Y-95826961D02*
X168927255Y-95922200D01*
X168927255Y-95922200D02*
X169070112Y-95969819D01*
X169070112Y-95969819D02*
X169165350Y-95969819D01*
X169165350Y-95969819D02*
X169308207Y-95922200D01*
X169308207Y-95922200D02*
X169355826Y-95874580D01*
X169355826Y-95874580D02*
X169355826Y-95541247D01*
X169355826Y-95541247D02*
X169165350Y-95541247D01*
D11*
X137238720Y-79234600D02*
X138381578Y-79234600D01*
X138095863Y-79520314D02*
X138381578Y-79234600D01*
X138381578Y-79234600D02*
X138095863Y-78948885D01*
X168117219Y-80130326D02*
X167117219Y-80130326D01*
X167117219Y-80130326D02*
X167117219Y-79749374D01*
X167117219Y-79749374D02*
X167164838Y-79654136D01*
X167164838Y-79654136D02*
X167212457Y-79606517D01*
X167212457Y-79606517D02*
X167307695Y-79558898D01*
X167307695Y-79558898D02*
X167450552Y-79558898D01*
X167450552Y-79558898D02*
X167545790Y-79606517D01*
X167545790Y-79606517D02*
X167593409Y-79654136D01*
X167593409Y-79654136D02*
X167641028Y-79749374D01*
X167641028Y-79749374D02*
X167641028Y-80130326D01*
X167117219Y-78939850D02*
X167117219Y-78749374D01*
X167117219Y-78749374D02*
X167164838Y-78654136D01*
X167164838Y-78654136D02*
X167260076Y-78558898D01*
X167260076Y-78558898D02*
X167450552Y-78511279D01*
X167450552Y-78511279D02*
X167783885Y-78511279D01*
X167783885Y-78511279D02*
X167974361Y-78558898D01*
X167974361Y-78558898D02*
X168069600Y-78654136D01*
X168069600Y-78654136D02*
X168117219Y-78749374D01*
X168117219Y-78749374D02*
X168117219Y-78939850D01*
X168117219Y-78939850D02*
X168069600Y-79035088D01*
X168069600Y-79035088D02*
X167974361Y-79130326D01*
X167974361Y-79130326D02*
X167783885Y-79177945D01*
X167783885Y-79177945D02*
X167450552Y-79177945D01*
X167450552Y-79177945D02*
X167260076Y-79130326D01*
X167260076Y-79130326D02*
X167164838Y-79035088D01*
X167164838Y-79035088D02*
X167117219Y-78939850D01*
X167117219Y-78177945D02*
X168117219Y-77939850D01*
X168117219Y-77939850D02*
X167402933Y-77749374D01*
X167402933Y-77749374D02*
X168117219Y-77558898D01*
X168117219Y-77558898D02*
X167117219Y-77320803D01*
X167593409Y-76939850D02*
X167593409Y-76606517D01*
X168117219Y-76463660D02*
X168117219Y-76939850D01*
X168117219Y-76939850D02*
X167117219Y-76939850D01*
X167117219Y-76939850D02*
X167117219Y-76463660D01*
X168117219Y-75463660D02*
X167641028Y-75796993D01*
X168117219Y-76035088D02*
X167117219Y-76035088D01*
X167117219Y-76035088D02*
X167117219Y-75654136D01*
X167117219Y-75654136D02*
X167164838Y-75558898D01*
X167164838Y-75558898D02*
X167212457Y-75511279D01*
X167212457Y-75511279D02*
X167307695Y-75463660D01*
X167307695Y-75463660D02*
X167450552Y-75463660D01*
X167450552Y-75463660D02*
X167545790Y-75511279D01*
X167545790Y-75511279D02*
X167593409Y-75558898D01*
X167593409Y-75558898D02*
X167641028Y-75654136D01*
X167641028Y-75654136D02*
X167641028Y-76035088D01*
D12*
X137537593Y-50801657D02*
X136109021Y-50801657D01*
X136109021Y-50801657D02*
X136109021Y-47801657D01*
X140251878Y-50515942D02*
X140109021Y-50658800D01*
X140109021Y-50658800D02*
X139680449Y-50801657D01*
X139680449Y-50801657D02*
X139394735Y-50801657D01*
X139394735Y-50801657D02*
X138966164Y-50658800D01*
X138966164Y-50658800D02*
X138680449Y-50373085D01*
X138680449Y-50373085D02*
X138537592Y-50087371D01*
X138537592Y-50087371D02*
X138394735Y-49515942D01*
X138394735Y-49515942D02*
X138394735Y-49087371D01*
X138394735Y-49087371D02*
X138537592Y-48515942D01*
X138537592Y-48515942D02*
X138680449Y-48230228D01*
X138680449Y-48230228D02*
X138966164Y-47944514D01*
X138966164Y-47944514D02*
X139394735Y-47801657D01*
X139394735Y-47801657D02*
X139680449Y-47801657D01*
X139680449Y-47801657D02*
X140109021Y-47944514D01*
X140109021Y-47944514D02*
X140251878Y-48087371D01*
X141537592Y-50801657D02*
X141537592Y-47801657D01*
X141537592Y-47801657D02*
X142251878Y-47801657D01*
X142251878Y-47801657D02*
X142680449Y-47944514D01*
X142680449Y-47944514D02*
X142966164Y-48230228D01*
X142966164Y-48230228D02*
X143109021Y-48515942D01*
X143109021Y-48515942D02*
X143251878Y-49087371D01*
X143251878Y-49087371D02*
X143251878Y-49515942D01*
X143251878Y-49515942D02*
X143109021Y-50087371D01*
X143109021Y-50087371D02*
X142966164Y-50373085D01*
X142966164Y-50373085D02*
X142680449Y-50658800D01*
X142680449Y-50658800D02*
X142251878Y-50801657D01*
X142251878Y-50801657D02*
X141537592Y-50801657D01*
D10*
X147086779Y-111119819D02*
X147086779Y-110119819D01*
X147086779Y-110119819D02*
X147467731Y-110119819D01*
X147467731Y-110119819D02*
X147562969Y-110167438D01*
X147562969Y-110167438D02*
X147610588Y-110215057D01*
X147610588Y-110215057D02*
X147658207Y-110310295D01*
X147658207Y-110310295D02*
X147658207Y-110453152D01*
X147658207Y-110453152D02*
X147610588Y-110548390D01*
X147610588Y-110548390D02*
X147562969Y-110596009D01*
X147562969Y-110596009D02*
X147467731Y-110643628D01*
X147467731Y-110643628D02*
X147086779Y-110643628D01*
X147991541Y-110119819D02*
X148229636Y-111119819D01*
X148229636Y-111119819D02*
X148420112Y-110405533D01*
X148420112Y-110405533D02*
X148610588Y-111119819D01*
X148610588Y-111119819D02*
X148848684Y-110119819D01*
X149801064Y-111119819D02*
X149467731Y-110643628D01*
X149229636Y-111119819D02*
X149229636Y-110119819D01*
X149229636Y-110119819D02*
X149610588Y-110119819D01*
X149610588Y-110119819D02*
X149705826Y-110167438D01*
X149705826Y-110167438D02*
X149753445Y-110215057D01*
X149753445Y-110215057D02*
X149801064Y-110310295D01*
X149801064Y-110310295D02*
X149801064Y-110453152D01*
X149801064Y-110453152D02*
X149753445Y-110548390D01*
X149753445Y-110548390D02*
X149705826Y-110596009D01*
X149705826Y-110596009D02*
X149610588Y-110643628D01*
X149610588Y-110643628D02*
X149229636Y-110643628D01*
D11*
X127560149Y-86413171D02*
X127560149Y-87556028D01*
X127845863Y-87270314D02*
X127560149Y-87556028D01*
X127560149Y-87556028D02*
X127274435Y-87270314D01*
X127560149Y-72556028D02*
X127560149Y-71413171D01*
X127274435Y-71698885D02*
X127560149Y-71413171D01*
X127560149Y-71413171D02*
X127845863Y-71698885D01*
X156667292Y-79520314D02*
X157024435Y-79877457D01*
X157024435Y-79877457D02*
X157024435Y-79734600D01*
X157024435Y-79734600D02*
X157881578Y-79734600D01*
X157881578Y-79734600D02*
X157881578Y-78663171D01*
X157881578Y-78663171D02*
X157453006Y-78663171D01*
X157453006Y-78663171D02*
X157453006Y-79306028D01*
X157453006Y-79306028D02*
X157024435Y-79306028D01*
X157024435Y-79306028D02*
X157024435Y-79163171D01*
X157024435Y-79163171D02*
X156667292Y-79520314D01*
X118381578Y-79234600D02*
X117238720Y-79234600D01*
X117524435Y-79520314D02*
X117238720Y-79234600D01*
X117238720Y-79234600D02*
X117524435Y-78948885D01*
D10*
X115158207Y-96369819D02*
X114824874Y-95893628D01*
X114586779Y-96369819D02*
X114586779Y-95369819D01*
X114586779Y-95369819D02*
X114967731Y-95369819D01*
X114967731Y-95369819D02*
X115062969Y-95417438D01*
X115062969Y-95417438D02*
X115110588Y-95465057D01*
X115110588Y-95465057D02*
X115158207Y-95560295D01*
X115158207Y-95560295D02*
X115158207Y-95703152D01*
X115158207Y-95703152D02*
X115110588Y-95798390D01*
X115110588Y-95798390D02*
X115062969Y-95846009D01*
X115062969Y-95846009D02*
X114967731Y-95893628D01*
X114967731Y-95893628D02*
X114586779Y-95893628D01*
X115539160Y-96322200D02*
X115682017Y-96369819D01*
X115682017Y-96369819D02*
X115920112Y-96369819D01*
X115920112Y-96369819D02*
X116015350Y-96322200D01*
X116015350Y-96322200D02*
X116062969Y-96274580D01*
X116062969Y-96274580D02*
X116110588Y-96179342D01*
X116110588Y-96179342D02*
X116110588Y-96084104D01*
X116110588Y-96084104D02*
X116062969Y-95988866D01*
X116062969Y-95988866D02*
X116015350Y-95941247D01*
X116015350Y-95941247D02*
X115920112Y-95893628D01*
X115920112Y-95893628D02*
X115729636Y-95846009D01*
X115729636Y-95846009D02*
X115634398Y-95798390D01*
X115634398Y-95798390D02*
X115586779Y-95750771D01*
X115586779Y-95750771D02*
X115539160Y-95655533D01*
X115539160Y-95655533D02*
X115539160Y-95560295D01*
X115539160Y-95560295D02*
X115586779Y-95465057D01*
X115586779Y-95465057D02*
X115634398Y-95417438D01*
X115634398Y-95417438D02*
X115729636Y-95369819D01*
X115729636Y-95369819D02*
X115967731Y-95369819D01*
X115967731Y-95369819D02*
X116110588Y-95417438D01*
X116396303Y-95369819D02*
X116967731Y-95369819D01*
X116682017Y-96369819D02*
X116682017Y-95369819D01*
D13*
%TO.C,C11*%
X130009420Y-103990000D02*
X130290580Y-103990000D01*
X130009420Y-105010000D02*
X130290580Y-105010000D01*
%TO.C,R3*%
X156062742Y-102477500D02*
X156537258Y-102477500D01*
X156062742Y-103522500D02*
X156537258Y-103522500D01*
%TO.C,R1*%
X116650242Y-107327500D02*
X117124758Y-107327500D01*
X116650242Y-108372500D02*
X117124758Y-108372500D01*
%TO.C,L1*%
X157199622Y-113360000D02*
X156400378Y-113360000D01*
X157199622Y-112240000D02*
X156400378Y-112240000D01*
%TO.C,U1*%
X154422500Y-107825000D02*
X154422500Y-111275000D01*
X154422500Y-107825000D02*
X154422500Y-105875000D01*
X159542500Y-107825000D02*
X159542500Y-109775000D01*
X159542500Y-107825000D02*
X159542500Y-105875000D01*
%TO.C,D2*%
X112347500Y-101352500D02*
X110427500Y-101352500D01*
X110427500Y-101352500D02*
X110427500Y-104037500D01*
X112347500Y-104037500D02*
X112347500Y-101352500D01*
%TO.C,R8*%
X137865000Y-99412258D02*
X137865000Y-98937742D01*
X138910000Y-99412258D02*
X138910000Y-98937742D01*
%TO.C,R21*%
X152361520Y-113521695D02*
X151887004Y-113521695D01*
X152361520Y-112476695D02*
X151887004Y-112476695D01*
%TO.C,R13*%
X123115000Y-85537258D02*
X123115000Y-85062742D01*
X124160000Y-85537258D02*
X124160000Y-85062742D01*
%TO.C,SW5*%
X121137500Y-84600000D02*
X121137500Y-83100000D01*
X119887500Y-80600000D02*
X115387500Y-80600000D01*
X115387500Y-87100000D02*
X119887500Y-87100000D01*
X114137500Y-83100000D02*
X114137500Y-84600000D01*
%TO.C,C4*%
X141122500Y-111963750D02*
X141122500Y-112486254D01*
X139652500Y-111963750D02*
X139652500Y-112486254D01*
%TO.C,R9*%
X161637742Y-108877500D02*
X162112258Y-108877500D01*
X161637742Y-109922500D02*
X162112258Y-109922500D01*
%TO.C,C6*%
X163152500Y-112611252D02*
X163152500Y-112088748D01*
X164622500Y-112611252D02*
X164622500Y-112088748D01*
%TO.C,C5*%
X118877500Y-107265580D02*
X118877500Y-106984420D01*
X119897500Y-107265580D02*
X119897500Y-106984420D01*
%TO.C,SW3*%
X153637500Y-83100000D02*
X153637500Y-84600000D01*
X154887500Y-87100000D02*
X159387500Y-87100000D01*
X159387500Y-80600000D02*
X154887500Y-80600000D01*
X160637500Y-84600000D02*
X160637500Y-83100000D01*
%TO.C,C3*%
X121397500Y-110434420D02*
X121397500Y-110715580D01*
X120377500Y-110434420D02*
X120377500Y-110715580D01*
%TO.C,C9*%
X151122500Y-106438746D02*
X151122500Y-106961250D01*
X149652500Y-106438746D02*
X149652500Y-106961250D01*
%TO.C,R7*%
X135865000Y-99412258D02*
X135865000Y-98937742D01*
X136910000Y-99412258D02*
X136910000Y-98937742D01*
%TO.C,R12*%
X143115000Y-85537258D02*
X143115000Y-85062742D01*
X144160000Y-85537258D02*
X144160000Y-85062742D01*
%TO.C,D3*%
X153600000Y-111460000D02*
X153600000Y-109540000D01*
X153600000Y-109540000D02*
X150915000Y-109540000D01*
X150915000Y-111460000D02*
X153600000Y-111460000D01*
%TO.C,SW7*%
X131137500Y-92100000D02*
X131137500Y-90600000D01*
X129887500Y-88100000D02*
X125387500Y-88100000D01*
X125387500Y-94600000D02*
X129887500Y-94600000D01*
X124137500Y-90600000D02*
X124137500Y-92100000D01*
%TO.C,Q1*%
X167387500Y-110790000D02*
X165712500Y-110790000D01*
X167387500Y-110790000D02*
X168037500Y-110790000D01*
X167387500Y-113910000D02*
X166737500Y-113910000D01*
X167387500Y-113910000D02*
X168037500Y-113910000D01*
%TO.C,J4*%
X170105001Y-94355000D02*
X168775001Y-94355000D01*
X170105001Y-93025000D02*
X170105001Y-94355000D01*
X170105001Y-91755000D02*
X170105001Y-86615000D01*
X170105001Y-91755000D02*
X167505001Y-91755000D01*
X170105001Y-86615000D02*
X164905001Y-86615000D01*
X167505001Y-94355000D02*
X164905001Y-94355000D01*
X167505001Y-91755000D02*
X167505001Y-94355000D01*
X164905001Y-94355000D02*
X164905001Y-86615000D01*
%TO.C,R5*%
X159462742Y-102477500D02*
X159937258Y-102477500D01*
X159462742Y-103522500D02*
X159937258Y-103522500D01*
%TO.C,R16*%
X133177500Y-93037258D02*
X133177500Y-92562742D01*
X134222500Y-93037258D02*
X134222500Y-92562742D01*
%TO.C,R20*%
X161722500Y-89212742D02*
X161722500Y-89687258D01*
X160677500Y-89212742D02*
X160677500Y-89687258D01*
%TO.C,SW4*%
X141137500Y-84600000D02*
X141137500Y-83100000D01*
X139887500Y-80600000D02*
X135387500Y-80600000D01*
X135387500Y-87100000D02*
X139887500Y-87100000D01*
X134137500Y-83100000D02*
X134137500Y-84600000D01*
%TO.C,J2*%
X111460000Y-91500000D02*
X111460000Y-94500000D01*
X111460000Y-91500000D02*
X119560000Y-91500000D01*
X119560000Y-94500000D02*
X111460000Y-94500000D01*
X119560000Y-94500000D02*
X119560000Y-91500000D01*
%TO.C,R11*%
X150615000Y-85237258D02*
X150615000Y-84762742D01*
X151660000Y-85237258D02*
X151660000Y-84762742D01*
%TO.C,C1*%
X139652500Y-108886252D02*
X139652500Y-108363748D01*
X141122500Y-108886252D02*
X141122500Y-108363748D01*
D10*
%TO.C,SW2*%
X168700000Y-82300000D02*
X168700000Y-73700000D01*
X173300000Y-82300000D02*
X173300000Y-80100000D01*
X173300000Y-76000000D02*
X173300000Y-73700000D01*
D13*
%TO.C,R17*%
X142865000Y-99412258D02*
X142865000Y-98937742D01*
X143910000Y-99412258D02*
X143910000Y-98937742D01*
D14*
%TO.C,REF\u002A\u002A*%
X109900000Y-71200000D02*
X170160000Y-71200000D01*
X170160000Y-71200000D02*
X170160000Y-28480000D01*
X170160000Y-28480000D02*
X109900000Y-28480000D01*
X109900000Y-28480000D02*
X109900000Y-71200000D01*
X170150000Y-58180000D02*
X168160000Y-58180000D01*
X168160000Y-58180000D02*
X168160000Y-38170000D01*
X168160000Y-38170000D02*
X170150000Y-38170000D01*
X170150000Y-38170000D02*
X170150000Y-58180000D01*
D13*
%TO.C,R15*%
X133115000Y-78037258D02*
X133115000Y-77562742D01*
X134160000Y-78037258D02*
X134160000Y-77562742D01*
%TO.C,C12*%
X121246920Y-103990000D02*
X121528080Y-103990000D01*
X121246920Y-105010000D02*
X121528080Y-105010000D01*
%TO.C,Y1*%
X118187500Y-98450000D02*
X118187500Y-103550000D01*
X118187500Y-103550000D02*
X130787500Y-103550000D01*
X130787500Y-98450000D02*
X118187500Y-98450000D01*
%TO.C,C10*%
X148622500Y-106438746D02*
X148622500Y-106961250D01*
X147152500Y-106438746D02*
X147152500Y-106961250D01*
%TO.C,C2*%
X135397500Y-110434420D02*
X135397500Y-110715580D01*
X134377500Y-110434420D02*
X134377500Y-110715580D01*
%TO.C,R19*%
X160677500Y-93187258D02*
X160677500Y-92712742D01*
X161722500Y-93187258D02*
X161722500Y-92712742D01*
%TO.C,C7*%
X160652500Y-112604240D02*
X160652500Y-112081736D01*
X162122500Y-112604240D02*
X162122500Y-112081736D01*
%TO.C,R10*%
X139865000Y-99412258D02*
X139865000Y-98937742D01*
X140910000Y-99412258D02*
X140910000Y-98937742D01*
%TO.C,R18*%
X144865000Y-99412258D02*
X144865000Y-98937742D01*
X145910000Y-99412258D02*
X145910000Y-98937742D01*
%TO.C,D1*%
X110427500Y-108722499D02*
X112347500Y-108722499D01*
X112347500Y-108722499D02*
X112347500Y-106037499D01*
X110427500Y-106037499D02*
X110427500Y-108722499D01*
%TO.C,R6*%
X133865000Y-99412258D02*
X133865000Y-98937742D01*
X134910000Y-99412258D02*
X134910000Y-98937742D01*
%TO.C,R4*%
X112865000Y-101537258D02*
X112865000Y-101062742D01*
X113910000Y-101537258D02*
X113910000Y-101062742D01*
%TO.C,R2*%
X113910000Y-108537742D02*
X113910000Y-109012258D01*
X112865000Y-108537742D02*
X112865000Y-109012258D01*
%TO.C,C8*%
X153622500Y-106438748D02*
X153622500Y-106961252D01*
X152152500Y-106438748D02*
X152152500Y-106961252D01*
%TO.C,U2*%
X127887500Y-107190000D02*
X124287500Y-107190000D01*
X127887500Y-107190000D02*
X130087500Y-107190000D01*
X127887500Y-113960000D02*
X125687500Y-113960000D01*
X127887500Y-113960000D02*
X130087500Y-113960000D01*
%TO.C,SW6*%
X131137500Y-77100000D02*
X131137500Y-75600000D01*
X129887500Y-73100000D02*
X125387500Y-73100000D01*
X125387500Y-79600000D02*
X129887500Y-79600000D01*
X124137500Y-75600000D02*
X124137500Y-77100000D01*
%TD*%
M02*
