%TF.GenerationSoftware,KiCad,Pcbnew,7.0.8*%
%TF.CreationDate,2024-02-20T10:29:55+01:00*%
%TF.ProjectId,stopwatchy,73746f70-7761-4746-9368-792e6b696361,rev?*%
%TF.SameCoordinates,Original*%
%TF.FileFunction,Paste,Top*%
%TF.FilePolarity,Positive*%
%FSLAX46Y46*%
G04 Gerber Fmt 4.6, Leading zero omitted, Abs format (unit mm)*
G04 Created by KiCad (PCBNEW 7.0.8) date 2024-02-20 10:29:55*
%MOMM*%
%LPD*%
G01*
G04 APERTURE LIST*
G04 Aperture macros list*
%AMRoundRect*
0 Rectangle with rounded corners*
0 $1 Rounding radius*
0 $2 $3 $4 $5 $6 $7 $8 $9 X,Y pos of 4 corners*
0 Add a 4 corners polygon primitive as box body*
4,1,4,$2,$3,$4,$5,$6,$7,$8,$9,$2,$3,0*
0 Add four circle primitives for the rounded corners*
1,1,$1+$1,$2,$3*
1,1,$1+$1,$4,$5*
1,1,$1+$1,$6,$7*
1,1,$1+$1,$8,$9*
0 Add four rect primitives between the rounded corners*
20,1,$1+$1,$2,$3,$4,$5,0*
20,1,$1+$1,$4,$5,$6,$7,0*
20,1,$1+$1,$6,$7,$8,$9,0*
20,1,$1+$1,$8,$9,$2,$3,0*%
G04 Aperture macros list end*
%ADD10RoundRect,0.225000X-0.225000X-0.250000X0.225000X-0.250000X0.225000X0.250000X-0.225000X0.250000X0*%
%ADD11RoundRect,0.200000X-0.200000X-0.275000X0.200000X-0.275000X0.200000X0.275000X-0.200000X0.275000X0*%
%ADD12RoundRect,0.218750X0.218750X0.381250X-0.218750X0.381250X-0.218750X-0.381250X0.218750X-0.381250X0*%
%ADD13RoundRect,0.242500X0.422500X-0.242500X0.422500X0.242500X-0.422500X0.242500X-0.422500X-0.242500X0*%
%ADD14RoundRect,0.150000X0.150000X-0.825000X0.150000X0.825000X-0.150000X0.825000X-0.150000X-0.825000X0*%
%ADD15RoundRect,0.243750X-0.456250X0.243750X-0.456250X-0.243750X0.456250X-0.243750X0.456250X0.243750X0*%
%ADD16RoundRect,0.200000X0.275000X-0.200000X0.275000X0.200000X-0.275000X0.200000X-0.275000X-0.200000X0*%
%ADD17RoundRect,0.200000X0.200000X0.275000X-0.200000X0.275000X-0.200000X-0.275000X0.200000X-0.275000X0*%
%ADD18RoundRect,0.250000X-0.475000X0.250000X-0.475000X-0.250000X0.475000X-0.250000X0.475000X0.250000X0*%
%ADD19RoundRect,0.250000X0.475000X-0.250000X0.475000X0.250000X-0.475000X0.250000X-0.475000X-0.250000X0*%
%ADD20RoundRect,0.225000X0.250000X-0.225000X0.250000X0.225000X-0.250000X0.225000X-0.250000X-0.225000X0*%
%ADD21RoundRect,0.225000X-0.250000X0.225000X-0.250000X-0.225000X0.250000X-0.225000X0.250000X0.225000X0*%
%ADD22RoundRect,0.243750X0.243750X0.456250X-0.243750X0.456250X-0.243750X-0.456250X0.243750X-0.456250X0*%
%ADD23RoundRect,0.150000X-0.587500X-0.150000X0.587500X-0.150000X0.587500X0.150000X-0.587500X0.150000X0*%
%ADD24RoundRect,0.200000X-0.275000X0.200000X-0.275000X-0.200000X0.275000X-0.200000X0.275000X0.200000X0*%
%ADD25R,4.500000X2.000000*%
%ADD26RoundRect,0.243750X0.456250X-0.243750X0.456250X0.243750X-0.456250X0.243750X-0.456250X-0.243750X0*%
%ADD27RoundRect,0.100000X-0.637500X-0.100000X0.637500X-0.100000X0.637500X0.100000X-0.637500X0.100000X0*%
G04 APERTURE END LIST*
D10*
%TO.C,C11*%
X129375000Y-104500000D03*
X130925000Y-104500000D03*
%TD*%
D11*
%TO.C,R3*%
X155475000Y-103000000D03*
X157125000Y-103000000D03*
%TD*%
%TO.C,R1*%
X116062500Y-107850000D03*
X117712500Y-107850000D03*
%TD*%
D12*
%TO.C,L1*%
X157862500Y-112800000D03*
X155737500Y-112800000D03*
%TD*%
D13*
%TO.C,U1*%
X156157500Y-108425000D03*
X157807500Y-108425000D03*
X156157500Y-107225000D03*
X157807500Y-107225000D03*
D14*
X155077500Y-110300000D03*
X156347500Y-110300000D03*
X157617500Y-110300000D03*
X158887500Y-110300000D03*
X158887500Y-105350000D03*
X157617500Y-105350000D03*
X156347500Y-105350000D03*
X155077500Y-105350000D03*
%TD*%
D15*
%TO.C,D2*%
X111387500Y-102100000D03*
X111387500Y-103975000D03*
%TD*%
D16*
%TO.C,R8*%
X138387500Y-100000000D03*
X138387500Y-98350000D03*
%TD*%
D17*
%TO.C,R21*%
X152949262Y-112999195D03*
X151299262Y-112999195D03*
%TD*%
D16*
%TO.C,R13*%
X123637500Y-86125000D03*
X123637500Y-84475000D03*
%TD*%
D18*
%TO.C,C4*%
X140387500Y-111275002D03*
X140387500Y-113175002D03*
%TD*%
D11*
%TO.C,R9*%
X161050000Y-109400000D03*
X162700000Y-109400000D03*
%TD*%
D19*
%TO.C,C6*%
X163887500Y-113300000D03*
X163887500Y-111400000D03*
%TD*%
D20*
%TO.C,C5*%
X119387500Y-107900000D03*
X119387500Y-106350000D03*
%TD*%
D21*
%TO.C,C3*%
X120887500Y-109800000D03*
X120887500Y-111350000D03*
%TD*%
D18*
%TO.C,C9*%
X150387500Y-105749998D03*
X150387500Y-107649998D03*
%TD*%
D16*
%TO.C,R7*%
X136387500Y-100000000D03*
X136387500Y-98350000D03*
%TD*%
%TO.C,R12*%
X143637500Y-86125000D03*
X143637500Y-84475000D03*
%TD*%
D22*
%TO.C,D3*%
X152852500Y-110500000D03*
X150977500Y-110500000D03*
%TD*%
D23*
%TO.C,Q1*%
X166450000Y-111400000D03*
X166450000Y-113300000D03*
X168325000Y-112350000D03*
%TD*%
D11*
%TO.C,R5*%
X158875000Y-103000000D03*
X160525000Y-103000000D03*
%TD*%
D16*
%TO.C,R16*%
X133700000Y-93625000D03*
X133700000Y-91975000D03*
%TD*%
D24*
%TO.C,R20*%
X161200000Y-88625000D03*
X161200000Y-90275000D03*
%TD*%
D16*
%TO.C,R11*%
X151137500Y-85825000D03*
X151137500Y-84175000D03*
%TD*%
D19*
%TO.C,C1*%
X140387500Y-109575000D03*
X140387500Y-107675000D03*
%TD*%
D16*
%TO.C,R17*%
X143387500Y-100000000D03*
X143387500Y-98350000D03*
%TD*%
%TO.C,R15*%
X133637500Y-78625000D03*
X133637500Y-76975000D03*
%TD*%
D10*
%TO.C,C12*%
X120612500Y-104500000D03*
X122162500Y-104500000D03*
%TD*%
D25*
%TO.C,Y1*%
X120637500Y-101000000D03*
X129137500Y-101000000D03*
%TD*%
D18*
%TO.C,C10*%
X147887500Y-105749998D03*
X147887500Y-107649998D03*
%TD*%
D21*
%TO.C,C2*%
X134887500Y-109800000D03*
X134887500Y-111350000D03*
%TD*%
D16*
%TO.C,R19*%
X161200000Y-93775000D03*
X161200000Y-92125000D03*
%TD*%
D19*
%TO.C,C7*%
X161387500Y-113292988D03*
X161387500Y-111392988D03*
%TD*%
D16*
%TO.C,R10*%
X140387500Y-100000000D03*
X140387500Y-98350000D03*
%TD*%
%TO.C,R18*%
X145387500Y-100000000D03*
X145387500Y-98350000D03*
%TD*%
D26*
%TO.C,D1*%
X111387500Y-107974999D03*
X111387500Y-106099999D03*
%TD*%
D16*
%TO.C,R6*%
X134387500Y-100000000D03*
X134387500Y-98350000D03*
%TD*%
%TO.C,R4*%
X113387500Y-102125000D03*
X113387500Y-100475000D03*
%TD*%
D24*
%TO.C,R2*%
X113387500Y-107950000D03*
X113387500Y-109600000D03*
%TD*%
D18*
%TO.C,C8*%
X152887500Y-105750000D03*
X152887500Y-107650000D03*
%TD*%
D27*
%TO.C,U2*%
X125025000Y-107650000D03*
X125025000Y-108300000D03*
X125025000Y-108950000D03*
X125025000Y-109600000D03*
X125025000Y-110250000D03*
X125025000Y-110900000D03*
X125025000Y-111550000D03*
X125025000Y-112200000D03*
X125025000Y-112850000D03*
X125025000Y-113500000D03*
X130750000Y-113500000D03*
X130750000Y-112850000D03*
X130750000Y-112200000D03*
X130750000Y-111550000D03*
X130750000Y-110900000D03*
X130750000Y-110250000D03*
X130750000Y-109600000D03*
X130750000Y-108950000D03*
X130750000Y-108300000D03*
X130750000Y-107650000D03*
%TD*%
M02*
