M48
; DRILL file {KiCad 8.0.0} date 2024-03-23T15:17:20+0100
; FORMAT={-:-/ absolute / inch / decimal}
; #@! TF.CreationDate,2024-03-23T15:17:20+01:00
; #@! TF.GenerationSoftware,Kicad,Pcbnew,8.0.0
; #@! TF.FileFunction,Plated,1,2,PTH
FMAT,2
INCH
; #@! TA.AperFunction,Plated,PTH,ViaDrill
T1C0.0118
; #@! TA.AperFunction,Plated,PTH,ViaDrill
T2C0.0157
; #@! TA.AperFunction,Plated,PTH,ViaDrill
T3C0.0197
; #@! TA.AperFunction,Plated,PTH,ComponentDrill
T4C0.0354
; #@! TA.AperFunction,Plated,PTH,ComponentDrill
T5C0.0394
; #@! TA.AperFunction,Plated,PTH,ComponentDrill
T6C0.0433
; #@! TA.AperFunction,Plated,PTH,ComponentDrill
T7C0.0512
; #@! TA.AperFunction,Plated,PTH,ComponentDrill
T8C0.0591
%
G90
G05
T1
X4.4567Y-4.1772
X4.8425Y-4.3701
X4.8465Y-4.437
X4.9764Y-4.4134
X5.0039Y-4.437
X5.0118Y-4.2362
X5.0394Y-4.378
X5.0709Y-4.4685
X5.2205Y-4.3662
X5.2559Y-4.374
X5.2598Y-4.4193
X5.2908Y-3.9961
X5.2953Y-4.4488
X5.3346Y-4.4783
X5.3622Y-4.3563
X5.3696Y-4.0827
X5.5276Y-3.7992
X5.5709Y-4.185
X5.5906Y-1.9921
X5.6024Y-3.9961
X5.6024Y-4.0787
X5.7087Y-2.1752
X5.7087Y-2.3327
X5.748Y-2.0965
X5.7874Y-2.0276
X5.7924Y-2.3324
X5.8543Y-1.9921
X5.8759Y-2.3316
X6.2992Y-4.3238
X6.4134Y-2.4094
X6.6024Y-2.3858
T2
X4.2362Y-3.2756
X4.2362Y-3.3858
X4.2362Y-3.4882
X4.2362Y-3.5984
X4.2362Y-3.7008
X4.2362Y-3.8031
X4.2717Y-1.4843
X4.2717Y-1.5945
X4.2717Y-1.6969
X4.2717Y-1.7992
X4.2717Y-1.9094
X4.2717Y-2.0118
X4.2717Y-2.1142
X4.2717Y-2.2244
X4.2717Y-2.3268
X4.2717Y-2.4488
X4.2717Y-2.5591
X4.2717Y-2.6614
X4.2717Y-2.7756
X4.2756Y-2.8819
X4.2756Y-2.9921
X4.2756Y-3.0945
X4.2756Y-4.126
X4.2913Y-4.626
X4.4055Y-1.4843
X4.4055Y-1.5945
X4.4055Y-1.6969
X4.4055Y-1.7992
X4.4055Y-1.9094
X4.4055Y-2.0118
X4.4055Y-2.1142
X4.4055Y-2.2244
X4.4055Y-2.3268
X4.4055Y-2.4488
X4.4055Y-2.5591
X4.4055Y-2.6614
X4.4094Y-2.7677
X4.4094Y-2.8819
X4.4094Y-2.9921
X4.4094Y-3.0945
X4.4094Y-4.626
X4.4567Y-4.1339
X4.5236Y-4.2126
X4.5276Y-3.9557
X4.5276Y-4.1417
X4.5276Y-4.315
X4.5276Y-4.3937
X4.5276Y-4.4803
X4.5276Y-4.626
X4.5354Y-2.8819
X4.5354Y-2.9921
X4.5354Y-3.0945
X4.5433Y-3.811
X4.5433Y-3.8898
X4.5433Y-4.0236
X4.5472Y-4.0945
X4.5591Y-2.7559
X4.6102Y-4.3937
X4.6142Y-4.4803
X4.6299Y-2.6693
X4.6457Y-2.9134
X4.6457Y-4.626
X4.6496Y-4.3071
X4.685Y-3.811
X4.6949Y-4.1437
X4.7008Y-3.0236
X4.7087Y-2.9134
X4.7087Y-4.3898
X4.7559Y-2.6693
X4.7638Y-4.4803
X4.7638Y-4.626
X4.7717Y-2.8346
X4.7953Y-3.811
X4.8071Y-4.4055
X4.8386Y-4.4724
X4.8524Y-4.1142
X4.8661Y-3.2559
X4.8819Y-4.626
X4.8976Y-2.6693
X4.8976Y-3.811
X4.9168Y-3.9764
X5.0Y-4.626
X5.0118Y-4.2008
X5.0118Y-4.311
X5.0236Y-2.6693
X5.0236Y-3.2008
X5.0236Y-3.3465
X5.0251Y-3.5965
X5.0276Y-3.7559
X5.0709Y-4.4331
X5.0748Y-4.3701
X5.1181Y-4.626
X5.1299Y-3.3465
X5.1339Y-3.7835
X5.1496Y-3.2008
X5.1654Y-2.6693
X5.1929Y-3.874
X5.2283Y-4.1417
X5.2362Y-4.626
X5.2756Y-3.5236
X5.2913Y-2.6693
X5.2913Y-2.8425
X5.3071Y-3.7874
X5.315Y-3.6102
X5.315Y-3.6575
X5.3307Y-4.0433
X5.3543Y-4.626
X5.3937Y-3.5236
X5.3937Y-3.7087
X5.4094Y-4.0354
X5.4134Y-4.2047
X5.4134Y-4.2717
X5.4449Y-2.6693
X5.4449Y-2.8425
X5.4724Y-4.626
X5.4882Y-3.7992
X5.4882Y-4.0354
X5.4882Y-4.1181
X5.5Y-2.1811
X5.5Y-2.2874
X5.5Y-2.4055
X5.5039Y-2.0906
X5.5157Y-3.5236
X5.5157Y-3.6378
X5.5197Y-4.5433
X5.5827Y-2.0315
X5.5866Y-2.6063
X5.5866Y-2.7402
X5.5866Y-2.8976
X5.5866Y-3.0079
X5.5866Y-3.1102
X5.5866Y-4.2441
X5.5906Y-4.5433
X5.5906Y-4.626
X5.5984Y-2.3346
X5.6024Y-4.122
X5.6039Y-4.0372
X5.6611Y-1.9295
X5.6654Y-2.1772
X5.6654Y-2.3071
X5.7047Y-2.0984
X5.7087Y-4.626
X5.7362Y-1.8543
X5.7441Y-2.0276
X5.7441Y-4.5
X5.7501Y-2.3504
X5.8268Y-4.5276
X5.8268Y-4.626
X5.8342Y-2.311
X5.8425Y-3.378
X5.8425Y-3.5157
X5.8425Y-3.622
X5.8504Y-2.5079
X5.8504Y-2.6142
X5.8504Y-2.7323
X5.8504Y-2.8976
X5.8504Y-3.0079
X5.8504Y-3.1102
X5.8504Y-3.8031
X5.8504Y-3.8976
X5.8504Y-3.9843
X5.8504Y-4.0787
X5.8858Y-1.8268
X5.8858Y-1.9055
X5.8976Y-3.3071
X5.9055Y-4.4488
X5.9173Y-2.3504
X5.9311Y-2.4216
X5.937Y-2.2638
X5.9409Y-1.9724
X5.9409Y-2.0394
X5.9409Y-2.1142
X5.9409Y-2.1811
X5.9449Y-4.5276
X5.9449Y-4.626
X5.9764Y-2.8976
X5.9764Y-3.0079
X5.9764Y-3.1102
X5.9803Y-3.626
X5.9921Y-1.8268
X5.9921Y-1.9055
X6.0Y-3.8898
X6.0079Y-3.5118
X6.0394Y-1.9724
X6.0394Y-2.0394
X6.0394Y-2.1102
X6.0394Y-2.1811
X6.063Y-4.626
X6.0945Y-3.8898
X6.1024Y-2.8976
X6.1024Y-3.0079
X6.1024Y-3.1102
X6.1063Y-2.7992
X6.1102Y-1.8268
X6.1102Y-1.9055
X6.1102Y-3.5118
X6.1102Y-3.6299
X6.1102Y-3.7283
X6.1535Y-2.7205
X6.1811Y-3.6299
X6.1811Y-3.7362
X6.1811Y-3.8898
X6.1811Y-4.626
X6.1929Y-1.4094
X6.1929Y-1.5197
X6.2283Y-2.8976
X6.2283Y-3.0079
X6.2283Y-3.7283
X6.2559Y-3.4488
X6.2559Y-3.5197
X6.2559Y-3.5906
X6.2559Y-3.6614
X6.2675Y-2.6804
X6.2756Y-3.8898
X6.2795Y-1.4094
X6.2795Y-1.5197
X6.3268Y-4.0984
X6.3386Y-2.8976
X6.3386Y-3.0079
X6.3386Y-3.1102
X6.3661Y-1.4094
X6.3661Y-1.5197
X6.3812Y-2.6804
X6.3976Y-3.815
X6.4252Y-3.4449
X6.4252Y-3.5157
X6.4252Y-3.5945
X6.4252Y-3.6614
X6.4252Y-4.2205
X6.4291Y-3.7441
X6.4409Y-2.9449
X6.4528Y-1.4094
X6.4528Y-1.5197
X6.4764Y-2.6811
X6.4882Y-3.0394
X6.4882Y-3.1417
X6.4882Y-3.2598
X6.5039Y-3.3543
X6.5118Y-4.2205
X6.5394Y-1.4094
X6.5394Y-1.5197
X6.5433Y-2.8425
X6.5551Y-4.626
X6.5748Y-2.6811
X6.5984Y-1.878
X6.5984Y-2.9055
X6.5984Y-4.2205
X6.6063Y-3.8189
X6.6181Y-1.7165
X6.6181Y-2.0
X6.6181Y-2.2874
X6.626Y-1.4094
X6.626Y-1.5197
X6.685Y-4.2205
X6.7047Y-3.815
X6.7323Y-4.3622
X6.7323Y-4.4606
X6.7598Y-2.4685
X6.7598Y-2.5787
X6.7598Y-2.6811
X6.7598Y-2.7874
X6.7638Y-1.9409
X6.7638Y-2.0512
X6.7638Y-2.1535
X6.7638Y-2.252
X6.7638Y-2.3622
X6.7677Y-1.626
X6.7677Y-1.7244
X6.7677Y-1.8346
X6.7717Y-1.4094
X6.7717Y-1.5197
T3
X6.7323Y-4.4094
T4
X6.7323Y-2.9921
X6.7323Y-3.0709
X6.7323Y-3.1496
T5
X6.5447Y-3.4624
X6.5447Y-3.5624
X6.5447Y-3.6624
X6.6447Y-3.4624
X6.6447Y-3.5624
X6.6447Y-3.6624
T6
X4.5034Y-3.2126
X4.5034Y-3.3898
X4.7594Y-3.2126
X4.7594Y-3.3898
X4.8971Y-2.9173
X4.8971Y-3.0945
X4.8971Y-3.5079
X4.8971Y-3.685
X5.1531Y-2.9173
X5.1531Y-3.0945
X5.1531Y-3.5079
X5.1531Y-3.685
X5.2908Y-3.2126
X5.2908Y-3.3898
X5.5468Y-3.2126
X5.5468Y-3.3898
X6.0586Y-3.2126
X6.0586Y-3.3898
X6.3145Y-3.2126
X6.3145Y-3.3898
T7
X4.4472Y-3.6614
X4.6472Y-3.6614
T8
X6.7323Y-2.9094
X6.7323Y-3.2323
M30
