M48
; DRILL file {KiCad 7.0.8} date Tue 20 Feb 2024 10:29:56 AM CET
; FORMAT={-:-/ absolute / metric / decimal}
; #@! TF.CreationDate,2024-02-20T10:29:56+01:00
; #@! TF.GenerationSoftware,Kicad,Pcbnew,7.0.8
; #@! TF.FileFunction,MixedPlating,1,2
FMAT,2
METRIC
; #@! TA.AperFunction,Plated,PTH,ViaDrill
T1C0.300
; #@! TA.AperFunction,Plated,PTH,ViaDrill
T2C0.400
; #@! TA.AperFunction,Plated,PTH,ViaDrill
T3C0.500
; #@! TA.AperFunction,Plated,PTH,ComponentDrill
T4C0.900
; #@! TA.AperFunction,Plated,PTH,ComponentDrill
T5C1.000
; #@! TA.AperFunction,Plated,PTH,ComponentDrill
T6C1.100
; #@! TA.AperFunction,Plated,PTH,ComponentDrill
T7C1.300
; #@! TA.AperFunction,Plated,PTH,ComponentDrill
T8C1.500
; #@! TA.AperFunction,NonPlated,NPTH,ComponentDrill
T9C1.800
%
G90
G05
T1
X113.2Y-106.1
X123.0Y-111.0
X123.1Y-112.7
X126.4Y-112.1
X127.1Y-112.7
X127.3Y-107.6
X128.0Y-111.2
X128.0Y-115.749
X128.8Y-113.5
X132.6Y-110.9
X133.5Y-111.1
X133.6Y-112.25
X134.387Y-101.5
X134.5Y-113.0
X135.5Y-113.75
X136.2Y-110.65
X136.387Y-103.7
X140.4Y-96.5
X141.5Y-106.3
X142.0Y-50.6
X142.3Y-101.5
X142.3Y-103.6
X145.0Y-55.25
X145.0Y-59.25
X146.0Y-53.25
X147.0Y-51.5
X147.126Y-59.243
X148.7Y-50.6
X149.248Y-59.222
X160.0Y-109.825
X162.9Y-61.2
X167.7Y-60.6
T2
X107.6Y-83.2
X107.6Y-86.0
X107.6Y-88.6
X107.6Y-91.4
X107.6Y-94.0
X107.6Y-96.6
X108.5Y-37.7
X108.5Y-40.5
X108.5Y-43.1
X108.5Y-45.7
X108.5Y-48.5
X108.5Y-51.1
X108.5Y-53.7
X108.5Y-56.5
X108.5Y-59.1
X108.5Y-62.2
X108.5Y-65.0
X108.5Y-67.6
X108.5Y-70.5
X108.6Y-73.2
X108.6Y-76.0
X108.6Y-78.6
X108.6Y-104.8
X109.0Y-117.5
X111.9Y-37.7
X111.9Y-40.5
X111.9Y-43.1
X111.9Y-45.7
X111.9Y-48.5
X111.9Y-51.1
X111.9Y-53.7
X111.9Y-56.5
X111.9Y-59.1
X111.9Y-62.2
X111.9Y-65.0
X111.9Y-67.6
X112.0Y-70.3
X112.0Y-73.2
X112.0Y-76.0
X112.0Y-78.6
X112.0Y-117.5
X113.2Y-105.0
X114.9Y-107.0
X115.0Y-100.475
X115.0Y-105.2
X115.0Y-109.6
X115.0Y-111.6
X115.0Y-113.8
X115.0Y-117.5
X115.2Y-73.2
X115.2Y-76.0
X115.2Y-78.6
X115.4Y-96.8
X115.4Y-98.8
X115.4Y-102.2
X115.5Y-104.0
X115.8Y-70.0
X117.1Y-111.6
X117.2Y-113.8
X117.6Y-67.8
X118.0Y-74.0
X118.0Y-117.5
X118.1Y-109.4
X119.0Y-96.8
X119.25Y-105.25
X119.4Y-76.8
X119.6Y-74.0
X119.6Y-111.5
X120.8Y-67.8
X121.0Y-113.8
X121.0Y-117.5
X121.2Y-72.0
X121.8Y-96.8
X122.1Y-111.9
X122.9Y-113.6
X123.25Y-104.5
X123.6Y-82.7
X124.0Y-117.5
X124.4Y-67.8
X124.4Y-96.8
X124.887Y-101.0
X127.0Y-117.5
X127.1Y-115.9
X127.3Y-106.7
X127.3Y-109.5
X127.6Y-67.8
X127.6Y-81.3
X127.6Y-85.0
X127.637Y-91.35
X127.7Y-95.4
X128.8Y-112.6
X128.9Y-111.0
X130.0Y-117.5
X130.3Y-85.0
X130.4Y-96.1
X130.8Y-81.3
X131.2Y-67.8
X131.9Y-98.4
X132.8Y-105.2
X133.0Y-117.5
X134.0Y-89.5
X134.4Y-67.8
X134.4Y-72.2
X134.8Y-96.2
X135.0Y-91.7
X135.0Y-92.9
X135.4Y-102.7
X136.0Y-117.5
X137.0Y-89.5
X137.0Y-94.2
X137.4Y-102.5
X137.5Y-106.8
X137.5Y-108.5
X138.3Y-67.8
X138.3Y-72.2
X139.0Y-117.5
X139.4Y-96.5
X139.4Y-102.5
X139.4Y-104.6
X139.7Y-55.4
X139.7Y-58.1
X139.7Y-61.1
X139.8Y-53.1
X140.1Y-89.5
X140.1Y-92.4
X140.2Y-115.4
X141.8Y-51.6
X141.9Y-66.2
X141.9Y-69.6
X141.9Y-73.6
X141.9Y-76.4
X141.9Y-79.0
X141.9Y-107.8
X142.0Y-115.4
X142.0Y-117.5
X142.2Y-59.3
X142.3Y-104.7
X142.34Y-102.545
X143.791Y-49.009
X143.9Y-55.3
X143.9Y-58.6
X144.9Y-53.3
X145.0Y-117.5
X145.7Y-47.1
X145.9Y-51.5
X145.9Y-114.3
X146.054Y-59.7
X148.0Y-115.0
X148.0Y-117.5
X148.19Y-58.7
X148.4Y-85.8
X148.4Y-89.3
X148.4Y-92.0
X148.6Y-63.7
X148.6Y-66.4
X148.6Y-69.4
X148.6Y-73.6
X148.6Y-76.4
X148.6Y-79.0
X148.6Y-96.6
X148.6Y-99.0
X148.6Y-101.2
X148.6Y-103.6
X149.5Y-46.4
X149.5Y-48.4
X149.8Y-84.0
X150.0Y-113.0
X150.3Y-59.7
X150.651Y-61.508
X150.8Y-57.5
X150.9Y-50.1
X150.9Y-51.8
X150.9Y-53.7
X150.9Y-55.4
X151.0Y-115.0
X151.0Y-117.5
X151.8Y-73.6
X151.8Y-76.4
X151.8Y-79.0
X151.9Y-92.1
X152.2Y-46.4
X152.2Y-48.4
X152.4Y-98.8
X152.6Y-89.2
X153.4Y-50.1
X153.4Y-51.8
X153.4Y-53.6
X153.4Y-55.4
X154.0Y-117.5
X154.8Y-98.8
X155.0Y-73.6
X155.0Y-76.4
X155.0Y-79.0
X155.1Y-71.1
X155.2Y-46.4
X155.2Y-48.4
X155.2Y-89.2
X155.2Y-92.2
X155.2Y-94.7
X156.3Y-69.1
X157.0Y-92.2
X157.0Y-94.9
X157.0Y-98.8
X157.0Y-117.5
X157.3Y-35.8
X157.3Y-38.6
X158.2Y-73.6
X158.2Y-76.4
X158.2Y-94.7
X158.9Y-87.6
X158.9Y-89.4
X158.9Y-91.2
X158.9Y-93.0
X159.195Y-68.081
X159.4Y-98.8
X159.5Y-35.8
X159.5Y-38.6
X160.7Y-104.1
X161.0Y-73.6
X161.0Y-76.4
X161.0Y-79.0
X161.7Y-35.8
X161.7Y-38.6
X162.083Y-68.081
X162.5Y-96.9
X163.2Y-87.5
X163.2Y-89.3
X163.2Y-91.3
X163.2Y-93.0
X163.2Y-107.2
X163.3Y-95.1
X163.6Y-74.8
X163.9Y-35.8
X163.9Y-38.6
X164.5Y-68.1
X164.8Y-77.2
X164.8Y-79.8
X164.8Y-82.8
X165.2Y-85.2
X165.4Y-107.2
X166.1Y-35.8
X166.1Y-38.6
X166.2Y-72.2
X166.5Y-117.5
X167.0Y-68.1
X167.6Y-47.7
X167.6Y-73.8
X167.6Y-107.2
X167.8Y-97.0
X168.1Y-43.6
X168.1Y-50.8
X168.1Y-58.1
X168.3Y-35.8
X168.3Y-38.6
X169.8Y-107.2
X170.3Y-96.9
X171.0Y-110.8
X171.0Y-113.3
X171.7Y-62.7
X171.7Y-65.5
X171.7Y-68.1
X171.7Y-70.8
X171.8Y-49.3
X171.8Y-52.1
X171.8Y-54.7
X171.8Y-57.2
X171.8Y-60.0
X171.9Y-41.3
X171.9Y-43.8
X171.9Y-46.6
X172.0Y-35.8
X172.0Y-38.6
T3
X171.0Y-112.0
T4
X171.0Y-76.0
X171.0Y-78.0
X171.0Y-80.0
T5
X166.235Y-87.945
X166.235Y-90.485
X166.235Y-93.025
X168.775Y-87.945
X168.775Y-90.485
X168.775Y-93.025
T6
X114.387Y-81.6
X114.387Y-86.1
X120.887Y-81.6
X120.887Y-86.1
X124.387Y-74.1
X124.387Y-78.6
X124.387Y-89.1
X124.387Y-93.6
X130.887Y-74.1
X130.887Y-78.6
X130.887Y-89.1
X130.887Y-93.6
X134.387Y-81.6
X134.387Y-86.1
X140.887Y-81.6
X140.887Y-86.1
X153.887Y-81.6
X153.887Y-86.1
X160.387Y-81.6
X160.387Y-86.1
T7
X112.96Y-93.0
X118.04Y-93.0
T8
X171.0Y-73.9
X171.0Y-82.1
T9
X161.838Y-116.81
T0
M30
