%TF.GenerationSoftware,KiCad,Pcbnew,7.0.8*%
%TF.CreationDate,2024-02-20T10:29:54+01:00*%
%TF.ProjectId,stopwatchy,73746f70-7761-4746-9368-792e6b696361,rev?*%
%TF.SameCoordinates,Original*%
%TF.FileFunction,Copper,L2,Bot*%
%TF.FilePolarity,Positive*%
%FSLAX46Y46*%
G04 Gerber Fmt 4.6, Leading zero omitted, Abs format (unit mm)*
G04 Created by KiCad (PCBNEW 7.0.8) date 2024-02-20 10:29:54*
%MOMM*%
%LPD*%
G01*
G04 APERTURE LIST*
G04 Aperture macros list*
%AMRoundRect*
0 Rectangle with rounded corners*
0 $1 Rounding radius*
0 $2 $3 $4 $5 $6 $7 $8 $9 X,Y pos of 4 corners*
0 Add a 4 corners polygon primitive as box body*
4,1,4,$2,$3,$4,$5,$6,$7,$8,$9,$2,$3,0*
0 Add four circle primitives for the rounded corners*
1,1,$1+$1,$2,$3*
1,1,$1+$1,$4,$5*
1,1,$1+$1,$6,$7*
1,1,$1+$1,$8,$9*
0 Add four rect primitives between the rounded corners*
20,1,$1+$1,$2,$3,$4,$5,0*
20,1,$1+$1,$4,$5,$6,$7,0*
20,1,$1+$1,$6,$7,$8,$9,0*
20,1,$1+$1,$8,$9,$2,$3,0*%
G04 Aperture macros list end*
%TA.AperFunction,ComponentPad*%
%ADD10C,2.000000*%
%TD*%
%TA.AperFunction,ComponentPad*%
%ADD11R,1.700000X1.700000*%
%TD*%
%TA.AperFunction,ComponentPad*%
%ADD12O,1.700000X1.700000*%
%TD*%
%TA.AperFunction,ComponentPad*%
%ADD13RoundRect,0.650000X-0.650000X-0.650000X0.650000X-0.650000X0.650000X0.650000X-0.650000X0.650000X0*%
%TD*%
%TA.AperFunction,ComponentPad*%
%ADD14C,2.600000*%
%TD*%
%TA.AperFunction,ComponentPad*%
%ADD15O,3.500000X2.200000*%
%TD*%
%TA.AperFunction,ComponentPad*%
%ADD16R,2.500000X1.500000*%
%TD*%
%TA.AperFunction,ComponentPad*%
%ADD17O,2.500000X1.500000*%
%TD*%
%TA.AperFunction,SMDPad,CuDef*%
%ADD18RoundRect,0.200000X-0.200000X-0.275000X0.200000X-0.275000X0.200000X0.275000X-0.200000X0.275000X0*%
%TD*%
%TA.AperFunction,SMDPad,CuDef*%
%ADD19RoundRect,0.200000X0.200000X0.275000X-0.200000X0.275000X-0.200000X-0.275000X0.200000X-0.275000X0*%
%TD*%
%TA.AperFunction,SMDPad,CuDef*%
%ADD20R,4.000000X0.700000*%
%TD*%
%TA.AperFunction,SMDPad,CuDef*%
%ADD21R,7.450000X6.100000*%
%TD*%
%TA.AperFunction,ViaPad*%
%ADD22C,1.000000*%
%TD*%
%TA.AperFunction,ViaPad*%
%ADD23C,0.600000*%
%TD*%
%TA.AperFunction,ViaPad*%
%ADD24C,0.800000*%
%TD*%
%TA.AperFunction,Conductor*%
%ADD25C,0.300000*%
%TD*%
%TA.AperFunction,Conductor*%
%ADD26C,1.000000*%
%TD*%
%TA.AperFunction,Conductor*%
%ADD27C,0.500000*%
%TD*%
%TA.AperFunction,Conductor*%
%ADD28C,0.250000*%
%TD*%
G04 APERTURE END LIST*
D10*
%TO.P,SW5,1,1*%
%TO.N,BTN_1*%
X120887500Y-86100000D03*
X114387500Y-86100000D03*
%TO.P,SW5,2,2*%
%TO.N,+3V3*%
X120887500Y-81600000D03*
X114387500Y-81600000D03*
%TD*%
%TO.P,SW3,1,1*%
%TO.N,+3V3*%
X153887500Y-81600000D03*
X160387500Y-81600000D03*
%TO.P,SW3,2,2*%
%TO.N,Net-(U2-PB8)*%
X153887500Y-86100000D03*
X160387500Y-86100000D03*
%TD*%
%TO.P,SW7,1,1*%
%TO.N,BTN_4*%
X130887500Y-93600000D03*
X124387500Y-93600000D03*
%TO.P,SW7,2,2*%
%TO.N,+3V3*%
X130887500Y-89100000D03*
X124387500Y-89100000D03*
%TD*%
D11*
%TO.P,J4,1,Pin_1*%
%TO.N,+3V3*%
X168775001Y-93025000D03*
D12*
%TO.P,J4,2,Pin_2*%
%TO.N,SWDIO*%
X166235001Y-93025000D03*
%TO.P,J4,3,Pin_3*%
%TO.N,RST*%
X168775001Y-90485000D03*
%TO.P,J4,4,Pin_4*%
%TO.N,SWCLK*%
X166235001Y-90485000D03*
%TO.P,J4,5,Pin_5*%
%TO.N,GND*%
X168775001Y-87945000D03*
%TO.P,J4,6*%
%TO.N,N/C*%
X166235001Y-87945000D03*
%TD*%
D10*
%TO.P,SW4,1,1*%
%TO.N,BTN_3*%
X140887500Y-86100000D03*
X134387500Y-86100000D03*
%TO.P,SW4,2,2*%
%TO.N,+3V3*%
X140887500Y-81600000D03*
X134387500Y-81600000D03*
%TD*%
D13*
%TO.P,J2,1,Pin_1*%
%TO.N,GND*%
X112960000Y-93000000D03*
D14*
%TO.P,J2,2,Pin_2*%
%TO.N,RST*%
X118040000Y-93000000D03*
%TD*%
D15*
%TO.P,SW2,*%
%TO.N,*%
X171000000Y-82100000D03*
X171000000Y-73900000D03*
D16*
%TO.P,SW2,1,A*%
%TO.N,ADC_IN0*%
X171000000Y-80000000D03*
D17*
%TO.P,SW2,2,B*%
%TO.N,Net-(SW2-B)*%
X171000000Y-78000000D03*
%TO.P,SW2,3*%
%TO.N,N/C*%
X171000000Y-76000000D03*
%TD*%
D10*
%TO.P,SW6,1,1*%
%TO.N,BTN_2*%
X130887500Y-78600000D03*
X124387500Y-78600000D03*
%TO.P,SW6,2,2*%
%TO.N,+3V3*%
X130887500Y-74100000D03*
X124387500Y-74100000D03*
%TD*%
D18*
%TO.P,R26,1*%
%TO.N,~{D{slash}C}*%
X157175000Y-51000000D03*
%TO.P,R26,2*%
%TO.N,Net-(U3-D{slash}C)*%
X158825000Y-51000000D03*
%TD*%
D19*
%TO.P,R29,1*%
%TO.N,Net-(U3-LED-K2)*%
X158825000Y-44000000D03*
%TO.P,R29,2*%
%TO.N,GND*%
X157175000Y-44000000D03*
%TD*%
D18*
%TO.P,R22,1*%
%TO.N,SPI1_MOSI*%
X157175000Y-56250000D03*
%TO.P,R22,2*%
%TO.N,Net-(U3-MOSI)*%
X158825000Y-56250000D03*
%TD*%
%TO.P,R25,1*%
%TO.N,SPI1_NSS*%
X157175000Y-49250000D03*
%TO.P,R25,2*%
%TO.N,Net-(U3-{slash}CS)*%
X158825000Y-49250000D03*
%TD*%
%TO.P,R24,1*%
%TO.N,SPI1_SCK*%
X157175000Y-52750000D03*
%TO.P,R24,2*%
%TO.N,Net-(U3-SCLK)*%
X158825000Y-52750000D03*
%TD*%
D19*
%TO.P,R28,1*%
%TO.N,Net-(U3-LED-K3)*%
X158825000Y-42250000D03*
%TO.P,R28,2*%
%TO.N,GND*%
X157175000Y-42250000D03*
%TD*%
D18*
%TO.P,R23,1*%
%TO.N,SPI1_MISO*%
X157175000Y-54500000D03*
%TO.P,R23,2*%
%TO.N,Net-(U3-MISO)*%
X158825000Y-54500000D03*
%TD*%
D19*
%TO.P,R14,1*%
%TO.N,Net-(U3-LED-K4)*%
X158825000Y-40500000D03*
%TO.P,R14,2*%
%TO.N,GND*%
X157175000Y-40500000D03*
%TD*%
D20*
%TO.P,U3,1,GND*%
%TO.N,GND*%
X165100000Y-60500000D03*
%TO.P,U3,2,NC*%
%TO.N,unconnected-(U3-NC-Pad2)*%
X165100000Y-59500000D03*
%TO.P,U3,3,NC*%
%TO.N,unconnected-(U3-NC-Pad3)*%
X165100000Y-58500000D03*
%TO.P,U3,4,NC*%
%TO.N,unconnected-(U3-NC-Pad4)*%
X165100000Y-57500000D03*
%TO.P,U3,5,NC*%
%TO.N,unconnected-(U3-NC-Pad5)*%
X165100000Y-56500000D03*
%TO.P,U3,6,VDD*%
%TO.N,+3V3*%
X165100000Y-55500000D03*
%TO.P,U3,7,IOVDD*%
X165100000Y-54500000D03*
%TO.P,U3,8,MOSI*%
%TO.N,Net-(U3-MOSI)*%
X165100000Y-53500000D03*
%TO.P,U3,9,MISO*%
%TO.N,Net-(U3-MISO)*%
X165100000Y-52500000D03*
%TO.P,U3,10,SCLK*%
%TO.N,Net-(U3-SCLK)*%
X165100000Y-51500000D03*
%TO.P,U3,11,D/C*%
%TO.N,Net-(U3-D{slash}C)*%
X165100000Y-50500000D03*
%TO.P,U3,12,/CS*%
%TO.N,Net-(U3-{slash}CS)*%
X165100000Y-49500000D03*
%TO.P,U3,13,/RES*%
%TO.N,Net-(U3-{slash}RES)*%
X165100000Y-48500000D03*
%TO.P,U3,14,IM0*%
%TO.N,GND*%
X165100000Y-47500000D03*
%TO.P,U3,15,IM1*%
%TO.N,+3V3*%
X165100000Y-46500000D03*
%TO.P,U3,16,LED-K1*%
%TO.N,Net-(U3-LED-K1)*%
X165100000Y-45500000D03*
%TO.P,U3,17,LED-K2*%
%TO.N,Net-(U3-LED-K2)*%
X165100000Y-44500000D03*
%TO.P,U3,18,LED-K3*%
%TO.N,Net-(U3-LED-K3)*%
X165100000Y-43500000D03*
%TO.P,U3,19,LED-K4*%
%TO.N,Net-(U3-LED-K4)*%
X165100000Y-42500000D03*
%TO.P,U3,20,LED-A*%
%TO.N,+3V3*%
X165100000Y-41500000D03*
%TD*%
D18*
%TO.P,R27,1*%
%TO.N,~{RES}*%
X157175000Y-47500000D03*
%TO.P,R27,2*%
%TO.N,Net-(U3-{slash}RES)*%
X158825000Y-47500000D03*
%TD*%
D19*
%TO.P,R30,1*%
%TO.N,Net-(U3-LED-K1)*%
X158825000Y-45750000D03*
%TO.P,R30,2*%
%TO.N,GND*%
X157175000Y-45750000D03*
%TD*%
D21*
%TO.P,BT1,1,+*%
%TO.N,ADC_IN0*%
X166262500Y-111850000D03*
%TO.P,BT1,2,-*%
%TO.N,GND*%
X166262500Y-100850000D03*
%TO.P,BT1,3*%
%TO.N,N/C*%
X110512500Y-111850000D03*
X110512500Y-100850000D03*
%TD*%
D22*
%TO.N,ADC_IN0*%
X171000000Y-112000000D03*
D23*
X128000000Y-111200000D03*
X128000000Y-115749500D03*
D24*
%TO.N,GND*%
X108500000Y-43100000D03*
X107600000Y-83200000D03*
X155200000Y-89200000D03*
D23*
X127100000Y-112700000D03*
D24*
X153400000Y-51800000D03*
X148600000Y-69400000D03*
X142000000Y-115400000D03*
X143790812Y-49009188D03*
X130000000Y-117500000D03*
X167800000Y-97000000D03*
X134000000Y-89500000D03*
X167600000Y-107200000D03*
X161000000Y-76400000D03*
X139400000Y-102500000D03*
X140100000Y-92400000D03*
X123600000Y-82700000D03*
X121200000Y-72000000D03*
X130400000Y-96100000D03*
X164800000Y-77200000D03*
X168100000Y-58100000D03*
X158900000Y-91200000D03*
X119250000Y-105250000D03*
X171000000Y-110800000D03*
X115000000Y-109600000D03*
X164500000Y-68100000D03*
X157000000Y-117500000D03*
X139800000Y-53100000D03*
X140200000Y-115400000D03*
X142300000Y-104700000D03*
X130800000Y-81300000D03*
X148400000Y-89300000D03*
X148600000Y-66400000D03*
X141800000Y-51600000D03*
X108500000Y-67600000D03*
X158900000Y-89400000D03*
X142000000Y-117500000D03*
X107600000Y-96600000D03*
X143900000Y-55300000D03*
X130300000Y-85000000D03*
X157300000Y-38600000D03*
X161700000Y-38600000D03*
X168300000Y-38600000D03*
X121800000Y-96800000D03*
X148600000Y-101200000D03*
X153400000Y-53600000D03*
X148189613Y-58700000D03*
X156300000Y-69100000D03*
X113200000Y-105000000D03*
X115000000Y-113800000D03*
X141900000Y-79000000D03*
X153400000Y-55400000D03*
X150650610Y-61507969D03*
X148400000Y-92000000D03*
X108600000Y-78600000D03*
X115400000Y-98800000D03*
X158900000Y-93000000D03*
X158200000Y-73600000D03*
X163900000Y-35800000D03*
X109000000Y-117500000D03*
X144900000Y-53300000D03*
X145000000Y-117500000D03*
X155200000Y-94700000D03*
X127700000Y-95400000D03*
X108600000Y-104800000D03*
X149800000Y-84000000D03*
X149500000Y-46400000D03*
X135000000Y-91700000D03*
X152400001Y-98800000D03*
X115000000Y-111600000D03*
X165400000Y-107200000D03*
X169800000Y-107200000D03*
X159194740Y-68081141D03*
X124887500Y-101000000D03*
X151800000Y-79000000D03*
X143900000Y-58600000D03*
X166100000Y-35800000D03*
X139700000Y-61100000D03*
X115000000Y-100475000D03*
X171800000Y-52100000D03*
X127600000Y-67800000D03*
X171800000Y-60000000D03*
X148400000Y-85800000D03*
X164800000Y-79800000D03*
X172000000Y-35800000D03*
X108500000Y-59100000D03*
X108600000Y-76000000D03*
X141900000Y-69600000D03*
X111900000Y-43100000D03*
X163200000Y-87500000D03*
X112000000Y-73200000D03*
X167000000Y-68100000D03*
X148600000Y-73600000D03*
X163900000Y-38600000D03*
X136000000Y-117500000D03*
X117100000Y-111600000D03*
X171700000Y-65500000D03*
X155000000Y-79000000D03*
X111900000Y-59100000D03*
X171000000Y-113300000D03*
X108500000Y-56500000D03*
X137500000Y-108500000D03*
X142339858Y-102545144D03*
X139400000Y-96500000D03*
X112000000Y-117500000D03*
X148600000Y-96600000D03*
X111900000Y-62200000D03*
X134400000Y-67800000D03*
X171700000Y-62700000D03*
X146053798Y-59700000D03*
X124400000Y-96800000D03*
X124000000Y-117500000D03*
X119000000Y-96800000D03*
X170300000Y-96900000D03*
X107600000Y-91400000D03*
X139000000Y-117500000D03*
X137500000Y-106800000D03*
X115200000Y-76000000D03*
X111900000Y-65000000D03*
X108500000Y-45700000D03*
X150900000Y-51800000D03*
X142200000Y-59300000D03*
D23*
X136200000Y-110650500D03*
D24*
X117600000Y-67800000D03*
X164800000Y-82800000D03*
X155100000Y-71100000D03*
X150900000Y-53700000D03*
X168100000Y-43600000D03*
X137400000Y-102500000D03*
X168300000Y-35800000D03*
X107600000Y-88600000D03*
X148000000Y-117500000D03*
X108500000Y-65000000D03*
X128800000Y-112600000D03*
X150300000Y-59700000D03*
X127637500Y-91350000D03*
X108500000Y-48500000D03*
X171900000Y-41300000D03*
X122100000Y-111900000D03*
X145900000Y-114300000D03*
X151000000Y-117500000D03*
X121000000Y-113800000D03*
X119600000Y-74000000D03*
X150900000Y-50100000D03*
X138300000Y-67800000D03*
X151800000Y-76400000D03*
X158200000Y-94700000D03*
X127000000Y-117500000D03*
X132800000Y-105200000D03*
X131900000Y-98400000D03*
X118000000Y-117500000D03*
X149500000Y-48400000D03*
X140100000Y-89500000D03*
X139400000Y-104600000D03*
X141900000Y-76400000D03*
X155200000Y-92200000D03*
X148600000Y-63700000D03*
X108500000Y-70500000D03*
X115000000Y-105200000D03*
X112000000Y-78600000D03*
X155200000Y-46400000D03*
X150800000Y-57500000D03*
X123250000Y-104500000D03*
X163200000Y-89300000D03*
X108500000Y-62200000D03*
X162500000Y-96900000D03*
X171800000Y-49300000D03*
X127300000Y-106700000D03*
X127600000Y-85000000D03*
X163200000Y-93000000D03*
X127600000Y-81300000D03*
X108500000Y-40500000D03*
X161000000Y-79000000D03*
X122900000Y-113600000D03*
X119400000Y-76800000D03*
X171900000Y-43800000D03*
X145700000Y-47100000D03*
X115400000Y-96800000D03*
X161000000Y-73600000D03*
X171700000Y-68100000D03*
X159500000Y-38600000D03*
X108500000Y-53700000D03*
X171800000Y-57200000D03*
X165200000Y-85200000D03*
X159400000Y-98800000D03*
X171900000Y-46600000D03*
X115800000Y-70000000D03*
X111900000Y-45700000D03*
X111900000Y-51100000D03*
X171700000Y-70800000D03*
X119600000Y-111500000D03*
X120800000Y-67800000D03*
X145900000Y-51500000D03*
X163200000Y-107200000D03*
X148600000Y-79000000D03*
X150900000Y-55400000D03*
X127300000Y-109500000D03*
X131200000Y-67800000D03*
X155200000Y-48400000D03*
X138300000Y-72200000D03*
X118100000Y-109400000D03*
X148600000Y-103600000D03*
X134400000Y-72200000D03*
X151900000Y-92100000D03*
X158900000Y-87600000D03*
X167600000Y-47700000D03*
X148000000Y-115000000D03*
X117200000Y-113800000D03*
X171800000Y-54700000D03*
X148600000Y-99000000D03*
X163300000Y-95100000D03*
X155000000Y-73600000D03*
X134800000Y-96200000D03*
X161700000Y-35800000D03*
X111900000Y-48500000D03*
X108600000Y-73200000D03*
X152200000Y-46400000D03*
X160700000Y-104100000D03*
X150000000Y-113000000D03*
X151000000Y-115000000D03*
X154800000Y-98800000D03*
X115200000Y-73200000D03*
X115400000Y-102200000D03*
X112000000Y-70300000D03*
X107600000Y-94000000D03*
X121000000Y-117500000D03*
X172000000Y-38600000D03*
X141900000Y-73600000D03*
X112000000Y-76000000D03*
X151800000Y-73600000D03*
D23*
X162900000Y-61200000D03*
D24*
X157000000Y-98800000D03*
X133000000Y-117500000D03*
X115000000Y-117500000D03*
X168100000Y-50800000D03*
X157300000Y-35800000D03*
X154000000Y-117500000D03*
X137000000Y-94200000D03*
X108500000Y-51100000D03*
X139700000Y-55400000D03*
X107600000Y-86000000D03*
X114900000Y-107000000D03*
X163600000Y-74800000D03*
X162083384Y-68081141D03*
X167600000Y-73800000D03*
X155000000Y-76400000D03*
X163200000Y-91300000D03*
X124400000Y-67800000D03*
X148600000Y-76400000D03*
X152200000Y-48400000D03*
X111900000Y-37700000D03*
X152600000Y-89200000D03*
X153400000Y-50100000D03*
X159500000Y-35800000D03*
X166500000Y-117500000D03*
X139700000Y-58100000D03*
X111900000Y-56500000D03*
X158200000Y-76400000D03*
X111900000Y-67600000D03*
D23*
X167700000Y-60600000D03*
D24*
X108500000Y-37700000D03*
X111900000Y-40500000D03*
X128900000Y-111000000D03*
D23*
X132600000Y-110900500D03*
D24*
X127100000Y-115900000D03*
X166100000Y-38600000D03*
X115200000Y-78600000D03*
X166200000Y-72200000D03*
X141900000Y-66200000D03*
X137000000Y-89500000D03*
X141900000Y-107800000D03*
X135400000Y-102700000D03*
X111900000Y-53700000D03*
%TO.N,+3V3*%
X157000000Y-92200000D03*
X157000000Y-94900000D03*
%TO.N,RST*%
X118000000Y-74000000D03*
D23*
%TO.N,Net-(D1-A)*%
X123100000Y-112700000D03*
X113200000Y-106100000D03*
%TO.N,Net-(D2-A)*%
X123000000Y-111000000D03*
D24*
X115500000Y-104000000D03*
D23*
%TO.N,Net-(U2-PA13)*%
X136387500Y-103700000D03*
X142300000Y-103600000D03*
%TO.N,Net-(SW2-B)*%
X160000000Y-109825000D03*
%TO.N,Net-(U2-PA14)*%
X142300000Y-101500000D03*
X134387500Y-101500000D03*
%TO.N,BTN_4*%
X140400000Y-96500000D03*
D24*
X135000000Y-92900000D03*
D23*
%TO.N,Net-(U2-PB8)*%
X141500000Y-106300000D03*
X127300000Y-107600000D03*
%TO.N,SPI1_NSS*%
X149247542Y-59221634D03*
X128800000Y-113500000D03*
X147000000Y-51500000D03*
%TO.N,SPI1_SCK*%
X146000000Y-53250000D03*
X135500000Y-113750000D03*
X147125907Y-59243269D03*
%TO.N,SPI1_MISO*%
X145000000Y-55250000D03*
X134500000Y-113000000D03*
X145000000Y-59250000D03*
%TO.N,SPI1_MOSI*%
X133600000Y-112250000D03*
%TO.N,~{D{slash}C}*%
X126400000Y-112100000D03*
X142000000Y-50600000D03*
X148700000Y-50600000D03*
%TO.N,~{RES}*%
X133500000Y-111100000D03*
%TD*%
D25*
%TO.N,~{D{slash}C}*%
X126400000Y-112100000D02*
X126400000Y-105900000D01*
X133000000Y-87800000D02*
X132400000Y-87200000D01*
X132400000Y-80400000D02*
X133000000Y-79800000D01*
X134200000Y-50600000D02*
X142000000Y-50600000D01*
X126400000Y-105900000D02*
X127400000Y-104900000D01*
X133000000Y-51800000D02*
X134200000Y-50600000D01*
X127400000Y-104900000D02*
X131300000Y-104900000D01*
X131300000Y-104900000D02*
X133000000Y-103200000D01*
X133000000Y-103200000D02*
X133000000Y-87800000D01*
X133000000Y-79800000D02*
X133000000Y-51800000D01*
X132400000Y-87200000D02*
X132400000Y-80400000D01*
D26*
%TO.N,*%
X110512500Y-111850000D02*
X110512500Y-100850000D01*
D27*
%TO.N,ADC_IN0*%
X166262500Y-111850000D02*
X170850000Y-111850000D01*
X170850000Y-111850000D02*
X171000000Y-112000000D01*
D25*
X128000000Y-115749500D02*
X128000000Y-111200000D01*
D28*
%TO.N,GND*%
X165100000Y-60500000D02*
X167600000Y-60500000D01*
X165100000Y-60500000D02*
X163600000Y-60500000D01*
X163600000Y-60500000D02*
X162900000Y-61200000D01*
D25*
X165100000Y-47500000D02*
X167400000Y-47500000D01*
D28*
X167600000Y-60500000D02*
X167700000Y-60600000D01*
D25*
X167400000Y-47500000D02*
X167600000Y-47700000D01*
%TO.N,+3V3*%
X168200000Y-54500000D02*
X165100000Y-54500000D01*
X169100000Y-42300000D02*
X168300000Y-41500000D01*
X157000000Y-92200000D02*
X157000000Y-71000000D01*
X157000000Y-94900000D02*
X157000000Y-92200000D01*
X169100000Y-68800000D02*
X169100000Y-56500000D01*
X169100000Y-54500000D02*
X169100000Y-47400000D01*
X169100000Y-47400000D02*
X168200000Y-46500000D01*
X169100000Y-56500000D02*
X169100000Y-55400000D01*
X169100000Y-55400000D02*
X168200000Y-54500000D01*
X169100000Y-47400000D02*
X169100000Y-42300000D01*
X158000000Y-70000000D02*
X167900000Y-70000000D01*
X157000000Y-71000000D02*
X158000000Y-70000000D01*
X168100000Y-55500000D02*
X165100000Y-55500000D01*
X168200000Y-46500000D02*
X165100000Y-46500000D01*
X169100000Y-56500000D02*
X168100000Y-55500000D01*
X169100000Y-55400000D02*
X169100000Y-54500000D01*
X167900000Y-70000000D02*
X169100000Y-68800000D01*
X168300000Y-41500000D02*
X165100000Y-41500000D01*
%TO.N,RST*%
X118040000Y-74040000D02*
X118000000Y-74000000D01*
X118040000Y-93000000D02*
X118040000Y-74040000D01*
%TO.N,Net-(D1-A)*%
X116200000Y-106800000D02*
X115500000Y-106100000D01*
X123100000Y-112700000D02*
X119400000Y-112700000D01*
X119400000Y-112700000D02*
X116200000Y-109500000D01*
X115500000Y-106100000D02*
X113200000Y-106100000D01*
X116200000Y-109500000D02*
X116200000Y-106800000D01*
%TO.N,Net-(D2-A)*%
X123000000Y-111000000D02*
X121200000Y-111000000D01*
X121200000Y-111000000D02*
X118300000Y-108100000D01*
X117000000Y-104000000D02*
X115500000Y-104000000D01*
X118300000Y-105300000D02*
X117000000Y-104000000D01*
X118300000Y-108100000D02*
X118300000Y-105300000D01*
%TO.N,Net-(U2-PA13)*%
X142300000Y-103600000D02*
X136487500Y-103600000D01*
X136487500Y-103600000D02*
X136387500Y-103700000D01*
%TO.N,Net-(SW2-B)*%
X168200000Y-78000000D02*
X171000000Y-78000000D01*
X166900000Y-83400000D02*
X166900000Y-79300000D01*
X160000000Y-106400000D02*
X161100000Y-105300000D01*
X172000000Y-104200000D02*
X172000000Y-85600000D01*
X170900000Y-105300000D02*
X172000000Y-104200000D01*
X160000000Y-109825000D02*
X160000000Y-106400000D01*
X161100000Y-105300000D02*
X170900000Y-105300000D01*
X172000000Y-85600000D02*
X171300000Y-84900000D01*
X171300000Y-84900000D02*
X168400000Y-84900000D01*
X168400000Y-84900000D02*
X166900000Y-83400000D01*
X166900000Y-79300000D02*
X168200000Y-78000000D01*
%TO.N,Net-(U2-PA14)*%
X142300000Y-101500000D02*
X134387500Y-101500000D01*
%TO.N,BTN_4*%
X135000000Y-92900000D02*
X138800000Y-92900000D01*
X140400000Y-94500000D02*
X140400000Y-96500000D01*
X124387500Y-93600000D02*
X130887500Y-93600000D01*
X138800000Y-92900000D02*
X140400000Y-94500000D01*
%TO.N,Net-(U2-PB8)*%
X140200000Y-107600000D02*
X127300000Y-107600000D01*
X141500000Y-106300000D02*
X140200000Y-107600000D01*
%TO.N,Net-(U3-LED-K4)*%
X165100000Y-42500000D02*
X163000000Y-42500000D01*
X163000000Y-42500000D02*
X161000000Y-40500000D01*
X161000000Y-40500000D02*
X158825000Y-40500000D01*
%TO.N,SPI1_NSS*%
X147000000Y-50000000D02*
X147750000Y-49250000D01*
X147000000Y-51500000D02*
X147000000Y-50000000D01*
X130200000Y-114500000D02*
X144500000Y-114500000D01*
X147000000Y-112000000D02*
X147000000Y-63000000D01*
X129200000Y-113500000D02*
X130200000Y-114500000D01*
X128800000Y-113500000D02*
X129200000Y-113500000D01*
X149247542Y-60752458D02*
X149247542Y-59221634D01*
X147750000Y-49250000D02*
X157175000Y-49250000D01*
X147000000Y-63000000D02*
X149247542Y-60752458D01*
X144500000Y-114500000D02*
X147000000Y-112000000D01*
%TO.N,SPI1_SCK*%
X143750000Y-113750000D02*
X135500000Y-113750000D01*
X147125907Y-59243269D02*
X147125907Y-60174093D01*
X146000000Y-111500000D02*
X143750000Y-113750000D01*
X146000000Y-61300000D02*
X146000000Y-111500000D01*
X146000000Y-53250000D02*
X146500000Y-52750000D01*
X147125907Y-60174093D02*
X146000000Y-61300000D01*
X146500000Y-52750000D02*
X157175000Y-52750000D01*
%TO.N,SPI1_MISO*%
X145750000Y-54500000D02*
X157175000Y-54500000D01*
X145000000Y-55250000D02*
X145750000Y-54500000D01*
X134500000Y-113000000D02*
X143000000Y-113000000D01*
X143000000Y-113000000D02*
X145000000Y-111000000D01*
X145000000Y-111000000D02*
X145000000Y-59250000D01*
%TO.N,SPI1_MOSI*%
X143000000Y-57400000D02*
X144150000Y-56250000D01*
X144000000Y-63000000D02*
X143000000Y-62000000D01*
X142500000Y-112250000D02*
X144000000Y-110750000D01*
X144150000Y-56250000D02*
X157175000Y-56250000D01*
X133600000Y-112250000D02*
X142500000Y-112250000D01*
X143000000Y-62000000D02*
X143000000Y-57400000D01*
X144000000Y-110750000D02*
X144000000Y-63000000D01*
%TO.N,Net-(U3-MOSI)*%
X160250000Y-56250000D02*
X158825000Y-56250000D01*
X165100000Y-53500000D02*
X163000000Y-53500000D01*
X163000000Y-53500000D02*
X160250000Y-56250000D01*
%TO.N,Net-(U3-MISO)*%
X165100000Y-52500000D02*
X162500000Y-52500000D01*
X162500000Y-52500000D02*
X160500000Y-54500000D01*
X160500000Y-54500000D02*
X158825000Y-54500000D01*
%TO.N,Net-(U3-SCLK)*%
X165100000Y-51500000D02*
X162250000Y-51500000D01*
X161000000Y-52750000D02*
X158825000Y-52750000D01*
X162250000Y-51500000D02*
X161000000Y-52750000D01*
%TO.N,Net-(U3-{slash}CS)*%
X165100000Y-49500000D02*
X161750000Y-49500000D01*
X161500000Y-49250000D02*
X158825000Y-49250000D01*
X161750000Y-49500000D02*
X161500000Y-49250000D01*
%TO.N,~{D{slash}C}*%
X149100000Y-51000000D02*
X148700000Y-50600000D01*
X157175000Y-51000000D02*
X149100000Y-51000000D01*
%TO.N,Net-(U3-D{slash}C)*%
X161500000Y-51000000D02*
X158825000Y-51000000D01*
X162000000Y-50500000D02*
X161500000Y-51000000D01*
X165100000Y-50500000D02*
X162000000Y-50500000D01*
%TO.N,~{RES}*%
X141900000Y-111300000D02*
X143100000Y-110100000D01*
X143100000Y-110100000D02*
X143100000Y-108600000D01*
X141200000Y-62300000D02*
X141200000Y-53800000D01*
X143000000Y-100700000D02*
X143000000Y-64100000D01*
X141200000Y-53800000D02*
X147500000Y-47500000D01*
X143125000Y-100825000D02*
X143000000Y-100700000D01*
X147500000Y-47500000D02*
X157175000Y-47500000D01*
X133700000Y-111300000D02*
X141900000Y-111300000D01*
X133500000Y-111100000D02*
X133700000Y-111300000D01*
X143125000Y-108575000D02*
X143125000Y-100825000D01*
X143100000Y-108600000D02*
X143125000Y-108575000D01*
X143000000Y-64100000D02*
X141200000Y-62300000D01*
%TO.N,Net-(U3-{slash}RES)*%
X165100000Y-48500000D02*
X162750000Y-48500000D01*
X162750000Y-48500000D02*
X161750000Y-47500000D01*
X161750000Y-47500000D02*
X158825000Y-47500000D01*
%TO.N,Net-(U3-LED-K3)*%
X165100000Y-43500000D02*
X162500000Y-43500000D01*
X161250000Y-42250000D02*
X158825000Y-42250000D01*
X162500000Y-43500000D02*
X161250000Y-42250000D01*
%TO.N,Net-(U3-LED-K2)*%
X161500000Y-44500000D02*
X161000000Y-44000000D01*
X161000000Y-44000000D02*
X158825000Y-44000000D01*
X165100000Y-44500000D02*
X161500000Y-44500000D01*
%TO.N,Net-(U3-LED-K1)*%
X161250000Y-45750000D02*
X158825000Y-45750000D01*
X161500000Y-45500000D02*
X161250000Y-45750000D01*
X165100000Y-45500000D02*
X161500000Y-45500000D01*
%TD*%
%TA.AperFunction,Conductor*%
%TO.N,GND*%
G36*
X142407694Y-106558538D02*
G01*
X142458097Y-106606925D01*
X142474500Y-106668560D01*
X142474500Y-108385193D01*
X142471070Y-108409287D01*
X142471585Y-108409369D01*
X142462766Y-108465047D01*
X142461581Y-108470770D01*
X142449500Y-108517818D01*
X142449500Y-108539044D01*
X142447973Y-108558443D01*
X142444653Y-108579405D01*
X142445062Y-108583733D01*
X142449225Y-108627767D01*
X142449500Y-108633606D01*
X142449500Y-109779192D01*
X142429815Y-109846231D01*
X142413181Y-109866873D01*
X141666873Y-110613181D01*
X141605550Y-110646666D01*
X141579192Y-110649500D01*
X134230810Y-110649500D01*
X134163771Y-110629815D01*
X134133865Y-110602815D01*
X134129816Y-110597738D01*
X134002262Y-110470184D01*
X133849523Y-110374211D01*
X133679254Y-110314631D01*
X133679249Y-110314630D01*
X133500004Y-110294435D01*
X133499996Y-110294435D01*
X133320750Y-110314630D01*
X133320745Y-110314631D01*
X133150476Y-110374211D01*
X132997737Y-110470184D01*
X132870184Y-110597737D01*
X132774211Y-110750476D01*
X132714631Y-110920745D01*
X132714630Y-110920750D01*
X132694435Y-111099996D01*
X132694435Y-111100003D01*
X132714630Y-111279249D01*
X132714631Y-111279254D01*
X132774211Y-111449523D01*
X132870184Y-111602262D01*
X132917808Y-111649886D01*
X132951293Y-111711209D01*
X132946309Y-111780901D01*
X132935121Y-111803539D01*
X132874211Y-111900476D01*
X132814631Y-112070745D01*
X132814630Y-112070750D01*
X132794435Y-112249996D01*
X132794435Y-112250003D01*
X132814630Y-112429249D01*
X132814631Y-112429254D01*
X132874211Y-112599523D01*
X132946538Y-112714630D01*
X132970184Y-112752262D01*
X133097738Y-112879816D01*
X133151787Y-112913777D01*
X133240545Y-112969548D01*
X133250478Y-112975789D01*
X133334930Y-113005340D01*
X133420745Y-113035368D01*
X133420749Y-113035369D01*
X133508959Y-113045307D01*
X133600000Y-113055565D01*
X133600002Y-113055564D01*
X133603724Y-113055984D01*
X133668138Y-113083050D01*
X133707693Y-113140644D01*
X133713061Y-113165319D01*
X133714630Y-113179249D01*
X133714631Y-113179254D01*
X133714632Y-113179255D01*
X133719583Y-113193405D01*
X133774210Y-113349521D01*
X133870184Y-113502262D01*
X134002662Y-113634740D01*
X134001390Y-113636011D01*
X134036295Y-113685740D01*
X134039145Y-113755552D01*
X134003800Y-113815822D01*
X133941482Y-113847416D01*
X133918842Y-113849500D01*
X130520808Y-113849500D01*
X130453769Y-113829815D01*
X130433127Y-113813181D01*
X129720434Y-113100488D01*
X129710361Y-113087914D01*
X129710174Y-113088070D01*
X129705201Y-113082059D01*
X129652756Y-113032810D01*
X129631035Y-113011089D01*
X129625240Y-113006594D01*
X129620798Y-113002799D01*
X129585396Y-112969554D01*
X129585388Y-112969548D01*
X129566792Y-112959325D01*
X129550531Y-112948644D01*
X129533763Y-112935637D01*
X129510295Y-112925482D01*
X129489178Y-112916343D01*
X129483956Y-112913786D01*
X129441368Y-112890373D01*
X129441365Y-112890372D01*
X129420801Y-112885092D01*
X129402396Y-112878790D01*
X129382927Y-112870365D01*
X129382921Y-112870363D01*
X129334951Y-112862766D01*
X129329236Y-112861582D01*
X129282177Y-112849500D01*
X129282176Y-112849500D01*
X129279224Y-112848742D01*
X129244090Y-112833632D01*
X129149522Y-112774210D01*
X129149518Y-112774209D01*
X128979262Y-112714633D01*
X128979249Y-112714630D01*
X128800004Y-112694435D01*
X128800001Y-112694435D01*
X128800000Y-112694435D01*
X128795975Y-112694888D01*
X128788380Y-112695744D01*
X128719558Y-112683687D01*
X128668180Y-112636336D01*
X128650500Y-112572523D01*
X128650500Y-111705067D01*
X128669507Y-111639094D01*
X128725788Y-111549524D01*
X128725789Y-111549522D01*
X128785368Y-111379255D01*
X128795524Y-111289116D01*
X128805565Y-111200003D01*
X128805565Y-111199996D01*
X128785369Y-111020750D01*
X128785368Y-111020745D01*
X128764582Y-110961341D01*
X128725789Y-110850478D01*
X128707106Y-110820745D01*
X128662955Y-110750478D01*
X128629816Y-110697738D01*
X128502262Y-110570184D01*
X128471395Y-110550789D01*
X128349523Y-110474211D01*
X128179254Y-110414631D01*
X128179249Y-110414630D01*
X128000004Y-110394435D01*
X127999996Y-110394435D01*
X127820750Y-110414630D01*
X127820745Y-110414631D01*
X127650476Y-110474211D01*
X127497737Y-110570184D01*
X127370182Y-110697739D01*
X127279493Y-110842070D01*
X127227159Y-110888360D01*
X127158105Y-110899008D01*
X127094257Y-110870633D01*
X127055885Y-110812243D01*
X127050500Y-110776097D01*
X127050500Y-108516209D01*
X127070185Y-108449170D01*
X127122989Y-108403415D01*
X127188384Y-108392989D01*
X127299997Y-108405565D01*
X127300000Y-108405565D01*
X127300004Y-108405565D01*
X127479249Y-108385369D01*
X127479251Y-108385368D01*
X127479255Y-108385368D01*
X127479258Y-108385366D01*
X127479262Y-108385366D01*
X127569377Y-108353832D01*
X127649522Y-108325789D01*
X127739096Y-108269505D01*
X127805068Y-108250500D01*
X140114495Y-108250500D01*
X140130505Y-108252267D01*
X140130528Y-108252026D01*
X140138289Y-108252758D01*
X140138296Y-108252760D01*
X140210203Y-108250500D01*
X140240925Y-108250500D01*
X140248190Y-108249581D01*
X140254016Y-108249122D01*
X140302569Y-108247597D01*
X140322956Y-108241673D01*
X140341996Y-108237731D01*
X140363058Y-108235071D01*
X140408235Y-108217183D01*
X140413735Y-108215300D01*
X140460398Y-108201744D01*
X140478665Y-108190939D01*
X140496136Y-108182380D01*
X140515871Y-108174568D01*
X140555177Y-108146010D01*
X140560043Y-108142813D01*
X140601865Y-108118081D01*
X140616870Y-108103075D01*
X140631668Y-108090436D01*
X140648837Y-108077963D01*
X140679809Y-108040522D01*
X140683723Y-108036221D01*
X141598224Y-107121720D01*
X141659545Y-107088237D01*
X141672019Y-107086183D01*
X141679255Y-107085368D01*
X141849522Y-107025789D01*
X142002262Y-106929816D01*
X142129816Y-106802262D01*
X142225789Y-106649522D01*
X142233458Y-106627606D01*
X142274180Y-106570830D01*
X142339132Y-106545082D01*
X142407694Y-106558538D01*
G37*
%TD.AperFunction*%
%TA.AperFunction,Conductor*%
G36*
X133855703Y-102100727D02*
G01*
X133862181Y-102106759D01*
X133885238Y-102129816D01*
X134037978Y-102225789D01*
X134208239Y-102285366D01*
X134208245Y-102285368D01*
X134208250Y-102285369D01*
X134387496Y-102305565D01*
X134387500Y-102305565D01*
X134387504Y-102305565D01*
X134566749Y-102285369D01*
X134566751Y-102285368D01*
X134566755Y-102285368D01*
X134566758Y-102285366D01*
X134566762Y-102285366D01*
X134656877Y-102253832D01*
X134737022Y-102225789D01*
X134826596Y-102169505D01*
X134892568Y-102150500D01*
X141794932Y-102150500D01*
X141860904Y-102169506D01*
X141950477Y-102225789D01*
X141950481Y-102225790D01*
X142120737Y-102285366D01*
X142120743Y-102285367D01*
X142120745Y-102285368D01*
X142120746Y-102285368D01*
X142120750Y-102285369D01*
X142299997Y-102305565D01*
X142300000Y-102305565D01*
X142300001Y-102305565D01*
X142308723Y-102304582D01*
X142336616Y-102301439D01*
X142405437Y-102313493D01*
X142456817Y-102360841D01*
X142474500Y-102424659D01*
X142474500Y-102675340D01*
X142454815Y-102742379D01*
X142402011Y-102788134D01*
X142336618Y-102798560D01*
X142300004Y-102794435D01*
X142299996Y-102794435D01*
X142120750Y-102814630D01*
X142120737Y-102814633D01*
X141950481Y-102874209D01*
X141950477Y-102874210D01*
X141860904Y-102930494D01*
X141794932Y-102949500D01*
X136687472Y-102949500D01*
X136646517Y-102942542D01*
X136566754Y-102914631D01*
X136566749Y-102914630D01*
X136387504Y-102894435D01*
X136387496Y-102894435D01*
X136208250Y-102914630D01*
X136208245Y-102914631D01*
X136037976Y-102974211D01*
X135885237Y-103070184D01*
X135757684Y-103197737D01*
X135661711Y-103350476D01*
X135602131Y-103520745D01*
X135602130Y-103520750D01*
X135581935Y-103699996D01*
X135581935Y-103700003D01*
X135602130Y-103879249D01*
X135602131Y-103879254D01*
X135661711Y-104049523D01*
X135735145Y-104166392D01*
X135757684Y-104202262D01*
X135885238Y-104329816D01*
X135951266Y-104371304D01*
X136032006Y-104422037D01*
X136037978Y-104425789D01*
X136172862Y-104472987D01*
X136208245Y-104485368D01*
X136208250Y-104485369D01*
X136387496Y-104505565D01*
X136387500Y-104505565D01*
X136387504Y-104505565D01*
X136566749Y-104485369D01*
X136566752Y-104485368D01*
X136566755Y-104485368D01*
X136737022Y-104425789D01*
X136889762Y-104329816D01*
X136932759Y-104286819D01*
X136994082Y-104253334D01*
X137020440Y-104250500D01*
X141794932Y-104250500D01*
X141860904Y-104269506D01*
X141950477Y-104325789D01*
X141950481Y-104325790D01*
X142120737Y-104385366D01*
X142120743Y-104385367D01*
X142120745Y-104385368D01*
X142120746Y-104385368D01*
X142120750Y-104385369D01*
X142299997Y-104405565D01*
X142300000Y-104405565D01*
X142300001Y-104405565D01*
X142308723Y-104404582D01*
X142336616Y-104401439D01*
X142405437Y-104413493D01*
X142456817Y-104460841D01*
X142474500Y-104524659D01*
X142474500Y-105931439D01*
X142454815Y-105998478D01*
X142402011Y-106044233D01*
X142332853Y-106054177D01*
X142269297Y-106025152D01*
X142233459Y-105972395D01*
X142225790Y-105950479D01*
X142160153Y-105846019D01*
X142129816Y-105797738D01*
X142002262Y-105670184D01*
X141923681Y-105620808D01*
X141849523Y-105574211D01*
X141679254Y-105514631D01*
X141679249Y-105514630D01*
X141500004Y-105494435D01*
X141499996Y-105494435D01*
X141320750Y-105514630D01*
X141320745Y-105514631D01*
X141150476Y-105574211D01*
X140997737Y-105670184D01*
X140870184Y-105797737D01*
X140774210Y-105950478D01*
X140714632Y-106120744D01*
X140714630Y-106120752D01*
X140713815Y-106127988D01*
X140686743Y-106192400D01*
X140678277Y-106201775D01*
X139966873Y-106913181D01*
X139905550Y-106946666D01*
X139879192Y-106949500D01*
X127805068Y-106949500D01*
X127739096Y-106930494D01*
X127649522Y-106874210D01*
X127649518Y-106874209D01*
X127479262Y-106814633D01*
X127479249Y-106814630D01*
X127300004Y-106794435D01*
X127299996Y-106794435D01*
X127188383Y-106807010D01*
X127119561Y-106794955D01*
X127068182Y-106747606D01*
X127050500Y-106683790D01*
X127050500Y-106220808D01*
X127070185Y-106153769D01*
X127086819Y-106133127D01*
X127633127Y-105586819D01*
X127694450Y-105553334D01*
X127720808Y-105550500D01*
X131214495Y-105550500D01*
X131230505Y-105552267D01*
X131230528Y-105552026D01*
X131238289Y-105552758D01*
X131238296Y-105552760D01*
X131310203Y-105550500D01*
X131340925Y-105550500D01*
X131348190Y-105549581D01*
X131354016Y-105549122D01*
X131402569Y-105547597D01*
X131422956Y-105541673D01*
X131441996Y-105537731D01*
X131463058Y-105535071D01*
X131508235Y-105517183D01*
X131513735Y-105515300D01*
X131560398Y-105501744D01*
X131578665Y-105490939D01*
X131596136Y-105482380D01*
X131615871Y-105474568D01*
X131655177Y-105446010D01*
X131660043Y-105442813D01*
X131701865Y-105418081D01*
X131716870Y-105403075D01*
X131731668Y-105390436D01*
X131748837Y-105377963D01*
X131779809Y-105340522D01*
X131783723Y-105336221D01*
X133399513Y-103720431D01*
X133412079Y-103710365D01*
X133411925Y-103710178D01*
X133417937Y-103705204D01*
X133417937Y-103705203D01*
X133417940Y-103705202D01*
X133467190Y-103652755D01*
X133488911Y-103631035D01*
X133493401Y-103625245D01*
X133497183Y-103620815D01*
X133530448Y-103585393D01*
X133540674Y-103566790D01*
X133551353Y-103550533D01*
X133564362Y-103533764D01*
X133583663Y-103489159D01*
X133586207Y-103483965D01*
X133609627Y-103441368D01*
X133614907Y-103420802D01*
X133621209Y-103402395D01*
X133629635Y-103382926D01*
X133637233Y-103334948D01*
X133638411Y-103329253D01*
X133650500Y-103282177D01*
X133650500Y-103260955D01*
X133652027Y-103241555D01*
X133655347Y-103220595D01*
X133650775Y-103172230D01*
X133650500Y-103166392D01*
X133650500Y-102194440D01*
X133670185Y-102127401D01*
X133722989Y-102081646D01*
X133792147Y-102071702D01*
X133855703Y-102100727D01*
G37*
%TD.AperFunction*%
%TA.AperFunction,Conductor*%
G36*
X146280009Y-49742450D02*
G01*
X146335942Y-49784322D01*
X146360359Y-49849786D01*
X146356779Y-49889469D01*
X146349500Y-49917815D01*
X146349500Y-49939044D01*
X146347973Y-49958443D01*
X146344653Y-49979405D01*
X146349004Y-50025432D01*
X146349225Y-50027767D01*
X146349500Y-50033606D01*
X146349500Y-50994931D01*
X146330494Y-51060903D01*
X146274211Y-51150477D01*
X146274209Y-51150481D01*
X146214633Y-51320737D01*
X146214630Y-51320750D01*
X146194435Y-51499996D01*
X146194435Y-51500003D01*
X146214630Y-51679249D01*
X146214631Y-51679254D01*
X146266599Y-51827767D01*
X146274211Y-51849522D01*
X146317448Y-51918334D01*
X146340142Y-51954450D01*
X146359142Y-52021686D01*
X146338775Y-52088522D01*
X146285507Y-52133736D01*
X146269745Y-52139498D01*
X146239602Y-52148255D01*
X146239595Y-52148258D01*
X146221329Y-52159061D01*
X146203861Y-52167619D01*
X146184128Y-52175432D01*
X146144830Y-52203983D01*
X146139953Y-52207186D01*
X146126281Y-52215272D01*
X146098132Y-52231920D01*
X146083126Y-52246926D01*
X146068336Y-52259558D01*
X146051167Y-52272032D01*
X146051165Y-52272034D01*
X146020194Y-52309470D01*
X146016262Y-52313791D01*
X145901775Y-52428277D01*
X145840452Y-52461762D01*
X145827988Y-52463815D01*
X145820752Y-52464630D01*
X145820744Y-52464632D01*
X145650478Y-52524210D01*
X145497737Y-52620184D01*
X145370184Y-52747737D01*
X145274211Y-52900476D01*
X145214631Y-53070745D01*
X145214630Y-53070750D01*
X145194435Y-53249996D01*
X145194435Y-53250003D01*
X145214630Y-53429249D01*
X145214631Y-53429254D01*
X145274211Y-53599523D01*
X145370184Y-53752262D01*
X145393263Y-53775341D01*
X145426748Y-53836664D01*
X145421764Y-53906356D01*
X145379892Y-53962289D01*
X145368707Y-53969752D01*
X145348131Y-53981921D01*
X145333126Y-53996926D01*
X145318336Y-54009558D01*
X145301167Y-54022032D01*
X145301165Y-54022034D01*
X145270194Y-54059470D01*
X145266262Y-54063791D01*
X144901775Y-54428277D01*
X144840452Y-54461762D01*
X144827988Y-54463815D01*
X144820752Y-54464630D01*
X144820744Y-54464632D01*
X144650478Y-54524210D01*
X144497737Y-54620184D01*
X144370184Y-54747737D01*
X144274211Y-54900476D01*
X144214631Y-55070745D01*
X144214630Y-55070750D01*
X144194435Y-55249996D01*
X144194435Y-55250003D01*
X144214630Y-55429249D01*
X144214633Y-55429263D01*
X144216607Y-55434903D01*
X144220166Y-55504682D01*
X144185435Y-55565308D01*
X144123440Y-55597533D01*
X144112915Y-55598890D01*
X144112931Y-55599013D01*
X144101804Y-55600417D01*
X144095986Y-55600875D01*
X144047433Y-55602401D01*
X144032873Y-55606630D01*
X144027040Y-55608325D01*
X144007996Y-55612269D01*
X143986942Y-55614929D01*
X143986940Y-55614929D01*
X143941781Y-55632808D01*
X143936255Y-55634700D01*
X143889601Y-55648254D01*
X143871325Y-55659063D01*
X143853860Y-55667619D01*
X143834124Y-55675433D01*
X143794824Y-55703986D01*
X143789942Y-55707193D01*
X143748136Y-55731917D01*
X143733124Y-55746929D01*
X143718336Y-55759558D01*
X143701167Y-55772032D01*
X143701165Y-55772034D01*
X143670194Y-55809470D01*
X143666262Y-55813791D01*
X142600483Y-56879569D01*
X142587910Y-56889643D01*
X142588065Y-56889830D01*
X142582059Y-56894798D01*
X142558220Y-56920185D01*
X142532809Y-56947244D01*
X142521949Y-56958104D01*
X142511088Y-56968965D01*
X142511078Y-56968977D01*
X142506587Y-56974765D01*
X142502801Y-56979197D01*
X142469552Y-57014606D01*
X142459322Y-57033213D01*
X142448646Y-57049464D01*
X142435640Y-57066232D01*
X142435636Y-57066238D01*
X142416348Y-57110811D01*
X142413777Y-57116058D01*
X142390372Y-57158630D01*
X142390372Y-57158631D01*
X142385091Y-57179199D01*
X142378791Y-57197601D01*
X142370364Y-57217073D01*
X142362766Y-57265047D01*
X142361581Y-57270770D01*
X142349500Y-57317818D01*
X142349500Y-57339044D01*
X142347973Y-57358444D01*
X142344653Y-57379403D01*
X142349225Y-57427767D01*
X142349500Y-57433606D01*
X142349500Y-61914494D01*
X142347732Y-61930505D01*
X142347974Y-61930528D01*
X142347240Y-61938294D01*
X142349500Y-62010203D01*
X142349500Y-62040920D01*
X142349501Y-62040940D01*
X142350418Y-62048206D01*
X142350876Y-62054024D01*
X142352402Y-62102567D01*
X142352403Y-62102570D01*
X142358323Y-62122948D01*
X142362268Y-62141996D01*
X142364928Y-62163054D01*
X142364931Y-62163064D01*
X142382813Y-62208230D01*
X142384705Y-62213758D01*
X142393701Y-62244721D01*
X142393502Y-62314590D01*
X142355561Y-62373261D01*
X142291923Y-62402105D01*
X142222793Y-62391964D01*
X142186944Y-62366998D01*
X141886819Y-62066873D01*
X141853334Y-62005550D01*
X141850500Y-61979192D01*
X141850500Y-54120808D01*
X141870185Y-54053769D01*
X141886819Y-54033127D01*
X144010418Y-51909528D01*
X146148996Y-49770949D01*
X146210317Y-49737466D01*
X146280009Y-49742450D01*
G37*
%TD.AperFunction*%
%TA.AperFunction,Conductor*%
G36*
X156380550Y-55170185D02*
G01*
X156414237Y-55204808D01*
X156414906Y-55204285D01*
X156419531Y-55210189D01*
X156496661Y-55287319D01*
X156530146Y-55348642D01*
X156525162Y-55418334D01*
X156496661Y-55462681D01*
X156419531Y-55539810D01*
X156414906Y-55545715D01*
X156413882Y-55544912D01*
X156368096Y-55586840D01*
X156313511Y-55599500D01*
X145900559Y-55599500D01*
X145833520Y-55579815D01*
X145787765Y-55527011D01*
X145777821Y-55457853D01*
X145783516Y-55434549D01*
X145784082Y-55432927D01*
X145785368Y-55429255D01*
X145786182Y-55422025D01*
X145813245Y-55357611D01*
X145821702Y-55348242D01*
X145983128Y-55186816D01*
X146044451Y-55153334D01*
X146070808Y-55150500D01*
X156313511Y-55150500D01*
X156380550Y-55170185D01*
G37*
%TD.AperFunction*%
%TA.AperFunction,Conductor*%
G36*
X167946231Y-47170185D02*
G01*
X167966873Y-47186819D01*
X168413181Y-47633127D01*
X168446666Y-47694450D01*
X168449500Y-47720808D01*
X168449500Y-53732601D01*
X168429815Y-53799640D01*
X168377011Y-53845395D01*
X168307853Y-53855339D01*
X168294668Y-53852707D01*
X168282177Y-53849500D01*
X168260955Y-53849500D01*
X168241555Y-53847973D01*
X168220596Y-53844653D01*
X168220595Y-53844653D01*
X168199301Y-53846666D01*
X168172230Y-53849225D01*
X168166392Y-53849500D01*
X167724500Y-53849500D01*
X167657461Y-53829815D01*
X167611706Y-53777011D01*
X167600500Y-53725500D01*
X167600499Y-53102129D01*
X167600498Y-53102123D01*
X167597126Y-53070750D01*
X167594091Y-53042517D01*
X167594090Y-53042515D01*
X167594090Y-53042512D01*
X167592308Y-53034969D01*
X167593773Y-53034622D01*
X167589409Y-52973651D01*
X167593819Y-52958633D01*
X167594089Y-52957488D01*
X167594091Y-52957483D01*
X167600500Y-52897873D01*
X167600499Y-52102128D01*
X167594091Y-52042517D01*
X167594090Y-52042515D01*
X167594090Y-52042512D01*
X167592308Y-52034969D01*
X167593773Y-52034622D01*
X167589409Y-51973651D01*
X167593819Y-51958633D01*
X167594089Y-51957488D01*
X167594091Y-51957483D01*
X167600500Y-51897873D01*
X167600499Y-51102128D01*
X167594091Y-51042517D01*
X167594090Y-51042515D01*
X167594090Y-51042512D01*
X167592308Y-51034969D01*
X167593773Y-51034622D01*
X167589409Y-50973651D01*
X167593819Y-50958633D01*
X167594089Y-50957488D01*
X167594091Y-50957483D01*
X167600500Y-50897873D01*
X167600499Y-50102128D01*
X167594091Y-50042517D01*
X167594090Y-50042515D01*
X167594090Y-50042512D01*
X167592308Y-50034969D01*
X167593773Y-50034622D01*
X167589409Y-49973651D01*
X167593819Y-49958633D01*
X167594089Y-49957488D01*
X167594091Y-49957483D01*
X167600500Y-49897873D01*
X167600499Y-49102128D01*
X167594091Y-49042517D01*
X167594090Y-49042515D01*
X167594090Y-49042512D01*
X167592308Y-49034969D01*
X167593773Y-49034622D01*
X167589409Y-48973651D01*
X167593819Y-48958633D01*
X167594089Y-48957488D01*
X167594091Y-48957483D01*
X167600500Y-48897873D01*
X167600499Y-48102128D01*
X167594091Y-48042517D01*
X167543796Y-47907669D01*
X167543795Y-47907668D01*
X167543793Y-47907664D01*
X167457547Y-47792455D01*
X167399688Y-47749141D01*
X167357818Y-47693207D01*
X167350000Y-47649875D01*
X167350000Y-47350123D01*
X167369685Y-47283084D01*
X167399686Y-47250859D01*
X167457546Y-47207546D01*
X167463052Y-47200191D01*
X167518985Y-47158319D01*
X167562320Y-47150500D01*
X167879192Y-47150500D01*
X167946231Y-47170185D01*
G37*
%TD.AperFunction*%
%TA.AperFunction,Conductor*%
G36*
X156380550Y-53420185D02*
G01*
X156414237Y-53454808D01*
X156414906Y-53454285D01*
X156419531Y-53460189D01*
X156496661Y-53537319D01*
X156530146Y-53598642D01*
X156525162Y-53668334D01*
X156496661Y-53712681D01*
X156419531Y-53789810D01*
X156414906Y-53795715D01*
X156413882Y-53794912D01*
X156368096Y-53836840D01*
X156313511Y-53849500D01*
X146793079Y-53849500D01*
X146726040Y-53829815D01*
X146680285Y-53777011D01*
X146670341Y-53707853D01*
X146688085Y-53659528D01*
X146725789Y-53599522D01*
X146740097Y-53558631D01*
X146766371Y-53483543D01*
X146807091Y-53426770D01*
X146872044Y-53401022D01*
X146883412Y-53400500D01*
X156313511Y-53400500D01*
X156380550Y-53420185D01*
G37*
%TD.AperFunction*%
%TA.AperFunction,Conductor*%
G36*
X147885099Y-50137359D02*
G01*
X147941033Y-50179230D01*
X147965450Y-50244694D01*
X147958808Y-50294495D01*
X147914632Y-50420742D01*
X147914630Y-50420750D01*
X147897720Y-50570840D01*
X147886574Y-50597365D01*
X147893477Y-50608107D01*
X147897720Y-50629159D01*
X147914630Y-50779249D01*
X147914631Y-50779254D01*
X147974211Y-50949523D01*
X148044196Y-51060903D01*
X148070184Y-51102262D01*
X148197738Y-51229816D01*
X148235167Y-51253334D01*
X148342450Y-51320745D01*
X148350478Y-51325789D01*
X148520745Y-51385368D01*
X148524519Y-51385793D01*
X148526792Y-51386748D01*
X148527532Y-51386917D01*
X148527502Y-51387046D01*
X148588934Y-51412857D01*
X148595516Y-51418614D01*
X148596678Y-51419705D01*
X148647243Y-51467190D01*
X148668967Y-51488913D01*
X148674757Y-51493405D01*
X148679197Y-51497197D01*
X148699283Y-51516058D01*
X148714607Y-51530448D01*
X148714609Y-51530449D01*
X148733205Y-51540672D01*
X148749470Y-51551357D01*
X148766232Y-51564360D01*
X148766235Y-51564361D01*
X148766236Y-51564362D01*
X148810823Y-51583656D01*
X148816059Y-51586221D01*
X148858632Y-51609627D01*
X148874340Y-51613659D01*
X148879186Y-51614904D01*
X148897598Y-51621207D01*
X148917073Y-51629635D01*
X148965071Y-51637237D01*
X148970740Y-51638411D01*
X149017823Y-51650500D01*
X149039051Y-51650500D01*
X149058448Y-51652026D01*
X149079403Y-51655345D01*
X149079404Y-51655346D01*
X149079404Y-51655345D01*
X149079405Y-51655346D01*
X149127761Y-51650775D01*
X149133599Y-51650500D01*
X156313511Y-51650500D01*
X156380550Y-51670185D01*
X156414237Y-51704808D01*
X156414906Y-51704285D01*
X156419531Y-51710189D01*
X156496661Y-51787319D01*
X156530146Y-51848642D01*
X156525162Y-51918334D01*
X156496661Y-51962681D01*
X156419531Y-52039810D01*
X156414906Y-52045715D01*
X156413882Y-52044912D01*
X156368096Y-52086840D01*
X156313511Y-52099500D01*
X147793079Y-52099500D01*
X147726040Y-52079815D01*
X147680285Y-52027011D01*
X147670341Y-51957853D01*
X147688085Y-51909528D01*
X147725788Y-51849523D01*
X147725789Y-51849522D01*
X147785368Y-51679255D01*
X147786969Y-51665047D01*
X147805565Y-51500003D01*
X147805565Y-51499996D01*
X147785369Y-51320750D01*
X147785366Y-51320737D01*
X147725790Y-51150481D01*
X147725789Y-51150478D01*
X147695493Y-51102262D01*
X147669506Y-51060903D01*
X147650500Y-50994931D01*
X147650500Y-50643042D01*
X147663108Y-50600101D01*
X147652360Y-50578351D01*
X147650500Y-50556957D01*
X147650500Y-50320808D01*
X147670185Y-50253769D01*
X147686813Y-50233132D01*
X147754088Y-50165857D01*
X147815407Y-50132375D01*
X147885099Y-50137359D01*
G37*
%TD.AperFunction*%
%TA.AperFunction,Conductor*%
G36*
X156380550Y-49920185D02*
G01*
X156414237Y-49954808D01*
X156414906Y-49954285D01*
X156419531Y-49960189D01*
X156496661Y-50037319D01*
X156530146Y-50098642D01*
X156525162Y-50168334D01*
X156496661Y-50212681D01*
X156419531Y-50289810D01*
X156414906Y-50295715D01*
X156413882Y-50294912D01*
X156368096Y-50336840D01*
X156313511Y-50349500D01*
X149548421Y-50349500D01*
X149481382Y-50329815D01*
X149435627Y-50277011D01*
X149431379Y-50266454D01*
X149425789Y-50250478D01*
X149329816Y-50097738D01*
X149329815Y-50097737D01*
X149326111Y-50091842D01*
X149328409Y-50090397D01*
X149306659Y-50037151D01*
X149319401Y-49968453D01*
X149367261Y-49917550D01*
X149430012Y-49900500D01*
X156313511Y-49900500D01*
X156380550Y-49920185D01*
G37*
%TD.AperFunction*%
%TA.AperFunction,Conductor*%
G36*
X156380550Y-48170185D02*
G01*
X156414237Y-48204808D01*
X156414906Y-48204285D01*
X156419531Y-48210189D01*
X156496661Y-48287319D01*
X156530146Y-48348642D01*
X156525162Y-48418334D01*
X156496661Y-48462681D01*
X156419531Y-48539810D01*
X156414906Y-48545715D01*
X156413882Y-48544912D01*
X156368096Y-48586840D01*
X156313511Y-48599500D01*
X147835504Y-48599500D01*
X147819493Y-48597732D01*
X147819471Y-48597974D01*
X147811704Y-48597240D01*
X147811703Y-48597240D01*
X147739796Y-48599500D01*
X147709075Y-48599500D01*
X147709071Y-48599500D01*
X147709061Y-48599501D01*
X147701793Y-48600419D01*
X147695976Y-48600876D01*
X147647436Y-48602402D01*
X147647432Y-48602402D01*
X147647431Y-48602403D01*
X147646215Y-48602755D01*
X147645223Y-48602753D01*
X147639733Y-48603623D01*
X147639592Y-48602736D01*
X147576348Y-48602552D01*
X147517681Y-48564606D01*
X147488841Y-48500966D01*
X147498986Y-48431837D01*
X147523946Y-48395999D01*
X147733127Y-48186819D01*
X147794450Y-48153334D01*
X147820808Y-48150500D01*
X156313511Y-48150500D01*
X156380550Y-48170185D01*
G37*
%TD.AperFunction*%
%TA.AperFunction,Conductor*%
G36*
X168046231Y-42170185D02*
G01*
X168066873Y-42186819D01*
X168413181Y-42533127D01*
X168446666Y-42594450D01*
X168449500Y-42620808D01*
X168449500Y-45732601D01*
X168429815Y-45799640D01*
X168377011Y-45845395D01*
X168307853Y-45855339D01*
X168294668Y-45852707D01*
X168282177Y-45849500D01*
X168260955Y-45849500D01*
X168241555Y-45847973D01*
X168220596Y-45844653D01*
X168220595Y-45844653D01*
X168196786Y-45846903D01*
X168172230Y-45849225D01*
X168166392Y-45849500D01*
X167724500Y-45849500D01*
X167657461Y-45829815D01*
X167611706Y-45777011D01*
X167600500Y-45725500D01*
X167600499Y-45102129D01*
X167600498Y-45102123D01*
X167600183Y-45099184D01*
X167594091Y-45042517D01*
X167594090Y-45042515D01*
X167594090Y-45042512D01*
X167592308Y-45034969D01*
X167593773Y-45034622D01*
X167589409Y-44973651D01*
X167593819Y-44958633D01*
X167594089Y-44957488D01*
X167594091Y-44957483D01*
X167600500Y-44897873D01*
X167600499Y-44102128D01*
X167594091Y-44042517D01*
X167594090Y-44042515D01*
X167594090Y-44042512D01*
X167592308Y-44034969D01*
X167593773Y-44034622D01*
X167589409Y-43973651D01*
X167593819Y-43958633D01*
X167594089Y-43957488D01*
X167594091Y-43957483D01*
X167600500Y-43897873D01*
X167600499Y-43102128D01*
X167594091Y-43042517D01*
X167594090Y-43042515D01*
X167594090Y-43042512D01*
X167592308Y-43034969D01*
X167593773Y-43034622D01*
X167589409Y-42973651D01*
X167593819Y-42958633D01*
X167594089Y-42957488D01*
X167594088Y-42957488D01*
X167594091Y-42957483D01*
X167600500Y-42897873D01*
X167600499Y-42274499D01*
X167620183Y-42207461D01*
X167672987Y-42161706D01*
X167724499Y-42150500D01*
X167979192Y-42150500D01*
X168046231Y-42170185D01*
G37*
%TD.AperFunction*%
%TA.AperFunction,Conductor*%
G36*
X168991852Y-24010002D02*
G01*
X169224542Y-24019627D01*
X169229209Y-24019999D01*
X169473133Y-24048870D01*
X169635578Y-24069119D01*
X169704561Y-24077718D01*
X169708968Y-24078429D01*
X169950050Y-24126384D01*
X170178363Y-24174256D01*
X170182406Y-24175250D01*
X170398699Y-24236250D01*
X170418993Y-24241974D01*
X170642795Y-24308603D01*
X170646552Y-24309854D01*
X170877235Y-24394958D01*
X170946701Y-24422063D01*
X171094888Y-24479886D01*
X171098268Y-24481323D01*
X171321714Y-24584332D01*
X171531726Y-24687001D01*
X171534707Y-24688562D01*
X171749506Y-24808856D01*
X171950414Y-24928571D01*
X171953089Y-24930261D01*
X172157861Y-25067086D01*
X172348299Y-25203056D01*
X172350607Y-25204789D01*
X172451175Y-25284070D01*
X172544090Y-25357318D01*
X172723792Y-25509518D01*
X172905759Y-25677727D01*
X173072272Y-25844240D01*
X173240481Y-26026207D01*
X173392681Y-26205909D01*
X173545198Y-26399376D01*
X173546953Y-26401714D01*
X173669556Y-26573431D01*
X173682923Y-26592152D01*
X173819735Y-26796906D01*
X173821446Y-26799615D01*
X173941148Y-27000501D01*
X174061422Y-27215266D01*
X174063011Y-27218299D01*
X174165670Y-27428292D01*
X174268668Y-27651713D01*
X174270122Y-27655133D01*
X174355041Y-27872764D01*
X174440144Y-28103446D01*
X174441399Y-28107215D01*
X174508025Y-28331006D01*
X174574740Y-28567559D01*
X174575749Y-28571667D01*
X174623630Y-28800024D01*
X174671565Y-29041009D01*
X174672280Y-29045437D01*
X174701137Y-29276927D01*
X174729996Y-29520756D01*
X174730373Y-29525483D01*
X174740014Y-29758577D01*
X174749500Y-30000000D01*
X174749500Y-115000000D01*
X174740014Y-115241422D01*
X174730373Y-115474515D01*
X174729996Y-115479242D01*
X174701137Y-115723072D01*
X174672280Y-115954561D01*
X174671565Y-115958988D01*
X174623630Y-116199975D01*
X174575749Y-116428331D01*
X174574740Y-116432439D01*
X174508025Y-116668993D01*
X174441399Y-116892783D01*
X174440144Y-116896552D01*
X174355041Y-117127235D01*
X174270122Y-117344865D01*
X174268668Y-117348285D01*
X174165670Y-117571707D01*
X174063011Y-117781700D01*
X174061405Y-117784765D01*
X173941151Y-117999493D01*
X173821446Y-118200383D01*
X173819735Y-118203092D01*
X173682923Y-118407847D01*
X173546967Y-118598265D01*
X173545198Y-118600622D01*
X173392682Y-118794089D01*
X173240481Y-118973792D01*
X173072272Y-119155759D01*
X172905759Y-119322272D01*
X172723792Y-119490481D01*
X172544089Y-119642682D01*
X172350622Y-119795198D01*
X172348265Y-119796967D01*
X172157847Y-119932923D01*
X171953092Y-120069735D01*
X171950383Y-120071446D01*
X171749493Y-120191151D01*
X171534765Y-120311405D01*
X171531700Y-120313011D01*
X171321707Y-120415670D01*
X171098285Y-120518668D01*
X171094865Y-120520122D01*
X170877235Y-120605041D01*
X170646552Y-120690144D01*
X170642783Y-120691399D01*
X170418993Y-120758025D01*
X170182439Y-120824740D01*
X170178331Y-120825749D01*
X169949975Y-120873630D01*
X169708988Y-120921565D01*
X169704561Y-120922280D01*
X169473072Y-120951137D01*
X169229242Y-120979996D01*
X169224515Y-120980373D01*
X168991422Y-120990014D01*
X168750000Y-120999500D01*
X110750000Y-120999500D01*
X110508577Y-120990014D01*
X110275483Y-120980373D01*
X110270756Y-120979996D01*
X110026927Y-120951137D01*
X109795437Y-120922280D01*
X109791009Y-120921565D01*
X109550024Y-120873630D01*
X109321667Y-120825749D01*
X109317559Y-120824740D01*
X109081006Y-120758025D01*
X108857215Y-120691399D01*
X108853446Y-120690144D01*
X108622764Y-120605041D01*
X108405133Y-120520122D01*
X108401713Y-120518668D01*
X108178292Y-120415670D01*
X107968299Y-120313011D01*
X107965266Y-120311422D01*
X107750501Y-120191148D01*
X107549606Y-120071440D01*
X107546906Y-120069735D01*
X107342152Y-119932923D01*
X107323431Y-119919556D01*
X107151714Y-119796953D01*
X107149376Y-119795198D01*
X106955909Y-119642681D01*
X106776207Y-119490481D01*
X106594240Y-119322272D01*
X106427727Y-119155759D01*
X106259518Y-118973792D01*
X106107318Y-118794090D01*
X106089923Y-118772024D01*
X105954789Y-118600607D01*
X105953056Y-118598299D01*
X105817076Y-118407847D01*
X105680261Y-118203089D01*
X105678571Y-118200414D01*
X105558856Y-117999506D01*
X105438562Y-117784707D01*
X105436988Y-117781700D01*
X105334326Y-117571701D01*
X105231323Y-117348268D01*
X105229886Y-117344888D01*
X105144958Y-117127235D01*
X105067254Y-116916610D01*
X160687000Y-116916610D01*
X160726179Y-117126198D01*
X160803202Y-117325019D01*
X160915448Y-117506302D01*
X160975073Y-117571707D01*
X161059093Y-117663872D01*
X161229246Y-117792367D01*
X161420106Y-117887403D01*
X161420108Y-117887403D01*
X161420111Y-117887405D01*
X161625190Y-117945756D01*
X161784306Y-117960500D01*
X161784310Y-117960500D01*
X161890690Y-117960500D01*
X161890694Y-117960500D01*
X162049810Y-117945756D01*
X162254889Y-117887405D01*
X162254893Y-117887403D01*
X162254894Y-117887403D01*
X162445753Y-117792367D01*
X162445753Y-117792366D01*
X162445755Y-117792366D01*
X162615907Y-117663872D01*
X162759552Y-117506302D01*
X162871798Y-117325019D01*
X162948821Y-117126198D01*
X162988000Y-116916610D01*
X162988000Y-116703390D01*
X162948821Y-116493802D01*
X162871798Y-116294981D01*
X162759552Y-116113698D01*
X162615907Y-115956128D01*
X162613832Y-115954561D01*
X162445753Y-115827632D01*
X162254893Y-115732596D01*
X162049810Y-115674244D01*
X161890694Y-115659500D01*
X161784306Y-115659500D01*
X161657013Y-115671295D01*
X161625189Y-115674244D01*
X161420107Y-115732596D01*
X161420105Y-115732596D01*
X161229246Y-115827632D01*
X161059093Y-115956127D01*
X160915447Y-116113699D01*
X160803202Y-116294980D01*
X160803201Y-116294982D01*
X160751542Y-116428331D01*
X160726179Y-116493802D01*
X160687000Y-116703390D01*
X160687000Y-116916610D01*
X105067254Y-116916610D01*
X105059854Y-116896552D01*
X105058599Y-116892783D01*
X104991974Y-116668993D01*
X104954147Y-116534869D01*
X104925250Y-116432406D01*
X104924256Y-116428363D01*
X104876384Y-116200050D01*
X104828429Y-115958968D01*
X104827718Y-115954561D01*
X104802156Y-115749496D01*
X104798870Y-115723133D01*
X104769999Y-115479209D01*
X104769627Y-115474542D01*
X104760002Y-115241852D01*
X104750500Y-115000000D01*
X104750500Y-114999500D01*
X104750500Y-114947870D01*
X106287000Y-114947870D01*
X106287001Y-114947876D01*
X106293408Y-115007483D01*
X106343702Y-115142328D01*
X106343706Y-115142335D01*
X106429952Y-115257544D01*
X106429955Y-115257547D01*
X106545164Y-115343793D01*
X106545171Y-115343797D01*
X106680017Y-115394091D01*
X106680016Y-115394091D01*
X106686944Y-115394835D01*
X106739627Y-115400500D01*
X114285372Y-115400499D01*
X114344983Y-115394091D01*
X114479831Y-115343796D01*
X114595046Y-115257546D01*
X114681296Y-115142331D01*
X114731591Y-115007483D01*
X114738000Y-114947873D01*
X114737999Y-108752128D01*
X114731591Y-108692517D01*
X114708526Y-108630677D01*
X114681297Y-108557671D01*
X114681293Y-108557664D01*
X114595047Y-108442455D01*
X114595044Y-108442452D01*
X114479835Y-108356206D01*
X114479828Y-108356202D01*
X114344982Y-108305908D01*
X114344983Y-108305908D01*
X114285383Y-108299501D01*
X114285381Y-108299500D01*
X114285373Y-108299500D01*
X114285365Y-108299500D01*
X111637000Y-108299500D01*
X111569961Y-108279815D01*
X111524206Y-108227011D01*
X111513000Y-108175500D01*
X111513000Y-104524499D01*
X111532685Y-104457460D01*
X111585489Y-104411705D01*
X111637000Y-104400499D01*
X114285371Y-104400499D01*
X114285372Y-104400499D01*
X114344983Y-104394091D01*
X114479831Y-104343796D01*
X114492863Y-104334039D01*
X114558327Y-104309620D01*
X114626600Y-104324470D01*
X114674564Y-104371304D01*
X114767465Y-104532214D01*
X114894129Y-104672888D01*
X115047265Y-104784148D01*
X115047270Y-104784151D01*
X115220192Y-104861142D01*
X115220197Y-104861144D01*
X115405354Y-104900500D01*
X115405355Y-104900500D01*
X115594644Y-104900500D01*
X115594646Y-104900500D01*
X115779803Y-104861144D01*
X115952730Y-104784151D01*
X116104090Y-104674182D01*
X116169896Y-104650702D01*
X116176975Y-104650500D01*
X116679192Y-104650500D01*
X116746231Y-104670185D01*
X116766873Y-104686819D01*
X117613181Y-105533127D01*
X117646666Y-105594450D01*
X117649500Y-105620808D01*
X117649500Y-108014494D01*
X117647732Y-108030505D01*
X117647974Y-108030528D01*
X117647240Y-108038294D01*
X117649500Y-108110203D01*
X117649500Y-108140920D01*
X117649501Y-108140940D01*
X117650418Y-108148206D01*
X117650876Y-108154024D01*
X117652402Y-108202567D01*
X117652403Y-108202570D01*
X117658323Y-108222948D01*
X117662268Y-108241996D01*
X117664928Y-108263054D01*
X117664931Y-108263064D01*
X117682813Y-108308230D01*
X117684705Y-108313758D01*
X117698254Y-108360395D01*
X117698255Y-108360397D01*
X117709060Y-108378666D01*
X117717617Y-108396134D01*
X117721352Y-108405565D01*
X117725432Y-108415872D01*
X117753983Y-108455170D01*
X117757188Y-108460049D01*
X117781919Y-108501865D01*
X117781923Y-108501869D01*
X117796925Y-108516871D01*
X117809563Y-108531669D01*
X117822033Y-108548833D01*
X117822036Y-108548836D01*
X117822037Y-108548837D01*
X117859476Y-108579809D01*
X117863776Y-108583722D01*
X119284303Y-110004249D01*
X120679564Y-111399510D01*
X120689635Y-111412080D01*
X120689822Y-111411926D01*
X120694796Y-111417937D01*
X120694798Y-111417940D01*
X120719852Y-111441467D01*
X120747243Y-111467190D01*
X120768967Y-111488913D01*
X120774757Y-111493405D01*
X120779197Y-111497197D01*
X120808498Y-111524711D01*
X120814607Y-111530448D01*
X120814609Y-111530449D01*
X120833205Y-111540672D01*
X120849470Y-111551357D01*
X120866232Y-111564360D01*
X120866235Y-111564361D01*
X120866236Y-111564362D01*
X120910823Y-111583656D01*
X120916059Y-111586221D01*
X120958632Y-111609627D01*
X120974340Y-111613659D01*
X120979186Y-111614904D01*
X120997598Y-111621207D01*
X121017073Y-111629635D01*
X121065071Y-111637237D01*
X121070740Y-111638411D01*
X121117823Y-111650500D01*
X121139051Y-111650500D01*
X121158448Y-111652026D01*
X121179403Y-111655345D01*
X121179404Y-111655346D01*
X121179404Y-111655345D01*
X121179405Y-111655346D01*
X121227761Y-111650775D01*
X121233599Y-111650500D01*
X122494932Y-111650500D01*
X122560903Y-111669505D01*
X122650478Y-111725789D01*
X122721044Y-111750481D01*
X122725611Y-111752079D01*
X122782387Y-111792801D01*
X122808135Y-111857754D01*
X122794679Y-111926315D01*
X122750630Y-111974114D01*
X122660905Y-112030493D01*
X122594932Y-112049500D01*
X119720808Y-112049500D01*
X119653769Y-112029815D01*
X119633127Y-112013181D01*
X116886819Y-109266873D01*
X116853334Y-109205550D01*
X116850500Y-109179192D01*
X116850500Y-106885501D01*
X116852268Y-106869488D01*
X116852026Y-106869466D01*
X116852758Y-106861710D01*
X116852760Y-106861703D01*
X116850500Y-106789795D01*
X116850500Y-106759075D01*
X116849579Y-106751788D01*
X116849122Y-106745979D01*
X116848331Y-106720808D01*
X116847597Y-106697430D01*
X116841676Y-106677052D01*
X116837731Y-106658003D01*
X116835071Y-106636942D01*
X116817186Y-106591772D01*
X116815297Y-106586252D01*
X116801743Y-106539599D01*
X116790941Y-106521335D01*
X116782379Y-106503858D01*
X116781351Y-106501262D01*
X116774568Y-106484129D01*
X116746014Y-106444828D01*
X116742810Y-106439950D01*
X116739058Y-106433606D01*
X116718081Y-106398135D01*
X116703075Y-106383129D01*
X116690435Y-106368330D01*
X116677961Y-106351160D01*
X116640528Y-106320194D01*
X116636206Y-106316260D01*
X116020434Y-105700488D01*
X116010361Y-105687914D01*
X116010174Y-105688070D01*
X116005201Y-105682059D01*
X115952756Y-105632810D01*
X115931035Y-105611089D01*
X115925240Y-105606594D01*
X115920798Y-105602799D01*
X115885396Y-105569554D01*
X115885388Y-105569548D01*
X115866792Y-105559325D01*
X115850531Y-105548644D01*
X115833763Y-105535637D01*
X115810295Y-105525482D01*
X115789178Y-105516343D01*
X115783956Y-105513786D01*
X115741368Y-105490373D01*
X115741365Y-105490372D01*
X115720801Y-105485092D01*
X115702396Y-105478790D01*
X115682927Y-105470365D01*
X115682921Y-105470363D01*
X115634951Y-105462766D01*
X115629236Y-105461582D01*
X115612772Y-105457355D01*
X115582180Y-105449500D01*
X115582177Y-105449500D01*
X115560955Y-105449500D01*
X115541555Y-105447973D01*
X115520596Y-105444653D01*
X115520595Y-105444653D01*
X115506145Y-105446019D01*
X115472230Y-105449225D01*
X115466392Y-105449500D01*
X113705068Y-105449500D01*
X113639096Y-105430494D01*
X113549522Y-105374210D01*
X113549518Y-105374209D01*
X113379262Y-105314633D01*
X113379249Y-105314630D01*
X113200004Y-105294435D01*
X113199996Y-105294435D01*
X113020750Y-105314630D01*
X113020745Y-105314631D01*
X112850476Y-105374211D01*
X112697737Y-105470184D01*
X112570184Y-105597737D01*
X112474211Y-105750476D01*
X112414631Y-105920745D01*
X112414630Y-105920750D01*
X112394435Y-106099996D01*
X112394435Y-106100003D01*
X112414630Y-106279249D01*
X112414631Y-106279254D01*
X112474211Y-106449523D01*
X112519334Y-106521335D01*
X112570184Y-106602262D01*
X112697738Y-106729816D01*
X112744307Y-106759077D01*
X112832721Y-106814632D01*
X112850478Y-106825789D01*
X112988857Y-106874210D01*
X113020745Y-106885368D01*
X113020750Y-106885369D01*
X113199996Y-106905565D01*
X113200000Y-106905565D01*
X113200004Y-106905565D01*
X113379249Y-106885369D01*
X113379251Y-106885368D01*
X113379255Y-106885368D01*
X113379258Y-106885366D01*
X113379262Y-106885366D01*
X113511164Y-106839211D01*
X113549522Y-106825789D01*
X113639096Y-106769505D01*
X113705068Y-106750500D01*
X115179192Y-106750500D01*
X115246231Y-106770185D01*
X115266873Y-106786819D01*
X115513181Y-107033127D01*
X115546666Y-107094450D01*
X115549500Y-107120808D01*
X115549500Y-109414494D01*
X115547732Y-109430505D01*
X115547974Y-109430528D01*
X115547240Y-109438294D01*
X115549500Y-109510203D01*
X115549500Y-109540920D01*
X115549501Y-109540940D01*
X115550418Y-109548206D01*
X115550876Y-109554024D01*
X115552402Y-109602567D01*
X115552403Y-109602570D01*
X115558323Y-109622948D01*
X115562268Y-109641996D01*
X115564928Y-109663054D01*
X115564931Y-109663064D01*
X115582813Y-109708230D01*
X115584705Y-109713758D01*
X115598254Y-109760395D01*
X115598255Y-109760397D01*
X115609060Y-109778666D01*
X115617617Y-109796134D01*
X115623226Y-109810300D01*
X115625432Y-109815872D01*
X115653983Y-109855170D01*
X115657188Y-109860049D01*
X115681919Y-109901865D01*
X115681923Y-109901869D01*
X115696925Y-109916871D01*
X115709563Y-109931669D01*
X115722033Y-109948833D01*
X115722036Y-109948836D01*
X115722037Y-109948837D01*
X115759476Y-109979809D01*
X115763776Y-109983722D01*
X117325427Y-111545373D01*
X118879564Y-113099510D01*
X118889635Y-113112080D01*
X118889822Y-113111926D01*
X118894796Y-113117937D01*
X118894798Y-113117940D01*
X118923345Y-113144748D01*
X118947243Y-113167190D01*
X118968967Y-113188913D01*
X118974757Y-113193405D01*
X118979197Y-113197197D01*
X119008498Y-113224711D01*
X119014607Y-113230448D01*
X119014609Y-113230449D01*
X119033205Y-113240672D01*
X119049470Y-113251357D01*
X119066232Y-113264360D01*
X119066235Y-113264361D01*
X119066236Y-113264362D01*
X119110823Y-113283656D01*
X119116059Y-113286221D01*
X119158632Y-113309627D01*
X119174340Y-113313659D01*
X119179186Y-113314904D01*
X119197598Y-113321207D01*
X119217073Y-113329635D01*
X119265071Y-113337237D01*
X119270740Y-113338411D01*
X119317823Y-113350500D01*
X119339051Y-113350500D01*
X119358448Y-113352026D01*
X119379403Y-113355345D01*
X119379404Y-113355346D01*
X119379404Y-113355345D01*
X119379405Y-113355346D01*
X119427761Y-113350775D01*
X119433599Y-113350500D01*
X122594932Y-113350500D01*
X122660904Y-113369506D01*
X122750477Y-113425789D01*
X122750481Y-113425790D01*
X122920737Y-113485366D01*
X122920743Y-113485367D01*
X122920745Y-113485368D01*
X122920746Y-113485368D01*
X122920750Y-113485369D01*
X123099996Y-113505565D01*
X123100000Y-113505565D01*
X123100004Y-113505565D01*
X123279249Y-113485369D01*
X123279252Y-113485368D01*
X123279255Y-113485368D01*
X123449522Y-113425789D01*
X123602262Y-113329816D01*
X123729816Y-113202262D01*
X123825789Y-113049522D01*
X123885368Y-112879255D01*
X123885369Y-112879249D01*
X123905565Y-112700003D01*
X123905565Y-112699996D01*
X123885369Y-112520750D01*
X123885368Y-112520745D01*
X123837773Y-112384727D01*
X123825789Y-112350478D01*
X123729816Y-112197738D01*
X123602262Y-112070184D01*
X123449522Y-111974211D01*
X123449519Y-111974209D01*
X123374387Y-111947919D01*
X123317611Y-111907198D01*
X123291864Y-111842245D01*
X123305320Y-111773683D01*
X123349370Y-111725884D01*
X123349520Y-111725789D01*
X123349522Y-111725789D01*
X123502262Y-111629816D01*
X123629816Y-111502262D01*
X123725789Y-111349522D01*
X123785368Y-111179255D01*
X123787077Y-111164086D01*
X123805565Y-111000003D01*
X123805565Y-110999996D01*
X123785369Y-110820750D01*
X123785368Y-110820745D01*
X123769745Y-110776097D01*
X123725789Y-110650478D01*
X123725174Y-110649500D01*
X123663150Y-110550789D01*
X123629816Y-110497738D01*
X123502262Y-110370184D01*
X123439096Y-110330494D01*
X123349523Y-110274211D01*
X123179254Y-110214631D01*
X123179249Y-110214630D01*
X123000004Y-110194435D01*
X122999996Y-110194435D01*
X122820750Y-110214630D01*
X122820737Y-110214633D01*
X122650481Y-110274209D01*
X122650477Y-110274210D01*
X122560904Y-110330494D01*
X122494932Y-110349500D01*
X121520808Y-110349500D01*
X121453769Y-110329815D01*
X121433127Y-110313181D01*
X118986819Y-107866873D01*
X118953334Y-107805550D01*
X118950500Y-107779192D01*
X118950500Y-105385503D01*
X118952268Y-105369491D01*
X118952026Y-105369469D01*
X118952760Y-105361706D01*
X118950500Y-105289782D01*
X118950500Y-105259078D01*
X118950500Y-105259075D01*
X118949579Y-105251792D01*
X118949123Y-105245987D01*
X118947598Y-105197431D01*
X118941676Y-105177050D01*
X118937731Y-105157995D01*
X118935072Y-105136949D01*
X118935071Y-105136948D01*
X118935071Y-105136942D01*
X118917189Y-105091779D01*
X118915300Y-105086259D01*
X118913044Y-105078494D01*
X118901745Y-105039602D01*
X118901142Y-105038583D01*
X118890936Y-105021324D01*
X118882378Y-105003855D01*
X118874568Y-104984129D01*
X118846006Y-104944818D01*
X118842818Y-104939964D01*
X118818081Y-104898135D01*
X118803075Y-104883129D01*
X118790435Y-104868330D01*
X118787137Y-104863791D01*
X118777963Y-104851163D01*
X118777961Y-104851160D01*
X118740528Y-104820194D01*
X118736206Y-104816260D01*
X117520434Y-103600488D01*
X117510361Y-103587914D01*
X117510174Y-103588070D01*
X117505201Y-103582059D01*
X117452756Y-103532810D01*
X117431035Y-103511089D01*
X117425240Y-103506594D01*
X117420798Y-103502799D01*
X117385396Y-103469554D01*
X117385388Y-103469548D01*
X117366792Y-103459325D01*
X117350531Y-103448644D01*
X117333763Y-103435637D01*
X117299501Y-103420811D01*
X117289178Y-103416343D01*
X117283956Y-103413786D01*
X117241368Y-103390373D01*
X117241365Y-103390372D01*
X117220801Y-103385092D01*
X117202396Y-103378790D01*
X117182927Y-103370365D01*
X117182921Y-103370363D01*
X117134951Y-103362766D01*
X117129236Y-103361582D01*
X117112772Y-103357355D01*
X117082180Y-103349500D01*
X117082177Y-103349500D01*
X117060955Y-103349500D01*
X117041555Y-103347973D01*
X117020596Y-103344653D01*
X117020595Y-103344653D01*
X116996786Y-103346903D01*
X116972230Y-103349225D01*
X116966392Y-103349500D01*
X116176975Y-103349500D01*
X116109936Y-103329815D01*
X116104090Y-103325818D01*
X115952734Y-103215851D01*
X115952729Y-103215848D01*
X115779807Y-103138857D01*
X115779802Y-103138855D01*
X115634001Y-103107865D01*
X115594646Y-103099500D01*
X115405354Y-103099500D01*
X115372897Y-103106398D01*
X115220197Y-103138855D01*
X115220192Y-103138857D01*
X115047270Y-103215848D01*
X115047265Y-103215851D01*
X114934884Y-103297501D01*
X114869078Y-103320981D01*
X114801024Y-103305155D01*
X114752329Y-103255049D01*
X114737999Y-103197183D01*
X114737999Y-97752129D01*
X114737998Y-97752123D01*
X114737997Y-97752116D01*
X114731591Y-97692517D01*
X114704454Y-97619760D01*
X114681297Y-97557671D01*
X114681293Y-97557664D01*
X114595047Y-97442455D01*
X114595044Y-97442452D01*
X114479835Y-97356206D01*
X114479828Y-97356202D01*
X114344982Y-97305908D01*
X114344983Y-97305908D01*
X114285383Y-97299501D01*
X114285381Y-97299500D01*
X114285373Y-97299500D01*
X114285364Y-97299500D01*
X106739629Y-97299500D01*
X106739623Y-97299501D01*
X106680016Y-97305908D01*
X106545171Y-97356202D01*
X106545164Y-97356206D01*
X106429955Y-97442452D01*
X106429952Y-97442455D01*
X106343706Y-97557664D01*
X106343702Y-97557671D01*
X106293408Y-97692517D01*
X106287001Y-97752116D01*
X106287001Y-97752123D01*
X106287000Y-97752135D01*
X106287000Y-103947870D01*
X106287001Y-103947876D01*
X106293408Y-104007483D01*
X106343702Y-104142328D01*
X106343706Y-104142335D01*
X106429952Y-104257544D01*
X106429955Y-104257547D01*
X106545164Y-104343793D01*
X106545171Y-104343797D01*
X106680017Y-104394091D01*
X106680016Y-104394091D01*
X106686944Y-104394835D01*
X106739627Y-104400500D01*
X109388000Y-104400499D01*
X109455039Y-104420184D01*
X109500794Y-104472987D01*
X109512000Y-104524499D01*
X109512000Y-108175500D01*
X109492315Y-108242539D01*
X109439511Y-108288294D01*
X109388000Y-108299500D01*
X106739629Y-108299500D01*
X106739623Y-108299501D01*
X106680016Y-108305908D01*
X106545171Y-108356202D01*
X106545164Y-108356206D01*
X106429955Y-108442452D01*
X106429952Y-108442455D01*
X106343706Y-108557664D01*
X106343702Y-108557671D01*
X106293408Y-108692517D01*
X106287001Y-108752116D01*
X106287001Y-108752123D01*
X106287000Y-108752135D01*
X106287000Y-114947870D01*
X104750500Y-114947870D01*
X104750500Y-93712985D01*
X111410000Y-93712985D01*
X111416184Y-93791563D01*
X111416184Y-93791564D01*
X111465150Y-93974307D01*
X111551037Y-94142873D01*
X111551038Y-94142875D01*
X111670099Y-94289900D01*
X111817124Y-94408961D01*
X111817126Y-94408962D01*
X111985692Y-94494849D01*
X112168436Y-94543815D01*
X112247015Y-94550000D01*
X112710000Y-94550000D01*
X112710000Y-93604310D01*
X112718817Y-93609158D01*
X112877886Y-93650000D01*
X113000894Y-93650000D01*
X113122933Y-93634583D01*
X113210000Y-93600110D01*
X113210000Y-94550000D01*
X113672985Y-94550000D01*
X113751563Y-94543815D01*
X113751564Y-94543815D01*
X113934307Y-94494849D01*
X114102873Y-94408962D01*
X114102875Y-94408961D01*
X114249900Y-94289900D01*
X114368961Y-94142875D01*
X114368962Y-94142873D01*
X114454849Y-93974307D01*
X114503815Y-93791564D01*
X114503815Y-93791563D01*
X114510000Y-93712985D01*
X114510000Y-93250000D01*
X113560728Y-93250000D01*
X113583100Y-93202457D01*
X113613873Y-93041138D01*
X113611285Y-93000004D01*
X116234451Y-93000004D01*
X116254616Y-93269101D01*
X116314664Y-93532188D01*
X116314666Y-93532195D01*
X116413256Y-93783396D01*
X116413258Y-93783400D01*
X116423131Y-93800500D01*
X116548185Y-94017102D01*
X116681385Y-94184129D01*
X116716442Y-94228089D01*
X116875315Y-94375500D01*
X116914259Y-94411635D01*
X117137226Y-94563651D01*
X117380359Y-94680738D01*
X117638228Y-94760280D01*
X117638229Y-94760280D01*
X117638232Y-94760281D01*
X117905063Y-94800499D01*
X117905068Y-94800499D01*
X117905071Y-94800500D01*
X117905072Y-94800500D01*
X118174928Y-94800500D01*
X118174929Y-94800500D01*
X118174936Y-94800499D01*
X118441767Y-94760281D01*
X118441768Y-94760280D01*
X118441772Y-94760280D01*
X118699641Y-94680738D01*
X118897399Y-94585503D01*
X118942767Y-94563655D01*
X118942767Y-94563654D01*
X118942775Y-94563651D01*
X119165741Y-94411635D01*
X119339403Y-94250500D01*
X119363557Y-94228089D01*
X119363557Y-94228087D01*
X119363561Y-94228085D01*
X119531815Y-94017102D01*
X119666743Y-93783398D01*
X119738720Y-93600005D01*
X122881857Y-93600005D01*
X122902390Y-93847812D01*
X122902392Y-93847824D01*
X122963436Y-94088881D01*
X123063326Y-94316606D01*
X123199333Y-94524782D01*
X123205716Y-94531716D01*
X123367756Y-94707738D01*
X123563991Y-94860474D01*
X123782690Y-94978828D01*
X124017886Y-95059571D01*
X124263165Y-95100500D01*
X124511835Y-95100500D01*
X124757114Y-95059571D01*
X124992310Y-94978828D01*
X125211009Y-94860474D01*
X125407244Y-94707738D01*
X125575664Y-94524785D01*
X125711673Y-94316607D01*
X125711675Y-94316601D01*
X125712286Y-94315475D01*
X125712657Y-94315101D01*
X125714478Y-94312314D01*
X125715051Y-94312688D01*
X125761509Y-94265888D01*
X125821337Y-94250500D01*
X129453663Y-94250500D01*
X129520702Y-94270185D01*
X129560061Y-94312615D01*
X129560522Y-94312314D01*
X129562285Y-94315012D01*
X129562714Y-94315475D01*
X129563326Y-94316606D01*
X129699333Y-94524782D01*
X129705716Y-94531716D01*
X129867756Y-94707738D01*
X130063991Y-94860474D01*
X130282690Y-94978828D01*
X130517886Y-95059571D01*
X130763165Y-95100500D01*
X131011835Y-95100500D01*
X131257114Y-95059571D01*
X131492310Y-94978828D01*
X131711009Y-94860474D01*
X131907244Y-94707738D01*
X132075664Y-94524785D01*
X132121691Y-94454334D01*
X132174837Y-94408978D01*
X132244068Y-94399554D01*
X132307404Y-94429055D01*
X132344736Y-94488116D01*
X132349500Y-94522156D01*
X132349500Y-102879192D01*
X132329815Y-102946231D01*
X132313181Y-102966873D01*
X131066873Y-104213181D01*
X131005550Y-104246666D01*
X130979192Y-104249500D01*
X127485506Y-104249500D01*
X127469495Y-104247732D01*
X127469473Y-104247974D01*
X127461706Y-104247239D01*
X127389783Y-104249500D01*
X127359075Y-104249500D01*
X127359071Y-104249500D01*
X127359060Y-104249501D01*
X127351804Y-104250417D01*
X127345986Y-104250875D01*
X127297433Y-104252401D01*
X127282873Y-104256630D01*
X127277040Y-104258325D01*
X127257996Y-104262269D01*
X127236942Y-104264929D01*
X127236940Y-104264929D01*
X127191781Y-104282808D01*
X127186255Y-104284700D01*
X127139601Y-104298254D01*
X127121325Y-104309063D01*
X127103860Y-104317619D01*
X127084124Y-104325433D01*
X127044824Y-104353986D01*
X127039942Y-104357193D01*
X126998136Y-104381917D01*
X126983124Y-104396929D01*
X126968336Y-104409558D01*
X126951167Y-104422032D01*
X126951165Y-104422034D01*
X126920194Y-104459470D01*
X126916262Y-104463791D01*
X126000483Y-105379569D01*
X125987910Y-105389643D01*
X125988065Y-105389830D01*
X125982059Y-105394798D01*
X125957434Y-105421021D01*
X125932809Y-105447244D01*
X125921949Y-105458104D01*
X125911088Y-105468965D01*
X125911078Y-105468977D01*
X125906587Y-105474765D01*
X125902801Y-105479197D01*
X125869552Y-105514606D01*
X125859322Y-105533213D01*
X125848646Y-105549464D01*
X125835640Y-105566232D01*
X125835636Y-105566238D01*
X125816348Y-105610811D01*
X125813777Y-105616058D01*
X125790372Y-105658630D01*
X125790372Y-105658631D01*
X125785091Y-105679199D01*
X125778791Y-105697601D01*
X125770364Y-105717073D01*
X125762766Y-105765047D01*
X125761581Y-105770770D01*
X125749500Y-105817818D01*
X125749500Y-105839044D01*
X125747973Y-105858444D01*
X125744653Y-105879403D01*
X125749225Y-105927767D01*
X125749500Y-105933606D01*
X125749500Y-111594931D01*
X125730494Y-111660903D01*
X125674211Y-111750477D01*
X125674209Y-111750481D01*
X125614633Y-111920737D01*
X125614630Y-111920750D01*
X125594435Y-112099996D01*
X125594435Y-112100003D01*
X125614630Y-112279249D01*
X125614631Y-112279254D01*
X125674211Y-112449523D01*
X125742710Y-112558538D01*
X125770184Y-112602262D01*
X125897738Y-112729816D01*
X126050478Y-112825789D01*
X126204878Y-112879816D01*
X126220745Y-112885368D01*
X126220750Y-112885369D01*
X126399996Y-112905565D01*
X126400000Y-112905565D01*
X126400004Y-112905565D01*
X126579249Y-112885369D01*
X126579252Y-112885368D01*
X126579255Y-112885368D01*
X126749522Y-112825789D01*
X126902262Y-112729816D01*
X127029816Y-112602262D01*
X127120506Y-112457930D01*
X127172841Y-112411639D01*
X127241895Y-112400991D01*
X127305743Y-112429366D01*
X127344115Y-112487756D01*
X127349500Y-112523902D01*
X127349500Y-115244431D01*
X127330494Y-115310403D01*
X127274211Y-115399977D01*
X127274209Y-115399981D01*
X127214633Y-115570237D01*
X127214630Y-115570250D01*
X127194435Y-115749496D01*
X127194435Y-115749503D01*
X127214630Y-115928749D01*
X127214631Y-115928754D01*
X127274211Y-116099023D01*
X127283433Y-116113699D01*
X127370184Y-116251762D01*
X127497738Y-116379316D01*
X127650478Y-116475289D01*
X127820745Y-116534868D01*
X127820750Y-116534869D01*
X127999996Y-116555065D01*
X128000000Y-116555065D01*
X128000004Y-116555065D01*
X128179249Y-116534869D01*
X128179252Y-116534868D01*
X128179255Y-116534868D01*
X128349522Y-116475289D01*
X128502262Y-116379316D01*
X128629816Y-116251762D01*
X128725789Y-116099022D01*
X128785368Y-115928755D01*
X128785369Y-115928749D01*
X128805565Y-115749503D01*
X128805565Y-115749496D01*
X128785369Y-115570250D01*
X128785366Y-115570237D01*
X128725790Y-115399981D01*
X128725789Y-115399978D01*
X128690486Y-115343793D01*
X128669506Y-115310403D01*
X128650500Y-115244431D01*
X128650500Y-114427476D01*
X128670185Y-114360437D01*
X128722989Y-114314682D01*
X128788385Y-114304256D01*
X128800000Y-114305565D01*
X128800001Y-114305564D01*
X128800002Y-114305565D01*
X128800004Y-114305565D01*
X128979247Y-114285369D01*
X128979247Y-114285368D01*
X128979255Y-114285368D01*
X128979261Y-114285365D01*
X128982583Y-114284608D01*
X128984802Y-114284743D01*
X128986176Y-114284589D01*
X128986203Y-114284829D01*
X129052322Y-114288874D01*
X129097869Y-114317815D01*
X129679564Y-114899510D01*
X129689635Y-114912080D01*
X129689822Y-114911926D01*
X129694796Y-114917937D01*
X129694798Y-114917940D01*
X129714254Y-114936210D01*
X129747243Y-114967190D01*
X129768966Y-114988912D01*
X129774758Y-114993405D01*
X129779198Y-114997198D01*
X129790150Y-115007482D01*
X129814607Y-115030448D01*
X129833198Y-115040668D01*
X129849463Y-115051352D01*
X129866234Y-115064361D01*
X129866237Y-115064363D01*
X129910827Y-115083658D01*
X129916056Y-115086220D01*
X129958632Y-115109627D01*
X129979193Y-115114905D01*
X129997597Y-115121207D01*
X130017074Y-115129636D01*
X130051392Y-115135071D01*
X130065054Y-115137235D01*
X130070764Y-115138417D01*
X130117823Y-115150500D01*
X130139045Y-115150500D01*
X130158442Y-115152026D01*
X130179405Y-115155347D01*
X130227772Y-115150774D01*
X130233609Y-115150500D01*
X144414495Y-115150500D01*
X144430505Y-115152267D01*
X144430528Y-115152026D01*
X144438289Y-115152758D01*
X144438296Y-115152760D01*
X144510203Y-115150500D01*
X144540925Y-115150500D01*
X144548190Y-115149581D01*
X144554016Y-115149122D01*
X144602569Y-115147597D01*
X144622956Y-115141673D01*
X144641996Y-115137731D01*
X144663058Y-115135071D01*
X144708235Y-115117183D01*
X144713735Y-115115300D01*
X144760398Y-115101744D01*
X144778665Y-115090939D01*
X144796136Y-115082380D01*
X144815871Y-115074568D01*
X144855177Y-115046010D01*
X144860043Y-115042813D01*
X144901865Y-115018081D01*
X144916870Y-115003075D01*
X144931668Y-114990436D01*
X144933766Y-114988912D01*
X144948837Y-114977963D01*
X144973731Y-114947870D01*
X162037000Y-114947870D01*
X162037001Y-114947876D01*
X162043408Y-115007483D01*
X162093702Y-115142328D01*
X162093706Y-115142335D01*
X162179952Y-115257544D01*
X162179955Y-115257547D01*
X162295164Y-115343793D01*
X162295171Y-115343797D01*
X162430017Y-115394091D01*
X162430016Y-115394091D01*
X162436944Y-115394835D01*
X162489627Y-115400500D01*
X170035372Y-115400499D01*
X170094983Y-115394091D01*
X170229831Y-115343796D01*
X170345046Y-115257546D01*
X170431296Y-115142331D01*
X170481591Y-115007483D01*
X170488000Y-114947873D01*
X170487999Y-113057399D01*
X170507684Y-112990361D01*
X170560487Y-112944606D01*
X170629646Y-112934662D01*
X170647992Y-112938739D01*
X170803868Y-112986024D01*
X171000000Y-113005341D01*
X171196132Y-112986024D01*
X171384727Y-112928814D01*
X171408050Y-112916348D01*
X171477447Y-112879254D01*
X171558538Y-112835910D01*
X171710883Y-112710883D01*
X171835910Y-112558538D01*
X171905014Y-112429254D01*
X171928811Y-112384733D01*
X171928811Y-112384732D01*
X171928814Y-112384727D01*
X171986024Y-112196132D01*
X172005341Y-112000000D01*
X171986024Y-111803868D01*
X171928814Y-111615273D01*
X171928811Y-111615269D01*
X171928811Y-111615266D01*
X171835913Y-111441467D01*
X171835909Y-111441460D01*
X171710883Y-111289116D01*
X171558539Y-111164090D01*
X171558532Y-111164086D01*
X171384733Y-111071188D01*
X171384727Y-111071186D01*
X171196132Y-111013976D01*
X171196129Y-111013975D01*
X171000000Y-110994659D01*
X170803869Y-111013975D01*
X170647994Y-111061260D01*
X170578127Y-111061883D01*
X170519014Y-111024635D01*
X170489424Y-110961341D01*
X170487999Y-110942599D01*
X170487999Y-108752129D01*
X170487998Y-108752123D01*
X170487997Y-108752116D01*
X170481591Y-108692517D01*
X170458526Y-108630677D01*
X170431297Y-108557671D01*
X170431293Y-108557664D01*
X170345047Y-108442455D01*
X170345044Y-108442452D01*
X170229835Y-108356206D01*
X170229828Y-108356202D01*
X170094982Y-108305908D01*
X170094983Y-108305908D01*
X170035383Y-108299501D01*
X170035381Y-108299500D01*
X170035373Y-108299500D01*
X170035364Y-108299500D01*
X162489629Y-108299500D01*
X162489623Y-108299501D01*
X162430016Y-108305908D01*
X162295171Y-108356202D01*
X162295164Y-108356206D01*
X162179955Y-108442452D01*
X162179952Y-108442455D01*
X162093706Y-108557664D01*
X162093702Y-108557671D01*
X162043408Y-108692517D01*
X162037001Y-108752116D01*
X162037001Y-108752123D01*
X162037000Y-108752135D01*
X162037000Y-114947870D01*
X144973731Y-114947870D01*
X144979809Y-114940522D01*
X144983723Y-114936221D01*
X147399513Y-112520431D01*
X147412079Y-112510365D01*
X147411925Y-112510178D01*
X147417937Y-112505204D01*
X147417937Y-112505203D01*
X147417940Y-112505202D01*
X147467190Y-112452755D01*
X147488911Y-112431035D01*
X147493401Y-112425245D01*
X147497183Y-112420815D01*
X147530448Y-112385393D01*
X147540670Y-112366796D01*
X147551348Y-112350539D01*
X147564362Y-112333764D01*
X147583664Y-112289157D01*
X147586208Y-112283963D01*
X147609627Y-112241368D01*
X147614906Y-112220808D01*
X147621209Y-112202399D01*
X147623226Y-112197738D01*
X147629636Y-112182926D01*
X147637235Y-112134945D01*
X147638417Y-112129234D01*
X147650500Y-112082177D01*
X147650500Y-112060955D01*
X147652027Y-112041555D01*
X147653779Y-112030493D01*
X147655347Y-112020595D01*
X147650775Y-111972230D01*
X147650500Y-111966392D01*
X147650500Y-109825003D01*
X159194435Y-109825003D01*
X159214630Y-110004249D01*
X159214631Y-110004254D01*
X159274211Y-110174523D01*
X159336849Y-110274210D01*
X159370184Y-110327262D01*
X159497738Y-110454816D01*
X159650478Y-110550789D01*
X159705906Y-110570184D01*
X159820745Y-110610368D01*
X159820750Y-110610369D01*
X159999996Y-110630565D01*
X160000000Y-110630565D01*
X160000004Y-110630565D01*
X160179249Y-110610369D01*
X160179252Y-110610368D01*
X160179255Y-110610368D01*
X160349522Y-110550789D01*
X160502262Y-110454816D01*
X160629816Y-110327262D01*
X160725789Y-110174522D01*
X160785368Y-110004255D01*
X160785369Y-110004249D01*
X160805565Y-109825003D01*
X160805565Y-109824996D01*
X160785369Y-109645750D01*
X160785366Y-109645737D01*
X160725790Y-109475481D01*
X160725789Y-109475478D01*
X160696073Y-109428185D01*
X160669506Y-109385903D01*
X160650500Y-109319931D01*
X160650500Y-106720808D01*
X160670185Y-106653769D01*
X160686819Y-106633127D01*
X161333127Y-105986819D01*
X161394450Y-105953334D01*
X161420808Y-105950500D01*
X170814495Y-105950500D01*
X170830505Y-105952267D01*
X170830528Y-105952026D01*
X170838289Y-105952758D01*
X170838296Y-105952760D01*
X170910203Y-105950500D01*
X170940925Y-105950500D01*
X170948190Y-105949581D01*
X170954016Y-105949122D01*
X171002569Y-105947597D01*
X171022956Y-105941673D01*
X171041996Y-105937731D01*
X171063058Y-105935071D01*
X171108235Y-105917183D01*
X171113735Y-105915300D01*
X171160398Y-105901744D01*
X171178665Y-105890939D01*
X171196136Y-105882380D01*
X171215871Y-105874568D01*
X171255177Y-105846010D01*
X171260043Y-105842813D01*
X171301865Y-105818081D01*
X171316870Y-105803075D01*
X171331668Y-105790436D01*
X171348837Y-105777963D01*
X171379809Y-105740522D01*
X171383723Y-105736221D01*
X172399513Y-104720431D01*
X172412079Y-104710365D01*
X172411925Y-104710178D01*
X172417937Y-104705204D01*
X172417937Y-104705203D01*
X172417940Y-104705202D01*
X172467190Y-104652755D01*
X172488911Y-104631035D01*
X172493401Y-104625245D01*
X172497183Y-104620815D01*
X172530448Y-104585393D01*
X172540670Y-104566796D01*
X172551348Y-104550539D01*
X172564362Y-104533764D01*
X172583664Y-104489157D01*
X172586208Y-104483963D01*
X172609627Y-104441368D01*
X172614591Y-104422034D01*
X172614906Y-104420808D01*
X172621209Y-104402399D01*
X172624804Y-104394091D01*
X172629636Y-104382926D01*
X172637235Y-104334945D01*
X172638417Y-104329234D01*
X172650500Y-104282177D01*
X172650500Y-104260955D01*
X172652027Y-104241555D01*
X172655347Y-104220595D01*
X172650775Y-104172230D01*
X172650500Y-104166392D01*
X172650500Y-85685501D01*
X172652268Y-85669488D01*
X172652026Y-85669466D01*
X172652758Y-85661710D01*
X172652760Y-85661703D01*
X172650500Y-85589795D01*
X172650500Y-85559075D01*
X172649579Y-85551788D01*
X172649122Y-85545979D01*
X172647597Y-85497430D01*
X172641676Y-85477052D01*
X172637731Y-85458003D01*
X172635071Y-85436942D01*
X172617186Y-85391772D01*
X172615297Y-85386252D01*
X172601743Y-85339599D01*
X172590941Y-85321335D01*
X172582379Y-85303858D01*
X172581351Y-85301262D01*
X172574568Y-85284129D01*
X172546014Y-85244828D01*
X172542810Y-85239950D01*
X172518082Y-85198137D01*
X172518081Y-85198135D01*
X172503075Y-85183129D01*
X172490435Y-85168330D01*
X172477961Y-85151160D01*
X172440528Y-85120194D01*
X172436206Y-85116260D01*
X171820434Y-84500488D01*
X171810361Y-84487914D01*
X171810174Y-84488070D01*
X171805201Y-84482059D01*
X171752756Y-84432810D01*
X171731035Y-84411089D01*
X171725240Y-84406594D01*
X171720798Y-84402799D01*
X171685396Y-84369554D01*
X171685388Y-84369548D01*
X171666792Y-84359325D01*
X171650531Y-84348644D01*
X171633763Y-84335637D01*
X171610295Y-84325482D01*
X171589178Y-84316343D01*
X171583956Y-84313786D01*
X171541368Y-84290373D01*
X171541365Y-84290372D01*
X171520801Y-84285092D01*
X171502396Y-84278790D01*
X171482927Y-84270365D01*
X171482921Y-84270363D01*
X171434951Y-84262766D01*
X171429236Y-84261582D01*
X171412772Y-84257355D01*
X171382180Y-84249500D01*
X171382177Y-84249500D01*
X171360955Y-84249500D01*
X171341555Y-84247973D01*
X171320596Y-84244653D01*
X171320595Y-84244653D01*
X171296786Y-84246903D01*
X171272230Y-84249225D01*
X171266392Y-84249500D01*
X168720808Y-84249500D01*
X168653769Y-84229815D01*
X168633127Y-84213181D01*
X167586819Y-83166873D01*
X167553334Y-83105550D01*
X167550500Y-83079192D01*
X167550500Y-79620808D01*
X167570185Y-79553769D01*
X167586819Y-79533127D01*
X168433127Y-78686819D01*
X168494450Y-78653334D01*
X168520808Y-78650500D01*
X169343106Y-78650500D01*
X169410145Y-78670185D01*
X169455900Y-78722989D01*
X169465844Y-78792147D01*
X169436819Y-78855703D01*
X169417418Y-78873766D01*
X169392452Y-78892455D01*
X169306206Y-79007664D01*
X169306202Y-79007671D01*
X169255908Y-79142517D01*
X169253176Y-79167934D01*
X169249501Y-79202123D01*
X169249500Y-79202135D01*
X169249500Y-80797870D01*
X169249501Y-80797879D01*
X169256020Y-80858525D01*
X169243613Y-80927284D01*
X169217530Y-80960628D01*
X169218227Y-80961325D01*
X169214776Y-80964776D01*
X169051161Y-81156343D01*
X169051160Y-81156346D01*
X168919533Y-81371140D01*
X168823126Y-81603889D01*
X168764317Y-81848848D01*
X168744551Y-82100000D01*
X168764317Y-82351151D01*
X168823126Y-82596110D01*
X168919533Y-82828859D01*
X169051160Y-83043653D01*
X169051161Y-83043656D01*
X169051164Y-83043659D01*
X169214776Y-83235224D01*
X169335458Y-83338296D01*
X169406343Y-83398838D01*
X169406346Y-83398839D01*
X169621140Y-83530466D01*
X169815433Y-83610944D01*
X169853889Y-83626873D01*
X170098852Y-83685683D01*
X170254950Y-83697968D01*
X170287116Y-83700500D01*
X170287118Y-83700500D01*
X171712884Y-83700500D01*
X171742518Y-83698167D01*
X171901148Y-83685683D01*
X172146111Y-83626873D01*
X172378859Y-83530466D01*
X172593659Y-83398836D01*
X172785224Y-83235224D01*
X172948836Y-83043659D01*
X173080466Y-82828859D01*
X173176873Y-82596111D01*
X173235683Y-82351148D01*
X173255449Y-82100000D01*
X173235683Y-81848852D01*
X173176873Y-81603889D01*
X173080466Y-81371141D01*
X173080466Y-81371140D01*
X172948839Y-81156346D01*
X172948838Y-81156343D01*
X172894298Y-81092486D01*
X172785224Y-80964776D01*
X172785221Y-80964774D01*
X172785220Y-80964772D01*
X172781779Y-80961331D01*
X172782908Y-80960201D01*
X172748545Y-80907566D01*
X172743979Y-80858522D01*
X172750499Y-80797880D01*
X172750499Y-80797879D01*
X172750500Y-80797873D01*
X172750499Y-79202128D01*
X172744091Y-79142517D01*
X172734601Y-79117074D01*
X172693797Y-79007671D01*
X172693793Y-79007664D01*
X172607547Y-78892455D01*
X172583916Y-78874765D01*
X172568401Y-78863150D01*
X172526531Y-78807216D01*
X172521547Y-78737524D01*
X172539224Y-78695576D01*
X172605635Y-78594968D01*
X172694103Y-78387988D01*
X172744191Y-78168537D01*
X172754290Y-77943670D01*
X172724075Y-77720613D01*
X172654517Y-77506536D01*
X172547852Y-77308319D01*
X172407508Y-77132334D01*
X172369927Y-77099500D01*
X172363489Y-77093875D01*
X172325955Y-77034943D01*
X172326241Y-76965074D01*
X172355448Y-76914803D01*
X172363747Y-76906123D01*
X172481632Y-76782825D01*
X172605635Y-76594968D01*
X172694103Y-76387988D01*
X172744191Y-76168537D01*
X172754290Y-75943670D01*
X172724075Y-75720613D01*
X172654517Y-75506536D01*
X172599897Y-75405035D01*
X172569313Y-75348200D01*
X172554879Y-75279837D01*
X172579697Y-75214523D01*
X172597975Y-75195150D01*
X172617269Y-75178670D01*
X172785224Y-75035224D01*
X172948836Y-74843659D01*
X173080466Y-74628859D01*
X173176873Y-74396111D01*
X173235683Y-74151148D01*
X173255449Y-73900000D01*
X173235683Y-73648852D01*
X173176873Y-73403889D01*
X173111335Y-73245665D01*
X173080466Y-73171140D01*
X172948839Y-72956346D01*
X172948838Y-72956343D01*
X172911875Y-72913066D01*
X172785224Y-72764776D01*
X172658571Y-72656604D01*
X172593656Y-72601161D01*
X172593653Y-72601160D01*
X172378859Y-72469533D01*
X172146110Y-72373126D01*
X171901150Y-72314317D01*
X171712884Y-72299500D01*
X171712882Y-72299500D01*
X170287118Y-72299500D01*
X170287116Y-72299500D01*
X170098849Y-72314317D01*
X169853889Y-72373126D01*
X169621140Y-72469533D01*
X169406346Y-72601160D01*
X169406343Y-72601161D01*
X169214776Y-72764776D01*
X169051161Y-72956343D01*
X169051160Y-72956346D01*
X168919533Y-73171140D01*
X168823126Y-73403889D01*
X168764317Y-73648848D01*
X168744551Y-73900000D01*
X168764317Y-74151151D01*
X168823126Y-74396110D01*
X168919533Y-74628859D01*
X169051160Y-74843653D01*
X169051161Y-74843656D01*
X169051164Y-74843659D01*
X169214776Y-75035224D01*
X169402405Y-75195474D01*
X169440598Y-75253981D01*
X169441097Y-75323849D01*
X169425361Y-75358074D01*
X169394363Y-75405035D01*
X169394361Y-75405039D01*
X169305899Y-75612004D01*
X169305895Y-75612017D01*
X169255810Y-75831457D01*
X169255808Y-75831468D01*
X169250769Y-75943674D01*
X169245710Y-76056330D01*
X169275925Y-76279387D01*
X169275926Y-76279390D01*
X169345483Y-76493465D01*
X169452146Y-76691678D01*
X169452148Y-76691681D01*
X169592489Y-76867663D01*
X169592491Y-76867664D01*
X169592492Y-76867666D01*
X169636510Y-76906124D01*
X169674044Y-76965055D01*
X169673758Y-77034924D01*
X169644552Y-77085195D01*
X169518369Y-77217173D01*
X169467781Y-77293811D01*
X169414421Y-77338916D01*
X169364294Y-77349500D01*
X168285506Y-77349500D01*
X168269495Y-77347732D01*
X168269473Y-77347974D01*
X168261706Y-77347239D01*
X168189783Y-77349500D01*
X168159075Y-77349500D01*
X168159071Y-77349500D01*
X168159060Y-77349501D01*
X168151804Y-77350417D01*
X168145986Y-77350875D01*
X168097433Y-77352401D01*
X168082873Y-77356630D01*
X168077040Y-77358325D01*
X168057996Y-77362269D01*
X168036942Y-77364929D01*
X168036940Y-77364929D01*
X167991781Y-77382808D01*
X167986255Y-77384700D01*
X167939601Y-77398254D01*
X167921325Y-77409063D01*
X167903860Y-77417619D01*
X167884124Y-77425433D01*
X167844824Y-77453986D01*
X167839942Y-77457193D01*
X167798136Y-77481917D01*
X167783124Y-77496929D01*
X167768336Y-77509558D01*
X167751167Y-77522032D01*
X167751165Y-77522034D01*
X167720194Y-77559470D01*
X167716262Y-77563791D01*
X166500483Y-78779569D01*
X166487910Y-78789643D01*
X166488065Y-78789830D01*
X166482059Y-78794798D01*
X166457434Y-78821021D01*
X166432809Y-78847244D01*
X166421949Y-78858104D01*
X166411088Y-78868965D01*
X166411078Y-78868977D01*
X166406587Y-78874765D01*
X166402801Y-78879197D01*
X166369552Y-78914606D01*
X166359322Y-78933213D01*
X166348646Y-78949464D01*
X166335640Y-78966232D01*
X166335636Y-78966238D01*
X166316348Y-79010811D01*
X166313777Y-79016058D01*
X166290372Y-79058630D01*
X166290372Y-79058631D01*
X166285091Y-79079199D01*
X166278791Y-79097601D01*
X166270364Y-79117073D01*
X166262766Y-79165047D01*
X166261581Y-79170770D01*
X166249500Y-79217818D01*
X166249500Y-79239044D01*
X166247973Y-79258444D01*
X166244653Y-79279403D01*
X166249225Y-79327767D01*
X166249500Y-79333606D01*
X166249500Y-83314494D01*
X166247732Y-83330505D01*
X166247974Y-83330528D01*
X166247240Y-83338294D01*
X166249500Y-83410203D01*
X166249500Y-83440920D01*
X166249501Y-83440940D01*
X166250418Y-83448206D01*
X166250876Y-83454024D01*
X166252402Y-83502567D01*
X166252403Y-83502570D01*
X166258323Y-83522948D01*
X166262268Y-83541996D01*
X166264928Y-83563054D01*
X166264931Y-83563064D01*
X166282813Y-83608230D01*
X166284705Y-83613758D01*
X166298254Y-83660395D01*
X166298255Y-83660397D01*
X166309060Y-83678666D01*
X166317617Y-83696134D01*
X166323226Y-83710300D01*
X166325432Y-83715872D01*
X166353983Y-83755170D01*
X166357188Y-83760049D01*
X166381919Y-83801865D01*
X166381923Y-83801869D01*
X166396925Y-83816871D01*
X166409563Y-83831669D01*
X166422033Y-83848833D01*
X166422036Y-83848836D01*
X166422037Y-83848837D01*
X166459476Y-83879809D01*
X166463776Y-83883722D01*
X167179554Y-84599500D01*
X167879564Y-85299510D01*
X167889635Y-85312080D01*
X167889822Y-85311926D01*
X167894796Y-85317937D01*
X167894798Y-85317940D01*
X167917863Y-85339599D01*
X167947243Y-85367190D01*
X167968967Y-85388913D01*
X167974757Y-85393405D01*
X167979197Y-85397197D01*
X168008498Y-85424711D01*
X168014607Y-85430448D01*
X168014609Y-85430449D01*
X168033205Y-85440672D01*
X168049470Y-85451357D01*
X168066232Y-85464360D01*
X168066235Y-85464361D01*
X168066236Y-85464362D01*
X168110823Y-85483656D01*
X168116059Y-85486221D01*
X168158632Y-85509627D01*
X168174340Y-85513659D01*
X168179186Y-85514904D01*
X168197598Y-85521207D01*
X168217073Y-85529635D01*
X168265071Y-85537237D01*
X168270740Y-85538411D01*
X168317823Y-85550500D01*
X168339051Y-85550500D01*
X168358448Y-85552026D01*
X168379403Y-85555345D01*
X168379404Y-85555346D01*
X168379404Y-85555345D01*
X168379405Y-85555346D01*
X168427761Y-85550775D01*
X168433599Y-85550500D01*
X170979192Y-85550500D01*
X171046231Y-85570185D01*
X171066873Y-85586819D01*
X171313181Y-85833127D01*
X171346666Y-85894450D01*
X171349500Y-85920808D01*
X171349500Y-103879192D01*
X171329815Y-103946231D01*
X171313181Y-103966873D01*
X170666873Y-104613181D01*
X170605550Y-104646666D01*
X170579192Y-104649500D01*
X161185505Y-104649500D01*
X161169494Y-104647732D01*
X161169472Y-104647974D01*
X161161705Y-104647240D01*
X161161704Y-104647240D01*
X161089797Y-104649500D01*
X161059075Y-104649500D01*
X161059071Y-104649500D01*
X161059061Y-104649501D01*
X161051793Y-104650419D01*
X161045976Y-104650876D01*
X160997436Y-104652402D01*
X160997425Y-104652404D01*
X160977049Y-104658323D01*
X160958008Y-104662266D01*
X160936953Y-104664926D01*
X160936937Y-104664930D01*
X160891771Y-104682812D01*
X160886244Y-104684704D01*
X160839599Y-104698256D01*
X160821327Y-104709062D01*
X160803861Y-104717619D01*
X160784128Y-104725432D01*
X160744830Y-104753983D01*
X160739953Y-104757186D01*
X160726281Y-104765272D01*
X160698132Y-104781920D01*
X160683126Y-104796926D01*
X160668336Y-104809558D01*
X160651167Y-104822032D01*
X160651165Y-104822034D01*
X160620194Y-104859470D01*
X160616262Y-104863791D01*
X159600483Y-105879569D01*
X159587910Y-105889643D01*
X159588065Y-105889830D01*
X159582059Y-105894798D01*
X159562045Y-105916111D01*
X159532809Y-105947244D01*
X159521949Y-105958104D01*
X159511088Y-105968965D01*
X159511078Y-105968977D01*
X159506587Y-105974765D01*
X159502801Y-105979197D01*
X159469552Y-106014606D01*
X159459322Y-106033213D01*
X159448646Y-106049464D01*
X159435640Y-106066232D01*
X159435636Y-106066238D01*
X159416348Y-106110811D01*
X159413777Y-106116058D01*
X159390372Y-106158630D01*
X159390372Y-106158631D01*
X159385091Y-106179199D01*
X159378791Y-106197601D01*
X159370364Y-106217073D01*
X159362766Y-106265047D01*
X159361581Y-106270770D01*
X159349500Y-106317818D01*
X159349500Y-106339044D01*
X159347973Y-106358444D01*
X159344653Y-106379403D01*
X159349225Y-106427767D01*
X159349500Y-106433606D01*
X159349500Y-109319931D01*
X159330494Y-109385903D01*
X159274211Y-109475477D01*
X159274209Y-109475481D01*
X159214633Y-109645737D01*
X159214630Y-109645750D01*
X159194435Y-109824996D01*
X159194435Y-109825003D01*
X147650500Y-109825003D01*
X147650500Y-103924628D01*
X162287500Y-103924628D01*
X162302003Y-103997540D01*
X162302005Y-103997544D01*
X162357260Y-104080239D01*
X162439955Y-104135494D01*
X162439959Y-104135496D01*
X162512871Y-104149999D01*
X162512874Y-104150000D01*
X162608947Y-104150000D01*
X162608947Y-104149999D01*
X163316053Y-104149999D01*
X163316054Y-104150000D01*
X169208946Y-104150000D01*
X169208946Y-104149999D01*
X166262500Y-101203553D01*
X163316053Y-104149999D01*
X162608947Y-104149999D01*
X165908947Y-100850000D01*
X166616053Y-100850000D01*
X169916053Y-104150000D01*
X170012126Y-104150000D01*
X170012128Y-104149999D01*
X170085040Y-104135496D01*
X170085044Y-104135494D01*
X170167739Y-104080239D01*
X170222994Y-103997544D01*
X170222996Y-103997540D01*
X170237499Y-103924628D01*
X170237500Y-103924626D01*
X170237500Y-97775373D01*
X170237499Y-97775371D01*
X170222996Y-97702459D01*
X170222994Y-97702455D01*
X170167739Y-97619760D01*
X170085044Y-97564505D01*
X170085040Y-97564503D01*
X170012127Y-97550000D01*
X169916052Y-97550000D01*
X166616053Y-100850000D01*
X165908947Y-100850000D01*
X162608947Y-97550000D01*
X163316053Y-97550000D01*
X166262500Y-100496446D01*
X169208946Y-97550000D01*
X163316053Y-97550000D01*
X162608947Y-97550000D01*
X162512873Y-97550000D01*
X162439959Y-97564503D01*
X162439955Y-97564505D01*
X162357260Y-97619760D01*
X162302005Y-97702455D01*
X162302003Y-97702459D01*
X162287500Y-97775371D01*
X162287500Y-103924628D01*
X147650500Y-103924628D01*
X147650500Y-86100005D01*
X152381857Y-86100005D01*
X152402390Y-86347812D01*
X152402392Y-86347824D01*
X152463436Y-86588881D01*
X152563326Y-86816606D01*
X152699333Y-87024782D01*
X152699336Y-87024785D01*
X152867756Y-87207738D01*
X153063991Y-87360474D01*
X153068766Y-87363058D01*
X153282390Y-87478666D01*
X153282690Y-87478828D01*
X153517886Y-87559571D01*
X153763165Y-87600500D01*
X154011835Y-87600500D01*
X154257114Y-87559571D01*
X154492310Y-87478828D01*
X154711009Y-87360474D01*
X154907244Y-87207738D01*
X155075664Y-87024785D01*
X155211673Y-86816607D01*
X155311563Y-86588881D01*
X155372608Y-86347821D01*
X155393143Y-86100000D01*
X155372608Y-85852179D01*
X155311563Y-85611119D01*
X155302209Y-85589795D01*
X155211673Y-85383393D01*
X155075666Y-85175217D01*
X155040468Y-85136982D01*
X154907244Y-84992262D01*
X154711009Y-84839526D01*
X154711007Y-84839525D01*
X154711006Y-84839524D01*
X154492311Y-84721172D01*
X154492302Y-84721169D01*
X154257116Y-84640429D01*
X154011835Y-84599500D01*
X153763165Y-84599500D01*
X153517883Y-84640429D01*
X153282697Y-84721169D01*
X153282688Y-84721172D01*
X153063993Y-84839524D01*
X152867757Y-84992261D01*
X152699333Y-85175217D01*
X152563326Y-85383393D01*
X152463436Y-85611118D01*
X152402392Y-85852175D01*
X152402390Y-85852187D01*
X152381857Y-86099994D01*
X152381857Y-86100005D01*
X147650500Y-86100005D01*
X147650500Y-81600005D01*
X152381857Y-81600005D01*
X152402390Y-81847812D01*
X152402392Y-81847824D01*
X152463436Y-82088881D01*
X152563326Y-82316606D01*
X152699333Y-82524782D01*
X152699336Y-82524785D01*
X152867756Y-82707738D01*
X153063991Y-82860474D01*
X153282690Y-82978828D01*
X153517886Y-83059571D01*
X153763165Y-83100500D01*
X154011835Y-83100500D01*
X154257114Y-83059571D01*
X154492310Y-82978828D01*
X154711009Y-82860474D01*
X154907244Y-82707738D01*
X155075664Y-82524785D01*
X155211673Y-82316607D01*
X155311563Y-82088881D01*
X155372608Y-81847821D01*
X155393143Y-81600000D01*
X155374179Y-81371141D01*
X155372609Y-81352187D01*
X155372607Y-81352175D01*
X155311563Y-81111118D01*
X155211673Y-80883393D01*
X155075666Y-80675217D01*
X155054057Y-80651744D01*
X154907244Y-80492262D01*
X154711009Y-80339526D01*
X154711007Y-80339525D01*
X154711006Y-80339524D01*
X154492311Y-80221172D01*
X154492302Y-80221169D01*
X154257116Y-80140429D01*
X154011835Y-80099500D01*
X153763165Y-80099500D01*
X153517883Y-80140429D01*
X153282697Y-80221169D01*
X153282688Y-80221172D01*
X153063993Y-80339524D01*
X152867757Y-80492261D01*
X152699333Y-80675217D01*
X152563326Y-80883393D01*
X152463436Y-81111118D01*
X152402392Y-81352175D01*
X152402390Y-81352187D01*
X152381857Y-81599994D01*
X152381857Y-81600005D01*
X147650500Y-81600005D01*
X147650500Y-63320807D01*
X147670185Y-63253768D01*
X147686814Y-63233131D01*
X149647055Y-61272889D01*
X149659621Y-61262823D01*
X149659467Y-61262636D01*
X149665479Y-61257662D01*
X149665479Y-61257661D01*
X149665482Y-61257660D01*
X149714732Y-61205213D01*
X149736453Y-61183493D01*
X149740943Y-61177703D01*
X149744725Y-61173273D01*
X149777990Y-61137851D01*
X149788216Y-61119248D01*
X149798895Y-61102991D01*
X149811904Y-61086222D01*
X149831198Y-61041633D01*
X149833754Y-61036414D01*
X149857169Y-60993826D01*
X149862447Y-60973264D01*
X149868749Y-60954857D01*
X149877177Y-60935385D01*
X149884775Y-60887411D01*
X149885956Y-60881705D01*
X149898042Y-60834635D01*
X149898042Y-60813407D01*
X149899569Y-60794007D01*
X149902888Y-60773053D01*
X149898317Y-60724696D01*
X149898042Y-60718858D01*
X149898042Y-59726701D01*
X149917049Y-59660728D01*
X149973330Y-59571158D01*
X150022984Y-59429255D01*
X150032910Y-59400889D01*
X150049911Y-59250000D01*
X150053107Y-59221637D01*
X150053107Y-59221630D01*
X150032911Y-59042384D01*
X150032910Y-59042379D01*
X150003606Y-58958633D01*
X149973331Y-58872112D01*
X149877358Y-58719372D01*
X149749804Y-58591818D01*
X149597065Y-58495845D01*
X149426796Y-58436265D01*
X149426791Y-58436264D01*
X149247546Y-58416069D01*
X149247538Y-58416069D01*
X149068292Y-58436264D01*
X149068287Y-58436265D01*
X148898018Y-58495845D01*
X148745279Y-58591818D01*
X148617726Y-58719371D01*
X148521753Y-58872110D01*
X148462173Y-59042379D01*
X148462172Y-59042384D01*
X148441977Y-59221630D01*
X148441977Y-59221637D01*
X148462172Y-59400883D01*
X148462173Y-59400888D01*
X148521753Y-59571158D01*
X148578035Y-59660728D01*
X148597042Y-59726701D01*
X148597042Y-60431650D01*
X148577357Y-60498689D01*
X148560723Y-60519331D01*
X146862181Y-62217873D01*
X146800858Y-62251358D01*
X146731166Y-62246374D01*
X146675233Y-62204502D01*
X146650816Y-62139038D01*
X146650500Y-62130192D01*
X146650500Y-61620807D01*
X146670185Y-61553768D01*
X146686815Y-61533130D01*
X147525420Y-60694524D01*
X147537986Y-60684458D01*
X147537832Y-60684271D01*
X147543844Y-60679297D01*
X147543844Y-60679296D01*
X147543847Y-60679295D01*
X147593097Y-60626848D01*
X147614818Y-60605128D01*
X147619308Y-60599338D01*
X147623090Y-60594908D01*
X147656355Y-60559486D01*
X147666581Y-60540883D01*
X147677260Y-60524626D01*
X147690269Y-60507857D01*
X147709570Y-60463252D01*
X147712114Y-60458058D01*
X147735534Y-60415461D01*
X147740814Y-60394895D01*
X147747116Y-60376488D01*
X147755542Y-60357019D01*
X147763140Y-60309041D01*
X147764318Y-60303346D01*
X147776407Y-60256270D01*
X147776407Y-60235048D01*
X147777934Y-60215648D01*
X147779217Y-60207546D01*
X147781254Y-60194688D01*
X147776682Y-60146323D01*
X147776407Y-60140485D01*
X147776407Y-59748336D01*
X147795414Y-59682363D01*
X147851695Y-59592793D01*
X147851696Y-59592791D01*
X147911275Y-59422524D01*
X147913713Y-59400888D01*
X147931472Y-59243272D01*
X147931472Y-59243265D01*
X147911276Y-59064019D01*
X147911275Y-59064014D01*
X147898103Y-59026371D01*
X147851696Y-58893747D01*
X147755723Y-58741007D01*
X147628169Y-58613453D01*
X147593737Y-58591818D01*
X147475430Y-58517480D01*
X147305161Y-58457900D01*
X147305156Y-58457899D01*
X147125911Y-58437704D01*
X147125903Y-58437704D01*
X146946657Y-58457899D01*
X146946652Y-58457900D01*
X146776383Y-58517480D01*
X146623644Y-58613453D01*
X146496091Y-58741006D01*
X146400118Y-58893745D01*
X146340538Y-59064014D01*
X146340537Y-59064019D01*
X146320342Y-59243265D01*
X146320342Y-59243272D01*
X146340537Y-59422518D01*
X146340538Y-59422523D01*
X146400118Y-59592793D01*
X146456400Y-59682363D01*
X146475407Y-59748336D01*
X146475407Y-59853285D01*
X146455722Y-59920324D01*
X146439088Y-59940966D01*
X145862181Y-60517873D01*
X145800858Y-60551358D01*
X145731166Y-60546374D01*
X145675233Y-60504502D01*
X145650816Y-60439038D01*
X145650500Y-60430192D01*
X145650500Y-59755067D01*
X145669507Y-59689094D01*
X145725788Y-59599524D01*
X145725789Y-59599522D01*
X145785368Y-59429255D01*
X145785369Y-59429249D01*
X145805565Y-59250003D01*
X145805565Y-59249996D01*
X145785369Y-59070750D01*
X145785368Y-59070745D01*
X145745735Y-58957480D01*
X145725789Y-58900478D01*
X145724158Y-58897883D01*
X145629815Y-58747737D01*
X145502262Y-58620184D01*
X145349523Y-58524211D01*
X145179254Y-58464631D01*
X145179249Y-58464630D01*
X145000004Y-58444435D01*
X144999996Y-58444435D01*
X144820750Y-58464630D01*
X144820745Y-58464631D01*
X144650476Y-58524211D01*
X144497737Y-58620184D01*
X144370184Y-58747737D01*
X144274211Y-58900476D01*
X144214631Y-59070745D01*
X144214630Y-59070750D01*
X144194435Y-59249996D01*
X144194435Y-59250003D01*
X144214630Y-59429249D01*
X144214631Y-59429254D01*
X144274211Y-59599524D01*
X144330493Y-59689094D01*
X144349500Y-59755067D01*
X144349500Y-62130192D01*
X144329815Y-62197231D01*
X144277011Y-62242986D01*
X144207853Y-62252930D01*
X144144297Y-62223905D01*
X144137819Y-62217873D01*
X143686819Y-61766873D01*
X143653334Y-61705550D01*
X143650500Y-61679192D01*
X143650500Y-57720808D01*
X143670185Y-57653769D01*
X143686819Y-57633127D01*
X144383127Y-56936819D01*
X144444450Y-56903334D01*
X144470808Y-56900500D01*
X156313511Y-56900500D01*
X156380550Y-56920185D01*
X156414237Y-56954808D01*
X156414906Y-56954285D01*
X156419531Y-56960189D01*
X156539811Y-57080469D01*
X156539813Y-57080470D01*
X156539815Y-57080472D01*
X156685394Y-57168478D01*
X156847804Y-57219086D01*
X156918384Y-57225500D01*
X156918387Y-57225500D01*
X157431613Y-57225500D01*
X157431616Y-57225500D01*
X157502196Y-57219086D01*
X157664606Y-57168478D01*
X157810185Y-57080472D01*
X157857444Y-57033213D01*
X157912319Y-56978339D01*
X157973642Y-56944854D01*
X158043334Y-56949838D01*
X158087681Y-56978339D01*
X158189811Y-57080469D01*
X158189813Y-57080470D01*
X158189815Y-57080472D01*
X158335394Y-57168478D01*
X158497804Y-57219086D01*
X158568384Y-57225500D01*
X158568387Y-57225500D01*
X159081613Y-57225500D01*
X159081616Y-57225500D01*
X159152196Y-57219086D01*
X159314606Y-57168478D01*
X159460185Y-57080472D01*
X159580472Y-56960185D01*
X159580474Y-56960180D01*
X159585094Y-56954285D01*
X159586117Y-56955087D01*
X159631904Y-56913160D01*
X159686489Y-56900500D01*
X160164495Y-56900500D01*
X160180505Y-56902267D01*
X160180528Y-56902026D01*
X160188289Y-56902758D01*
X160188296Y-56902760D01*
X160260203Y-56900500D01*
X160290925Y-56900500D01*
X160298190Y-56899581D01*
X160304016Y-56899122D01*
X160352569Y-56897597D01*
X160372956Y-56891673D01*
X160391996Y-56887731D01*
X160413058Y-56885071D01*
X160458235Y-56867183D01*
X160463735Y-56865300D01*
X160510398Y-56851744D01*
X160528665Y-56840939D01*
X160546136Y-56832380D01*
X160565871Y-56824568D01*
X160605177Y-56796010D01*
X160610043Y-56792813D01*
X160651865Y-56768081D01*
X160666870Y-56753075D01*
X160681668Y-56740436D01*
X160698837Y-56727963D01*
X160729809Y-56690522D01*
X160733723Y-56686221D01*
X162387821Y-55032123D01*
X162449142Y-54998640D01*
X162518834Y-55003624D01*
X162574767Y-55045496D01*
X162599184Y-55110960D01*
X162599500Y-55119806D01*
X162599500Y-55897870D01*
X162599501Y-55897876D01*
X162605908Y-55957479D01*
X162607692Y-55965026D01*
X162606229Y-55965371D01*
X162610585Y-56026371D01*
X162606173Y-56041396D01*
X162605908Y-56042517D01*
X162599501Y-56102116D01*
X162599500Y-56102135D01*
X162599500Y-56897870D01*
X162599501Y-56897876D01*
X162605908Y-56957479D01*
X162607692Y-56965026D01*
X162606229Y-56965371D01*
X162610585Y-57026371D01*
X162606173Y-57041396D01*
X162605908Y-57042517D01*
X162601828Y-57080472D01*
X162599501Y-57102123D01*
X162599500Y-57102135D01*
X162599500Y-57897870D01*
X162599501Y-57897876D01*
X162605908Y-57957479D01*
X162607692Y-57965026D01*
X162606229Y-57965371D01*
X162610585Y-58026371D01*
X162606173Y-58041396D01*
X162605908Y-58042517D01*
X162599501Y-58102116D01*
X162599501Y-58102123D01*
X162599500Y-58102135D01*
X162599500Y-58897870D01*
X162599501Y-58897876D01*
X162605908Y-58957479D01*
X162607692Y-58965026D01*
X162606229Y-58965371D01*
X162610585Y-59026371D01*
X162606173Y-59041396D01*
X162605908Y-59042517D01*
X162599501Y-59102116D01*
X162599501Y-59102123D01*
X162599500Y-59102135D01*
X162599500Y-59897870D01*
X162599501Y-59897876D01*
X162605908Y-59957483D01*
X162656202Y-60092328D01*
X162656203Y-60092329D01*
X162656204Y-60092331D01*
X162742454Y-60207546D01*
X162800311Y-60250858D01*
X162842182Y-60306789D01*
X162850000Y-60350123D01*
X162850000Y-60874628D01*
X162864503Y-60947540D01*
X162864505Y-60947544D01*
X162919760Y-61030239D01*
X163002455Y-61085494D01*
X163002459Y-61085496D01*
X163075371Y-61099999D01*
X163075374Y-61100000D01*
X164146447Y-61100000D01*
X164146447Y-61099999D01*
X164853553Y-61099999D01*
X164853554Y-61100000D01*
X165346446Y-61100000D01*
X165346446Y-61099999D01*
X165100001Y-60853553D01*
X165099999Y-60853553D01*
X164853553Y-61099999D01*
X164146447Y-61099999D01*
X164859628Y-60386818D01*
X164920951Y-60353333D01*
X164947304Y-60350499D01*
X165252691Y-60350499D01*
X165319729Y-60370184D01*
X165340371Y-60386818D01*
X166053553Y-61100000D01*
X167124626Y-61100000D01*
X167124628Y-61099999D01*
X167197540Y-61085496D01*
X167197544Y-61085494D01*
X167280239Y-61030239D01*
X167335494Y-60947544D01*
X167335496Y-60947540D01*
X167349999Y-60874628D01*
X167350000Y-60874626D01*
X167350000Y-60350123D01*
X167369685Y-60283084D01*
X167399686Y-60250859D01*
X167457546Y-60207546D01*
X167543796Y-60092331D01*
X167594091Y-59957483D01*
X167600500Y-59897873D01*
X167600499Y-59102128D01*
X167594091Y-59042517D01*
X167594090Y-59042515D01*
X167594090Y-59042512D01*
X167592308Y-59034969D01*
X167593773Y-59034622D01*
X167589409Y-58973651D01*
X167593819Y-58958633D01*
X167594089Y-58957488D01*
X167594091Y-58957483D01*
X167600500Y-58897873D01*
X167600499Y-58102128D01*
X167594091Y-58042517D01*
X167594090Y-58042515D01*
X167594090Y-58042512D01*
X167592308Y-58034969D01*
X167593773Y-58034622D01*
X167589409Y-57973651D01*
X167593819Y-57958633D01*
X167594089Y-57957488D01*
X167594091Y-57957483D01*
X167600500Y-57897873D01*
X167600499Y-57102128D01*
X167594091Y-57042517D01*
X167594090Y-57042515D01*
X167594090Y-57042512D01*
X167592308Y-57034969D01*
X167593773Y-57034622D01*
X167589409Y-56973651D01*
X167593819Y-56958633D01*
X167594089Y-56957488D01*
X167594088Y-56957488D01*
X167594091Y-56957483D01*
X167600500Y-56897873D01*
X167600499Y-56274499D01*
X167620183Y-56207461D01*
X167672987Y-56161706D01*
X167724499Y-56150500D01*
X167779192Y-56150500D01*
X167846231Y-56170185D01*
X167866873Y-56186819D01*
X168413181Y-56733127D01*
X168446666Y-56794450D01*
X168449500Y-56820808D01*
X168449500Y-68479192D01*
X168429815Y-68546231D01*
X168413181Y-68566873D01*
X167666873Y-69313181D01*
X167605550Y-69346666D01*
X167579192Y-69349500D01*
X158085506Y-69349500D01*
X158069495Y-69347732D01*
X158069473Y-69347974D01*
X158061706Y-69347239D01*
X157989783Y-69349500D01*
X157959075Y-69349500D01*
X157959071Y-69349500D01*
X157959060Y-69349501D01*
X157951804Y-69350417D01*
X157945986Y-69350875D01*
X157897433Y-69352401D01*
X157882873Y-69356630D01*
X157877040Y-69358325D01*
X157857996Y-69362269D01*
X157836942Y-69364929D01*
X157836940Y-69364929D01*
X157791781Y-69382808D01*
X157786255Y-69384700D01*
X157739601Y-69398254D01*
X157721325Y-69409063D01*
X157703860Y-69417619D01*
X157684124Y-69425433D01*
X157644824Y-69453986D01*
X157639942Y-69457193D01*
X157598136Y-69481917D01*
X157583124Y-69496929D01*
X157568336Y-69509558D01*
X157551167Y-69522032D01*
X157551165Y-69522034D01*
X157520194Y-69559470D01*
X157516262Y-69563791D01*
X156600483Y-70479569D01*
X156587910Y-70489643D01*
X156588065Y-70489830D01*
X156582059Y-70494798D01*
X156557434Y-70521021D01*
X156532809Y-70547244D01*
X156521949Y-70558104D01*
X156511088Y-70568965D01*
X156511078Y-70568977D01*
X156506587Y-70574765D01*
X156502801Y-70579197D01*
X156469552Y-70614606D01*
X156459322Y-70633213D01*
X156448646Y-70649464D01*
X156435640Y-70666232D01*
X156435636Y-70666238D01*
X156416348Y-70710811D01*
X156413777Y-70716058D01*
X156390372Y-70758630D01*
X156390372Y-70758631D01*
X156385091Y-70779199D01*
X156378791Y-70797601D01*
X156370364Y-70817073D01*
X156362766Y-70865047D01*
X156361581Y-70870770D01*
X156349500Y-70917818D01*
X156349500Y-70939044D01*
X156347973Y-70958444D01*
X156344653Y-70979403D01*
X156349225Y-71027767D01*
X156349500Y-71033606D01*
X156349500Y-91529078D01*
X156329815Y-91596117D01*
X156317650Y-91612050D01*
X156267466Y-91667785D01*
X156172821Y-91831715D01*
X156172818Y-91831722D01*
X156122526Y-91986506D01*
X156114326Y-92011744D01*
X156094540Y-92200000D01*
X156114326Y-92388256D01*
X156114327Y-92388259D01*
X156172818Y-92568277D01*
X156172821Y-92568284D01*
X156267466Y-92732215D01*
X156317649Y-92787948D01*
X156347880Y-92850940D01*
X156349500Y-92870921D01*
X156349500Y-94229078D01*
X156329815Y-94296117D01*
X156317650Y-94312050D01*
X156267466Y-94367785D01*
X156172821Y-94531715D01*
X156172818Y-94531722D01*
X156114327Y-94711740D01*
X156114326Y-94711744D01*
X156094540Y-94900000D01*
X156114326Y-95088256D01*
X156114327Y-95088259D01*
X156172818Y-95268277D01*
X156172821Y-95268284D01*
X156267467Y-95432216D01*
X156394129Y-95572888D01*
X156547265Y-95684148D01*
X156547270Y-95684151D01*
X156720192Y-95761142D01*
X156720197Y-95761144D01*
X156905354Y-95800500D01*
X156905355Y-95800500D01*
X157094644Y-95800500D01*
X157094646Y-95800500D01*
X157279803Y-95761144D01*
X157452730Y-95684151D01*
X157605871Y-95572888D01*
X157732533Y-95432216D01*
X157827179Y-95268284D01*
X157885674Y-95088256D01*
X157905460Y-94900000D01*
X157885674Y-94711744D01*
X157827179Y-94531716D01*
X157732533Y-94367784D01*
X157682350Y-94312050D01*
X157652120Y-94249058D01*
X157650500Y-94229078D01*
X157650500Y-93025000D01*
X164879342Y-93025000D01*
X164899937Y-93260403D01*
X164899939Y-93260413D01*
X164961095Y-93488655D01*
X164961097Y-93488659D01*
X164961098Y-93488663D01*
X165013018Y-93600005D01*
X165060966Y-93702830D01*
X165060968Y-93702834D01*
X165123098Y-93791564D01*
X165196506Y-93896401D01*
X165363600Y-94063495D01*
X165460385Y-94131265D01*
X165557166Y-94199032D01*
X165557168Y-94199033D01*
X165557171Y-94199035D01*
X165771338Y-94298903D01*
X165771344Y-94298904D01*
X165771345Y-94298905D01*
X165822785Y-94312688D01*
X165999593Y-94360063D01*
X166176035Y-94375500D01*
X166235000Y-94380659D01*
X166235001Y-94380659D01*
X166235002Y-94380659D01*
X166293967Y-94375500D01*
X166470409Y-94360063D01*
X166698664Y-94298903D01*
X166912831Y-94199035D01*
X167106402Y-94063495D01*
X167228330Y-93941566D01*
X167289649Y-93908084D01*
X167359341Y-93913068D01*
X167415275Y-93954939D01*
X167432190Y-93985917D01*
X167481203Y-94117328D01*
X167481207Y-94117335D01*
X167567453Y-94232544D01*
X167567456Y-94232547D01*
X167682665Y-94318793D01*
X167682672Y-94318797D01*
X167817518Y-94369091D01*
X167817517Y-94369091D01*
X167824445Y-94369835D01*
X167877128Y-94375500D01*
X169672873Y-94375499D01*
X169732484Y-94369091D01*
X169867332Y-94318796D01*
X169982547Y-94232546D01*
X170068797Y-94117331D01*
X170119092Y-93982483D01*
X170125501Y-93922873D01*
X170125500Y-92127128D01*
X170119092Y-92067517D01*
X170117811Y-92064083D01*
X170068798Y-91932671D01*
X170068794Y-91932664D01*
X169982548Y-91817455D01*
X169982545Y-91817452D01*
X169867336Y-91731206D01*
X169867329Y-91731202D01*
X169735918Y-91682189D01*
X169679984Y-91640318D01*
X169655567Y-91574853D01*
X169670419Y-91506580D01*
X169691564Y-91478332D01*
X169813496Y-91356401D01*
X169949036Y-91162830D01*
X170048904Y-90948663D01*
X170110064Y-90720408D01*
X170130660Y-90485000D01*
X170110064Y-90249592D01*
X170049827Y-90024782D01*
X170048906Y-90021344D01*
X170048905Y-90021343D01*
X170048904Y-90021337D01*
X169949036Y-89807171D01*
X169943426Y-89799158D01*
X169813495Y-89613597D01*
X169646403Y-89446506D01*
X169646396Y-89446501D01*
X169452835Y-89310967D01*
X169452831Y-89310965D01*
X169452829Y-89310964D01*
X169238664Y-89211097D01*
X169238660Y-89211096D01*
X169238658Y-89211095D01*
X169199389Y-89200573D01*
X169139729Y-89164208D01*
X169109200Y-89101360D01*
X169117495Y-89031985D01*
X169161980Y-88978107D01*
X169186690Y-88965171D01*
X169267414Y-88933898D01*
X169440740Y-88826578D01*
X169591392Y-88689242D01*
X169714246Y-88526556D01*
X169805110Y-88344078D01*
X169805115Y-88344065D01*
X169847529Y-88195000D01*
X169208687Y-88195000D01*
X169234494Y-88154844D01*
X169275001Y-88016889D01*
X169275001Y-87873111D01*
X169234494Y-87735156D01*
X169208687Y-87695000D01*
X169847529Y-87695000D01*
X169847529Y-87694999D01*
X169805115Y-87545934D01*
X169805110Y-87545921D01*
X169714246Y-87363443D01*
X169591392Y-87200757D01*
X169440740Y-87063421D01*
X169267414Y-86956101D01*
X169077316Y-86882458D01*
X169077310Y-86882456D01*
X169025002Y-86872677D01*
X169025001Y-86872679D01*
X169025001Y-87509498D01*
X168917316Y-87460320D01*
X168810764Y-87445000D01*
X168739238Y-87445000D01*
X168632686Y-87460320D01*
X168525001Y-87509498D01*
X168525001Y-86872679D01*
X168524999Y-86872677D01*
X168472691Y-86882456D01*
X168472685Y-86882458D01*
X168282587Y-86956101D01*
X168109261Y-87063421D01*
X167958609Y-87200757D01*
X167835755Y-87363443D01*
X167748715Y-87538241D01*
X167701212Y-87589478D01*
X167633549Y-87606899D01*
X167567208Y-87584973D01*
X167523254Y-87530661D01*
X167517943Y-87515072D01*
X167508904Y-87481337D01*
X167409036Y-87267171D01*
X167399831Y-87254024D01*
X167273495Y-87073597D01*
X167106403Y-86906506D01*
X167106396Y-86906501D01*
X167072056Y-86882456D01*
X167058091Y-86872677D01*
X166912835Y-86770967D01*
X166912831Y-86770965D01*
X166912829Y-86770964D01*
X166698664Y-86671097D01*
X166698660Y-86671096D01*
X166698656Y-86671094D01*
X166470414Y-86609938D01*
X166470404Y-86609936D01*
X166235002Y-86589341D01*
X166235000Y-86589341D01*
X165999597Y-86609936D01*
X165999587Y-86609938D01*
X165771345Y-86671094D01*
X165771336Y-86671098D01*
X165557172Y-86770964D01*
X165557170Y-86770965D01*
X165363598Y-86906505D01*
X165196506Y-87073597D01*
X165060966Y-87267169D01*
X165060965Y-87267171D01*
X164961099Y-87481335D01*
X164961095Y-87481344D01*
X164899939Y-87709586D01*
X164899937Y-87709596D01*
X164879342Y-87944999D01*
X164879342Y-87945000D01*
X164899937Y-88180403D01*
X164899939Y-88180413D01*
X164961095Y-88408655D01*
X164961097Y-88408659D01*
X164961098Y-88408663D01*
X165016073Y-88526556D01*
X165060966Y-88622830D01*
X165060968Y-88622834D01*
X165196502Y-88816395D01*
X165196507Y-88816402D01*
X165363598Y-88983493D01*
X165363604Y-88983498D01*
X165549159Y-89113425D01*
X165592784Y-89168002D01*
X165599978Y-89237500D01*
X165568455Y-89299855D01*
X165549159Y-89316575D01*
X165363598Y-89446505D01*
X165196506Y-89613597D01*
X165060966Y-89807169D01*
X165060965Y-89807171D01*
X164961099Y-90021335D01*
X164961095Y-90021344D01*
X164899939Y-90249586D01*
X164899937Y-90249596D01*
X164879342Y-90484999D01*
X164879342Y-90485000D01*
X164899937Y-90720403D01*
X164899939Y-90720413D01*
X164961095Y-90948655D01*
X164961097Y-90948659D01*
X164961098Y-90948663D01*
X164965001Y-90957032D01*
X165060966Y-91162830D01*
X165060968Y-91162834D01*
X165112862Y-91236945D01*
X165196502Y-91356396D01*
X165196507Y-91356402D01*
X165363598Y-91523493D01*
X165363604Y-91523498D01*
X165549159Y-91653425D01*
X165592784Y-91708002D01*
X165599978Y-91777500D01*
X165568455Y-91839855D01*
X165549159Y-91856575D01*
X165363598Y-91986505D01*
X165196506Y-92153597D01*
X165060966Y-92347169D01*
X165060965Y-92347171D01*
X164961099Y-92561335D01*
X164961095Y-92561344D01*
X164899939Y-92789586D01*
X164899937Y-92789596D01*
X164879342Y-93024999D01*
X164879342Y-93025000D01*
X157650500Y-93025000D01*
X157650500Y-92870921D01*
X157670185Y-92803882D01*
X157682351Y-92787948D01*
X157732533Y-92732216D01*
X157827179Y-92568284D01*
X157885674Y-92388256D01*
X157905460Y-92200000D01*
X157885674Y-92011744D01*
X157827179Y-91831716D01*
X157732533Y-91667784D01*
X157682350Y-91612050D01*
X157652120Y-91549058D01*
X157650500Y-91529078D01*
X157650500Y-86100005D01*
X158881857Y-86100005D01*
X158902390Y-86347812D01*
X158902392Y-86347824D01*
X158963436Y-86588881D01*
X159063326Y-86816606D01*
X159199333Y-87024782D01*
X159199336Y-87024785D01*
X159367756Y-87207738D01*
X159563991Y-87360474D01*
X159568766Y-87363058D01*
X159782390Y-87478666D01*
X159782690Y-87478828D01*
X160017886Y-87559571D01*
X160263165Y-87600500D01*
X160511835Y-87600500D01*
X160757114Y-87559571D01*
X160992310Y-87478828D01*
X161211009Y-87360474D01*
X161407244Y-87207738D01*
X161575664Y-87024785D01*
X161711673Y-86816607D01*
X161811563Y-86588881D01*
X161872608Y-86347821D01*
X161893143Y-86100000D01*
X161872608Y-85852179D01*
X161811563Y-85611119D01*
X161802209Y-85589795D01*
X161711673Y-85383393D01*
X161575666Y-85175217D01*
X161540468Y-85136982D01*
X161407244Y-84992262D01*
X161211009Y-84839526D01*
X161211007Y-84839525D01*
X161211006Y-84839524D01*
X160992311Y-84721172D01*
X160992302Y-84721169D01*
X160757116Y-84640429D01*
X160511835Y-84599500D01*
X160263165Y-84599500D01*
X160017883Y-84640429D01*
X159782697Y-84721169D01*
X159782688Y-84721172D01*
X159563993Y-84839524D01*
X159367757Y-84992261D01*
X159199333Y-85175217D01*
X159063326Y-85383393D01*
X158963436Y-85611118D01*
X158902392Y-85852175D01*
X158902390Y-85852187D01*
X158881857Y-86099994D01*
X158881857Y-86100005D01*
X157650500Y-86100005D01*
X157650500Y-81600005D01*
X158881857Y-81600005D01*
X158902390Y-81847812D01*
X158902392Y-81847824D01*
X158963436Y-82088881D01*
X159063326Y-82316606D01*
X159199333Y-82524782D01*
X159199336Y-82524785D01*
X159367756Y-82707738D01*
X159563991Y-82860474D01*
X159782690Y-82978828D01*
X160017886Y-83059571D01*
X160263165Y-83100500D01*
X160511835Y-83100500D01*
X160757114Y-83059571D01*
X160992310Y-82978828D01*
X161211009Y-82860474D01*
X161407244Y-82707738D01*
X161575664Y-82524785D01*
X161711673Y-82316607D01*
X161811563Y-82088881D01*
X161872608Y-81847821D01*
X161893143Y-81600000D01*
X161874179Y-81371141D01*
X161872609Y-81352187D01*
X161872607Y-81352175D01*
X161811563Y-81111118D01*
X161711673Y-80883393D01*
X161575666Y-80675217D01*
X161554057Y-80651744D01*
X161407244Y-80492262D01*
X161211009Y-80339526D01*
X161211007Y-80339525D01*
X161211006Y-80339524D01*
X160992311Y-80221172D01*
X160992302Y-80221169D01*
X160757116Y-80140429D01*
X160511835Y-80099500D01*
X160263165Y-80099500D01*
X160017883Y-80140429D01*
X159782697Y-80221169D01*
X159782688Y-80221172D01*
X159563993Y-80339524D01*
X159367757Y-80492261D01*
X159199333Y-80675217D01*
X159063326Y-80883393D01*
X158963436Y-81111118D01*
X158902392Y-81352175D01*
X158902390Y-81352187D01*
X158881857Y-81599994D01*
X158881857Y-81600005D01*
X157650500Y-81600005D01*
X157650500Y-71320808D01*
X157670185Y-71253769D01*
X157686819Y-71233127D01*
X158233127Y-70686819D01*
X158294450Y-70653334D01*
X158320808Y-70650500D01*
X167814495Y-70650500D01*
X167830505Y-70652267D01*
X167830528Y-70652026D01*
X167838289Y-70652758D01*
X167838296Y-70652760D01*
X167910203Y-70650500D01*
X167940925Y-70650500D01*
X167948190Y-70649581D01*
X167954016Y-70649122D01*
X168002569Y-70647597D01*
X168022956Y-70641673D01*
X168041996Y-70637731D01*
X168063058Y-70635071D01*
X168108235Y-70617183D01*
X168113735Y-70615300D01*
X168160398Y-70601744D01*
X168178665Y-70590939D01*
X168196136Y-70582380D01*
X168215871Y-70574568D01*
X168255177Y-70546010D01*
X168260043Y-70542813D01*
X168301865Y-70518081D01*
X168316870Y-70503075D01*
X168331668Y-70490436D01*
X168348837Y-70477963D01*
X168379809Y-70440522D01*
X168383723Y-70436221D01*
X169499513Y-69320431D01*
X169512079Y-69310365D01*
X169511925Y-69310178D01*
X169517937Y-69305204D01*
X169517937Y-69305203D01*
X169517940Y-69305202D01*
X169567190Y-69252755D01*
X169588911Y-69231035D01*
X169593401Y-69225245D01*
X169597183Y-69220815D01*
X169630448Y-69185393D01*
X169640674Y-69166790D01*
X169651353Y-69150533D01*
X169664362Y-69133764D01*
X169683656Y-69089175D01*
X169686212Y-69083956D01*
X169709627Y-69041368D01*
X169714905Y-69020806D01*
X169721207Y-69002399D01*
X169729635Y-68982927D01*
X169737233Y-68934953D01*
X169738414Y-68929247D01*
X169750500Y-68882177D01*
X169750500Y-68860949D01*
X169752027Y-68841549D01*
X169755346Y-68820595D01*
X169750775Y-68772238D01*
X169750500Y-68766400D01*
X169750500Y-56585503D01*
X169752268Y-56569491D01*
X169752026Y-56569469D01*
X169752760Y-56561706D01*
X169750500Y-56489782D01*
X169750500Y-55485501D01*
X169752268Y-55469488D01*
X169752026Y-55469466D01*
X169752758Y-55461710D01*
X169752760Y-55461703D01*
X169750500Y-55389795D01*
X169750500Y-55359075D01*
X169750500Y-54459075D01*
X169750500Y-47485501D01*
X169752268Y-47469488D01*
X169752026Y-47469466D01*
X169752758Y-47461710D01*
X169752760Y-47461703D01*
X169750500Y-47389795D01*
X169750500Y-47359075D01*
X169750500Y-42385502D01*
X169752268Y-42369489D01*
X169752026Y-42369467D01*
X169752758Y-42361711D01*
X169752760Y-42361704D01*
X169750500Y-42289796D01*
X169750500Y-42259075D01*
X169749579Y-42251788D01*
X169749122Y-42245979D01*
X169747597Y-42197431D01*
X169741676Y-42177053D01*
X169737731Y-42158004D01*
X169735071Y-42136942D01*
X169717185Y-42091769D01*
X169715296Y-42086249D01*
X169701743Y-42039600D01*
X169690940Y-42021334D01*
X169682378Y-42003856D01*
X169674568Y-41984129D01*
X169674565Y-41984125D01*
X169646014Y-41944827D01*
X169642811Y-41939951D01*
X169630056Y-41918384D01*
X169618081Y-41898135D01*
X169618079Y-41898133D01*
X169618078Y-41898131D01*
X169603075Y-41883129D01*
X169590435Y-41868330D01*
X169577961Y-41851160D01*
X169540528Y-41820194D01*
X169536206Y-41816260D01*
X168820434Y-41100488D01*
X168810361Y-41087914D01*
X168810174Y-41088070D01*
X168805201Y-41082059D01*
X168752756Y-41032810D01*
X168731035Y-41011089D01*
X168725240Y-41006594D01*
X168720798Y-41002799D01*
X168685396Y-40969554D01*
X168685388Y-40969548D01*
X168666792Y-40959325D01*
X168650531Y-40948644D01*
X168633763Y-40935637D01*
X168610295Y-40925482D01*
X168589178Y-40916343D01*
X168583956Y-40913786D01*
X168541368Y-40890373D01*
X168541365Y-40890372D01*
X168520801Y-40885092D01*
X168502396Y-40878790D01*
X168482927Y-40870365D01*
X168482921Y-40870363D01*
X168434951Y-40862766D01*
X168429236Y-40861582D01*
X168412772Y-40857355D01*
X168382180Y-40849500D01*
X168382177Y-40849500D01*
X168360955Y-40849500D01*
X168341555Y-40847973D01*
X168320596Y-40844653D01*
X168320595Y-40844653D01*
X168296786Y-40846903D01*
X168272230Y-40849225D01*
X168266392Y-40849500D01*
X167562320Y-40849500D01*
X167495281Y-40829815D01*
X167463052Y-40799809D01*
X167457548Y-40792457D01*
X167457546Y-40792454D01*
X167400835Y-40750000D01*
X167342335Y-40706206D01*
X167342328Y-40706202D01*
X167207482Y-40655908D01*
X167207483Y-40655908D01*
X167147883Y-40649501D01*
X167147881Y-40649500D01*
X167147873Y-40649500D01*
X167147864Y-40649500D01*
X163052129Y-40649500D01*
X163052123Y-40649501D01*
X162992516Y-40655908D01*
X162857671Y-40706202D01*
X162857664Y-40706206D01*
X162742455Y-40792452D01*
X162742452Y-40792455D01*
X162656206Y-40907664D01*
X162656200Y-40907675D01*
X162634367Y-40966212D01*
X162592496Y-41022146D01*
X162527031Y-41046562D01*
X162458758Y-41031710D01*
X162430505Y-41010559D01*
X161520434Y-40100488D01*
X161510361Y-40087914D01*
X161510174Y-40088070D01*
X161505201Y-40082059D01*
X161452756Y-40032810D01*
X161431035Y-40011089D01*
X161425240Y-40006594D01*
X161420798Y-40002799D01*
X161385396Y-39969554D01*
X161385388Y-39969548D01*
X161366792Y-39959325D01*
X161350531Y-39948644D01*
X161333763Y-39935637D01*
X161310295Y-39925482D01*
X161289178Y-39916343D01*
X161283956Y-39913786D01*
X161241368Y-39890373D01*
X161241365Y-39890372D01*
X161220801Y-39885092D01*
X161202396Y-39878790D01*
X161182927Y-39870365D01*
X161182921Y-39870363D01*
X161134951Y-39862766D01*
X161129236Y-39861582D01*
X161112772Y-39857355D01*
X161082180Y-39849500D01*
X161082177Y-39849500D01*
X161060955Y-39849500D01*
X161041555Y-39847973D01*
X161020596Y-39844653D01*
X161020595Y-39844653D01*
X160996786Y-39846903D01*
X160972230Y-39849225D01*
X160966392Y-39849500D01*
X159686489Y-39849500D01*
X159619450Y-39829815D01*
X159585762Y-39795191D01*
X159585094Y-39795715D01*
X159580468Y-39789810D01*
X159460188Y-39669530D01*
X159314606Y-39581522D01*
X159152196Y-39530914D01*
X159152194Y-39530913D01*
X159152192Y-39530913D01*
X159102778Y-39526423D01*
X159081616Y-39524500D01*
X158568384Y-39524500D01*
X158549145Y-39526248D01*
X158497807Y-39530913D01*
X158335393Y-39581522D01*
X158189811Y-39669530D01*
X158069530Y-39789811D01*
X157981521Y-39935396D01*
X157976860Y-39950354D01*
X157938122Y-40008502D01*
X157874097Y-40036475D01*
X157805112Y-40025393D01*
X157758705Y-39987097D01*
X157696792Y-39903207D01*
X157587645Y-39822653D01*
X157459602Y-39777850D01*
X157429207Y-39775000D01*
X157425000Y-39775000D01*
X157425000Y-41224999D01*
X157429196Y-41224999D01*
X157459606Y-41222148D01*
X157587645Y-41177346D01*
X157696791Y-41096792D01*
X157758704Y-41012903D01*
X157814352Y-40970652D01*
X157884008Y-40965193D01*
X157945557Y-40998260D01*
X157976860Y-41049645D01*
X157981522Y-41064606D01*
X158066446Y-41205087D01*
X158069530Y-41210188D01*
X158146661Y-41287319D01*
X158180146Y-41348642D01*
X158175162Y-41418334D01*
X158146661Y-41462681D01*
X158069531Y-41539810D01*
X158069530Y-41539811D01*
X157981521Y-41685396D01*
X157976860Y-41700354D01*
X157938122Y-41758502D01*
X157874097Y-41786475D01*
X157805112Y-41775393D01*
X157758705Y-41737097D01*
X157696792Y-41653207D01*
X157587645Y-41572653D01*
X157459602Y-41527850D01*
X157429207Y-41525000D01*
X157425000Y-41525000D01*
X157425000Y-42974999D01*
X157429196Y-42974999D01*
X157459606Y-42972148D01*
X157587645Y-42927346D01*
X157696791Y-42846792D01*
X157758704Y-42762903D01*
X157814352Y-42720652D01*
X157884008Y-42715193D01*
X157945557Y-42748260D01*
X157976860Y-42799645D01*
X157981522Y-42814606D01*
X158066446Y-42955087D01*
X158069530Y-42960188D01*
X158146661Y-43037319D01*
X158180146Y-43098642D01*
X158175162Y-43168334D01*
X158146661Y-43212681D01*
X158069531Y-43289810D01*
X158069530Y-43289811D01*
X157981521Y-43435396D01*
X157976860Y-43450354D01*
X157938122Y-43508502D01*
X157874097Y-43536475D01*
X157805112Y-43525393D01*
X157758705Y-43487097D01*
X157696792Y-43403207D01*
X157587645Y-43322653D01*
X157459602Y-43277850D01*
X157429207Y-43275000D01*
X157425000Y-43275000D01*
X157425000Y-44724999D01*
X157429196Y-44724999D01*
X157459606Y-44722148D01*
X157587645Y-44677346D01*
X157696791Y-44596792D01*
X157758704Y-44512903D01*
X157814352Y-44470652D01*
X157884008Y-44465193D01*
X157945557Y-44498260D01*
X157976860Y-44549645D01*
X157981522Y-44564606D01*
X158066446Y-44705087D01*
X158069530Y-44710188D01*
X158146661Y-44787319D01*
X158180146Y-44848642D01*
X158175162Y-44918334D01*
X158146661Y-44962681D01*
X158069531Y-45039810D01*
X158069530Y-45039811D01*
X157981521Y-45185396D01*
X157976860Y-45200354D01*
X157938122Y-45258502D01*
X157874097Y-45286475D01*
X157805112Y-45275393D01*
X157758705Y-45237097D01*
X157696792Y-45153207D01*
X157587645Y-45072653D01*
X157459602Y-45027850D01*
X157429207Y-45025000D01*
X157425000Y-45025000D01*
X157425000Y-45876000D01*
X157405315Y-45943039D01*
X157352511Y-45988794D01*
X157301000Y-46000000D01*
X156525001Y-46000000D01*
X156525001Y-46079196D01*
X156527851Y-46109606D01*
X156572653Y-46237645D01*
X156653208Y-46346793D01*
X156693453Y-46376495D01*
X156735704Y-46432142D01*
X156741163Y-46501798D01*
X156708096Y-46563348D01*
X156683971Y-46582381D01*
X156539814Y-46669528D01*
X156539810Y-46669531D01*
X156419531Y-46789810D01*
X156414906Y-46795715D01*
X156413882Y-46794912D01*
X156368096Y-46836840D01*
X156313511Y-46849500D01*
X147585504Y-46849500D01*
X147569493Y-46847732D01*
X147569471Y-46847974D01*
X147561704Y-46847240D01*
X147561703Y-46847240D01*
X147489796Y-46849500D01*
X147459075Y-46849500D01*
X147459071Y-46849500D01*
X147459061Y-46849501D01*
X147451793Y-46850419D01*
X147445976Y-46850876D01*
X147397435Y-46852402D01*
X147397424Y-46852404D01*
X147377048Y-46858323D01*
X147358008Y-46862266D01*
X147336947Y-46864927D01*
X147336939Y-46864929D01*
X147291775Y-46882811D01*
X147286247Y-46884703D01*
X147239602Y-46898255D01*
X147221332Y-46909060D01*
X147203863Y-46917618D01*
X147184128Y-46925432D01*
X147184126Y-46925433D01*
X147144839Y-46953977D01*
X147139956Y-46957184D01*
X147098132Y-46981919D01*
X147083126Y-46996926D01*
X147068336Y-47009558D01*
X147051167Y-47022032D01*
X147051165Y-47022034D01*
X147020194Y-47059470D01*
X147016262Y-47063791D01*
X142819705Y-51260347D01*
X142758382Y-51293832D01*
X142688690Y-51288848D01*
X142686743Y-51287391D01*
X142695218Y-51350921D01*
X142665546Y-51414178D01*
X142660347Y-51419705D01*
X140800483Y-53279569D01*
X140787910Y-53289643D01*
X140788065Y-53289830D01*
X140782059Y-53294798D01*
X140757434Y-53321021D01*
X140732809Y-53347244D01*
X140721949Y-53358104D01*
X140711088Y-53368965D01*
X140711078Y-53368977D01*
X140706587Y-53374765D01*
X140702801Y-53379197D01*
X140669552Y-53414606D01*
X140659322Y-53433213D01*
X140648646Y-53449464D01*
X140635640Y-53466232D01*
X140635636Y-53466238D01*
X140616348Y-53510811D01*
X140613777Y-53516058D01*
X140590372Y-53558630D01*
X140590372Y-53558631D01*
X140585091Y-53579199D01*
X140578791Y-53597601D01*
X140570364Y-53617073D01*
X140562766Y-53665047D01*
X140561581Y-53670770D01*
X140549500Y-53717818D01*
X140549500Y-53739044D01*
X140547973Y-53758444D01*
X140544653Y-53779403D01*
X140549225Y-53827767D01*
X140549500Y-53833606D01*
X140549500Y-62214494D01*
X140547732Y-62230505D01*
X140547974Y-62230528D01*
X140547240Y-62238294D01*
X140549500Y-62310203D01*
X140549500Y-62340920D01*
X140549501Y-62340940D01*
X140550418Y-62348206D01*
X140550876Y-62354024D01*
X140552402Y-62402567D01*
X140552403Y-62402570D01*
X140558323Y-62422948D01*
X140562268Y-62441996D01*
X140564928Y-62463054D01*
X140564931Y-62463064D01*
X140582813Y-62508230D01*
X140584705Y-62513758D01*
X140598254Y-62560395D01*
X140598255Y-62560397D01*
X140609060Y-62578666D01*
X140617617Y-62596134D01*
X140623226Y-62610300D01*
X140625432Y-62615872D01*
X140653983Y-62655170D01*
X140657188Y-62660049D01*
X140681919Y-62701865D01*
X140681923Y-62701869D01*
X140696925Y-62716871D01*
X140709563Y-62731669D01*
X140722033Y-62748833D01*
X140722036Y-62748836D01*
X140722037Y-62748837D01*
X140759476Y-62779809D01*
X140763776Y-62783722D01*
X142313181Y-64333127D01*
X142346666Y-64394450D01*
X142349500Y-64420808D01*
X142349500Y-80677843D01*
X142329815Y-80744882D01*
X142277011Y-80790637D01*
X142207853Y-80800581D01*
X142144297Y-80771556D01*
X142121691Y-80745665D01*
X142075664Y-80675215D01*
X141907244Y-80492262D01*
X141711009Y-80339526D01*
X141711007Y-80339525D01*
X141711006Y-80339524D01*
X141492311Y-80221172D01*
X141492302Y-80221169D01*
X141257116Y-80140429D01*
X141011835Y-80099500D01*
X140763165Y-80099500D01*
X140517883Y-80140429D01*
X140282697Y-80221169D01*
X140282688Y-80221172D01*
X140063993Y-80339524D01*
X139867757Y-80492261D01*
X139699333Y-80675217D01*
X139563326Y-80883393D01*
X139463436Y-81111118D01*
X139402392Y-81352175D01*
X139402390Y-81352187D01*
X139381857Y-81599994D01*
X139381857Y-81600005D01*
X139402390Y-81847812D01*
X139402392Y-81847824D01*
X139463436Y-82088881D01*
X139563326Y-82316606D01*
X139699333Y-82524782D01*
X139699336Y-82524785D01*
X139867756Y-82707738D01*
X140063991Y-82860474D01*
X140282690Y-82978828D01*
X140517886Y-83059571D01*
X140763165Y-83100500D01*
X141011835Y-83100500D01*
X141257114Y-83059571D01*
X141492310Y-82978828D01*
X141711009Y-82860474D01*
X141907244Y-82707738D01*
X142075664Y-82524785D01*
X142121691Y-82454334D01*
X142174837Y-82408978D01*
X142244068Y-82399554D01*
X142307404Y-82429055D01*
X142344736Y-82488116D01*
X142349500Y-82522156D01*
X142349500Y-85177843D01*
X142329815Y-85244882D01*
X142277011Y-85290637D01*
X142207853Y-85300581D01*
X142144297Y-85271556D01*
X142121691Y-85245665D01*
X142075664Y-85175215D01*
X141907244Y-84992262D01*
X141711009Y-84839526D01*
X141711007Y-84839525D01*
X141711006Y-84839524D01*
X141492311Y-84721172D01*
X141492302Y-84721169D01*
X141257116Y-84640429D01*
X141011835Y-84599500D01*
X140763165Y-84599500D01*
X140517883Y-84640429D01*
X140282697Y-84721169D01*
X140282688Y-84721172D01*
X140063993Y-84839524D01*
X139867757Y-84992261D01*
X139699333Y-85175217D01*
X139563326Y-85383393D01*
X139463436Y-85611118D01*
X139402392Y-85852175D01*
X139402390Y-85852187D01*
X139381857Y-86099994D01*
X139381857Y-86100005D01*
X139402390Y-86347812D01*
X139402392Y-86347824D01*
X139463436Y-86588881D01*
X139563326Y-86816606D01*
X139699333Y-87024782D01*
X139699336Y-87024785D01*
X139867756Y-87207738D01*
X140063991Y-87360474D01*
X140068766Y-87363058D01*
X140282390Y-87478666D01*
X140282690Y-87478828D01*
X140517886Y-87559571D01*
X140763165Y-87600500D01*
X141011835Y-87600500D01*
X141257114Y-87559571D01*
X141492310Y-87478828D01*
X141711009Y-87360474D01*
X141907244Y-87207738D01*
X142075664Y-87024785D01*
X142121691Y-86954334D01*
X142174837Y-86908978D01*
X142244068Y-86899554D01*
X142307404Y-86929055D01*
X142344736Y-86988116D01*
X142349500Y-87022156D01*
X142349500Y-100578044D01*
X142329815Y-100645083D01*
X142277011Y-100690838D01*
X142239384Y-100701264D01*
X142120749Y-100714630D01*
X142120737Y-100714633D01*
X141950481Y-100774209D01*
X141950477Y-100774210D01*
X141860904Y-100830494D01*
X141794932Y-100849500D01*
X134892568Y-100849500D01*
X134826596Y-100830494D01*
X134737022Y-100774210D01*
X134737018Y-100774209D01*
X134566762Y-100714633D01*
X134566749Y-100714630D01*
X134387504Y-100694435D01*
X134387496Y-100694435D01*
X134208250Y-100714630D01*
X134208245Y-100714631D01*
X134037976Y-100774211D01*
X133885237Y-100870184D01*
X133862181Y-100893241D01*
X133800858Y-100926726D01*
X133731166Y-100921742D01*
X133675233Y-100879870D01*
X133650816Y-100814406D01*
X133650500Y-100805560D01*
X133650500Y-92900000D01*
X134094540Y-92900000D01*
X134114326Y-93088256D01*
X134114327Y-93088259D01*
X134172818Y-93268277D01*
X134172821Y-93268284D01*
X134267467Y-93432216D01*
X134357489Y-93532195D01*
X134394129Y-93572888D01*
X134547265Y-93684148D01*
X134547270Y-93684151D01*
X134720192Y-93761142D01*
X134720197Y-93761144D01*
X134905354Y-93800500D01*
X134905355Y-93800500D01*
X135094644Y-93800500D01*
X135094646Y-93800500D01*
X135279803Y-93761144D01*
X135452730Y-93684151D01*
X135604090Y-93574182D01*
X135669896Y-93550702D01*
X135676975Y-93550500D01*
X138479192Y-93550500D01*
X138546231Y-93570185D01*
X138566873Y-93586819D01*
X139713181Y-94733127D01*
X139746666Y-94794450D01*
X139749500Y-94820808D01*
X139749500Y-95994931D01*
X139730494Y-96060903D01*
X139674211Y-96150477D01*
X139674209Y-96150481D01*
X139614633Y-96320737D01*
X139614630Y-96320750D01*
X139594435Y-96499996D01*
X139594435Y-96500003D01*
X139614630Y-96679249D01*
X139614631Y-96679254D01*
X139674211Y-96849523D01*
X139770184Y-97002262D01*
X139897738Y-97129816D01*
X140050478Y-97225789D01*
X140220745Y-97285368D01*
X140220750Y-97285369D01*
X140399996Y-97305565D01*
X140400000Y-97305565D01*
X140400004Y-97305565D01*
X140579249Y-97285369D01*
X140579252Y-97285368D01*
X140579255Y-97285368D01*
X140749522Y-97225789D01*
X140902262Y-97129816D01*
X141029816Y-97002262D01*
X141125789Y-96849522D01*
X141185368Y-96679255D01*
X141205565Y-96500000D01*
X141185368Y-96320745D01*
X141185367Y-96320743D01*
X141185366Y-96320737D01*
X141125790Y-96150481D01*
X141125789Y-96150478D01*
X141104008Y-96115814D01*
X141069506Y-96060903D01*
X141050500Y-95994931D01*
X141050500Y-94585503D01*
X141052268Y-94569491D01*
X141052026Y-94569469D01*
X141052760Y-94561706D01*
X141050500Y-94489782D01*
X141050500Y-94459078D01*
X141050500Y-94459075D01*
X141049579Y-94451792D01*
X141049123Y-94445987D01*
X141048591Y-94429055D01*
X141047598Y-94397431D01*
X141041676Y-94377050D01*
X141037731Y-94357995D01*
X141035072Y-94336949D01*
X141035071Y-94336948D01*
X141035071Y-94336942D01*
X141017189Y-94291779D01*
X141015300Y-94286259D01*
X141010630Y-94270185D01*
X141001745Y-94239602D01*
X140995521Y-94229078D01*
X140990936Y-94221324D01*
X140982378Y-94203855D01*
X140974568Y-94184129D01*
X140946006Y-94144818D01*
X140942818Y-94139964D01*
X140918081Y-94098135D01*
X140903075Y-94083129D01*
X140890435Y-94068330D01*
X140886922Y-94063495D01*
X140877963Y-94051163D01*
X140877961Y-94051160D01*
X140840528Y-94020194D01*
X140836206Y-94016260D01*
X139320434Y-92500488D01*
X139310361Y-92487914D01*
X139310174Y-92488070D01*
X139305201Y-92482059D01*
X139252756Y-92432810D01*
X139231035Y-92411089D01*
X139225240Y-92406594D01*
X139220798Y-92402799D01*
X139185396Y-92369554D01*
X139185388Y-92369548D01*
X139166792Y-92359325D01*
X139150531Y-92348644D01*
X139133763Y-92335637D01*
X139110295Y-92325482D01*
X139089178Y-92316343D01*
X139083956Y-92313786D01*
X139041368Y-92290373D01*
X139041365Y-92290372D01*
X139020801Y-92285092D01*
X139002396Y-92278790D01*
X138982927Y-92270365D01*
X138982921Y-92270363D01*
X138934951Y-92262766D01*
X138929236Y-92261582D01*
X138912772Y-92257355D01*
X138882180Y-92249500D01*
X138882177Y-92249500D01*
X138860955Y-92249500D01*
X138841555Y-92247973D01*
X138820596Y-92244653D01*
X138820595Y-92244653D01*
X138796786Y-92246903D01*
X138772230Y-92249225D01*
X138766392Y-92249500D01*
X135676975Y-92249500D01*
X135609936Y-92229815D01*
X135604090Y-92225818D01*
X135452734Y-92115851D01*
X135452729Y-92115848D01*
X135279807Y-92038857D01*
X135279802Y-92038855D01*
X135134001Y-92007865D01*
X135094646Y-91999500D01*
X134905354Y-91999500D01*
X134872897Y-92006398D01*
X134720197Y-92038855D01*
X134720192Y-92038857D01*
X134547270Y-92115848D01*
X134547265Y-92115851D01*
X134394129Y-92227111D01*
X134267466Y-92367785D01*
X134172821Y-92531715D01*
X134172818Y-92531722D01*
X134126195Y-92675215D01*
X134114326Y-92711744D01*
X134094540Y-92900000D01*
X133650500Y-92900000D01*
X133650500Y-87885501D01*
X133652268Y-87869488D01*
X133652026Y-87869466D01*
X133652758Y-87861710D01*
X133652760Y-87861703D01*
X133650500Y-87789796D01*
X133650500Y-87759075D01*
X133649579Y-87751788D01*
X133649122Y-87745979D01*
X133648782Y-87735156D01*
X133647597Y-87697431D01*
X133641676Y-87677053D01*
X133637731Y-87658004D01*
X133635071Y-87636942D01*
X133635068Y-87636934D01*
X133633489Y-87630782D01*
X133635882Y-87560953D01*
X133675647Y-87503503D01*
X133740159Y-87476672D01*
X133793854Y-87482660D01*
X134017886Y-87559571D01*
X134263165Y-87600500D01*
X134511835Y-87600500D01*
X134757114Y-87559571D01*
X134992310Y-87478828D01*
X135211009Y-87360474D01*
X135407244Y-87207738D01*
X135575664Y-87024785D01*
X135711673Y-86816607D01*
X135811563Y-86588881D01*
X135872608Y-86347821D01*
X135893143Y-86100000D01*
X135872608Y-85852179D01*
X135811563Y-85611119D01*
X135802209Y-85589795D01*
X135711673Y-85383393D01*
X135575666Y-85175217D01*
X135540468Y-85136982D01*
X135407244Y-84992262D01*
X135211009Y-84839526D01*
X135211007Y-84839525D01*
X135211006Y-84839524D01*
X134992311Y-84721172D01*
X134992302Y-84721169D01*
X134757116Y-84640429D01*
X134511835Y-84599500D01*
X134263165Y-84599500D01*
X134017883Y-84640429D01*
X133782697Y-84721169D01*
X133782688Y-84721172D01*
X133563993Y-84839524D01*
X133367757Y-84992261D01*
X133265730Y-85103092D01*
X133205842Y-85139083D01*
X133136004Y-85136982D01*
X133078388Y-85097458D01*
X133051287Y-85033058D01*
X133050500Y-85019109D01*
X133050500Y-82680890D01*
X133070185Y-82613851D01*
X133122989Y-82568096D01*
X133192147Y-82558152D01*
X133255703Y-82587177D01*
X133265720Y-82596897D01*
X133367756Y-82707738D01*
X133563991Y-82860474D01*
X133782690Y-82978828D01*
X134017886Y-83059571D01*
X134263165Y-83100500D01*
X134511835Y-83100500D01*
X134757114Y-83059571D01*
X134992310Y-82978828D01*
X135211009Y-82860474D01*
X135407244Y-82707738D01*
X135575664Y-82524785D01*
X135711673Y-82316607D01*
X135811563Y-82088881D01*
X135872608Y-81847821D01*
X135893143Y-81600000D01*
X135874179Y-81371141D01*
X135872609Y-81352187D01*
X135872607Y-81352175D01*
X135811563Y-81111118D01*
X135711673Y-80883393D01*
X135575666Y-80675217D01*
X135554057Y-80651744D01*
X135407244Y-80492262D01*
X135211009Y-80339526D01*
X135211007Y-80339525D01*
X135211006Y-80339524D01*
X134992311Y-80221172D01*
X134992302Y-80221169D01*
X134757116Y-80140429D01*
X134511835Y-80099500D01*
X134263165Y-80099500D01*
X134017883Y-80140429D01*
X133782697Y-80221169D01*
X133782683Y-80221175D01*
X133766408Y-80229983D01*
X133698080Y-80244578D01*
X133632708Y-80219915D01*
X133591047Y-80163824D01*
X133586325Y-80094114D01*
X133598730Y-80061189D01*
X133601180Y-80056731D01*
X133609627Y-80041368D01*
X133614905Y-80020806D01*
X133621207Y-80002399D01*
X133629635Y-79982927D01*
X133637233Y-79934953D01*
X133638414Y-79929247D01*
X133650500Y-79882177D01*
X133650500Y-79860949D01*
X133652027Y-79841549D01*
X133655346Y-79820595D01*
X133650775Y-79772238D01*
X133650500Y-79766400D01*
X133650500Y-52120808D01*
X133670185Y-52053769D01*
X133686819Y-52033127D01*
X134433127Y-51286819D01*
X134494450Y-51253334D01*
X134520808Y-51250500D01*
X141494932Y-51250500D01*
X141560904Y-51269506D01*
X141650477Y-51325789D01*
X141650481Y-51325790D01*
X141820737Y-51385366D01*
X141820743Y-51385367D01*
X141820745Y-51385368D01*
X141820746Y-51385368D01*
X141820750Y-51385369D01*
X141999996Y-51405565D01*
X142000000Y-51405565D01*
X142000004Y-51405565D01*
X142179249Y-51385369D01*
X142179252Y-51385368D01*
X142179255Y-51385368D01*
X142349522Y-51325789D01*
X142357550Y-51320745D01*
X142411542Y-51286819D01*
X142502262Y-51229816D01*
X142502264Y-51229813D01*
X142506693Y-51227031D01*
X142573930Y-51208030D01*
X142623911Y-51223261D01*
X142608340Y-51181512D01*
X142623192Y-51113239D01*
X142627031Y-51106693D01*
X142629813Y-51102264D01*
X142629816Y-51102262D01*
X142725789Y-50949522D01*
X142785368Y-50779255D01*
X142785369Y-50779249D01*
X142805565Y-50600003D01*
X142805565Y-50599996D01*
X142785369Y-50420750D01*
X142785368Y-50420745D01*
X142753550Y-50329815D01*
X142725789Y-50250478D01*
X142629816Y-50097738D01*
X142502262Y-49970184D01*
X142483385Y-49958323D01*
X142349523Y-49874211D01*
X142179254Y-49814631D01*
X142179249Y-49814630D01*
X142000004Y-49794435D01*
X141999996Y-49794435D01*
X141820750Y-49814630D01*
X141820737Y-49814633D01*
X141650481Y-49874209D01*
X141650477Y-49874210D01*
X141560904Y-49930494D01*
X141494932Y-49949500D01*
X134285504Y-49949500D01*
X134269493Y-49947732D01*
X134269471Y-49947974D01*
X134261704Y-49947240D01*
X134261703Y-49947240D01*
X134189796Y-49949500D01*
X134159075Y-49949500D01*
X134159071Y-49949500D01*
X134159061Y-49949501D01*
X134151793Y-49950419D01*
X134145976Y-49950876D01*
X134097435Y-49952402D01*
X134097424Y-49952404D01*
X134077048Y-49958323D01*
X134058008Y-49962266D01*
X134036947Y-49964927D01*
X134036939Y-49964929D01*
X133991775Y-49982811D01*
X133986247Y-49984703D01*
X133939602Y-49998255D01*
X133921332Y-50009060D01*
X133903863Y-50017618D01*
X133884128Y-50025432D01*
X133884126Y-50025433D01*
X133844839Y-50053977D01*
X133839956Y-50057184D01*
X133798132Y-50081919D01*
X133783126Y-50096926D01*
X133768336Y-50109558D01*
X133751167Y-50122032D01*
X133751165Y-50122034D01*
X133720194Y-50159470D01*
X133716262Y-50163791D01*
X132600483Y-51279569D01*
X132587910Y-51289643D01*
X132588065Y-51289830D01*
X132582059Y-51294798D01*
X132557701Y-51320737D01*
X132532809Y-51347244D01*
X132521949Y-51358104D01*
X132511088Y-51368965D01*
X132511078Y-51368977D01*
X132506587Y-51374765D01*
X132502801Y-51379197D01*
X132469552Y-51414606D01*
X132459322Y-51433213D01*
X132448646Y-51449464D01*
X132435640Y-51466232D01*
X132435636Y-51466238D01*
X132416348Y-51510811D01*
X132413777Y-51516058D01*
X132390372Y-51558630D01*
X132390372Y-51558631D01*
X132385091Y-51579199D01*
X132378791Y-51597601D01*
X132370364Y-51617073D01*
X132362766Y-51665047D01*
X132361581Y-51670770D01*
X132349500Y-51717818D01*
X132349500Y-51739044D01*
X132347973Y-51758444D01*
X132344653Y-51779403D01*
X132349225Y-51827767D01*
X132349500Y-51833606D01*
X132349500Y-73177843D01*
X132329815Y-73244882D01*
X132277011Y-73290637D01*
X132207853Y-73300581D01*
X132144297Y-73271556D01*
X132121691Y-73245665D01*
X132075664Y-73175215D01*
X131907244Y-72992262D01*
X131711009Y-72839526D01*
X131711007Y-72839525D01*
X131711006Y-72839524D01*
X131492311Y-72721172D01*
X131492302Y-72721169D01*
X131257116Y-72640429D01*
X131011835Y-72599500D01*
X130763165Y-72599500D01*
X130517883Y-72640429D01*
X130282697Y-72721169D01*
X130282688Y-72721172D01*
X130063993Y-72839524D01*
X129867757Y-72992261D01*
X129699333Y-73175217D01*
X129563326Y-73383393D01*
X129463436Y-73611118D01*
X129402392Y-73852175D01*
X129402390Y-73852187D01*
X129381857Y-74099994D01*
X129381857Y-74100005D01*
X129402390Y-74347812D01*
X129402392Y-74347824D01*
X129463436Y-74588881D01*
X129563326Y-74816606D01*
X129699333Y-75024782D01*
X129699336Y-75024785D01*
X129867756Y-75207738D01*
X130063991Y-75360474D01*
X130282690Y-75478828D01*
X130517886Y-75559571D01*
X130763165Y-75600500D01*
X131011835Y-75600500D01*
X131257114Y-75559571D01*
X131492310Y-75478828D01*
X131711009Y-75360474D01*
X131907244Y-75207738D01*
X132075664Y-75024785D01*
X132121691Y-74954334D01*
X132174837Y-74908978D01*
X132244068Y-74899554D01*
X132307404Y-74929055D01*
X132344736Y-74988116D01*
X132349500Y-75022156D01*
X132349500Y-77677843D01*
X132329815Y-77744882D01*
X132277011Y-77790637D01*
X132207853Y-77800581D01*
X132144297Y-77771556D01*
X132121691Y-77745665D01*
X132075664Y-77675215D01*
X131907244Y-77492262D01*
X131711009Y-77339526D01*
X131711007Y-77339525D01*
X131711006Y-77339524D01*
X131492311Y-77221172D01*
X131492302Y-77221169D01*
X131257116Y-77140429D01*
X131011835Y-77099500D01*
X130763165Y-77099500D01*
X130517883Y-77140429D01*
X130282697Y-77221169D01*
X130282688Y-77221172D01*
X130063993Y-77339524D01*
X129867757Y-77492261D01*
X129699333Y-77675217D01*
X129563326Y-77883393D01*
X129463436Y-78111118D01*
X129402392Y-78352175D01*
X129402390Y-78352187D01*
X129381857Y-78599994D01*
X129381857Y-78600005D01*
X129402390Y-78847812D01*
X129402392Y-78847824D01*
X129463436Y-79088881D01*
X129563326Y-79316606D01*
X129699333Y-79524782D01*
X129699336Y-79524785D01*
X129867756Y-79707738D01*
X130063991Y-79860474D01*
X130282690Y-79978828D01*
X130517886Y-80059571D01*
X130763165Y-80100500D01*
X131011835Y-80100500D01*
X131257114Y-80059571D01*
X131492310Y-79978828D01*
X131682908Y-79875681D01*
X131751233Y-79861087D01*
X131816606Y-79885750D01*
X131858267Y-79941840D01*
X131862989Y-80011550D01*
X131839908Y-80060729D01*
X131835642Y-80066228D01*
X131835636Y-80066238D01*
X131816348Y-80110811D01*
X131813777Y-80116058D01*
X131790372Y-80158630D01*
X131790372Y-80158631D01*
X131785091Y-80179199D01*
X131778791Y-80197601D01*
X131770364Y-80217073D01*
X131762766Y-80265047D01*
X131761581Y-80270770D01*
X131749500Y-80317818D01*
X131749500Y-80339044D01*
X131747973Y-80358444D01*
X131744653Y-80379403D01*
X131749225Y-80427767D01*
X131749500Y-80433606D01*
X131749500Y-87114494D01*
X131747732Y-87130505D01*
X131747974Y-87130528D01*
X131747240Y-87138294D01*
X131749500Y-87210203D01*
X131749500Y-87240920D01*
X131749501Y-87240940D01*
X131750418Y-87248206D01*
X131750876Y-87254024D01*
X131752402Y-87302567D01*
X131752403Y-87302570D01*
X131758323Y-87322948D01*
X131762268Y-87341996D01*
X131764928Y-87363054D01*
X131764931Y-87363064D01*
X131782813Y-87408230D01*
X131784705Y-87413758D01*
X131798254Y-87460395D01*
X131798255Y-87460397D01*
X131809060Y-87478666D01*
X131817617Y-87496134D01*
X131823226Y-87510300D01*
X131825432Y-87515872D01*
X131853983Y-87555170D01*
X131857191Y-87560053D01*
X131881111Y-87600500D01*
X131881919Y-87601865D01*
X131881923Y-87601869D01*
X131896925Y-87616871D01*
X131909563Y-87631669D01*
X131922033Y-87648833D01*
X131922036Y-87648836D01*
X131922037Y-87648837D01*
X131959476Y-87679809D01*
X131963776Y-87683722D01*
X132141757Y-87861703D01*
X132313181Y-88033127D01*
X132346666Y-88094450D01*
X132349500Y-88120808D01*
X132349500Y-88177843D01*
X132329815Y-88244882D01*
X132277011Y-88290637D01*
X132207853Y-88300581D01*
X132144297Y-88271556D01*
X132121691Y-88245665D01*
X132075664Y-88175215D01*
X131907244Y-87992262D01*
X131711009Y-87839526D01*
X131711007Y-87839525D01*
X131711006Y-87839524D01*
X131492311Y-87721172D01*
X131492302Y-87721169D01*
X131257116Y-87640429D01*
X131011835Y-87599500D01*
X130763165Y-87599500D01*
X130517883Y-87640429D01*
X130282697Y-87721169D01*
X130282688Y-87721172D01*
X130063993Y-87839524D01*
X129867757Y-87992261D01*
X129699333Y-88175217D01*
X129563326Y-88383393D01*
X129463436Y-88611118D01*
X129402392Y-88852175D01*
X129402390Y-88852187D01*
X129381857Y-89099994D01*
X129381857Y-89100005D01*
X129402390Y-89347812D01*
X129402392Y-89347824D01*
X129463436Y-89588881D01*
X129563326Y-89816606D01*
X129699333Y-90024782D01*
X129699336Y-90024785D01*
X129867756Y-90207738D01*
X130063991Y-90360474D01*
X130282690Y-90478828D01*
X130517886Y-90559571D01*
X130763165Y-90600500D01*
X131011835Y-90600500D01*
X131257114Y-90559571D01*
X131492310Y-90478828D01*
X131711009Y-90360474D01*
X131907244Y-90207738D01*
X132075664Y-90024785D01*
X132121691Y-89954334D01*
X132174837Y-89908978D01*
X132244068Y-89899554D01*
X132307404Y-89929055D01*
X132344736Y-89988116D01*
X132349500Y-90022156D01*
X132349500Y-92677843D01*
X132329815Y-92744882D01*
X132277011Y-92790637D01*
X132207853Y-92800581D01*
X132144297Y-92771556D01*
X132121691Y-92745665D01*
X132075664Y-92675215D01*
X131907244Y-92492262D01*
X131711009Y-92339526D01*
X131711007Y-92339525D01*
X131711006Y-92339524D01*
X131492311Y-92221172D01*
X131492302Y-92221169D01*
X131257116Y-92140429D01*
X131011835Y-92099500D01*
X130763165Y-92099500D01*
X130517883Y-92140429D01*
X130282697Y-92221169D01*
X130282688Y-92221172D01*
X130063993Y-92339524D01*
X129867757Y-92492261D01*
X129699333Y-92675217D01*
X129563326Y-92883393D01*
X129562714Y-92884525D01*
X129562342Y-92884898D01*
X129560522Y-92887686D01*
X129559948Y-92887311D01*
X129513491Y-92934112D01*
X129453663Y-92949500D01*
X125821337Y-92949500D01*
X125754298Y-92929815D01*
X125714938Y-92887384D01*
X125714478Y-92887686D01*
X125712714Y-92884987D01*
X125712286Y-92884525D01*
X125711673Y-92883393D01*
X125575666Y-92675217D01*
X125477227Y-92568284D01*
X125407244Y-92492262D01*
X125211009Y-92339526D01*
X125211007Y-92339525D01*
X125211006Y-92339524D01*
X124992311Y-92221172D01*
X124992302Y-92221169D01*
X124757116Y-92140429D01*
X124511835Y-92099500D01*
X124263165Y-92099500D01*
X124017883Y-92140429D01*
X123782697Y-92221169D01*
X123782688Y-92221172D01*
X123563993Y-92339524D01*
X123367757Y-92492261D01*
X123199333Y-92675217D01*
X123063326Y-92883393D01*
X122963436Y-93111118D01*
X122902392Y-93352175D01*
X122902390Y-93352187D01*
X122881857Y-93599994D01*
X122881857Y-93600005D01*
X119738720Y-93600005D01*
X119765334Y-93532195D01*
X119825383Y-93269103D01*
X119845549Y-93000000D01*
X119842466Y-92958862D01*
X119828430Y-92771556D01*
X119825383Y-92730897D01*
X119765334Y-92467805D01*
X119666743Y-92216602D01*
X119531815Y-91982898D01*
X119363561Y-91771915D01*
X119363560Y-91771914D01*
X119363557Y-91771910D01*
X119165741Y-91588365D01*
X119070591Y-91523493D01*
X118942775Y-91436349D01*
X118942772Y-91436348D01*
X118942770Y-91436346D01*
X118760698Y-91348665D01*
X118708839Y-91301842D01*
X118690500Y-91236945D01*
X118690500Y-89100005D01*
X122881857Y-89100005D01*
X122902390Y-89347812D01*
X122902392Y-89347824D01*
X122963436Y-89588881D01*
X123063326Y-89816606D01*
X123199333Y-90024782D01*
X123199336Y-90024785D01*
X123367756Y-90207738D01*
X123563991Y-90360474D01*
X123782690Y-90478828D01*
X124017886Y-90559571D01*
X124263165Y-90600500D01*
X124511835Y-90600500D01*
X124757114Y-90559571D01*
X124992310Y-90478828D01*
X125211009Y-90360474D01*
X125407244Y-90207738D01*
X125575664Y-90024785D01*
X125711673Y-89816607D01*
X125811563Y-89588881D01*
X125872608Y-89347821D01*
X125876583Y-89299855D01*
X125893143Y-89100005D01*
X125893143Y-89099994D01*
X125872609Y-88852187D01*
X125872607Y-88852175D01*
X125811563Y-88611118D01*
X125711673Y-88383393D01*
X125575666Y-88175217D01*
X125554057Y-88151744D01*
X125407244Y-87992262D01*
X125211009Y-87839526D01*
X125211007Y-87839525D01*
X125211006Y-87839524D01*
X124992311Y-87721172D01*
X124992302Y-87721169D01*
X124757116Y-87640429D01*
X124511835Y-87599500D01*
X124263165Y-87599500D01*
X124017883Y-87640429D01*
X123782697Y-87721169D01*
X123782688Y-87721172D01*
X123563993Y-87839524D01*
X123367757Y-87992261D01*
X123199333Y-88175217D01*
X123063326Y-88383393D01*
X122963436Y-88611118D01*
X122902392Y-88852175D01*
X122902390Y-88852187D01*
X122881857Y-89099994D01*
X122881857Y-89100005D01*
X118690500Y-89100005D01*
X118690500Y-86100005D01*
X119381857Y-86100005D01*
X119402390Y-86347812D01*
X119402392Y-86347824D01*
X119463436Y-86588881D01*
X119563326Y-86816606D01*
X119699333Y-87024782D01*
X119699336Y-87024785D01*
X119867756Y-87207738D01*
X120063991Y-87360474D01*
X120068766Y-87363058D01*
X120282390Y-87478666D01*
X120282690Y-87478828D01*
X120517886Y-87559571D01*
X120763165Y-87600500D01*
X121011835Y-87600500D01*
X121257114Y-87559571D01*
X121492310Y-87478828D01*
X121711009Y-87360474D01*
X121907244Y-87207738D01*
X122075664Y-87024785D01*
X122211673Y-86816607D01*
X122311563Y-86588881D01*
X122372608Y-86347821D01*
X122393143Y-86100000D01*
X122372608Y-85852179D01*
X122311563Y-85611119D01*
X122302209Y-85589795D01*
X122211673Y-85383393D01*
X122075666Y-85175217D01*
X122040468Y-85136982D01*
X121907244Y-84992262D01*
X121711009Y-84839526D01*
X121711007Y-84839525D01*
X121711006Y-84839524D01*
X121492311Y-84721172D01*
X121492302Y-84721169D01*
X121257116Y-84640429D01*
X121011835Y-84599500D01*
X120763165Y-84599500D01*
X120517883Y-84640429D01*
X120282697Y-84721169D01*
X120282688Y-84721172D01*
X120063993Y-84839524D01*
X119867757Y-84992261D01*
X119699333Y-85175217D01*
X119563326Y-85383393D01*
X119463436Y-85611118D01*
X119402392Y-85852175D01*
X119402390Y-85852187D01*
X119381857Y-86099994D01*
X119381857Y-86100005D01*
X118690500Y-86100005D01*
X118690500Y-81600005D01*
X119381857Y-81600005D01*
X119402390Y-81847812D01*
X119402392Y-81847824D01*
X119463436Y-82088881D01*
X119563326Y-82316606D01*
X119699333Y-82524782D01*
X119699336Y-82524785D01*
X119867756Y-82707738D01*
X120063991Y-82860474D01*
X120282690Y-82978828D01*
X120517886Y-83059571D01*
X120763165Y-83100500D01*
X121011835Y-83100500D01*
X121257114Y-83059571D01*
X121492310Y-82978828D01*
X121711009Y-82860474D01*
X121907244Y-82707738D01*
X122075664Y-82524785D01*
X122211673Y-82316607D01*
X122311563Y-82088881D01*
X122372608Y-81847821D01*
X122393143Y-81600000D01*
X122374179Y-81371141D01*
X122372609Y-81352187D01*
X122372607Y-81352175D01*
X122311563Y-81111118D01*
X122211673Y-80883393D01*
X122075666Y-80675217D01*
X122054057Y-80651744D01*
X121907244Y-80492262D01*
X121711009Y-80339526D01*
X121711007Y-80339525D01*
X121711006Y-80339524D01*
X121492311Y-80221172D01*
X121492302Y-80221169D01*
X121257116Y-80140429D01*
X121011835Y-80099500D01*
X120763165Y-80099500D01*
X120517883Y-80140429D01*
X120282697Y-80221169D01*
X120282688Y-80221172D01*
X120063993Y-80339524D01*
X119867757Y-80492261D01*
X119699333Y-80675217D01*
X119563326Y-80883393D01*
X119463436Y-81111118D01*
X119402392Y-81352175D01*
X119402390Y-81352187D01*
X119381857Y-81599994D01*
X119381857Y-81600005D01*
X118690500Y-81600005D01*
X118690500Y-78600005D01*
X122881857Y-78600005D01*
X122902390Y-78847812D01*
X122902392Y-78847824D01*
X122963436Y-79088881D01*
X123063326Y-79316606D01*
X123199333Y-79524782D01*
X123199336Y-79524785D01*
X123367756Y-79707738D01*
X123563991Y-79860474D01*
X123782690Y-79978828D01*
X124017886Y-80059571D01*
X124263165Y-80100500D01*
X124511835Y-80100500D01*
X124757114Y-80059571D01*
X124992310Y-79978828D01*
X125211009Y-79860474D01*
X125407244Y-79707738D01*
X125575664Y-79524785D01*
X125711673Y-79316607D01*
X125811563Y-79088881D01*
X125872608Y-78847821D01*
X125875973Y-78807216D01*
X125893143Y-78600005D01*
X125893143Y-78599994D01*
X125872609Y-78352187D01*
X125872607Y-78352175D01*
X125811563Y-78111118D01*
X125711673Y-77883393D01*
X125575666Y-77675217D01*
X125554057Y-77651744D01*
X125407244Y-77492262D01*
X125211009Y-77339526D01*
X125211007Y-77339525D01*
X125211006Y-77339524D01*
X124992311Y-77221172D01*
X124992302Y-77221169D01*
X124757116Y-77140429D01*
X124511835Y-77099500D01*
X124263165Y-77099500D01*
X124017883Y-77140429D01*
X123782697Y-77221169D01*
X123782688Y-77221172D01*
X123563993Y-77339524D01*
X123367757Y-77492261D01*
X123199333Y-77675217D01*
X123063326Y-77883393D01*
X122963436Y-78111118D01*
X122902392Y-78352175D01*
X122902390Y-78352187D01*
X122881857Y-78599994D01*
X122881857Y-78600005D01*
X118690500Y-78600005D01*
X118690500Y-74626497D01*
X118710185Y-74559458D01*
X118722351Y-74543524D01*
X118732533Y-74532216D01*
X118827179Y-74368284D01*
X118885674Y-74188256D01*
X118894949Y-74100005D01*
X122881857Y-74100005D01*
X122902390Y-74347812D01*
X122902392Y-74347824D01*
X122963436Y-74588881D01*
X123063326Y-74816606D01*
X123199333Y-75024782D01*
X123199336Y-75024785D01*
X123367756Y-75207738D01*
X123563991Y-75360474D01*
X123782690Y-75478828D01*
X124017886Y-75559571D01*
X124263165Y-75600500D01*
X124511835Y-75600500D01*
X124757114Y-75559571D01*
X124992310Y-75478828D01*
X125211009Y-75360474D01*
X125407244Y-75207738D01*
X125575664Y-75024785D01*
X125711673Y-74816607D01*
X125811563Y-74588881D01*
X125872608Y-74347821D01*
X125893143Y-74100000D01*
X125872608Y-73852179D01*
X125849500Y-73760928D01*
X125811563Y-73611118D01*
X125711673Y-73383393D01*
X125575666Y-73175217D01*
X125505963Y-73099500D01*
X125407244Y-72992262D01*
X125211009Y-72839526D01*
X125211007Y-72839525D01*
X125211006Y-72839524D01*
X124992311Y-72721172D01*
X124992302Y-72721169D01*
X124757116Y-72640429D01*
X124511835Y-72599500D01*
X124263165Y-72599500D01*
X124017883Y-72640429D01*
X123782697Y-72721169D01*
X123782688Y-72721172D01*
X123563993Y-72839524D01*
X123367757Y-72992261D01*
X123199333Y-73175217D01*
X123063326Y-73383393D01*
X122963436Y-73611118D01*
X122902392Y-73852175D01*
X122902390Y-73852187D01*
X122881857Y-74099994D01*
X122881857Y-74100005D01*
X118894949Y-74100005D01*
X118905460Y-74000000D01*
X118885674Y-73811744D01*
X118827179Y-73631716D01*
X118732533Y-73467784D01*
X118605871Y-73327112D01*
X118605870Y-73327111D01*
X118452734Y-73215851D01*
X118452729Y-73215848D01*
X118279807Y-73138857D01*
X118279802Y-73138855D01*
X118134001Y-73107865D01*
X118094646Y-73099500D01*
X117905354Y-73099500D01*
X117872897Y-73106398D01*
X117720197Y-73138855D01*
X117720192Y-73138857D01*
X117547270Y-73215848D01*
X117547265Y-73215851D01*
X117394129Y-73327111D01*
X117267466Y-73467785D01*
X117172821Y-73631715D01*
X117172818Y-73631722D01*
X117130837Y-73760928D01*
X117114326Y-73811744D01*
X117094540Y-74000000D01*
X117114326Y-74188256D01*
X117114327Y-74188259D01*
X117172818Y-74368277D01*
X117172821Y-74368284D01*
X117267467Y-74532216D01*
X117291996Y-74559458D01*
X117357650Y-74632374D01*
X117387880Y-74695365D01*
X117389500Y-74715346D01*
X117389500Y-91236945D01*
X117369815Y-91303984D01*
X117319302Y-91348665D01*
X117137230Y-91436346D01*
X116914258Y-91588365D01*
X116716442Y-91771910D01*
X116548185Y-91982898D01*
X116413258Y-92216599D01*
X116413256Y-92216603D01*
X116314666Y-92467804D01*
X116314664Y-92467811D01*
X116254616Y-92730898D01*
X116234451Y-92999995D01*
X116234451Y-93000004D01*
X113611285Y-93000004D01*
X113603561Y-92877234D01*
X113562220Y-92750000D01*
X114510000Y-92750000D01*
X114510000Y-92287015D01*
X114503815Y-92208436D01*
X114503815Y-92208435D01*
X114454849Y-92025692D01*
X114368962Y-91857126D01*
X114368961Y-91857124D01*
X114249900Y-91710099D01*
X114102875Y-91591038D01*
X114102873Y-91591037D01*
X113934307Y-91505150D01*
X113751563Y-91456184D01*
X113672985Y-91450000D01*
X113210000Y-91450000D01*
X113210000Y-92395689D01*
X113201183Y-92390842D01*
X113042114Y-92350000D01*
X112919106Y-92350000D01*
X112797067Y-92365417D01*
X112710000Y-92399889D01*
X112710000Y-91450000D01*
X112247015Y-91450000D01*
X112168436Y-91456184D01*
X112168435Y-91456184D01*
X111985692Y-91505150D01*
X111817126Y-91591037D01*
X111817124Y-91591038D01*
X111670099Y-91710099D01*
X111551038Y-91857124D01*
X111551037Y-91857126D01*
X111465150Y-92025692D01*
X111416184Y-92208435D01*
X111416184Y-92208436D01*
X111410000Y-92287015D01*
X111410000Y-92750000D01*
X112359272Y-92750000D01*
X112336900Y-92797543D01*
X112306127Y-92958862D01*
X112316439Y-93122766D01*
X112357780Y-93250000D01*
X111410000Y-93250000D01*
X111410000Y-93712985D01*
X104750500Y-93712985D01*
X104750500Y-86100005D01*
X112881857Y-86100005D01*
X112902390Y-86347812D01*
X112902392Y-86347824D01*
X112963436Y-86588881D01*
X113063326Y-86816606D01*
X113199333Y-87024782D01*
X113199336Y-87024785D01*
X113367756Y-87207738D01*
X113563991Y-87360474D01*
X113568766Y-87363058D01*
X113782390Y-87478666D01*
X113782690Y-87478828D01*
X114017886Y-87559571D01*
X114263165Y-87600500D01*
X114511835Y-87600500D01*
X114757114Y-87559571D01*
X114992310Y-87478828D01*
X115211009Y-87360474D01*
X115407244Y-87207738D01*
X115575664Y-87024785D01*
X115711673Y-86816607D01*
X115811563Y-86588881D01*
X115872608Y-86347821D01*
X115893143Y-86100000D01*
X115872608Y-85852179D01*
X115811563Y-85611119D01*
X115802209Y-85589795D01*
X115711673Y-85383393D01*
X115575666Y-85175217D01*
X115540468Y-85136982D01*
X115407244Y-84992262D01*
X115211009Y-84839526D01*
X115211007Y-84839525D01*
X115211006Y-84839524D01*
X114992311Y-84721172D01*
X114992302Y-84721169D01*
X114757116Y-84640429D01*
X114511835Y-84599500D01*
X114263165Y-84599500D01*
X114017883Y-84640429D01*
X113782697Y-84721169D01*
X113782688Y-84721172D01*
X113563993Y-84839524D01*
X113367757Y-84992261D01*
X113199333Y-85175217D01*
X113063326Y-85383393D01*
X112963436Y-85611118D01*
X112902392Y-85852175D01*
X112902390Y-85852187D01*
X112881857Y-86099994D01*
X112881857Y-86100005D01*
X104750500Y-86100005D01*
X104750500Y-81600005D01*
X112881857Y-81600005D01*
X112902390Y-81847812D01*
X112902392Y-81847824D01*
X112963436Y-82088881D01*
X113063326Y-82316606D01*
X113199333Y-82524782D01*
X113199336Y-82524785D01*
X113367756Y-82707738D01*
X113563991Y-82860474D01*
X113782690Y-82978828D01*
X114017886Y-83059571D01*
X114263165Y-83100500D01*
X114511835Y-83100500D01*
X114757114Y-83059571D01*
X114992310Y-82978828D01*
X115211009Y-82860474D01*
X115407244Y-82707738D01*
X115575664Y-82524785D01*
X115711673Y-82316607D01*
X115811563Y-82088881D01*
X115872608Y-81847821D01*
X115893143Y-81600000D01*
X115874179Y-81371141D01*
X115872609Y-81352187D01*
X115872607Y-81352175D01*
X115811563Y-81111118D01*
X115711673Y-80883393D01*
X115575666Y-80675217D01*
X115554057Y-80651744D01*
X115407244Y-80492262D01*
X115211009Y-80339526D01*
X115211007Y-80339525D01*
X115211006Y-80339524D01*
X114992311Y-80221172D01*
X114992302Y-80221169D01*
X114757116Y-80140429D01*
X114511835Y-80099500D01*
X114263165Y-80099500D01*
X114017883Y-80140429D01*
X113782697Y-80221169D01*
X113782688Y-80221172D01*
X113563993Y-80339524D01*
X113367757Y-80492261D01*
X113199333Y-80675217D01*
X113063326Y-80883393D01*
X112963436Y-81111118D01*
X112902392Y-81352175D01*
X112902390Y-81352187D01*
X112881857Y-81599994D01*
X112881857Y-81600005D01*
X104750500Y-81600005D01*
X104750500Y-45500000D01*
X156525000Y-45500000D01*
X156925000Y-45500000D01*
X156925000Y-45025000D01*
X156920796Y-45025001D01*
X156920774Y-45025002D01*
X156890399Y-45027850D01*
X156890394Y-45027851D01*
X156762354Y-45072653D01*
X156653207Y-45153207D01*
X156572653Y-45262354D01*
X156527850Y-45390395D01*
X156527850Y-45390399D01*
X156525000Y-45420793D01*
X156525000Y-45500000D01*
X104750500Y-45500000D01*
X104750500Y-44250000D01*
X156525001Y-44250000D01*
X156525001Y-44329196D01*
X156527851Y-44359606D01*
X156572653Y-44487645D01*
X156653207Y-44596792D01*
X156762354Y-44677346D01*
X156890397Y-44722149D01*
X156920793Y-44724999D01*
X156924999Y-44724999D01*
X156925000Y-44724998D01*
X156925000Y-44250000D01*
X156525001Y-44250000D01*
X104750500Y-44250000D01*
X104750500Y-43750000D01*
X156525000Y-43750000D01*
X156925000Y-43750000D01*
X156925000Y-43275000D01*
X156920796Y-43275001D01*
X156920774Y-43275002D01*
X156890399Y-43277850D01*
X156890394Y-43277851D01*
X156762354Y-43322653D01*
X156653207Y-43403207D01*
X156572653Y-43512354D01*
X156527850Y-43640395D01*
X156527850Y-43640399D01*
X156525000Y-43670793D01*
X156525000Y-43750000D01*
X104750500Y-43750000D01*
X104750500Y-42500000D01*
X156525001Y-42500000D01*
X156525001Y-42579196D01*
X156527851Y-42609606D01*
X156572653Y-42737645D01*
X156653207Y-42846792D01*
X156762354Y-42927346D01*
X156890397Y-42972149D01*
X156920793Y-42974999D01*
X156924999Y-42974999D01*
X156925000Y-42974998D01*
X156925000Y-42500000D01*
X156525001Y-42500000D01*
X104750500Y-42500000D01*
X104750500Y-42000000D01*
X156525000Y-42000000D01*
X156925000Y-42000000D01*
X156925000Y-41525000D01*
X156920796Y-41525001D01*
X156920774Y-41525002D01*
X156890399Y-41527850D01*
X156890394Y-41527851D01*
X156762354Y-41572653D01*
X156653207Y-41653207D01*
X156572653Y-41762354D01*
X156527850Y-41890395D01*
X156527850Y-41890399D01*
X156525000Y-41920793D01*
X156525000Y-42000000D01*
X104750500Y-42000000D01*
X104750500Y-40750000D01*
X156525001Y-40750000D01*
X156525001Y-40829196D01*
X156527851Y-40859606D01*
X156572653Y-40987645D01*
X156653207Y-41096792D01*
X156762354Y-41177346D01*
X156890397Y-41222149D01*
X156920793Y-41224999D01*
X156924999Y-41224999D01*
X156925000Y-41224998D01*
X156925000Y-40750000D01*
X156525001Y-40750000D01*
X104750500Y-40750000D01*
X104750500Y-40250000D01*
X156525000Y-40250000D01*
X156925000Y-40250000D01*
X156925000Y-39775000D01*
X156920796Y-39775001D01*
X156920774Y-39775002D01*
X156890399Y-39777850D01*
X156890394Y-39777851D01*
X156762354Y-39822653D01*
X156653207Y-39903207D01*
X156572653Y-40012354D01*
X156527850Y-40140395D01*
X156527850Y-40140399D01*
X156525000Y-40170793D01*
X156525000Y-40250000D01*
X104750500Y-40250000D01*
X104750500Y-30000000D01*
X104759991Y-29758428D01*
X104769627Y-29525453D01*
X104769998Y-29520794D01*
X104798867Y-29276885D01*
X104827718Y-29045437D01*
X104828428Y-29041039D01*
X104876373Y-28800003D01*
X104924259Y-28571623D01*
X104925246Y-28567606D01*
X104991977Y-28330994D01*
X105058605Y-28107194D01*
X105059848Y-28103463D01*
X105144958Y-27872763D01*
X105229890Y-27655099D01*
X105231312Y-27651754D01*
X105334343Y-27428261D01*
X105437015Y-27218243D01*
X105438545Y-27215322D01*
X105558857Y-27000491D01*
X105678592Y-26799550D01*
X105680237Y-26796945D01*
X105817086Y-26592137D01*
X105953085Y-26401659D01*
X105954757Y-26399432D01*
X106107339Y-26205882D01*
X106259519Y-26026207D01*
X106427740Y-25844226D01*
X106594226Y-25677740D01*
X106776209Y-25509516D01*
X106955882Y-25357339D01*
X107149432Y-25204757D01*
X107151659Y-25203085D01*
X107342137Y-25067086D01*
X107546945Y-24930237D01*
X107549550Y-24928592D01*
X107750491Y-24808857D01*
X107965322Y-24688545D01*
X107968243Y-24687015D01*
X108178261Y-24584343D01*
X108401754Y-24481312D01*
X108405099Y-24479890D01*
X108622716Y-24394975D01*
X108853463Y-24309848D01*
X108857194Y-24308605D01*
X109080948Y-24241990D01*
X109317606Y-24175246D01*
X109321623Y-24174259D01*
X109550002Y-24126373D01*
X109791039Y-24078428D01*
X109795437Y-24077718D01*
X109809697Y-24075940D01*
X110026885Y-24048867D01*
X110270794Y-24019998D01*
X110275453Y-24019627D01*
X110508506Y-24009988D01*
X110750000Y-24000500D01*
X110750500Y-24000500D01*
X168749500Y-24000500D01*
X168750000Y-24000500D01*
X168991852Y-24010002D01*
G37*
%TD.AperFunction*%
%TD*%
M02*
