%TF.GenerationSoftware,KiCad,Pcbnew,8.0.0*%
%TF.CreationDate,2024-03-23T15:17:17+01:00*%
%TF.ProjectId,stopwatchy,73746f70-7761-4746-9368-792e6b696361,rev?*%
%TF.SameCoordinates,Original*%
%TF.FileFunction,Paste,Bot*%
%TF.FilePolarity,Positive*%
%FSLAX46Y46*%
G04 Gerber Fmt 4.6, Leading zero omitted, Abs format (unit mm)*
G04 Created by KiCad (PCBNEW 8.0.0) date 2024-03-23 15:17:17*
%MOMM*%
%LPD*%
G01*
G04 APERTURE LIST*
G04 Aperture macros list*
%AMRoundRect*
0 Rectangle with rounded corners*
0 $1 Rounding radius*
0 $2 $3 $4 $5 $6 $7 $8 $9 X,Y pos of 4 corners*
0 Add a 4 corners polygon primitive as box body*
4,1,4,$2,$3,$4,$5,$6,$7,$8,$9,$2,$3,0*
0 Add four circle primitives for the rounded corners*
1,1,$1+$1,$2,$3*
1,1,$1+$1,$4,$5*
1,1,$1+$1,$6,$7*
1,1,$1+$1,$8,$9*
0 Add four rect primitives between the rounded corners*
20,1,$1+$1,$2,$3,$4,$5,0*
20,1,$1+$1,$4,$5,$6,$7,0*
20,1,$1+$1,$6,$7,$8,$9,0*
20,1,$1+$1,$8,$9,$2,$3,0*%
G04 Aperture macros list end*
%ADD10RoundRect,0.200000X-0.200000X-0.275000X0.200000X-0.275000X0.200000X0.275000X-0.200000X0.275000X0*%
%ADD11RoundRect,0.200000X0.200000X0.275000X-0.200000X0.275000X-0.200000X-0.275000X0.200000X-0.275000X0*%
%ADD12R,4.000000X0.700000*%
%ADD13R,7.450000X6.100000*%
G04 APERTURE END LIST*
D10*
%TO.C,R26*%
X157175000Y-51000000D03*
X158825000Y-51000000D03*
%TD*%
D11*
%TO.C,R29*%
X158825000Y-44000000D03*
X157175000Y-44000000D03*
%TD*%
D10*
%TO.C,R22*%
X157175000Y-56250000D03*
X158825000Y-56250000D03*
%TD*%
%TO.C,R25*%
X157175000Y-49250000D03*
X158825000Y-49250000D03*
%TD*%
%TO.C,R24*%
X157175000Y-52750000D03*
X158825000Y-52750000D03*
%TD*%
D11*
%TO.C,R28*%
X158825000Y-42250000D03*
X157175000Y-42250000D03*
%TD*%
D10*
%TO.C,R23*%
X157175000Y-54500000D03*
X158825000Y-54500000D03*
%TD*%
D11*
%TO.C,R14*%
X158825000Y-40500000D03*
X157175000Y-40500000D03*
%TD*%
D12*
%TO.C,U3*%
X165100000Y-60500000D03*
X165100000Y-59500000D03*
X165100000Y-58500000D03*
X165100000Y-57500000D03*
X165100000Y-56500000D03*
X165100000Y-55500000D03*
X165100000Y-54500000D03*
X165100000Y-53500000D03*
X165100000Y-52500000D03*
X165100000Y-51500000D03*
X165100000Y-50500000D03*
X165100000Y-49500000D03*
X165100000Y-48500000D03*
X165100000Y-47500000D03*
X165100000Y-46500000D03*
X165100000Y-45500000D03*
X165100000Y-44500000D03*
X165100000Y-43500000D03*
X165100000Y-42500000D03*
X165100000Y-41500000D03*
%TD*%
D10*
%TO.C,R27*%
X157175000Y-47500000D03*
X158825000Y-47500000D03*
%TD*%
D11*
%TO.C,R30*%
X158825000Y-45750000D03*
X157175000Y-45750000D03*
%TD*%
D13*
%TO.C,BT1*%
X166262500Y-111850000D03*
X166262500Y-100850000D03*
X110512500Y-111850000D03*
X110512500Y-100850000D03*
%TD*%
M02*
