%TF.GenerationSoftware,KiCad,Pcbnew,8.0.0*%
%TF.CreationDate,2024-03-23T15:17:22+01:00*%
%TF.ProjectId,stopwatchy,73746f70-7761-4746-9368-792e6b696361,rev?*%
%TF.SameCoordinates,Original*%
%TF.FileFunction,Drillmap*%
%TF.FilePolarity,Positive*%
%FSLAX45Y45*%
G04 Gerber Fmt 4.5, Leading zero omitted, Abs format (unit mm)*
G04 Created by KiCad (PCBNEW 8.0.0) date 2024-03-23 15:17:22*
%MOMM*%
%LPD*%
G01*
G04 APERTURE LIST*
%ADD10C,0.100000*%
%ADD11C,0.200000*%
%ADD12C,0.180000*%
G04 APERTURE END LIST*
D10*
X11075000Y-2400000D02*
X16875000Y-2400000D01*
X10475000Y-3000000D02*
X10475000Y-11500000D01*
X10475000Y-3000000D02*
G75*
G02*
X11075000Y-2400000I600000J0D01*
G01*
X11075000Y-12100000D02*
X16875000Y-12100000D01*
X17475000Y-11500000D02*
G75*
G02*
X16875000Y-12100000I-600000J0D01*
G01*
X17475000Y-11500000D02*
X17475000Y-3000000D01*
X16875000Y-2400000D02*
G75*
G02*
X17475000Y-3000000I0J-600000D01*
G01*
X11075000Y-12100000D02*
G75*
G02*
X10475000Y-11500000I0J600000D01*
G01*
D11*
D12*
X16093750Y-11591000D02*
X16273750Y-11771000D01*
X16273750Y-11591000D02*
X16093750Y-11771000D01*
D11*
X10730777Y-12416484D02*
X10730777Y-12216484D01*
X10730777Y-12216484D02*
X10778396Y-12216484D01*
X10778396Y-12216484D02*
X10806967Y-12226008D01*
X10806967Y-12226008D02*
X10826015Y-12245055D01*
X10826015Y-12245055D02*
X10835539Y-12264103D01*
X10835539Y-12264103D02*
X10845063Y-12302198D01*
X10845063Y-12302198D02*
X10845063Y-12330769D01*
X10845063Y-12330769D02*
X10835539Y-12368865D01*
X10835539Y-12368865D02*
X10826015Y-12387912D01*
X10826015Y-12387912D02*
X10806967Y-12406960D01*
X10806967Y-12406960D02*
X10778396Y-12416484D01*
X10778396Y-12416484D02*
X10730777Y-12416484D01*
X10930777Y-12416484D02*
X10930777Y-12283150D01*
X10930777Y-12321246D02*
X10940301Y-12302198D01*
X10940301Y-12302198D02*
X10949824Y-12292674D01*
X10949824Y-12292674D02*
X10968872Y-12283150D01*
X10968872Y-12283150D02*
X10987920Y-12283150D01*
X11054586Y-12416484D02*
X11054586Y-12283150D01*
X11054586Y-12216484D02*
X11045063Y-12226008D01*
X11045063Y-12226008D02*
X11054586Y-12235531D01*
X11054586Y-12235531D02*
X11064110Y-12226008D01*
X11064110Y-12226008D02*
X11054586Y-12216484D01*
X11054586Y-12216484D02*
X11054586Y-12235531D01*
X11178396Y-12416484D02*
X11159348Y-12406960D01*
X11159348Y-12406960D02*
X11149824Y-12387912D01*
X11149824Y-12387912D02*
X11149824Y-12216484D01*
X11283158Y-12416484D02*
X11264110Y-12406960D01*
X11264110Y-12406960D02*
X11254586Y-12387912D01*
X11254586Y-12387912D02*
X11254586Y-12216484D01*
X11511729Y-12416484D02*
X11511729Y-12216484D01*
X11511729Y-12216484D02*
X11578396Y-12359341D01*
X11578396Y-12359341D02*
X11645062Y-12216484D01*
X11645062Y-12216484D02*
X11645062Y-12416484D01*
X11826015Y-12416484D02*
X11826015Y-12311722D01*
X11826015Y-12311722D02*
X11816491Y-12292674D01*
X11816491Y-12292674D02*
X11797443Y-12283150D01*
X11797443Y-12283150D02*
X11759348Y-12283150D01*
X11759348Y-12283150D02*
X11740301Y-12292674D01*
X11826015Y-12406960D02*
X11806967Y-12416484D01*
X11806967Y-12416484D02*
X11759348Y-12416484D01*
X11759348Y-12416484D02*
X11740301Y-12406960D01*
X11740301Y-12406960D02*
X11730777Y-12387912D01*
X11730777Y-12387912D02*
X11730777Y-12368865D01*
X11730777Y-12368865D02*
X11740301Y-12349817D01*
X11740301Y-12349817D02*
X11759348Y-12340293D01*
X11759348Y-12340293D02*
X11806967Y-12340293D01*
X11806967Y-12340293D02*
X11826015Y-12330769D01*
X11921253Y-12283150D02*
X11921253Y-12483150D01*
X11921253Y-12292674D02*
X11940301Y-12283150D01*
X11940301Y-12283150D02*
X11978396Y-12283150D01*
X11978396Y-12283150D02*
X11997443Y-12292674D01*
X11997443Y-12292674D02*
X12006967Y-12302198D01*
X12006967Y-12302198D02*
X12016491Y-12321246D01*
X12016491Y-12321246D02*
X12016491Y-12378388D01*
X12016491Y-12378388D02*
X12006967Y-12397436D01*
X12006967Y-12397436D02*
X11997443Y-12406960D01*
X11997443Y-12406960D02*
X11978396Y-12416484D01*
X11978396Y-12416484D02*
X11940301Y-12416484D01*
X11940301Y-12416484D02*
X11921253Y-12406960D01*
X12102205Y-12397436D02*
X12111729Y-12406960D01*
X12111729Y-12406960D02*
X12102205Y-12416484D01*
X12102205Y-12416484D02*
X12092682Y-12406960D01*
X12092682Y-12406960D02*
X12102205Y-12397436D01*
X12102205Y-12397436D02*
X12102205Y-12416484D01*
X12102205Y-12292674D02*
X12111729Y-12302198D01*
X12111729Y-12302198D02*
X12102205Y-12311722D01*
X12102205Y-12311722D02*
X12092682Y-12302198D01*
X12092682Y-12302198D02*
X12102205Y-12292674D01*
X12102205Y-12292674D02*
X12102205Y-12311722D01*
D12*
X10290000Y-12655000D02*
X10470000Y-12835000D01*
X10470000Y-12655000D02*
X10290000Y-12835000D01*
D11*
X10835539Y-12836484D02*
X10721253Y-12836484D01*
X10778396Y-12836484D02*
X10778396Y-12636484D01*
X10778396Y-12636484D02*
X10759348Y-12665055D01*
X10759348Y-12665055D02*
X10740301Y-12684103D01*
X10740301Y-12684103D02*
X10721253Y-12693627D01*
X10921253Y-12817436D02*
X10930777Y-12826960D01*
X10930777Y-12826960D02*
X10921253Y-12836484D01*
X10921253Y-12836484D02*
X10911729Y-12826960D01*
X10911729Y-12826960D02*
X10921253Y-12817436D01*
X10921253Y-12817436D02*
X10921253Y-12836484D01*
X11045063Y-12722198D02*
X11026015Y-12712674D01*
X11026015Y-12712674D02*
X11016491Y-12703150D01*
X11016491Y-12703150D02*
X11006967Y-12684103D01*
X11006967Y-12684103D02*
X11006967Y-12674579D01*
X11006967Y-12674579D02*
X11016491Y-12655531D01*
X11016491Y-12655531D02*
X11026015Y-12646008D01*
X11026015Y-12646008D02*
X11045063Y-12636484D01*
X11045063Y-12636484D02*
X11083158Y-12636484D01*
X11083158Y-12636484D02*
X11102205Y-12646008D01*
X11102205Y-12646008D02*
X11111729Y-12655531D01*
X11111729Y-12655531D02*
X11121253Y-12674579D01*
X11121253Y-12674579D02*
X11121253Y-12684103D01*
X11121253Y-12684103D02*
X11111729Y-12703150D01*
X11111729Y-12703150D02*
X11102205Y-12712674D01*
X11102205Y-12712674D02*
X11083158Y-12722198D01*
X11083158Y-12722198D02*
X11045063Y-12722198D01*
X11045063Y-12722198D02*
X11026015Y-12731722D01*
X11026015Y-12731722D02*
X11016491Y-12741246D01*
X11016491Y-12741246D02*
X11006967Y-12760293D01*
X11006967Y-12760293D02*
X11006967Y-12798388D01*
X11006967Y-12798388D02*
X11016491Y-12817436D01*
X11016491Y-12817436D02*
X11026015Y-12826960D01*
X11026015Y-12826960D02*
X11045063Y-12836484D01*
X11045063Y-12836484D02*
X11083158Y-12836484D01*
X11083158Y-12836484D02*
X11102205Y-12826960D01*
X11102205Y-12826960D02*
X11111729Y-12817436D01*
X11111729Y-12817436D02*
X11121253Y-12798388D01*
X11121253Y-12798388D02*
X11121253Y-12760293D01*
X11121253Y-12760293D02*
X11111729Y-12741246D01*
X11111729Y-12741246D02*
X11102205Y-12731722D01*
X11102205Y-12731722D02*
X11083158Y-12722198D01*
X11245062Y-12636484D02*
X11264110Y-12636484D01*
X11264110Y-12636484D02*
X11283158Y-12646008D01*
X11283158Y-12646008D02*
X11292682Y-12655531D01*
X11292682Y-12655531D02*
X11302205Y-12674579D01*
X11302205Y-12674579D02*
X11311729Y-12712674D01*
X11311729Y-12712674D02*
X11311729Y-12760293D01*
X11311729Y-12760293D02*
X11302205Y-12798388D01*
X11302205Y-12798388D02*
X11292682Y-12817436D01*
X11292682Y-12817436D02*
X11283158Y-12826960D01*
X11283158Y-12826960D02*
X11264110Y-12836484D01*
X11264110Y-12836484D02*
X11245062Y-12836484D01*
X11245062Y-12836484D02*
X11226015Y-12826960D01*
X11226015Y-12826960D02*
X11216491Y-12817436D01*
X11216491Y-12817436D02*
X11206967Y-12798388D01*
X11206967Y-12798388D02*
X11197443Y-12760293D01*
X11197443Y-12760293D02*
X11197443Y-12712674D01*
X11197443Y-12712674D02*
X11206967Y-12674579D01*
X11206967Y-12674579D02*
X11216491Y-12655531D01*
X11216491Y-12655531D02*
X11226015Y-12646008D01*
X11226015Y-12646008D02*
X11245062Y-12636484D01*
X11435539Y-12636484D02*
X11454586Y-12636484D01*
X11454586Y-12636484D02*
X11473634Y-12646008D01*
X11473634Y-12646008D02*
X11483158Y-12655531D01*
X11483158Y-12655531D02*
X11492682Y-12674579D01*
X11492682Y-12674579D02*
X11502205Y-12712674D01*
X11502205Y-12712674D02*
X11502205Y-12760293D01*
X11502205Y-12760293D02*
X11492682Y-12798388D01*
X11492682Y-12798388D02*
X11483158Y-12817436D01*
X11483158Y-12817436D02*
X11473634Y-12826960D01*
X11473634Y-12826960D02*
X11454586Y-12836484D01*
X11454586Y-12836484D02*
X11435539Y-12836484D01*
X11435539Y-12836484D02*
X11416491Y-12826960D01*
X11416491Y-12826960D02*
X11406967Y-12817436D01*
X11406967Y-12817436D02*
X11397443Y-12798388D01*
X11397443Y-12798388D02*
X11387920Y-12760293D01*
X11387920Y-12760293D02*
X11387920Y-12712674D01*
X11387920Y-12712674D02*
X11397443Y-12674579D01*
X11397443Y-12674579D02*
X11406967Y-12655531D01*
X11406967Y-12655531D02*
X11416491Y-12646008D01*
X11416491Y-12646008D02*
X11435539Y-12636484D01*
X11587920Y-12836484D02*
X11587920Y-12703150D01*
X11587920Y-12722198D02*
X11597443Y-12712674D01*
X11597443Y-12712674D02*
X11616491Y-12703150D01*
X11616491Y-12703150D02*
X11645063Y-12703150D01*
X11645063Y-12703150D02*
X11664110Y-12712674D01*
X11664110Y-12712674D02*
X11673634Y-12731722D01*
X11673634Y-12731722D02*
X11673634Y-12836484D01*
X11673634Y-12731722D02*
X11683158Y-12712674D01*
X11683158Y-12712674D02*
X11702205Y-12703150D01*
X11702205Y-12703150D02*
X11730777Y-12703150D01*
X11730777Y-12703150D02*
X11749824Y-12712674D01*
X11749824Y-12712674D02*
X11759348Y-12731722D01*
X11759348Y-12731722D02*
X11759348Y-12836484D01*
X11854586Y-12836484D02*
X11854586Y-12703150D01*
X11854586Y-12722198D02*
X11864110Y-12712674D01*
X11864110Y-12712674D02*
X11883158Y-12703150D01*
X11883158Y-12703150D02*
X11911729Y-12703150D01*
X11911729Y-12703150D02*
X11930777Y-12712674D01*
X11930777Y-12712674D02*
X11940301Y-12731722D01*
X11940301Y-12731722D02*
X11940301Y-12836484D01*
X11940301Y-12731722D02*
X11949824Y-12712674D01*
X11949824Y-12712674D02*
X11968872Y-12703150D01*
X11968872Y-12703150D02*
X11997443Y-12703150D01*
X11997443Y-12703150D02*
X12016491Y-12712674D01*
X12016491Y-12712674D02*
X12026015Y-12731722D01*
X12026015Y-12731722D02*
X12026015Y-12836484D01*
X12416491Y-12626960D02*
X12245063Y-12884103D01*
X12673634Y-12636484D02*
X12692682Y-12636484D01*
X12692682Y-12636484D02*
X12711729Y-12646008D01*
X12711729Y-12646008D02*
X12721253Y-12655531D01*
X12721253Y-12655531D02*
X12730777Y-12674579D01*
X12730777Y-12674579D02*
X12740301Y-12712674D01*
X12740301Y-12712674D02*
X12740301Y-12760293D01*
X12740301Y-12760293D02*
X12730777Y-12798388D01*
X12730777Y-12798388D02*
X12721253Y-12817436D01*
X12721253Y-12817436D02*
X12711729Y-12826960D01*
X12711729Y-12826960D02*
X12692682Y-12836484D01*
X12692682Y-12836484D02*
X12673634Y-12836484D01*
X12673634Y-12836484D02*
X12654586Y-12826960D01*
X12654586Y-12826960D02*
X12645063Y-12817436D01*
X12645063Y-12817436D02*
X12635539Y-12798388D01*
X12635539Y-12798388D02*
X12626015Y-12760293D01*
X12626015Y-12760293D02*
X12626015Y-12712674D01*
X12626015Y-12712674D02*
X12635539Y-12674579D01*
X12635539Y-12674579D02*
X12645063Y-12655531D01*
X12645063Y-12655531D02*
X12654586Y-12646008D01*
X12654586Y-12646008D02*
X12673634Y-12636484D01*
X12826015Y-12817436D02*
X12835539Y-12826960D01*
X12835539Y-12826960D02*
X12826015Y-12836484D01*
X12826015Y-12836484D02*
X12816491Y-12826960D01*
X12816491Y-12826960D02*
X12826015Y-12817436D01*
X12826015Y-12817436D02*
X12826015Y-12836484D01*
X12959348Y-12636484D02*
X12978396Y-12636484D01*
X12978396Y-12636484D02*
X12997444Y-12646008D01*
X12997444Y-12646008D02*
X13006967Y-12655531D01*
X13006967Y-12655531D02*
X13016491Y-12674579D01*
X13016491Y-12674579D02*
X13026015Y-12712674D01*
X13026015Y-12712674D02*
X13026015Y-12760293D01*
X13026015Y-12760293D02*
X13016491Y-12798388D01*
X13016491Y-12798388D02*
X13006967Y-12817436D01*
X13006967Y-12817436D02*
X12997444Y-12826960D01*
X12997444Y-12826960D02*
X12978396Y-12836484D01*
X12978396Y-12836484D02*
X12959348Y-12836484D01*
X12959348Y-12836484D02*
X12940301Y-12826960D01*
X12940301Y-12826960D02*
X12930777Y-12817436D01*
X12930777Y-12817436D02*
X12921253Y-12798388D01*
X12921253Y-12798388D02*
X12911729Y-12760293D01*
X12911729Y-12760293D02*
X12911729Y-12712674D01*
X12911729Y-12712674D02*
X12921253Y-12674579D01*
X12921253Y-12674579D02*
X12930777Y-12655531D01*
X12930777Y-12655531D02*
X12940301Y-12646008D01*
X12940301Y-12646008D02*
X12959348Y-12636484D01*
X13092682Y-12636484D02*
X13226015Y-12636484D01*
X13226015Y-12636484D02*
X13140301Y-12836484D01*
X13340301Y-12636484D02*
X13359348Y-12636484D01*
X13359348Y-12636484D02*
X13378396Y-12646008D01*
X13378396Y-12646008D02*
X13387920Y-12655531D01*
X13387920Y-12655531D02*
X13397444Y-12674579D01*
X13397444Y-12674579D02*
X13406967Y-12712674D01*
X13406967Y-12712674D02*
X13406967Y-12760293D01*
X13406967Y-12760293D02*
X13397444Y-12798388D01*
X13397444Y-12798388D02*
X13387920Y-12817436D01*
X13387920Y-12817436D02*
X13378396Y-12826960D01*
X13378396Y-12826960D02*
X13359348Y-12836484D01*
X13359348Y-12836484D02*
X13340301Y-12836484D01*
X13340301Y-12836484D02*
X13321253Y-12826960D01*
X13321253Y-12826960D02*
X13311729Y-12817436D01*
X13311729Y-12817436D02*
X13302206Y-12798388D01*
X13302206Y-12798388D02*
X13292682Y-12760293D01*
X13292682Y-12760293D02*
X13292682Y-12712674D01*
X13292682Y-12712674D02*
X13302206Y-12674579D01*
X13302206Y-12674579D02*
X13311729Y-12655531D01*
X13311729Y-12655531D02*
X13321253Y-12646008D01*
X13321253Y-12646008D02*
X13340301Y-12636484D01*
X13502206Y-12836484D02*
X13540301Y-12836484D01*
X13540301Y-12836484D02*
X13559348Y-12826960D01*
X13559348Y-12826960D02*
X13568872Y-12817436D01*
X13568872Y-12817436D02*
X13587920Y-12788865D01*
X13587920Y-12788865D02*
X13597444Y-12750769D01*
X13597444Y-12750769D02*
X13597444Y-12674579D01*
X13597444Y-12674579D02*
X13587920Y-12655531D01*
X13587920Y-12655531D02*
X13578396Y-12646008D01*
X13578396Y-12646008D02*
X13559348Y-12636484D01*
X13559348Y-12636484D02*
X13521253Y-12636484D01*
X13521253Y-12636484D02*
X13502206Y-12646008D01*
X13502206Y-12646008D02*
X13492682Y-12655531D01*
X13492682Y-12655531D02*
X13483158Y-12674579D01*
X13483158Y-12674579D02*
X13483158Y-12722198D01*
X13483158Y-12722198D02*
X13492682Y-12741246D01*
X13492682Y-12741246D02*
X13502206Y-12750769D01*
X13502206Y-12750769D02*
X13521253Y-12760293D01*
X13521253Y-12760293D02*
X13559348Y-12760293D01*
X13559348Y-12760293D02*
X13578396Y-12750769D01*
X13578396Y-12750769D02*
X13587920Y-12741246D01*
X13587920Y-12741246D02*
X13597444Y-12722198D01*
X13673634Y-12636484D02*
X13673634Y-12674579D01*
X13749825Y-12636484D02*
X13749825Y-12674579D01*
X14045063Y-12912674D02*
X14035539Y-12903150D01*
X14035539Y-12903150D02*
X14016491Y-12874579D01*
X14016491Y-12874579D02*
X14006968Y-12855531D01*
X14006968Y-12855531D02*
X13997444Y-12826960D01*
X13997444Y-12826960D02*
X13987920Y-12779341D01*
X13987920Y-12779341D02*
X13987920Y-12741246D01*
X13987920Y-12741246D02*
X13997444Y-12693627D01*
X13997444Y-12693627D02*
X14006968Y-12665055D01*
X14006968Y-12665055D02*
X14016491Y-12646008D01*
X14016491Y-12646008D02*
X14035539Y-12617436D01*
X14035539Y-12617436D02*
X14045063Y-12607912D01*
X14226015Y-12836484D02*
X14111729Y-12836484D01*
X14168872Y-12836484D02*
X14168872Y-12636484D01*
X14168872Y-12636484D02*
X14149825Y-12665055D01*
X14149825Y-12665055D02*
X14130777Y-12684103D01*
X14130777Y-12684103D02*
X14111729Y-12693627D01*
X14464110Y-12836484D02*
X14464110Y-12636484D01*
X14549825Y-12836484D02*
X14549825Y-12731722D01*
X14549825Y-12731722D02*
X14540301Y-12712674D01*
X14540301Y-12712674D02*
X14521253Y-12703150D01*
X14521253Y-12703150D02*
X14492682Y-12703150D01*
X14492682Y-12703150D02*
X14473634Y-12712674D01*
X14473634Y-12712674D02*
X14464110Y-12722198D01*
X14673634Y-12836484D02*
X14654587Y-12826960D01*
X14654587Y-12826960D02*
X14645063Y-12817436D01*
X14645063Y-12817436D02*
X14635539Y-12798388D01*
X14635539Y-12798388D02*
X14635539Y-12741246D01*
X14635539Y-12741246D02*
X14645063Y-12722198D01*
X14645063Y-12722198D02*
X14654587Y-12712674D01*
X14654587Y-12712674D02*
X14673634Y-12703150D01*
X14673634Y-12703150D02*
X14702206Y-12703150D01*
X14702206Y-12703150D02*
X14721253Y-12712674D01*
X14721253Y-12712674D02*
X14730777Y-12722198D01*
X14730777Y-12722198D02*
X14740301Y-12741246D01*
X14740301Y-12741246D02*
X14740301Y-12798388D01*
X14740301Y-12798388D02*
X14730777Y-12817436D01*
X14730777Y-12817436D02*
X14721253Y-12826960D01*
X14721253Y-12826960D02*
X14702206Y-12836484D01*
X14702206Y-12836484D02*
X14673634Y-12836484D01*
X14854587Y-12836484D02*
X14835539Y-12826960D01*
X14835539Y-12826960D02*
X14826015Y-12807912D01*
X14826015Y-12807912D02*
X14826015Y-12636484D01*
X15006968Y-12826960D02*
X14987920Y-12836484D01*
X14987920Y-12836484D02*
X14949825Y-12836484D01*
X14949825Y-12836484D02*
X14930777Y-12826960D01*
X14930777Y-12826960D02*
X14921253Y-12807912D01*
X14921253Y-12807912D02*
X14921253Y-12731722D01*
X14921253Y-12731722D02*
X14930777Y-12712674D01*
X14930777Y-12712674D02*
X14949825Y-12703150D01*
X14949825Y-12703150D02*
X14987920Y-12703150D01*
X14987920Y-12703150D02*
X15006968Y-12712674D01*
X15006968Y-12712674D02*
X15016491Y-12731722D01*
X15016491Y-12731722D02*
X15016491Y-12750769D01*
X15016491Y-12750769D02*
X14921253Y-12769817D01*
X15083158Y-12912674D02*
X15092682Y-12903150D01*
X15092682Y-12903150D02*
X15111730Y-12874579D01*
X15111730Y-12874579D02*
X15121253Y-12855531D01*
X15121253Y-12855531D02*
X15130777Y-12826960D01*
X15130777Y-12826960D02*
X15140301Y-12779341D01*
X15140301Y-12779341D02*
X15140301Y-12741246D01*
X15140301Y-12741246D02*
X15130777Y-12693627D01*
X15130777Y-12693627D02*
X15121253Y-12665055D01*
X15121253Y-12665055D02*
X15111730Y-12646008D01*
X15111730Y-12646008D02*
X15092682Y-12617436D01*
X15092682Y-12617436D02*
X15083158Y-12607912D01*
X15445063Y-12912674D02*
X15435539Y-12903150D01*
X15435539Y-12903150D02*
X15416491Y-12874579D01*
X15416491Y-12874579D02*
X15406968Y-12855531D01*
X15406968Y-12855531D02*
X15397444Y-12826960D01*
X15397444Y-12826960D02*
X15387920Y-12779341D01*
X15387920Y-12779341D02*
X15387920Y-12741246D01*
X15387920Y-12741246D02*
X15397444Y-12693627D01*
X15397444Y-12693627D02*
X15406968Y-12665055D01*
X15406968Y-12665055D02*
X15416491Y-12646008D01*
X15416491Y-12646008D02*
X15435539Y-12617436D01*
X15435539Y-12617436D02*
X15445063Y-12607912D01*
X15521253Y-12703150D02*
X15521253Y-12836484D01*
X15521253Y-12722198D02*
X15530777Y-12712674D01*
X15530777Y-12712674D02*
X15549825Y-12703150D01*
X15549825Y-12703150D02*
X15578396Y-12703150D01*
X15578396Y-12703150D02*
X15597444Y-12712674D01*
X15597444Y-12712674D02*
X15606968Y-12731722D01*
X15606968Y-12731722D02*
X15606968Y-12836484D01*
X15730777Y-12836484D02*
X15711730Y-12826960D01*
X15711730Y-12826960D02*
X15702206Y-12817436D01*
X15702206Y-12817436D02*
X15692682Y-12798388D01*
X15692682Y-12798388D02*
X15692682Y-12741246D01*
X15692682Y-12741246D02*
X15702206Y-12722198D01*
X15702206Y-12722198D02*
X15711730Y-12712674D01*
X15711730Y-12712674D02*
X15730777Y-12703150D01*
X15730777Y-12703150D02*
X15759349Y-12703150D01*
X15759349Y-12703150D02*
X15778396Y-12712674D01*
X15778396Y-12712674D02*
X15787920Y-12722198D01*
X15787920Y-12722198D02*
X15797444Y-12741246D01*
X15797444Y-12741246D02*
X15797444Y-12798388D01*
X15797444Y-12798388D02*
X15787920Y-12817436D01*
X15787920Y-12817436D02*
X15778396Y-12826960D01*
X15778396Y-12826960D02*
X15759349Y-12836484D01*
X15759349Y-12836484D02*
X15730777Y-12836484D01*
X15854587Y-12703150D02*
X15930777Y-12703150D01*
X15883158Y-12636484D02*
X15883158Y-12807912D01*
X15883158Y-12807912D02*
X15892682Y-12826960D01*
X15892682Y-12826960D02*
X15911730Y-12836484D01*
X15911730Y-12836484D02*
X15930777Y-12836484D01*
X16149825Y-12703150D02*
X16149825Y-12903150D01*
X16149825Y-12712674D02*
X16168872Y-12703150D01*
X16168872Y-12703150D02*
X16206968Y-12703150D01*
X16206968Y-12703150D02*
X16226015Y-12712674D01*
X16226015Y-12712674D02*
X16235539Y-12722198D01*
X16235539Y-12722198D02*
X16245063Y-12741246D01*
X16245063Y-12741246D02*
X16245063Y-12798388D01*
X16245063Y-12798388D02*
X16235539Y-12817436D01*
X16235539Y-12817436D02*
X16226015Y-12826960D01*
X16226015Y-12826960D02*
X16206968Y-12836484D01*
X16206968Y-12836484D02*
X16168872Y-12836484D01*
X16168872Y-12836484D02*
X16149825Y-12826960D01*
X16359349Y-12836484D02*
X16340301Y-12826960D01*
X16340301Y-12826960D02*
X16330777Y-12807912D01*
X16330777Y-12807912D02*
X16330777Y-12636484D01*
X16521253Y-12836484D02*
X16521253Y-12731722D01*
X16521253Y-12731722D02*
X16511730Y-12712674D01*
X16511730Y-12712674D02*
X16492682Y-12703150D01*
X16492682Y-12703150D02*
X16454587Y-12703150D01*
X16454587Y-12703150D02*
X16435539Y-12712674D01*
X16521253Y-12826960D02*
X16502206Y-12836484D01*
X16502206Y-12836484D02*
X16454587Y-12836484D01*
X16454587Y-12836484D02*
X16435539Y-12826960D01*
X16435539Y-12826960D02*
X16426015Y-12807912D01*
X16426015Y-12807912D02*
X16426015Y-12788865D01*
X16426015Y-12788865D02*
X16435539Y-12769817D01*
X16435539Y-12769817D02*
X16454587Y-12760293D01*
X16454587Y-12760293D02*
X16502206Y-12760293D01*
X16502206Y-12760293D02*
X16521253Y-12750769D01*
X16587920Y-12703150D02*
X16664111Y-12703150D01*
X16616492Y-12636484D02*
X16616492Y-12807912D01*
X16616492Y-12807912D02*
X16626015Y-12826960D01*
X16626015Y-12826960D02*
X16645063Y-12836484D01*
X16645063Y-12836484D02*
X16664111Y-12836484D01*
X16806968Y-12826960D02*
X16787920Y-12836484D01*
X16787920Y-12836484D02*
X16749825Y-12836484D01*
X16749825Y-12836484D02*
X16730777Y-12826960D01*
X16730777Y-12826960D02*
X16721253Y-12807912D01*
X16721253Y-12807912D02*
X16721253Y-12731722D01*
X16721253Y-12731722D02*
X16730777Y-12712674D01*
X16730777Y-12712674D02*
X16749825Y-12703150D01*
X16749825Y-12703150D02*
X16787920Y-12703150D01*
X16787920Y-12703150D02*
X16806968Y-12712674D01*
X16806968Y-12712674D02*
X16816492Y-12731722D01*
X16816492Y-12731722D02*
X16816492Y-12750769D01*
X16816492Y-12750769D02*
X16721253Y-12769817D01*
X16987920Y-12836484D02*
X16987920Y-12636484D01*
X16987920Y-12826960D02*
X16968873Y-12836484D01*
X16968873Y-12836484D02*
X16930777Y-12836484D01*
X16930777Y-12836484D02*
X16911730Y-12826960D01*
X16911730Y-12826960D02*
X16902206Y-12817436D01*
X16902206Y-12817436D02*
X16892682Y-12798388D01*
X16892682Y-12798388D02*
X16892682Y-12741246D01*
X16892682Y-12741246D02*
X16902206Y-12722198D01*
X16902206Y-12722198D02*
X16911730Y-12712674D01*
X16911730Y-12712674D02*
X16930777Y-12703150D01*
X16930777Y-12703150D02*
X16968873Y-12703150D01*
X16968873Y-12703150D02*
X16987920Y-12712674D01*
X17064111Y-12912674D02*
X17073635Y-12903150D01*
X17073635Y-12903150D02*
X17092682Y-12874579D01*
X17092682Y-12874579D02*
X17102206Y-12855531D01*
X17102206Y-12855531D02*
X17111730Y-12826960D01*
X17111730Y-12826960D02*
X17121254Y-12779341D01*
X17121254Y-12779341D02*
X17121254Y-12741246D01*
X17121254Y-12741246D02*
X17111730Y-12693627D01*
X17111730Y-12693627D02*
X17102206Y-12665055D01*
X17102206Y-12665055D02*
X17092682Y-12646008D01*
X17092682Y-12646008D02*
X17073635Y-12617436D01*
X17073635Y-12617436D02*
X17064111Y-12607912D01*
M02*
