%TF.GenerationSoftware,KiCad,Pcbnew,7.0.8*%
%TF.CreationDate,2024-02-20T10:29:55+01:00*%
%TF.ProjectId,stopwatchy,73746f70-7761-4746-9368-792e6b696361,rev?*%
%TF.SameCoordinates,Original*%
%TF.FileFunction,Legend,Bot*%
%TF.FilePolarity,Positive*%
%FSLAX46Y46*%
G04 Gerber Fmt 4.6, Leading zero omitted, Abs format (unit mm)*
G04 Created by KiCad (PCBNEW 7.0.8) date 2024-02-20 10:29:55*
%MOMM*%
%LPD*%
G01*
G04 APERTURE LIST*
%ADD10C,0.150000*%
%ADD11C,0.375000*%
%ADD12C,0.400000*%
%ADD13C,0.100000*%
%ADD14C,0.120000*%
%ADD15C,0.550000*%
G04 APERTURE END LIST*
D10*
X106003742Y-96520000D02*
X115570000Y-96520000D01*
X115570000Y-116373986D01*
X106003742Y-116373986D01*
X106003742Y-96520000D01*
D11*
G36*
X154541416Y-38819553D02*
G01*
X154542382Y-38787572D01*
X154545280Y-38756750D01*
X154550110Y-38727087D01*
X154559555Y-38689340D01*
X154572435Y-38653654D01*
X154588750Y-38620029D01*
X154608499Y-38588464D01*
X154631683Y-38558961D01*
X154651325Y-38538185D01*
X154679627Y-38512391D01*
X154709577Y-38488863D01*
X154741176Y-38467603D01*
X154774424Y-38448609D01*
X154809320Y-38431882D01*
X154836574Y-38420825D01*
X154864755Y-38411042D01*
X154893864Y-38402535D01*
X154923900Y-38395303D01*
X154954527Y-38388638D01*
X154985681Y-38381831D01*
X155017364Y-38374882D01*
X155049575Y-38367791D01*
X155082314Y-38360559D01*
X155115580Y-38353185D01*
X155149375Y-38345670D01*
X155183698Y-38338013D01*
X155218550Y-38330214D01*
X155253929Y-38322273D01*
X155277808Y-38316901D01*
X155313546Y-38308757D01*
X155348768Y-38300535D01*
X155383476Y-38292236D01*
X155417668Y-38283860D01*
X155451345Y-38275406D01*
X155484506Y-38266875D01*
X155517153Y-38258267D01*
X155549284Y-38249582D01*
X155580900Y-38240819D01*
X155612001Y-38231979D01*
X155632449Y-38226043D01*
X155662485Y-38216385D01*
X155691594Y-38205272D01*
X155719775Y-38192703D01*
X155747029Y-38178679D01*
X155773356Y-38163199D01*
X155798755Y-38146264D01*
X155823227Y-38127874D01*
X155846772Y-38108028D01*
X155869389Y-38086726D01*
X155891079Y-38063970D01*
X155905024Y-38047990D01*
X155924666Y-38022865D01*
X155942376Y-37996401D01*
X155958154Y-37968597D01*
X155972000Y-37939454D01*
X155983914Y-37908972D01*
X155993896Y-37877149D01*
X156001946Y-37843988D01*
X156008064Y-37809487D01*
X156012250Y-37773646D01*
X156014504Y-37736466D01*
X156014933Y-37710935D01*
X156014069Y-37676213D01*
X156011476Y-37642207D01*
X156007154Y-37608916D01*
X156001103Y-37576342D01*
X155993323Y-37544482D01*
X155983815Y-37513338D01*
X155972578Y-37482910D01*
X155959612Y-37453197D01*
X155944918Y-37424200D01*
X155928494Y-37395919D01*
X155910342Y-37368353D01*
X155890461Y-37341502D01*
X155868851Y-37315367D01*
X155845513Y-37289948D01*
X155820445Y-37265244D01*
X155793649Y-37241256D01*
X155765462Y-37218275D01*
X155736405Y-37196777D01*
X155706477Y-37176761D01*
X155675680Y-37158228D01*
X155644012Y-37141178D01*
X155611475Y-37125610D01*
X155578067Y-37111525D01*
X155543789Y-37098923D01*
X155508641Y-37087803D01*
X155472622Y-37078166D01*
X155435734Y-37070012D01*
X155397976Y-37063340D01*
X155359347Y-37058151D01*
X155319849Y-37054444D01*
X155279480Y-37052220D01*
X155238241Y-37051479D01*
X155193330Y-37052504D01*
X155149272Y-37055578D01*
X155106066Y-37060701D01*
X155063714Y-37067874D01*
X155022215Y-37077096D01*
X154981568Y-37088367D01*
X154941775Y-37101688D01*
X154902834Y-37117058D01*
X154864747Y-37134478D01*
X154827512Y-37153946D01*
X154791131Y-37175465D01*
X154755602Y-37199032D01*
X154720926Y-37224649D01*
X154687103Y-37252315D01*
X154654133Y-37282031D01*
X154622016Y-37313796D01*
X154622016Y-37225136D01*
X154620631Y-37195426D01*
X154615003Y-37163859D01*
X154602535Y-37134149D01*
X154580110Y-37110753D01*
X154549201Y-37099488D01*
X154533356Y-37098374D01*
X154500523Y-37103913D01*
X154475754Y-37120533D01*
X154459049Y-37148232D01*
X154451150Y-37180793D01*
X154449092Y-37214145D01*
X154449092Y-37656713D01*
X154451150Y-37690065D01*
X154459049Y-37722625D01*
X154475754Y-37750324D01*
X154500523Y-37766944D01*
X154533356Y-37772484D01*
X154566400Y-37767750D01*
X154594804Y-37750749D01*
X154611469Y-37725729D01*
X154619669Y-37696749D01*
X154622016Y-37673565D01*
X154625762Y-37639217D01*
X154632329Y-37605963D01*
X154641716Y-37573803D01*
X154653924Y-37542739D01*
X154668953Y-37512769D01*
X154686803Y-37483895D01*
X154707473Y-37456115D01*
X154730964Y-37429429D01*
X154757276Y-37403839D01*
X154786408Y-37379343D01*
X154807397Y-37363621D01*
X154840451Y-37341360D01*
X154874768Y-37321289D01*
X154910346Y-37303407D01*
X154947187Y-37287715D01*
X154985291Y-37274213D01*
X155024656Y-37262900D01*
X155065284Y-37253776D01*
X155107174Y-37246843D01*
X155150326Y-37242099D01*
X155179796Y-37240152D01*
X155209826Y-37239179D01*
X155225052Y-37239057D01*
X155257484Y-37239593D01*
X155289200Y-37241198D01*
X155320201Y-37243875D01*
X155350486Y-37247621D01*
X155380055Y-37252438D01*
X155408909Y-37258326D01*
X155450849Y-37269164D01*
X155491178Y-37282411D01*
X155529898Y-37298067D01*
X155567007Y-37316131D01*
X155602506Y-37336604D01*
X155636396Y-37359485D01*
X155658094Y-37376078D01*
X155688605Y-37402211D01*
X155716114Y-37429504D01*
X155740623Y-37457956D01*
X155762130Y-37487567D01*
X155780637Y-37518337D01*
X155796142Y-37550267D01*
X155808647Y-37583355D01*
X155818150Y-37617603D01*
X155824652Y-37653010D01*
X155828153Y-37689577D01*
X155828820Y-37714598D01*
X155827854Y-37744282D01*
X155823561Y-37782178D01*
X155815833Y-37818151D01*
X155804670Y-37852200D01*
X155790073Y-37884325D01*
X155772041Y-37914527D01*
X155750574Y-37942806D01*
X155725673Y-37969161D01*
X155718911Y-37975450D01*
X155690621Y-37999183D01*
X155660705Y-38020925D01*
X155629163Y-38040674D01*
X155595996Y-38058431D01*
X155561203Y-38074196D01*
X155524784Y-38087969D01*
X155496403Y-38096992D01*
X155467107Y-38104894D01*
X155447069Y-38109539D01*
X155416311Y-38116243D01*
X155385039Y-38123166D01*
X155353251Y-38130308D01*
X155320948Y-38137669D01*
X155288129Y-38145249D01*
X155254796Y-38153048D01*
X155220947Y-38161065D01*
X155186584Y-38169302D01*
X155151705Y-38177758D01*
X155116310Y-38186432D01*
X155092428Y-38192337D01*
X155056690Y-38201287D01*
X155021468Y-38210275D01*
X154986761Y-38219302D01*
X154952568Y-38228367D01*
X154918892Y-38237471D01*
X154885730Y-38246614D01*
X154853083Y-38255795D01*
X154820952Y-38265015D01*
X154789336Y-38274273D01*
X154758235Y-38283571D01*
X154737787Y-38289790D01*
X154707758Y-38299912D01*
X154678668Y-38311592D01*
X154650519Y-38324830D01*
X154623310Y-38339627D01*
X154597041Y-38355983D01*
X154571713Y-38373897D01*
X154547324Y-38393369D01*
X154523876Y-38414400D01*
X154501369Y-38436989D01*
X154479801Y-38461137D01*
X154465945Y-38478101D01*
X154446303Y-38504705D01*
X154428593Y-38532584D01*
X154412815Y-38561738D01*
X154398969Y-38592167D01*
X154387055Y-38623871D01*
X154377073Y-38656850D01*
X154369023Y-38691104D01*
X154362905Y-38726634D01*
X154358719Y-38763438D01*
X154356465Y-38801518D01*
X154356036Y-38827613D01*
X154356992Y-38865927D01*
X154359860Y-38903382D01*
X154364640Y-38939978D01*
X154371331Y-38975716D01*
X154379935Y-39010595D01*
X154390451Y-39044615D01*
X154402879Y-39077777D01*
X154417219Y-39110080D01*
X154433470Y-39141524D01*
X154451634Y-39172110D01*
X154471710Y-39201837D01*
X154493697Y-39230705D01*
X154517597Y-39258715D01*
X154543408Y-39285866D01*
X154571132Y-39312158D01*
X154600767Y-39337592D01*
X154631885Y-39361726D01*
X154664057Y-39384303D01*
X154697281Y-39405324D01*
X154731559Y-39424787D01*
X154766890Y-39442693D01*
X154803275Y-39459042D01*
X154840713Y-39473834D01*
X154879204Y-39487069D01*
X154918748Y-39498746D01*
X154959346Y-39508867D01*
X155000997Y-39517431D01*
X155043702Y-39524438D01*
X155087459Y-39529887D01*
X155132270Y-39533780D01*
X155178134Y-39536116D01*
X155225052Y-39536894D01*
X155280304Y-39535661D01*
X155334137Y-39531960D01*
X155386550Y-39525792D01*
X155437543Y-39517156D01*
X155487117Y-39506054D01*
X155535271Y-39492484D01*
X155582005Y-39476447D01*
X155627320Y-39457943D01*
X155671215Y-39436971D01*
X155713690Y-39413532D01*
X155754746Y-39387626D01*
X155794382Y-39359253D01*
X155832598Y-39328413D01*
X155869395Y-39295105D01*
X155904772Y-39259330D01*
X155938729Y-39221088D01*
X155938729Y-39360307D01*
X155940115Y-39390703D01*
X155945743Y-39423000D01*
X155958210Y-39453397D01*
X155980635Y-39477334D01*
X156011545Y-39488860D01*
X156027390Y-39490000D01*
X156060223Y-39484354D01*
X156084992Y-39467419D01*
X156101696Y-39439194D01*
X156109596Y-39406015D01*
X156111653Y-39372030D01*
X156111653Y-38884033D01*
X156109489Y-38850048D01*
X156101177Y-38816869D01*
X156083601Y-38788644D01*
X156057540Y-38771709D01*
X156028448Y-38766179D01*
X156022993Y-38766064D01*
X155991663Y-38770797D01*
X155964701Y-38787799D01*
X155948847Y-38812818D01*
X155941008Y-38841798D01*
X155938729Y-38864982D01*
X155935342Y-38902491D01*
X155928477Y-38938905D01*
X155918134Y-38974224D01*
X155904314Y-39008448D01*
X155887016Y-39041578D01*
X155866241Y-39073612D01*
X155841988Y-39104552D01*
X155814257Y-39134397D01*
X155783049Y-39163147D01*
X155760311Y-39181706D01*
X155736028Y-39199778D01*
X155723307Y-39208632D01*
X155697164Y-39225668D01*
X155670391Y-39241605D01*
X155642988Y-39256442D01*
X155614955Y-39270181D01*
X155586293Y-39282821D01*
X155557001Y-39294361D01*
X155527079Y-39304802D01*
X155496528Y-39314145D01*
X155465347Y-39322388D01*
X155433536Y-39329532D01*
X155401096Y-39335577D01*
X155368025Y-39340523D01*
X155334326Y-39344370D01*
X155299996Y-39347117D01*
X155265037Y-39348766D01*
X155229448Y-39349316D01*
X155192923Y-39348726D01*
X155157171Y-39346957D01*
X155122192Y-39344009D01*
X155087986Y-39339882D01*
X155054552Y-39334575D01*
X155021891Y-39328089D01*
X154990003Y-39320424D01*
X154958888Y-39311580D01*
X154928546Y-39301557D01*
X154898976Y-39290354D01*
X154870179Y-39277972D01*
X154842155Y-39264411D01*
X154814904Y-39249670D01*
X154788426Y-39233751D01*
X154762720Y-39216652D01*
X154737787Y-39198374D01*
X154714008Y-39179205D01*
X154691763Y-39159436D01*
X154661272Y-39128655D01*
X154634232Y-39096521D01*
X154610645Y-39063036D01*
X154590509Y-39028197D01*
X154573825Y-38992007D01*
X154560593Y-38954464D01*
X154550813Y-38915568D01*
X154544484Y-38875320D01*
X154541608Y-38833720D01*
X154541416Y-38819553D01*
G37*
G36*
X152627529Y-39302421D02*
G01*
X152184228Y-39302421D01*
X152151510Y-39304657D01*
X152119567Y-39313244D01*
X152092394Y-39331401D01*
X152076090Y-39358324D01*
X152070766Y-39388377D01*
X152070655Y-39394012D01*
X152074674Y-39426633D01*
X152089520Y-39456160D01*
X152115306Y-39476501D01*
X152146115Y-39486625D01*
X152177929Y-39489906D01*
X152184961Y-39490000D01*
X153243754Y-39490000D01*
X153276684Y-39487656D01*
X153308832Y-39478657D01*
X153336181Y-39459628D01*
X153352590Y-39431413D01*
X153357948Y-39399918D01*
X153358060Y-39394012D01*
X153354041Y-39362885D01*
X153339195Y-39334710D01*
X153313409Y-39315301D01*
X153282600Y-39305641D01*
X153250786Y-39302510D01*
X153243754Y-39302421D01*
X152800453Y-39302421D01*
X152800453Y-37285952D01*
X153505338Y-37285952D01*
X153505338Y-37593698D01*
X153507503Y-37626628D01*
X153515814Y-37658776D01*
X153533391Y-37686125D01*
X153559452Y-37702534D01*
X153588543Y-37707892D01*
X153593998Y-37708004D01*
X153626831Y-37702429D01*
X153651600Y-37685704D01*
X153668305Y-37657830D01*
X153676205Y-37625063D01*
X153678262Y-37591500D01*
X153678262Y-37098374D01*
X151754117Y-37098374D01*
X151754117Y-37591500D01*
X151756174Y-37625063D01*
X151764074Y-37657830D01*
X151780778Y-37685704D01*
X151805547Y-37702429D01*
X151838381Y-37708004D01*
X151867283Y-37702804D01*
X151893810Y-37685573D01*
X151902128Y-37676496D01*
X151917309Y-37650084D01*
X151925070Y-37620984D01*
X151927041Y-37593698D01*
X151927041Y-37285952D01*
X152627529Y-37285952D01*
X152627529Y-39302421D01*
G37*
G36*
X150088625Y-38766064D02*
G01*
X150282798Y-38766064D01*
X150953977Y-37285952D01*
X150987683Y-37285952D01*
X150987683Y-39302421D01*
X150675540Y-39302421D01*
X150641555Y-39304657D01*
X150608376Y-39313244D01*
X150580151Y-39331401D01*
X150563216Y-39358324D01*
X150557686Y-39388377D01*
X150557571Y-39394012D01*
X150561718Y-39426633D01*
X150577041Y-39456160D01*
X150603653Y-39476501D01*
X150635449Y-39486625D01*
X150668282Y-39489906D01*
X150675540Y-39490000D01*
X151304221Y-39490000D01*
X151337151Y-39487656D01*
X151369300Y-39478657D01*
X151396648Y-39459628D01*
X151413057Y-39431413D01*
X151418415Y-39399918D01*
X151418527Y-39394012D01*
X151414509Y-39362885D01*
X151399662Y-39334710D01*
X151373876Y-39315301D01*
X151343067Y-39305641D01*
X151311254Y-39302510D01*
X151304221Y-39302421D01*
X151160607Y-39302421D01*
X151160607Y-37285952D01*
X151266120Y-37285952D01*
X151299049Y-37283609D01*
X151331198Y-37274610D01*
X151358546Y-37255581D01*
X151374955Y-37227366D01*
X151380314Y-37195870D01*
X151380425Y-37189965D01*
X151376407Y-37158838D01*
X151361560Y-37130663D01*
X151335775Y-37111254D01*
X151304966Y-37101594D01*
X151273152Y-37098463D01*
X151266120Y-37098374D01*
X150848464Y-37098374D01*
X150186078Y-38572623D01*
X149536147Y-37098374D01*
X149114096Y-37098374D01*
X149081166Y-37100610D01*
X149049017Y-37109196D01*
X149021669Y-37127354D01*
X149005260Y-37154276D01*
X148999902Y-37184330D01*
X148999790Y-37189965D01*
X149003809Y-37222585D01*
X149018655Y-37252113D01*
X149044441Y-37272454D01*
X149075250Y-37282577D01*
X149107063Y-37285858D01*
X149114096Y-37285952D01*
X149219609Y-37285952D01*
X149219609Y-39302421D01*
X149075994Y-39302421D01*
X149043064Y-39304657D01*
X149010916Y-39313244D01*
X148983567Y-39331401D01*
X148967158Y-39358324D01*
X148961800Y-39388377D01*
X148961688Y-39394012D01*
X148965707Y-39426633D01*
X148980553Y-39456160D01*
X149006339Y-39476501D01*
X149037148Y-39486625D01*
X149068961Y-39489906D01*
X149075994Y-39490000D01*
X149704675Y-39490000D01*
X149737605Y-39487656D01*
X149769753Y-39478657D01*
X149797102Y-39459628D01*
X149813511Y-39431413D01*
X149818869Y-39399918D01*
X149818981Y-39394012D01*
X149814962Y-39362885D01*
X149800116Y-39334710D01*
X149774330Y-39315301D01*
X149743521Y-39305641D01*
X149711707Y-39302510D01*
X149704675Y-39302421D01*
X149392533Y-39302421D01*
X149392533Y-37285952D01*
X149426238Y-37285952D01*
X150088625Y-38766064D01*
G37*
G36*
X148419469Y-37212679D02*
G01*
X148411455Y-37182368D01*
X148396308Y-37157234D01*
X148377074Y-37133122D01*
X148356638Y-37111219D01*
X148337404Y-37092512D01*
X148315170Y-37073129D01*
X148289868Y-37053814D01*
X148261497Y-37034569D01*
X148230059Y-37015392D01*
X148204466Y-37001054D01*
X148177148Y-36986756D01*
X148148103Y-36972495D01*
X148117333Y-36958274D01*
X148084837Y-36944091D01*
X148073621Y-36939371D01*
X148039253Y-36925884D01*
X148004293Y-36913723D01*
X147968739Y-36902889D01*
X147932594Y-36893381D01*
X147895856Y-36885200D01*
X147858525Y-36878346D01*
X147820602Y-36872818D01*
X147782087Y-36868617D01*
X147742979Y-36865743D01*
X147703279Y-36864195D01*
X147676482Y-36863900D01*
X147637319Y-36864647D01*
X147598962Y-36866889D01*
X147561413Y-36870624D01*
X147524670Y-36875853D01*
X147488735Y-36882576D01*
X147453607Y-36890794D01*
X147419286Y-36900505D01*
X147385772Y-36911711D01*
X147353066Y-36924411D01*
X147321166Y-36938604D01*
X147290074Y-36954292D01*
X147259789Y-36971474D01*
X147230311Y-36990150D01*
X147201640Y-37010320D01*
X147173776Y-37031984D01*
X147146720Y-37055143D01*
X147120900Y-37079303D01*
X147096745Y-37104155D01*
X147074257Y-37129701D01*
X147053434Y-37155939D01*
X147034277Y-37182869D01*
X147016786Y-37210492D01*
X147000961Y-37238808D01*
X146986802Y-37267817D01*
X146974308Y-37297518D01*
X146963480Y-37327912D01*
X146954318Y-37358999D01*
X146946822Y-37390778D01*
X146940992Y-37423250D01*
X146936827Y-37456414D01*
X146934329Y-37490272D01*
X146933496Y-37524822D01*
X146934034Y-37555290D01*
X146935648Y-37584963D01*
X146940087Y-37627980D01*
X146946948Y-37669206D01*
X146956230Y-37708643D01*
X146967934Y-37746289D01*
X146982059Y-37782145D01*
X146998605Y-37816210D01*
X147017573Y-37848485D01*
X147038963Y-37878970D01*
X147062774Y-37907664D01*
X147071249Y-37916831D01*
X147097146Y-37943001D01*
X147123456Y-37967381D01*
X147150177Y-37989970D01*
X147177311Y-38010769D01*
X147204857Y-38029778D01*
X147232815Y-38046997D01*
X147261186Y-38062425D01*
X147289968Y-38076062D01*
X147319163Y-38087910D01*
X147348770Y-38097967D01*
X147368736Y-38103677D01*
X147338025Y-38116434D01*
X147308172Y-38129792D01*
X147279178Y-38143751D01*
X147251042Y-38158311D01*
X147223765Y-38173472D01*
X147197347Y-38189235D01*
X147171787Y-38205598D01*
X147147086Y-38222562D01*
X147123244Y-38240128D01*
X147089090Y-38267603D01*
X147056869Y-38296431D01*
X147026579Y-38326610D01*
X146998222Y-38358143D01*
X146980390Y-38379916D01*
X146955510Y-38413204D01*
X146933078Y-38447124D01*
X146913092Y-38481674D01*
X146895554Y-38516856D01*
X146880463Y-38552669D01*
X146867819Y-38589113D01*
X146857622Y-38626188D01*
X146849873Y-38663894D01*
X146844571Y-38702231D01*
X146841716Y-38741200D01*
X146841172Y-38767529D01*
X146842185Y-38807094D01*
X146845225Y-38845920D01*
X146850291Y-38884007D01*
X146857383Y-38921356D01*
X146866503Y-38957967D01*
X146877648Y-38993839D01*
X146890820Y-39028973D01*
X146906018Y-39063368D01*
X146923243Y-39097025D01*
X146942494Y-39129944D01*
X146963772Y-39162124D01*
X146987076Y-39193565D01*
X147012407Y-39224268D01*
X147039764Y-39254233D01*
X147069148Y-39283459D01*
X147100558Y-39311946D01*
X147133387Y-39339186D01*
X147167030Y-39364669D01*
X147201485Y-39388394D01*
X147236754Y-39410361D01*
X147272835Y-39430571D01*
X147309729Y-39449024D01*
X147347436Y-39465719D01*
X147385956Y-39480657D01*
X147425288Y-39493838D01*
X147465434Y-39505261D01*
X147506392Y-39514927D01*
X147548163Y-39522835D01*
X147590747Y-39528986D01*
X147634144Y-39533379D01*
X147678354Y-39536015D01*
X147723377Y-39536894D01*
X147754570Y-39536396D01*
X147786048Y-39534902D01*
X147817813Y-39532412D01*
X147849864Y-39528926D01*
X147882202Y-39524443D01*
X147914825Y-39518965D01*
X147947735Y-39512491D01*
X147980931Y-39505020D01*
X148014413Y-39496554D01*
X148048182Y-39487091D01*
X148082237Y-39476633D01*
X148116577Y-39465178D01*
X148151205Y-39452728D01*
X148186118Y-39439281D01*
X148221318Y-39424838D01*
X148256803Y-39409399D01*
X148291319Y-39393448D01*
X148323608Y-39377652D01*
X148353670Y-39362010D01*
X148381505Y-39346522D01*
X148407113Y-39331189D01*
X148441350Y-39308480D01*
X148470577Y-39286118D01*
X148494793Y-39264104D01*
X148519288Y-39235293D01*
X148534876Y-39207100D01*
X148541835Y-39172728D01*
X148534804Y-39143606D01*
X148516922Y-39119972D01*
X148492074Y-39102090D01*
X148461967Y-39095059D01*
X148431193Y-39104023D01*
X148401517Y-39119960D01*
X148374452Y-39137142D01*
X148348749Y-39154884D01*
X148343265Y-39158806D01*
X148313717Y-39178727D01*
X148287424Y-39194664D01*
X148258773Y-39210601D01*
X148227764Y-39226538D01*
X148194396Y-39242475D01*
X148158670Y-39258411D01*
X148130328Y-39270364D01*
X148100659Y-39282317D01*
X148090474Y-39286301D01*
X148059195Y-39297562D01*
X148027182Y-39307716D01*
X147994434Y-39316762D01*
X147960953Y-39324701D01*
X147926737Y-39331531D01*
X147891787Y-39337254D01*
X147856103Y-39341870D01*
X147819685Y-39345377D01*
X147782533Y-39347777D01*
X147744646Y-39349069D01*
X147718981Y-39349316D01*
X147683383Y-39348643D01*
X147648398Y-39346625D01*
X147614026Y-39343262D01*
X147580266Y-39338554D01*
X147547119Y-39332500D01*
X147514584Y-39325101D01*
X147482661Y-39316357D01*
X147451352Y-39306268D01*
X147420654Y-39294833D01*
X147390569Y-39282053D01*
X147361097Y-39267928D01*
X147332237Y-39252458D01*
X147303990Y-39235643D01*
X147276355Y-39217482D01*
X147249333Y-39197976D01*
X147222923Y-39177124D01*
X147197636Y-39155346D01*
X147173979Y-39133058D01*
X147151955Y-39110260D01*
X147131561Y-39086953D01*
X147112799Y-39063136D01*
X147095669Y-39038810D01*
X147073033Y-39001366D01*
X147054067Y-38962776D01*
X147038772Y-38923039D01*
X147027148Y-38882155D01*
X147019194Y-38840126D01*
X147014912Y-38796950D01*
X147014096Y-38767529D01*
X147014969Y-38737567D01*
X147017588Y-38708132D01*
X147024790Y-38664967D01*
X147035920Y-38622987D01*
X147050979Y-38582192D01*
X147069966Y-38542581D01*
X147084807Y-38516833D01*
X147101394Y-38491611D01*
X147119726Y-38466916D01*
X147139805Y-38442747D01*
X147161629Y-38419105D01*
X147185199Y-38395990D01*
X147210516Y-38373401D01*
X147237578Y-38351339D01*
X147265845Y-38330222D01*
X147294777Y-38310467D01*
X147324372Y-38292074D01*
X147354631Y-38275044D01*
X147385555Y-38259376D01*
X147417142Y-38245071D01*
X147449394Y-38232128D01*
X147482309Y-38220547D01*
X147515889Y-38210329D01*
X147550133Y-38201473D01*
X147585040Y-38193980D01*
X147620612Y-38187849D01*
X147656848Y-38183081D01*
X147693747Y-38179675D01*
X147731311Y-38177631D01*
X147769539Y-38176950D01*
X147802258Y-38174607D01*
X147834200Y-38165608D01*
X147861373Y-38146579D01*
X147877677Y-38118364D01*
X147883001Y-38086868D01*
X147883112Y-38080963D01*
X147879119Y-38049836D01*
X147864368Y-38021661D01*
X147838747Y-38002251D01*
X147808136Y-37992591D01*
X147776526Y-37989461D01*
X147769539Y-37989371D01*
X147728787Y-37988921D01*
X147689328Y-37987571D01*
X147651163Y-37985321D01*
X147614292Y-37982170D01*
X147578715Y-37978119D01*
X147544431Y-37973168D01*
X147511441Y-37967317D01*
X147479745Y-37960566D01*
X147449342Y-37952915D01*
X147420233Y-37944363D01*
X147392418Y-37934911D01*
X147340669Y-37913307D01*
X147294095Y-37888102D01*
X147252696Y-37859297D01*
X147216472Y-37826891D01*
X147185423Y-37790884D01*
X147159548Y-37751277D01*
X147138849Y-37708069D01*
X147123324Y-37661260D01*
X147112974Y-37610851D01*
X147107799Y-37556841D01*
X147107152Y-37528485D01*
X147108601Y-37490629D01*
X147112948Y-37453996D01*
X147120193Y-37418587D01*
X147130336Y-37384401D01*
X147143377Y-37351439D01*
X147159316Y-37319700D01*
X147178153Y-37289186D01*
X147199888Y-37259894D01*
X147224521Y-37231827D01*
X147252052Y-37204983D01*
X147272016Y-37187766D01*
X147303499Y-37163410D01*
X147336399Y-37141450D01*
X147370716Y-37121885D01*
X147406449Y-37104716D01*
X147443599Y-37089943D01*
X147482166Y-37077565D01*
X147522150Y-37067583D01*
X147563551Y-37059997D01*
X147606368Y-37054806D01*
X147635700Y-37052677D01*
X147665662Y-37051612D01*
X147680879Y-37051479D01*
X147713663Y-37051801D01*
X147745519Y-37052767D01*
X147776448Y-37054377D01*
X147806450Y-37056631D01*
X147845010Y-37060638D01*
X147881921Y-37065790D01*
X147917184Y-37072087D01*
X147950798Y-37079529D01*
X147982763Y-37088115D01*
X148012713Y-37097229D01*
X148046802Y-37109007D01*
X148077170Y-37121214D01*
X148103818Y-37133851D01*
X148130883Y-37149582D01*
X148155687Y-37168715D01*
X148179775Y-37190560D01*
X148203681Y-37211397D01*
X148227403Y-37231226D01*
X148250942Y-37250048D01*
X148276270Y-37267404D01*
X148302917Y-37280027D01*
X148332816Y-37285917D01*
X148335205Y-37285952D01*
X148365033Y-37281283D01*
X148391319Y-37267276D01*
X148394556Y-37264703D01*
X148413241Y-37241072D01*
X148419469Y-37212679D01*
G37*
G36*
X145990474Y-37507969D02*
G01*
X145988452Y-37471035D01*
X145982385Y-37433600D01*
X145972275Y-37395662D01*
X145958119Y-37357221D01*
X145939920Y-37318279D01*
X145925540Y-37292038D01*
X145909363Y-37265574D01*
X145891388Y-37238886D01*
X145871616Y-37211976D01*
X145850046Y-37184842D01*
X145826679Y-37157485D01*
X145801515Y-37129904D01*
X145774552Y-37102101D01*
X145760397Y-37088115D01*
X145731268Y-37060964D01*
X145701401Y-37035565D01*
X145670795Y-37011917D01*
X145639451Y-36990021D01*
X145607369Y-36969877D01*
X145574548Y-36951484D01*
X145540988Y-36934843D01*
X145506690Y-36919954D01*
X145471654Y-36906817D01*
X145435879Y-36895431D01*
X145399365Y-36885796D01*
X145362114Y-36877914D01*
X145324123Y-36871783D01*
X145285395Y-36867404D01*
X145245927Y-36864776D01*
X145205722Y-36863900D01*
X145167454Y-36864782D01*
X145129770Y-36867427D01*
X145092670Y-36871834D01*
X145056154Y-36878005D01*
X145020221Y-36885940D01*
X144984873Y-36895637D01*
X144950108Y-36907097D01*
X144915928Y-36920321D01*
X144882331Y-36935307D01*
X144849318Y-36952057D01*
X144816889Y-36970570D01*
X144785044Y-36990846D01*
X144753783Y-37012885D01*
X144723106Y-37036687D01*
X144693012Y-37062252D01*
X144663503Y-37089581D01*
X144635109Y-37118060D01*
X144608548Y-37147077D01*
X144583818Y-37176632D01*
X144560921Y-37206726D01*
X144539855Y-37237357D01*
X144520621Y-37268527D01*
X144503218Y-37300235D01*
X144487648Y-37332480D01*
X144473909Y-37365264D01*
X144462002Y-37398586D01*
X144451927Y-37432446D01*
X144443684Y-37466844D01*
X144437273Y-37501781D01*
X144432693Y-37537255D01*
X144429945Y-37573268D01*
X144429030Y-37609818D01*
X144430015Y-37644927D01*
X144432971Y-37679636D01*
X144437897Y-37713946D01*
X144444795Y-37747857D01*
X144453662Y-37781369D01*
X144464501Y-37814481D01*
X144477310Y-37847194D01*
X144492090Y-37879508D01*
X144508840Y-37911422D01*
X144527561Y-37942938D01*
X144541137Y-37963726D01*
X144564422Y-37996312D01*
X144582614Y-38019897D01*
X144602942Y-38044970D01*
X144625404Y-38071531D01*
X144650002Y-38099581D01*
X144676735Y-38129119D01*
X144705604Y-38160146D01*
X144736607Y-38192661D01*
X144769746Y-38226664D01*
X144805020Y-38262155D01*
X144842429Y-38299135D01*
X144881974Y-38337604D01*
X144923653Y-38377560D01*
X144945294Y-38398097D01*
X144967468Y-38419005D01*
X144990176Y-38440286D01*
X145013418Y-38461938D01*
X145037194Y-38483963D01*
X145910607Y-39291430D01*
X145910607Y-39302421D01*
X144585101Y-39302421D01*
X144585101Y-39168332D01*
X144581984Y-39134217D01*
X144570468Y-39103337D01*
X144546918Y-39079810D01*
X144517220Y-39069516D01*
X144496441Y-39067948D01*
X144463607Y-39073207D01*
X144438838Y-39088985D01*
X144422134Y-39115282D01*
X144414234Y-39146194D01*
X144412177Y-39177857D01*
X144412177Y-39490000D01*
X146074738Y-39490000D01*
X146074738Y-39231346D01*
X145078960Y-38298583D01*
X145042847Y-38262940D01*
X145008332Y-38228550D01*
X144975413Y-38195414D01*
X144944092Y-38163532D01*
X144914368Y-38132903D01*
X144886241Y-38103528D01*
X144859711Y-38075407D01*
X144834778Y-38048539D01*
X144811442Y-38022925D01*
X144789704Y-37998565D01*
X144769562Y-37975458D01*
X144742345Y-37943149D01*
X144718721Y-37913660D01*
X144698690Y-37886992D01*
X144692812Y-37878729D01*
X144676574Y-37854165D01*
X144657409Y-37821072D01*
X144641083Y-37787590D01*
X144627596Y-37753718D01*
X144616949Y-37719458D01*
X144609140Y-37684808D01*
X144604172Y-37649768D01*
X144602042Y-37614340D01*
X144601953Y-37605422D01*
X144603551Y-37564414D01*
X144608342Y-37524372D01*
X144616328Y-37485296D01*
X144627507Y-37447187D01*
X144641881Y-37410043D01*
X144659450Y-37373865D01*
X144680212Y-37338653D01*
X144704169Y-37304408D01*
X144731320Y-37271128D01*
X144751195Y-37249478D01*
X144772490Y-37228258D01*
X144783670Y-37217808D01*
X144806528Y-37197667D01*
X144829855Y-37178825D01*
X144853651Y-37161282D01*
X144890226Y-37137405D01*
X144927857Y-37116451D01*
X144966545Y-37098421D01*
X145006288Y-37083315D01*
X145047087Y-37071133D01*
X145088943Y-37061875D01*
X145131855Y-37055540D01*
X145161050Y-37052941D01*
X145190714Y-37051641D01*
X145205722Y-37051479D01*
X145245759Y-37052606D01*
X145285088Y-37055987D01*
X145323709Y-37061622D01*
X145361621Y-37069511D01*
X145398825Y-37079654D01*
X145435321Y-37092051D01*
X145471108Y-37106702D01*
X145506186Y-37123607D01*
X145540557Y-37142766D01*
X145574218Y-37164179D01*
X145596266Y-37179706D01*
X145628007Y-37204178D01*
X145657558Y-37229784D01*
X145684919Y-37256523D01*
X145710091Y-37284395D01*
X145733073Y-37313401D01*
X145753866Y-37343540D01*
X145772469Y-37374813D01*
X145788882Y-37407219D01*
X145803106Y-37440758D01*
X145815140Y-37475431D01*
X145821946Y-37499176D01*
X145832654Y-37528062D01*
X145848597Y-37554208D01*
X145871369Y-37574129D01*
X145902790Y-37583841D01*
X145910607Y-37584173D01*
X145940714Y-37577555D01*
X145965561Y-37560725D01*
X145983443Y-37537455D01*
X145990474Y-37507969D01*
G37*
G36*
X139549790Y-38317634D02*
G01*
X140689183Y-38317634D01*
X140689183Y-39302421D01*
X140461304Y-39302421D01*
X140428586Y-39304657D01*
X140396643Y-39313244D01*
X140369470Y-39331401D01*
X140353166Y-39358324D01*
X140347842Y-39388377D01*
X140347732Y-39394012D01*
X140351724Y-39426633D01*
X140366475Y-39456160D01*
X140392096Y-39476501D01*
X140422707Y-39486625D01*
X140454317Y-39489906D01*
X140461304Y-39490000D01*
X141052616Y-39490000D01*
X141086602Y-39487656D01*
X141119781Y-39478657D01*
X141144665Y-39462909D01*
X141163213Y-39436007D01*
X141170125Y-39405636D01*
X141170586Y-39394012D01*
X141166438Y-39362885D01*
X141151116Y-39334710D01*
X141124504Y-39315301D01*
X141092708Y-39305641D01*
X141059874Y-39302510D01*
X141052616Y-39302421D01*
X140862107Y-39302421D01*
X140862107Y-37285952D01*
X140967620Y-37285952D01*
X141000550Y-37283609D01*
X141032698Y-37274610D01*
X141060047Y-37255581D01*
X141076456Y-37227366D01*
X141081814Y-37195870D01*
X141081926Y-37189965D01*
X141077933Y-37158838D01*
X141063182Y-37130663D01*
X141037561Y-37111254D01*
X141006950Y-37101594D01*
X140975340Y-37098463D01*
X140968353Y-37098374D01*
X140461304Y-37098374D01*
X140428586Y-37100610D01*
X140396643Y-37109196D01*
X140369470Y-37127354D01*
X140353166Y-37154276D01*
X140347842Y-37184330D01*
X140347732Y-37189965D01*
X140351724Y-37222585D01*
X140366475Y-37252113D01*
X140392096Y-37272454D01*
X140422707Y-37282577D01*
X140454317Y-37285858D01*
X140461304Y-37285952D01*
X140689183Y-37285952D01*
X140689183Y-38130055D01*
X139549790Y-38130055D01*
X139549790Y-37285952D01*
X139777669Y-37285952D01*
X139810387Y-37283609D01*
X139842330Y-37274610D01*
X139869503Y-37255581D01*
X139885807Y-37227366D01*
X139891131Y-37195870D01*
X139891242Y-37189965D01*
X139887249Y-37158838D01*
X139872498Y-37130663D01*
X139846877Y-37111254D01*
X139816266Y-37101594D01*
X139784656Y-37098463D01*
X139777669Y-37098374D01*
X139270621Y-37098374D01*
X139237902Y-37100610D01*
X139205959Y-37109196D01*
X139178786Y-37127354D01*
X139162482Y-37154276D01*
X139157159Y-37184330D01*
X139157048Y-37189965D01*
X139161066Y-37222585D01*
X139175913Y-37252113D01*
X139201698Y-37272454D01*
X139232507Y-37282577D01*
X139264321Y-37285858D01*
X139271353Y-37285952D01*
X139376866Y-37285952D01*
X139376866Y-39302421D01*
X139182693Y-39302421D01*
X139149763Y-39304657D01*
X139117615Y-39313244D01*
X139090266Y-39331401D01*
X139073857Y-39358324D01*
X139068499Y-39388377D01*
X139068387Y-39394012D01*
X139072380Y-39426633D01*
X139087131Y-39456160D01*
X139112752Y-39476501D01*
X139143363Y-39486625D01*
X139174973Y-39489906D01*
X139181960Y-39490000D01*
X139777669Y-39490000D01*
X139810387Y-39487656D01*
X139842330Y-39478657D01*
X139869503Y-39459628D01*
X139885807Y-39431413D01*
X139891131Y-39399918D01*
X139891242Y-39394012D01*
X139887249Y-39362885D01*
X139872498Y-39334710D01*
X139846877Y-39315301D01*
X139816266Y-39305641D01*
X139784656Y-39302510D01*
X139777669Y-39302421D01*
X139549790Y-39302421D01*
X139549790Y-38317634D01*
G37*
G36*
X137645856Y-37661637D02*
G01*
X137679286Y-37663221D01*
X137714944Y-37665862D01*
X137752831Y-37669558D01*
X137792945Y-37674311D01*
X137835288Y-37680120D01*
X137864755Y-37684579D01*
X137895212Y-37689508D01*
X137926659Y-37694906D01*
X137959097Y-37700774D01*
X137992524Y-37707111D01*
X138026943Y-37713917D01*
X138062351Y-37721193D01*
X138079977Y-37724927D01*
X138113551Y-37732547D01*
X138144887Y-37740366D01*
X138187694Y-37752471D01*
X138225464Y-37765027D01*
X138258199Y-37778034D01*
X138285897Y-37791491D01*
X138314994Y-37810136D01*
X138338776Y-37834568D01*
X138348848Y-37865540D01*
X138343169Y-37894483D01*
X138326133Y-37919762D01*
X138324658Y-37921160D01*
X138298326Y-37937486D01*
X138268981Y-37942477D01*
X138261141Y-37942065D01*
X138231028Y-37937897D01*
X138199386Y-37932173D01*
X138167993Y-37925945D01*
X138131196Y-37918251D01*
X138100052Y-37911519D01*
X138065869Y-37903963D01*
X138028646Y-37895582D01*
X138002777Y-37889904D01*
X137964167Y-37882073D01*
X137925789Y-37875066D01*
X137887643Y-37868883D01*
X137849728Y-37863525D01*
X137812046Y-37858992D01*
X137774595Y-37855282D01*
X137737376Y-37852397D01*
X137700389Y-37850336D01*
X137663634Y-37849100D01*
X137627110Y-37848688D01*
X137598511Y-37849040D01*
X137556900Y-37850888D01*
X137516835Y-37854320D01*
X137478315Y-37859337D01*
X137441341Y-37865938D01*
X137405912Y-37874123D01*
X137372029Y-37883893D01*
X137339692Y-37895247D01*
X137308900Y-37908185D01*
X137279654Y-37922707D01*
X137251953Y-37938813D01*
X137243118Y-37944503D01*
X137218294Y-37962249D01*
X137189122Y-37987494D01*
X137164438Y-38014548D01*
X137144242Y-38043410D01*
X137128534Y-38074082D01*
X137117315Y-38106562D01*
X137110583Y-38140852D01*
X137108339Y-38176950D01*
X137108339Y-38460516D01*
X137148619Y-38448892D01*
X137188309Y-38438019D01*
X137227410Y-38427895D01*
X137265921Y-38418521D01*
X137303843Y-38409898D01*
X137341175Y-38402024D01*
X137377917Y-38394899D01*
X137414070Y-38388525D01*
X137449633Y-38382901D01*
X137484606Y-38378027D01*
X137518990Y-38373902D01*
X137552784Y-38370528D01*
X137585989Y-38367903D01*
X137618604Y-38366028D01*
X137650629Y-38364903D01*
X137682065Y-38364528D01*
X137731032Y-38365218D01*
X137778831Y-38367288D01*
X137825462Y-38370737D01*
X137870926Y-38375565D01*
X137915222Y-38381773D01*
X137958350Y-38389361D01*
X138000310Y-38398328D01*
X138041102Y-38408675D01*
X138080727Y-38420402D01*
X138119183Y-38433508D01*
X138156472Y-38447994D01*
X138192594Y-38463859D01*
X138227547Y-38481104D01*
X138261333Y-38499728D01*
X138293951Y-38519732D01*
X138325401Y-38541116D01*
X138355302Y-38563516D01*
X138383275Y-38586751D01*
X138409318Y-38610823D01*
X138433432Y-38635730D01*
X138455617Y-38661472D01*
X138475873Y-38688051D01*
X138494200Y-38715465D01*
X138510598Y-38743715D01*
X138525066Y-38772801D01*
X138537606Y-38802723D01*
X138548216Y-38833480D01*
X138556897Y-38865074D01*
X138563649Y-38897503D01*
X138568472Y-38930767D01*
X138571366Y-38964868D01*
X138572330Y-38999804D01*
X138571623Y-39029314D01*
X138567912Y-39072268D01*
X138561019Y-39113652D01*
X138550944Y-39153464D01*
X138537689Y-39191705D01*
X138521252Y-39228374D01*
X138501633Y-39263472D01*
X138478834Y-39296999D01*
X138452853Y-39328954D01*
X138423690Y-39359338D01*
X138391346Y-39388150D01*
X138368188Y-39406162D01*
X138344143Y-39423012D01*
X138319210Y-39438700D01*
X138293390Y-39453226D01*
X138266682Y-39466589D01*
X138239088Y-39478791D01*
X138210606Y-39489831D01*
X138181236Y-39499708D01*
X138150980Y-39508424D01*
X138119836Y-39515977D01*
X138087805Y-39522368D01*
X138054887Y-39527598D01*
X138021081Y-39531665D01*
X137986388Y-39534570D01*
X137950808Y-39536313D01*
X137914340Y-39536894D01*
X137860788Y-39535546D01*
X137807659Y-39531502D01*
X137754954Y-39524761D01*
X137702673Y-39515324D01*
X137650815Y-39503191D01*
X137599381Y-39488362D01*
X137548371Y-39470837D01*
X137497784Y-39450615D01*
X137447621Y-39427698D01*
X137397881Y-39402084D01*
X137348565Y-39373773D01*
X137299672Y-39342767D01*
X137275385Y-39326253D01*
X137251204Y-39309064D01*
X137227128Y-39291202D01*
X137203158Y-39272665D01*
X137179295Y-39253455D01*
X137155537Y-39233570D01*
X137131885Y-39213012D01*
X137108339Y-39191779D01*
X137108339Y-39490000D01*
X136707536Y-39490000D01*
X136680746Y-39488156D01*
X136647258Y-39478479D01*
X136621807Y-39460507D01*
X136604393Y-39434241D01*
X136596021Y-39406015D01*
X136593230Y-39372030D01*
X136597223Y-39348374D01*
X136614969Y-39324446D01*
X136642142Y-39310646D01*
X136674085Y-39304120D01*
X136706803Y-39302421D01*
X136934682Y-39302421D01*
X136934682Y-38999804D01*
X137108339Y-38999804D01*
X137121505Y-39011513D01*
X137147700Y-39034297D01*
X137173712Y-39056233D01*
X137199540Y-39077322D01*
X137225186Y-39097563D01*
X137250648Y-39116958D01*
X137275927Y-39135505D01*
X137301023Y-39153205D01*
X137325936Y-39170058D01*
X137362962Y-39193748D01*
X137399575Y-39215533D01*
X137435777Y-39235411D01*
X137471566Y-39253383D01*
X137506943Y-39269448D01*
X137530533Y-39279120D01*
X137566456Y-39292457D01*
X137603022Y-39304390D01*
X137640232Y-39314920D01*
X137678087Y-39324045D01*
X137716585Y-39331767D01*
X137755727Y-39338084D01*
X137795514Y-39342998D01*
X137835944Y-39346508D01*
X137877018Y-39348614D01*
X137918736Y-39349316D01*
X137945779Y-39348949D01*
X137985054Y-39347026D01*
X138022784Y-39343454D01*
X138058968Y-39338233D01*
X138093607Y-39331364D01*
X138126700Y-39322846D01*
X138158247Y-39312679D01*
X138188249Y-39300864D01*
X138216705Y-39287400D01*
X138243616Y-39272288D01*
X138268981Y-39255526D01*
X138299549Y-39230923D01*
X138326042Y-39204373D01*
X138348459Y-39175876D01*
X138366800Y-39145434D01*
X138381065Y-39113045D01*
X138391255Y-39078710D01*
X138397368Y-39042428D01*
X138399406Y-39004200D01*
X138397571Y-38967220D01*
X138392065Y-38931566D01*
X138382888Y-38897239D01*
X138370040Y-38864238D01*
X138353521Y-38832564D01*
X138333332Y-38802216D01*
X138309472Y-38773196D01*
X138281941Y-38745502D01*
X138250739Y-38719134D01*
X138215866Y-38694093D01*
X138190579Y-38678136D01*
X138163989Y-38662875D01*
X138136425Y-38648598D01*
X138107889Y-38635306D01*
X138078380Y-38622998D01*
X138047897Y-38611676D01*
X138016441Y-38601337D01*
X137984012Y-38591983D01*
X137950610Y-38583614D01*
X137916235Y-38576230D01*
X137880886Y-38569830D01*
X137844565Y-38564415D01*
X137807270Y-38559984D01*
X137769002Y-38556538D01*
X137729761Y-38554076D01*
X137689547Y-38552599D01*
X137648360Y-38552107D01*
X137612590Y-38552356D01*
X137577090Y-38553103D01*
X137541859Y-38554348D01*
X137506897Y-38556091D01*
X137472204Y-38558332D01*
X137437780Y-38561071D01*
X137403625Y-38564309D01*
X137369740Y-38568044D01*
X137336123Y-38572277D01*
X137302775Y-38577008D01*
X137269696Y-38582238D01*
X137236887Y-38587965D01*
X137204346Y-38594190D01*
X137172075Y-38600914D01*
X137140072Y-38608135D01*
X137108339Y-38615854D01*
X137108339Y-38999804D01*
X136934682Y-38999804D01*
X136934682Y-38178415D01*
X136936376Y-38137313D01*
X136941457Y-38097538D01*
X136949925Y-38059089D01*
X136961781Y-38021966D01*
X136977025Y-37986171D01*
X136995656Y-37951702D01*
X137017674Y-37918559D01*
X137043080Y-37886744D01*
X137071873Y-37856255D01*
X137104054Y-37827092D01*
X137127390Y-37808387D01*
X137151790Y-37790553D01*
X137176998Y-37773869D01*
X137203012Y-37758336D01*
X137229834Y-37743953D01*
X137257463Y-37730721D01*
X137285899Y-37718640D01*
X137315143Y-37707709D01*
X137345193Y-37697929D01*
X137376051Y-37689299D01*
X137407716Y-37681820D01*
X137440187Y-37675492D01*
X137473466Y-37670314D01*
X137507553Y-37666287D01*
X137542446Y-37663410D01*
X137578146Y-37661684D01*
X137614654Y-37661109D01*
X137645856Y-37661637D01*
G37*
G36*
X135012002Y-37848688D02*
G01*
X135045026Y-37849389D01*
X135077418Y-37851493D01*
X135109180Y-37854999D01*
X135140310Y-37859907D01*
X135157815Y-37863342D01*
X135187884Y-37870239D01*
X135217181Y-37878749D01*
X135245706Y-37888872D01*
X135273460Y-37900608D01*
X135288974Y-37908039D01*
X135318237Y-37922876D01*
X135345211Y-37937348D01*
X135372819Y-37953190D01*
X135392288Y-37965191D01*
X135419107Y-37983896D01*
X135444468Y-38004523D01*
X135467984Y-38025875D01*
X135483147Y-38040662D01*
X135505495Y-38063240D01*
X135526258Y-38084807D01*
X135546728Y-38107253D01*
X135550558Y-38111737D01*
X135569544Y-38134435D01*
X135588921Y-38158477D01*
X135607411Y-38181833D01*
X135609909Y-38185010D01*
X135629383Y-38209798D01*
X135647690Y-38232709D01*
X135653872Y-38239965D01*
X135653872Y-39302421D01*
X135464096Y-39302421D01*
X135431166Y-39304657D01*
X135399017Y-39313244D01*
X135371669Y-39331401D01*
X135355260Y-39358324D01*
X135349902Y-39388377D01*
X135349790Y-39394012D01*
X135353809Y-39426633D01*
X135368655Y-39456160D01*
X135394441Y-39476501D01*
X135425250Y-39486625D01*
X135457063Y-39489906D01*
X135464096Y-39490000D01*
X136017306Y-39490000D01*
X136051291Y-39487656D01*
X136084470Y-39478657D01*
X136109354Y-39462909D01*
X136127902Y-39436007D01*
X136134814Y-39405636D01*
X136135275Y-39394012D01*
X136131128Y-39362885D01*
X136115806Y-39334710D01*
X136089193Y-39315301D01*
X136057397Y-39305641D01*
X136024564Y-39302510D01*
X136017306Y-39302421D01*
X135826796Y-39302421D01*
X135826796Y-37895582D01*
X135970411Y-37895582D01*
X136003341Y-37893543D01*
X136035490Y-37885712D01*
X136062838Y-37869152D01*
X136079247Y-37844599D01*
X136084717Y-37812051D01*
X136081926Y-37782077D01*
X136071210Y-37752813D01*
X136048550Y-37727919D01*
X136020420Y-37714507D01*
X135990839Y-37708918D01*
X135970411Y-37708004D01*
X135653872Y-37708004D01*
X135653872Y-38012819D01*
X135631327Y-37987863D01*
X135609119Y-37963921D01*
X135587249Y-37940991D01*
X135565716Y-37919075D01*
X135544521Y-37898173D01*
X135513362Y-37868718D01*
X135482964Y-37841543D01*
X135453325Y-37816649D01*
X135424445Y-37794033D01*
X135396326Y-37773698D01*
X135368967Y-37755642D01*
X135342368Y-37739867D01*
X135333670Y-37735115D01*
X135307045Y-37721889D01*
X135279377Y-37709964D01*
X135250665Y-37699340D01*
X135220910Y-37690017D01*
X135190112Y-37681995D01*
X135158270Y-37675274D01*
X135125386Y-37669854D01*
X135091458Y-37665734D01*
X135056486Y-37662916D01*
X135020472Y-37661398D01*
X134995882Y-37661109D01*
X134960892Y-37661750D01*
X134926628Y-37663674D01*
X134893091Y-37666879D01*
X134860282Y-37671367D01*
X134828199Y-37677137D01*
X134796843Y-37684190D01*
X134766215Y-37692525D01*
X134736313Y-37702142D01*
X134707139Y-37713041D01*
X134678691Y-37725223D01*
X134650970Y-37738687D01*
X134623977Y-37753433D01*
X134597710Y-37769461D01*
X134572171Y-37786772D01*
X134547358Y-37805365D01*
X134523272Y-37825240D01*
X134500203Y-37846069D01*
X134478622Y-37867521D01*
X134458529Y-37889597D01*
X134439924Y-37912298D01*
X134414808Y-37947518D01*
X134393041Y-37984142D01*
X134374623Y-38022170D01*
X134359553Y-38061602D01*
X134347833Y-38102438D01*
X134339461Y-38144678D01*
X134334437Y-38188322D01*
X134332949Y-38218198D01*
X134332763Y-38233370D01*
X134332763Y-39302421D01*
X134189148Y-39302421D01*
X134156429Y-39304657D01*
X134124487Y-39313244D01*
X134097314Y-39331401D01*
X134081010Y-39358324D01*
X134075686Y-39388377D01*
X134075575Y-39394012D01*
X134079594Y-39426633D01*
X134094440Y-39456160D01*
X134120226Y-39476501D01*
X134151035Y-39486625D01*
X134182848Y-39489906D01*
X134189881Y-39490000D01*
X134649302Y-39490000D01*
X134682232Y-39487656D01*
X134714380Y-39478657D01*
X134741728Y-39459628D01*
X134758138Y-39431413D01*
X134763496Y-39399918D01*
X134763607Y-39394012D01*
X134759589Y-39362885D01*
X134744742Y-39334710D01*
X134718957Y-39315301D01*
X134688148Y-39305641D01*
X134656334Y-39302510D01*
X134649302Y-39302421D01*
X134505687Y-39302421D01*
X134505687Y-38273670D01*
X134506891Y-38240513D01*
X134510504Y-38208360D01*
X134516525Y-38177212D01*
X134524955Y-38147068D01*
X134535794Y-38117930D01*
X134549041Y-38089795D01*
X134564697Y-38062666D01*
X134582761Y-38036541D01*
X134603234Y-38011421D01*
X134626115Y-37987305D01*
X134642707Y-37971786D01*
X134669236Y-37949787D01*
X134697438Y-37929952D01*
X134727316Y-37912280D01*
X134758867Y-37896773D01*
X134792094Y-37883429D01*
X134826994Y-37872249D01*
X134863569Y-37863233D01*
X134901818Y-37856381D01*
X134941742Y-37851693D01*
X134983340Y-37849168D01*
X135012002Y-37848688D01*
G37*
G36*
X132129886Y-36910884D02*
G01*
X132161700Y-36914015D01*
X132192509Y-36923675D01*
X132218294Y-36943084D01*
X132233141Y-36971259D01*
X132237159Y-37002386D01*
X132237048Y-37008292D01*
X132231725Y-37039787D01*
X132215421Y-37068003D01*
X132188248Y-37087031D01*
X132156305Y-37096030D01*
X132123586Y-37098374D01*
X131895708Y-37098374D01*
X131895708Y-38111004D01*
X131914869Y-38083325D01*
X131934342Y-38056525D01*
X131954127Y-38030603D01*
X131974224Y-38005560D01*
X131994633Y-37981396D01*
X132015354Y-37958110D01*
X132036387Y-37935703D01*
X132057732Y-37914175D01*
X132079389Y-37893526D01*
X132101358Y-37873755D01*
X132146232Y-37836849D01*
X132192354Y-37803459D01*
X132239724Y-37773583D01*
X132288342Y-37747222D01*
X132338207Y-37724376D01*
X132389321Y-37705044D01*
X132441682Y-37689228D01*
X132495292Y-37676926D01*
X132550149Y-37668139D01*
X132606254Y-37662866D01*
X132663607Y-37661109D01*
X132710173Y-37662208D01*
X132755897Y-37665505D01*
X132800779Y-37671001D01*
X132844820Y-37678695D01*
X132888020Y-37688586D01*
X132930378Y-37700676D01*
X132971894Y-37714965D01*
X133012569Y-37731451D01*
X133052403Y-37750136D01*
X133091395Y-37771018D01*
X133129545Y-37794099D01*
X133166854Y-37819378D01*
X133203322Y-37846856D01*
X133238948Y-37876531D01*
X133273733Y-37908405D01*
X133307676Y-37942477D01*
X133340062Y-37978046D01*
X133370358Y-38014410D01*
X133398566Y-38051570D01*
X133424683Y-38089526D01*
X133448712Y-38128278D01*
X133470651Y-38167825D01*
X133490500Y-38208168D01*
X133508260Y-38249307D01*
X133523931Y-38291241D01*
X133537512Y-38333971D01*
X133549004Y-38377497D01*
X133558406Y-38421819D01*
X133565719Y-38466936D01*
X133570943Y-38512849D01*
X133574077Y-38559557D01*
X133575122Y-38607062D01*
X133574077Y-38654534D01*
X133570943Y-38701149D01*
X133565719Y-38746904D01*
X133558406Y-38791801D01*
X133549004Y-38835839D01*
X133537512Y-38879018D01*
X133523931Y-38921339D01*
X133508260Y-38962801D01*
X133490500Y-39003405D01*
X133470651Y-39043150D01*
X133448712Y-39082036D01*
X133424683Y-39120063D01*
X133398566Y-39157232D01*
X133370358Y-39193542D01*
X133340062Y-39228994D01*
X133307676Y-39263586D01*
X133273733Y-39296682D01*
X133238948Y-39327643D01*
X133203322Y-39356468D01*
X133166854Y-39383159D01*
X133129545Y-39407714D01*
X133091395Y-39430133D01*
X133052403Y-39450418D01*
X133012569Y-39468567D01*
X132971894Y-39484581D01*
X132930378Y-39498460D01*
X132888020Y-39510204D01*
X132844820Y-39519812D01*
X132800779Y-39527286D01*
X132755897Y-39532624D01*
X132710173Y-39535827D01*
X132663607Y-39536894D01*
X132634509Y-39536470D01*
X132577298Y-39533075D01*
X132521405Y-39526286D01*
X132466828Y-39516102D01*
X132413568Y-39502524D01*
X132361624Y-39485551D01*
X132310997Y-39465183D01*
X132261687Y-39441421D01*
X132213693Y-39414264D01*
X132167016Y-39383713D01*
X132121656Y-39349767D01*
X132077612Y-39312427D01*
X132056084Y-39292483D01*
X132034885Y-39271691D01*
X132014015Y-39250051D01*
X131993474Y-39227562D01*
X131973263Y-39204224D01*
X131953380Y-39180037D01*
X131933827Y-39155002D01*
X131914603Y-39129119D01*
X131895708Y-39102386D01*
X131895708Y-39490000D01*
X131494905Y-39490000D01*
X131468115Y-39488156D01*
X131434627Y-39478479D01*
X131409176Y-39460507D01*
X131391762Y-39434241D01*
X131383390Y-39406015D01*
X131380600Y-39372030D01*
X131384592Y-39348374D01*
X131402338Y-39324446D01*
X131429511Y-39310646D01*
X131461454Y-39304120D01*
X131494173Y-39302421D01*
X131722051Y-39302421D01*
X131722051Y-38615122D01*
X131895708Y-38615122D01*
X131896566Y-38652786D01*
X131899142Y-38689757D01*
X131903436Y-38726036D01*
X131909446Y-38761622D01*
X131917174Y-38796515D01*
X131926620Y-38830716D01*
X131937782Y-38864224D01*
X131950662Y-38897039D01*
X131965260Y-38929162D01*
X131981574Y-38960592D01*
X131999606Y-38991329D01*
X132019356Y-39021374D01*
X132040822Y-39050726D01*
X132064006Y-39079385D01*
X132088908Y-39107352D01*
X132115526Y-39134626D01*
X132143276Y-39160624D01*
X132171752Y-39184944D01*
X132200955Y-39207587D01*
X132230885Y-39228553D01*
X132261543Y-39247841D01*
X132292927Y-39265453D01*
X132325038Y-39281387D01*
X132357876Y-39295643D01*
X132391442Y-39308223D01*
X132425734Y-39319125D01*
X132460753Y-39328350D01*
X132496499Y-39335898D01*
X132532973Y-39341768D01*
X132570173Y-39345961D01*
X132608100Y-39348477D01*
X132646755Y-39349316D01*
X132685944Y-39348477D01*
X132724378Y-39345961D01*
X132762056Y-39341768D01*
X132798979Y-39335898D01*
X132835146Y-39328350D01*
X132870557Y-39319125D01*
X132905213Y-39308223D01*
X132939113Y-39295643D01*
X132972258Y-39281387D01*
X133004647Y-39265453D01*
X133036280Y-39247841D01*
X133067158Y-39228553D01*
X133097280Y-39207587D01*
X133126646Y-39184944D01*
X133155257Y-39160624D01*
X133183112Y-39134626D01*
X133209642Y-39107321D01*
X133234460Y-39079259D01*
X133257567Y-39050443D01*
X133278962Y-39020870D01*
X133298645Y-38990542D01*
X133316617Y-38959458D01*
X133332878Y-38927619D01*
X133347426Y-38895024D01*
X133360263Y-38861673D01*
X133371389Y-38827567D01*
X133380803Y-38792705D01*
X133388505Y-38757088D01*
X133394495Y-38720715D01*
X133398774Y-38683586D01*
X133401342Y-38645702D01*
X133402198Y-38607062D01*
X133401342Y-38567869D01*
X133398774Y-38529427D01*
X133394495Y-38491734D01*
X133388505Y-38454791D01*
X133380803Y-38418599D01*
X133371389Y-38383156D01*
X133360263Y-38348463D01*
X133347426Y-38314520D01*
X133332878Y-38281327D01*
X133316617Y-38248883D01*
X133298645Y-38217190D01*
X133278962Y-38186246D01*
X133257567Y-38156053D01*
X133234460Y-38126609D01*
X133209642Y-38097915D01*
X133183112Y-38069972D01*
X133155274Y-38043175D01*
X133126715Y-38018108D01*
X133097434Y-37994770D01*
X133067432Y-37973160D01*
X133036709Y-37953279D01*
X133005265Y-37935127D01*
X132973099Y-37918703D01*
X132940212Y-37904009D01*
X132906604Y-37891043D01*
X132872275Y-37879806D01*
X132837224Y-37870297D01*
X132801452Y-37862518D01*
X132764959Y-37856467D01*
X132727744Y-37852145D01*
X132689808Y-37849552D01*
X132651151Y-37848688D01*
X132611440Y-37849552D01*
X132572543Y-37852145D01*
X132534458Y-37856467D01*
X132497186Y-37862518D01*
X132460727Y-37870297D01*
X132425081Y-37879806D01*
X132390248Y-37891043D01*
X132356228Y-37904009D01*
X132323020Y-37918703D01*
X132290626Y-37935127D01*
X132259044Y-37953279D01*
X132228275Y-37973160D01*
X132198319Y-37994770D01*
X132169176Y-38018108D01*
X132140846Y-38043175D01*
X132113328Y-38069972D01*
X132086976Y-38097947D01*
X132062323Y-38126735D01*
X132039371Y-38156336D01*
X132018119Y-38186750D01*
X131998567Y-38217977D01*
X131980716Y-38250017D01*
X131964564Y-38282869D01*
X131950113Y-38316535D01*
X131937362Y-38351013D01*
X131926311Y-38386304D01*
X131916960Y-38422408D01*
X131909309Y-38459325D01*
X131903359Y-38497055D01*
X131899108Y-38535598D01*
X131896558Y-38574953D01*
X131895708Y-38615122D01*
X131722051Y-38615122D01*
X131722051Y-36910795D01*
X132122854Y-36910795D01*
X132129886Y-36910884D01*
G37*
G36*
X129479169Y-38273670D02*
G01*
X129480431Y-38239105D01*
X129484218Y-38205750D01*
X129490529Y-38173605D01*
X129499365Y-38142672D01*
X129510725Y-38112949D01*
X129524610Y-38084437D01*
X129541019Y-38057136D01*
X129559952Y-38031045D01*
X129581410Y-38006166D01*
X129605393Y-37982496D01*
X129622784Y-37967390D01*
X129650491Y-37946176D01*
X129679756Y-37927049D01*
X129710580Y-37910009D01*
X129742963Y-37895056D01*
X129776904Y-37882188D01*
X129812403Y-37871408D01*
X129849461Y-37862714D01*
X129888077Y-37856106D01*
X129928252Y-37851586D01*
X129969986Y-37849151D01*
X129998674Y-37848688D01*
X130031380Y-37849293D01*
X130063005Y-37851109D01*
X130093548Y-37854136D01*
X130123008Y-37858373D01*
X130160607Y-37865907D01*
X130196281Y-37875592D01*
X130230033Y-37887431D01*
X130261861Y-37901421D01*
X130291765Y-37917564D01*
X130321612Y-37936821D01*
X130353268Y-37960154D01*
X130378198Y-37980328D01*
X130404144Y-38002795D01*
X130431109Y-38027555D01*
X130459090Y-38054607D01*
X130488090Y-38083952D01*
X130518107Y-38115590D01*
X130538683Y-38137955D01*
X130559712Y-38161339D01*
X130581193Y-38185743D01*
X130627355Y-38239965D01*
X130627355Y-39302421D01*
X130436845Y-39302421D01*
X130402860Y-39304657D01*
X130369681Y-39313244D01*
X130341456Y-39331401D01*
X130324521Y-39358324D01*
X130318991Y-39388377D01*
X130318876Y-39394012D01*
X130323023Y-39426633D01*
X130338346Y-39456160D01*
X130364958Y-39476501D01*
X130396754Y-39486625D01*
X130429587Y-39489906D01*
X130436845Y-39490000D01*
X130993719Y-39490000D01*
X131026649Y-39487656D01*
X131058797Y-39478657D01*
X131086146Y-39459628D01*
X131102555Y-39431413D01*
X131107913Y-39399918D01*
X131108025Y-39394012D01*
X131104032Y-39362885D01*
X131089281Y-39334710D01*
X131063660Y-39315301D01*
X131033049Y-39305641D01*
X131001439Y-39302510D01*
X130994452Y-39302421D01*
X130800279Y-39302421D01*
X130800279Y-37098374D01*
X131028157Y-37098374D01*
X131060876Y-37096030D01*
X131092818Y-37087031D01*
X131119992Y-37068003D01*
X131136295Y-37039787D01*
X131141619Y-37008292D01*
X131141730Y-37002386D01*
X131137737Y-36971259D01*
X131122986Y-36943084D01*
X131097366Y-36923675D01*
X131066754Y-36914015D01*
X131035145Y-36910884D01*
X131028157Y-36910795D01*
X130627355Y-36910795D01*
X130627355Y-38027473D01*
X130607348Y-38002838D01*
X130587444Y-37979125D01*
X130567643Y-37956333D01*
X130547945Y-37934463D01*
X130518592Y-37903385D01*
X130489470Y-37874382D01*
X130460580Y-37847452D01*
X130431922Y-37822596D01*
X130403496Y-37799813D01*
X130375302Y-37779104D01*
X130347339Y-37760469D01*
X130319609Y-37743907D01*
X130291451Y-37729110D01*
X130262482Y-37715769D01*
X130232701Y-37703883D01*
X130202109Y-37693452D01*
X130170705Y-37684477D01*
X130138490Y-37676957D01*
X130105464Y-37670893D01*
X130071626Y-37666284D01*
X130036977Y-37663131D01*
X130001516Y-37661432D01*
X129977424Y-37661109D01*
X129940934Y-37661759D01*
X129905285Y-37663708D01*
X129870478Y-37666957D01*
X129836512Y-37671505D01*
X129803387Y-37677352D01*
X129771104Y-37684499D01*
X129739663Y-37692946D01*
X129709063Y-37702691D01*
X129679304Y-37713737D01*
X129650387Y-37726081D01*
X129622312Y-37739726D01*
X129595078Y-37754669D01*
X129568685Y-37770912D01*
X129543134Y-37788455D01*
X129518424Y-37807297D01*
X129494556Y-37827438D01*
X129471753Y-37848582D01*
X129450421Y-37870429D01*
X129430560Y-37892980D01*
X129412170Y-37916236D01*
X129395252Y-37940196D01*
X129372632Y-37977455D01*
X129353323Y-38016299D01*
X129337324Y-38056727D01*
X129324635Y-38098740D01*
X129318015Y-38127628D01*
X129312865Y-38157221D01*
X129309188Y-38187517D01*
X129306981Y-38218518D01*
X129306245Y-38250223D01*
X129306245Y-39302421D01*
X129115736Y-39302421D01*
X129081750Y-39304657D01*
X129048572Y-39313244D01*
X129020346Y-39331401D01*
X129003411Y-39358324D01*
X128997882Y-39388377D01*
X128997766Y-39394012D01*
X129001914Y-39426633D01*
X129017236Y-39456160D01*
X129043848Y-39476501D01*
X129075645Y-39486625D01*
X129108478Y-39489906D01*
X129115736Y-39490000D01*
X129668946Y-39490000D01*
X129701876Y-39487656D01*
X129734024Y-39478657D01*
X129761373Y-39459628D01*
X129777782Y-39431413D01*
X129783140Y-39399918D01*
X129783251Y-39394012D01*
X129779233Y-39362885D01*
X129764387Y-39334710D01*
X129738601Y-39315301D01*
X129707792Y-39305641D01*
X129675978Y-39302510D01*
X129668946Y-39302421D01*
X129479169Y-39302421D01*
X129479169Y-38273670D01*
G37*
G36*
X127627893Y-37662122D02*
G01*
X127677058Y-37665162D01*
X127725232Y-37670228D01*
X127772415Y-37677321D01*
X127818609Y-37686440D01*
X127863812Y-37697585D01*
X127908024Y-37710757D01*
X127951247Y-37725956D01*
X127993479Y-37743180D01*
X128034721Y-37762432D01*
X128074972Y-37783709D01*
X128114233Y-37807014D01*
X128152504Y-37832344D01*
X128189784Y-37859701D01*
X128226074Y-37889085D01*
X128261374Y-37920495D01*
X128295091Y-37953405D01*
X128326633Y-37987288D01*
X128355999Y-38022144D01*
X128383190Y-38057973D01*
X128408206Y-38094776D01*
X128431047Y-38132551D01*
X128451712Y-38171300D01*
X128470202Y-38211022D01*
X128486517Y-38251717D01*
X128500656Y-38293385D01*
X128512620Y-38336026D01*
X128522409Y-38379641D01*
X128530022Y-38424229D01*
X128535461Y-38469789D01*
X128538723Y-38516323D01*
X128539811Y-38563831D01*
X128538649Y-38614008D01*
X128535163Y-38663241D01*
X128529353Y-38711530D01*
X128521218Y-38758874D01*
X128510760Y-38805273D01*
X128497977Y-38850728D01*
X128482870Y-38895239D01*
X128465439Y-38938804D01*
X128445684Y-38981426D01*
X128423605Y-39023103D01*
X128399202Y-39063835D01*
X128372474Y-39103623D01*
X128343423Y-39142466D01*
X128312047Y-39180364D01*
X128278347Y-39217319D01*
X128242323Y-39253328D01*
X128204634Y-39287666D01*
X128165936Y-39319789D01*
X128126232Y-39349696D01*
X128085519Y-39377388D01*
X128043800Y-39402865D01*
X128001072Y-39426126D01*
X127957338Y-39447172D01*
X127912595Y-39466003D01*
X127866846Y-39482618D01*
X127820088Y-39497018D01*
X127772324Y-39509202D01*
X127723551Y-39519171D01*
X127673772Y-39526925D01*
X127622984Y-39532463D01*
X127571190Y-39535786D01*
X127518387Y-39536894D01*
X127482515Y-39536425D01*
X127446523Y-39535017D01*
X127410410Y-39532669D01*
X127374177Y-39529384D01*
X127337824Y-39525159D01*
X127301351Y-39519996D01*
X127264758Y-39513893D01*
X127228044Y-39506852D01*
X127191210Y-39498872D01*
X127154256Y-39489954D01*
X127117181Y-39480096D01*
X127079987Y-39469300D01*
X127042672Y-39457565D01*
X127005237Y-39444891D01*
X126967682Y-39431278D01*
X126930006Y-39416727D01*
X126893450Y-39401648D01*
X126859252Y-39386639D01*
X126827413Y-39371698D01*
X126797932Y-39356826D01*
X126770810Y-39342023D01*
X126734548Y-39319946D01*
X126703593Y-39298025D01*
X126677945Y-39276257D01*
X126652002Y-39247475D01*
X126635493Y-39218967D01*
X126628122Y-39183719D01*
X126628145Y-39181712D01*
X126634740Y-39151739D01*
X126651570Y-39127299D01*
X126654452Y-39124282D01*
X126678806Y-39107860D01*
X126707990Y-39102386D01*
X126719981Y-39103754D01*
X126748592Y-39114693D01*
X126775401Y-39130963D01*
X126791561Y-39142912D01*
X126816982Y-39160311D01*
X126843819Y-39177079D01*
X126872074Y-39193215D01*
X126901745Y-39208720D01*
X126932833Y-39223595D01*
X126965338Y-39237838D01*
X126999259Y-39251450D01*
X127034598Y-39264431D01*
X127071353Y-39276781D01*
X127109525Y-39288499D01*
X127135319Y-39295864D01*
X127173882Y-39306020D01*
X127212290Y-39315106D01*
X127250544Y-39323124D01*
X127288643Y-39330073D01*
X127326587Y-39335953D01*
X127364377Y-39340763D01*
X127402012Y-39344505D01*
X127439493Y-39347178D01*
X127476819Y-39348781D01*
X127513991Y-39349316D01*
X127556335Y-39348566D01*
X127597820Y-39346316D01*
X127638446Y-39342567D01*
X127678214Y-39337317D01*
X127717123Y-39330568D01*
X127755173Y-39322319D01*
X127792365Y-39312570D01*
X127828698Y-39301322D01*
X127864172Y-39288574D01*
X127898788Y-39274325D01*
X127932545Y-39258577D01*
X127965443Y-39241330D01*
X127997483Y-39222582D01*
X128028664Y-39202335D01*
X128058987Y-39180588D01*
X128088450Y-39157341D01*
X128116758Y-39132846D01*
X128143611Y-39107355D01*
X128169010Y-39080868D01*
X128192956Y-39053385D01*
X128215447Y-39024906D01*
X128236484Y-38995431D01*
X128256068Y-38964959D01*
X128274197Y-38933492D01*
X128290872Y-38901029D01*
X128306094Y-38867570D01*
X128319861Y-38833114D01*
X128332174Y-38797663D01*
X128343033Y-38761215D01*
X128352439Y-38723772D01*
X128360390Y-38685332D01*
X128366887Y-38645896D01*
X126611270Y-38645896D01*
X126612326Y-38590896D01*
X126615494Y-38537269D01*
X126620775Y-38485017D01*
X126624655Y-38458318D01*
X126788590Y-38458318D01*
X128366887Y-38458318D01*
X128358876Y-38423693D01*
X128349679Y-38389979D01*
X128339298Y-38357175D01*
X128327732Y-38325282D01*
X128314981Y-38294298D01*
X128301045Y-38264225D01*
X128285924Y-38235062D01*
X128269617Y-38206809D01*
X128252126Y-38179466D01*
X128233450Y-38153033D01*
X128213589Y-38127511D01*
X128192544Y-38102899D01*
X128170313Y-38079197D01*
X128146897Y-38056405D01*
X128122296Y-38034523D01*
X128096510Y-38013551D01*
X128069754Y-37993587D01*
X128042243Y-37974912D01*
X128013975Y-37957524D01*
X127984952Y-37941424D01*
X127955174Y-37926612D01*
X127924640Y-37913088D01*
X127893350Y-37900852D01*
X127861304Y-37889904D01*
X127828503Y-37880244D01*
X127794947Y-37871872D01*
X127760634Y-37864788D01*
X127725566Y-37858992D01*
X127689743Y-37854484D01*
X127653164Y-37851264D01*
X127615829Y-37849332D01*
X127577739Y-37848688D01*
X127539545Y-37849340D01*
X127502084Y-37851298D01*
X127465356Y-37854561D01*
X127429361Y-37859129D01*
X127394098Y-37865002D01*
X127359569Y-37872181D01*
X127325771Y-37880664D01*
X127292707Y-37890453D01*
X127260375Y-37901547D01*
X127228777Y-37913946D01*
X127197910Y-37927651D01*
X127167777Y-37942660D01*
X127138376Y-37958975D01*
X127109708Y-37976594D01*
X127081773Y-37995519D01*
X127054570Y-38015750D01*
X127028287Y-38036970D01*
X127003291Y-38059049D01*
X126979583Y-38081987D01*
X126957163Y-38105784D01*
X126936031Y-38130439D01*
X126916188Y-38155953D01*
X126897632Y-38182325D01*
X126880364Y-38209556D01*
X126864384Y-38237646D01*
X126849693Y-38266595D01*
X126836289Y-38296402D01*
X126824173Y-38327068D01*
X126813345Y-38358592D01*
X126803805Y-38390975D01*
X126795554Y-38424217D01*
X126788590Y-38458318D01*
X126624655Y-38458318D01*
X126628168Y-38434138D01*
X126637674Y-38384633D01*
X126649291Y-38336502D01*
X126663021Y-38289744D01*
X126678864Y-38244361D01*
X126696818Y-38200351D01*
X126716886Y-38157716D01*
X126739065Y-38116454D01*
X126763357Y-38076566D01*
X126789761Y-38038052D01*
X126818277Y-38000912D01*
X126848905Y-37965146D01*
X126881646Y-37930753D01*
X126915964Y-37898101D01*
X126951507Y-37867555D01*
X126988276Y-37839116D01*
X127026269Y-37812784D01*
X127065487Y-37788558D01*
X127105930Y-37766439D01*
X127147598Y-37746426D01*
X127190491Y-37728520D01*
X127234610Y-37712721D01*
X127279953Y-37699028D01*
X127326521Y-37687441D01*
X127374315Y-37677962D01*
X127423333Y-37670589D01*
X127473577Y-37665322D01*
X127525045Y-37662162D01*
X127577739Y-37661109D01*
X127627893Y-37662122D01*
G37*
G36*
X124937718Y-36910795D02*
G01*
X124937718Y-39302421D01*
X124262142Y-39302421D01*
X124228157Y-39304657D01*
X124194978Y-39313244D01*
X124166753Y-39331401D01*
X124149818Y-39358324D01*
X124144288Y-39388377D01*
X124144173Y-39394012D01*
X124148320Y-39426633D01*
X124163642Y-39456160D01*
X124190254Y-39476501D01*
X124222051Y-39486625D01*
X124254884Y-39489906D01*
X124262142Y-39490000D01*
X125785484Y-39490000D01*
X125818414Y-39487656D01*
X125850563Y-39478657D01*
X125877911Y-39459628D01*
X125894320Y-39431413D01*
X125899679Y-39399918D01*
X125899790Y-39394012D01*
X125895772Y-39362885D01*
X125880925Y-39334710D01*
X125855140Y-39315301D01*
X125824331Y-39305641D01*
X125792517Y-39302510D01*
X125785484Y-39302421D01*
X125110642Y-39302421D01*
X125110642Y-37098374D01*
X125604501Y-37098374D01*
X125637219Y-37096030D01*
X125669162Y-37087031D01*
X125696335Y-37068003D01*
X125712639Y-37039787D01*
X125717963Y-37008292D01*
X125718073Y-37002386D01*
X125714081Y-36971259D01*
X125699330Y-36943084D01*
X125673709Y-36923675D01*
X125643098Y-36914015D01*
X125611488Y-36910884D01*
X125604501Y-36910795D01*
X124937718Y-36910795D01*
G37*
G36*
X122059265Y-36910884D02*
G01*
X122091079Y-36914015D01*
X122121888Y-36923675D01*
X122147673Y-36943084D01*
X122162520Y-36971259D01*
X122166538Y-37002386D01*
X122166427Y-37008292D01*
X122161104Y-37039787D01*
X122144800Y-37068003D01*
X122117626Y-37087031D01*
X122085684Y-37096030D01*
X122052965Y-37098374D01*
X121825087Y-37098374D01*
X121825087Y-38111004D01*
X121844248Y-38083325D01*
X121863721Y-38056525D01*
X121883506Y-38030603D01*
X121903603Y-38005560D01*
X121924012Y-37981396D01*
X121944733Y-37958110D01*
X121965766Y-37935703D01*
X121987111Y-37914175D01*
X122008768Y-37893526D01*
X122030737Y-37873755D01*
X122075611Y-37836849D01*
X122121733Y-37803459D01*
X122169103Y-37773583D01*
X122217720Y-37747222D01*
X122267586Y-37724376D01*
X122318700Y-37705044D01*
X122371061Y-37689228D01*
X122424670Y-37676926D01*
X122479528Y-37668139D01*
X122535633Y-37662866D01*
X122592986Y-37661109D01*
X122639552Y-37662208D01*
X122685276Y-37665505D01*
X122730158Y-37671001D01*
X122774199Y-37678695D01*
X122817399Y-37688586D01*
X122859757Y-37700676D01*
X122901273Y-37714965D01*
X122941948Y-37731451D01*
X122981782Y-37750136D01*
X123020774Y-37771018D01*
X123058924Y-37794099D01*
X123096233Y-37819378D01*
X123132701Y-37846856D01*
X123168327Y-37876531D01*
X123203112Y-37908405D01*
X123237055Y-37942477D01*
X123269441Y-37978046D01*
X123299737Y-38014410D01*
X123327944Y-38051570D01*
X123354062Y-38089526D01*
X123378091Y-38128278D01*
X123400029Y-38167825D01*
X123419879Y-38208168D01*
X123437639Y-38249307D01*
X123453310Y-38291241D01*
X123466891Y-38333971D01*
X123478383Y-38377497D01*
X123487785Y-38421819D01*
X123495098Y-38466936D01*
X123500322Y-38512849D01*
X123503456Y-38559557D01*
X123504501Y-38607062D01*
X123503456Y-38654534D01*
X123500322Y-38701149D01*
X123495098Y-38746904D01*
X123487785Y-38791801D01*
X123478383Y-38835839D01*
X123466891Y-38879018D01*
X123453310Y-38921339D01*
X123437639Y-38962801D01*
X123419879Y-39003405D01*
X123400029Y-39043150D01*
X123378091Y-39082036D01*
X123354062Y-39120063D01*
X123327944Y-39157232D01*
X123299737Y-39193542D01*
X123269441Y-39228994D01*
X123237055Y-39263586D01*
X123203112Y-39296682D01*
X123168327Y-39327643D01*
X123132701Y-39356468D01*
X123096233Y-39383159D01*
X123058924Y-39407714D01*
X123020774Y-39430133D01*
X122981782Y-39450418D01*
X122941948Y-39468567D01*
X122901273Y-39484581D01*
X122859757Y-39498460D01*
X122817399Y-39510204D01*
X122774199Y-39519812D01*
X122730158Y-39527286D01*
X122685276Y-39532624D01*
X122639552Y-39535827D01*
X122592986Y-39536894D01*
X122563887Y-39536470D01*
X122506677Y-39533075D01*
X122450784Y-39526286D01*
X122396207Y-39516102D01*
X122342947Y-39502524D01*
X122291003Y-39485551D01*
X122240376Y-39465183D01*
X122191066Y-39441421D01*
X122143072Y-39414264D01*
X122096395Y-39383713D01*
X122051035Y-39349767D01*
X122006991Y-39312427D01*
X121985463Y-39292483D01*
X121964264Y-39271691D01*
X121943394Y-39250051D01*
X121922853Y-39227562D01*
X121902641Y-39204224D01*
X121882759Y-39180037D01*
X121863206Y-39155002D01*
X121843982Y-39129119D01*
X121825087Y-39102386D01*
X121825087Y-39490000D01*
X121424284Y-39490000D01*
X121397494Y-39488156D01*
X121364006Y-39478479D01*
X121338555Y-39460507D01*
X121321141Y-39434241D01*
X121312769Y-39406015D01*
X121309979Y-39372030D01*
X121313971Y-39348374D01*
X121331717Y-39324446D01*
X121358890Y-39310646D01*
X121390833Y-39304120D01*
X121423551Y-39302421D01*
X121651430Y-39302421D01*
X121651430Y-38615122D01*
X121825087Y-38615122D01*
X121825945Y-38652786D01*
X121828521Y-38689757D01*
X121832815Y-38726036D01*
X121838825Y-38761622D01*
X121846553Y-38796515D01*
X121855999Y-38830716D01*
X121867161Y-38864224D01*
X121880041Y-38897039D01*
X121894639Y-38929162D01*
X121910953Y-38960592D01*
X121928985Y-38991329D01*
X121948735Y-39021374D01*
X121970201Y-39050726D01*
X121993385Y-39079385D01*
X122018287Y-39107352D01*
X122044905Y-39134626D01*
X122072655Y-39160624D01*
X122101131Y-39184944D01*
X122130334Y-39207587D01*
X122160264Y-39228553D01*
X122190921Y-39247841D01*
X122222306Y-39265453D01*
X122254417Y-39281387D01*
X122287255Y-39295643D01*
X122320821Y-39308223D01*
X122355113Y-39319125D01*
X122390132Y-39328350D01*
X122425878Y-39335898D01*
X122462352Y-39341768D01*
X122499552Y-39345961D01*
X122537479Y-39348477D01*
X122576133Y-39349316D01*
X122615323Y-39348477D01*
X122653757Y-39345961D01*
X122691435Y-39341768D01*
X122728358Y-39335898D01*
X122764525Y-39328350D01*
X122799936Y-39319125D01*
X122834592Y-39308223D01*
X122868492Y-39295643D01*
X122901637Y-39281387D01*
X122934026Y-39265453D01*
X122965659Y-39247841D01*
X122996536Y-39228553D01*
X123026658Y-39207587D01*
X123056025Y-39184944D01*
X123084636Y-39160624D01*
X123112491Y-39134626D01*
X123139021Y-39107321D01*
X123163839Y-39079259D01*
X123186946Y-39050443D01*
X123208341Y-39020870D01*
X123228024Y-38990542D01*
X123245996Y-38959458D01*
X123262256Y-38927619D01*
X123276805Y-38895024D01*
X123289642Y-38861673D01*
X123300768Y-38827567D01*
X123310182Y-38792705D01*
X123317884Y-38757088D01*
X123323874Y-38720715D01*
X123328153Y-38683586D01*
X123330721Y-38645702D01*
X123331577Y-38607062D01*
X123330721Y-38567869D01*
X123328153Y-38529427D01*
X123323874Y-38491734D01*
X123317884Y-38454791D01*
X123310182Y-38418599D01*
X123300768Y-38383156D01*
X123289642Y-38348463D01*
X123276805Y-38314520D01*
X123262256Y-38281327D01*
X123245996Y-38248883D01*
X123228024Y-38217190D01*
X123208341Y-38186246D01*
X123186946Y-38156053D01*
X123163839Y-38126609D01*
X123139021Y-38097915D01*
X123112491Y-38069972D01*
X123084653Y-38043175D01*
X123056094Y-38018108D01*
X123026813Y-37994770D01*
X122996811Y-37973160D01*
X122966088Y-37953279D01*
X122934644Y-37935127D01*
X122902478Y-37918703D01*
X122869591Y-37904009D01*
X122835983Y-37891043D01*
X122801654Y-37879806D01*
X122766603Y-37870297D01*
X122730831Y-37862518D01*
X122694337Y-37856467D01*
X122657123Y-37852145D01*
X122619187Y-37849552D01*
X122580530Y-37848688D01*
X122540819Y-37849552D01*
X122501922Y-37852145D01*
X122463837Y-37856467D01*
X122426565Y-37862518D01*
X122390106Y-37870297D01*
X122354460Y-37879806D01*
X122319627Y-37891043D01*
X122285607Y-37904009D01*
X122252399Y-37918703D01*
X122220005Y-37935127D01*
X122188423Y-37953279D01*
X122157654Y-37973160D01*
X122127698Y-37994770D01*
X122098555Y-38018108D01*
X122070224Y-38043175D01*
X122042707Y-38069972D01*
X122016355Y-38097947D01*
X121991702Y-38126735D01*
X121968750Y-38156336D01*
X121947498Y-38186750D01*
X121927946Y-38217977D01*
X121910095Y-38250017D01*
X121893943Y-38282869D01*
X121879492Y-38316535D01*
X121866741Y-38351013D01*
X121855690Y-38386304D01*
X121846339Y-38422408D01*
X121838688Y-38459325D01*
X121832737Y-38497055D01*
X121828487Y-38535598D01*
X121825937Y-38574953D01*
X121825087Y-38615122D01*
X121651430Y-38615122D01*
X121651430Y-36910795D01*
X122052233Y-36910795D01*
X122059265Y-36910884D01*
G37*
D12*
X149281580Y-107834182D02*
X149186342Y-107738944D01*
X149186342Y-107738944D02*
X148995866Y-107643706D01*
X148995866Y-107643706D02*
X148519675Y-107643706D01*
X148519675Y-107643706D02*
X148329199Y-107738944D01*
X148329199Y-107738944D02*
X148233961Y-107834182D01*
X148233961Y-107834182D02*
X148138723Y-108024658D01*
X148138723Y-108024658D02*
X148138723Y-108215134D01*
X148138723Y-108215134D02*
X148233961Y-108500848D01*
X148233961Y-108500848D02*
X149376818Y-109643706D01*
X149376818Y-109643706D02*
X148138723Y-109643706D01*
X147472056Y-109643706D02*
X146424437Y-108310372D01*
X147472056Y-108310372D02*
X146424437Y-109643706D01*
X145757770Y-109072277D02*
X144805389Y-109072277D01*
X145948246Y-109643706D02*
X145281580Y-107643706D01*
X145281580Y-107643706D02*
X144614913Y-109643706D01*
X144043484Y-109072277D02*
X143091103Y-109072277D01*
X144233960Y-109643706D02*
X143567294Y-107643706D01*
X143567294Y-107643706D02*
X142900627Y-109643706D01*
X142329198Y-109072277D02*
X141376817Y-109072277D01*
X142519674Y-109643706D02*
X141853008Y-107643706D01*
X141853008Y-107643706D02*
X141186341Y-109643706D01*
X138329197Y-108596087D02*
X138043483Y-108691325D01*
X138043483Y-108691325D02*
X137948245Y-108786563D01*
X137948245Y-108786563D02*
X137853007Y-108977039D01*
X137853007Y-108977039D02*
X137853007Y-109262753D01*
X137853007Y-109262753D02*
X137948245Y-109453229D01*
X137948245Y-109453229D02*
X138043483Y-109548468D01*
X138043483Y-109548468D02*
X138233959Y-109643706D01*
X138233959Y-109643706D02*
X138995864Y-109643706D01*
X138995864Y-109643706D02*
X138995864Y-107643706D01*
X138995864Y-107643706D02*
X138329197Y-107643706D01*
X138329197Y-107643706D02*
X138138721Y-107738944D01*
X138138721Y-107738944D02*
X138043483Y-107834182D01*
X138043483Y-107834182D02*
X137948245Y-108024658D01*
X137948245Y-108024658D02*
X137948245Y-108215134D01*
X137948245Y-108215134D02*
X138043483Y-108405610D01*
X138043483Y-108405610D02*
X138138721Y-108500848D01*
X138138721Y-108500848D02*
X138329197Y-108596087D01*
X138329197Y-108596087D02*
X138995864Y-108596087D01*
X136138721Y-109643706D02*
X136138721Y-108596087D01*
X136138721Y-108596087D02*
X136233959Y-108405610D01*
X136233959Y-108405610D02*
X136424435Y-108310372D01*
X136424435Y-108310372D02*
X136805388Y-108310372D01*
X136805388Y-108310372D02*
X136995864Y-108405610D01*
X136138721Y-109548468D02*
X136329197Y-109643706D01*
X136329197Y-109643706D02*
X136805388Y-109643706D01*
X136805388Y-109643706D02*
X136995864Y-109548468D01*
X136995864Y-109548468D02*
X137091102Y-109357991D01*
X137091102Y-109357991D02*
X137091102Y-109167515D01*
X137091102Y-109167515D02*
X136995864Y-108977039D01*
X136995864Y-108977039D02*
X136805388Y-108881801D01*
X136805388Y-108881801D02*
X136329197Y-108881801D01*
X136329197Y-108881801D02*
X136138721Y-108786563D01*
X135472054Y-108310372D02*
X134710150Y-108310372D01*
X135186340Y-107643706D02*
X135186340Y-109357991D01*
X135186340Y-109357991D02*
X135091102Y-109548468D01*
X135091102Y-109548468D02*
X134900626Y-109643706D01*
X134900626Y-109643706D02*
X134710150Y-109643706D01*
X134329197Y-108310372D02*
X133567293Y-108310372D01*
X134043483Y-107643706D02*
X134043483Y-109357991D01*
X134043483Y-109357991D02*
X133948245Y-109548468D01*
X133948245Y-109548468D02*
X133757769Y-109643706D01*
X133757769Y-109643706D02*
X133567293Y-109643706D01*
X132138721Y-109548468D02*
X132329197Y-109643706D01*
X132329197Y-109643706D02*
X132710150Y-109643706D01*
X132710150Y-109643706D02*
X132900626Y-109548468D01*
X132900626Y-109548468D02*
X132995864Y-109357991D01*
X132995864Y-109357991D02*
X132995864Y-108596087D01*
X132995864Y-108596087D02*
X132900626Y-108405610D01*
X132900626Y-108405610D02*
X132710150Y-108310372D01*
X132710150Y-108310372D02*
X132329197Y-108310372D01*
X132329197Y-108310372D02*
X132138721Y-108405610D01*
X132138721Y-108405610D02*
X132043483Y-108596087D01*
X132043483Y-108596087D02*
X132043483Y-108786563D01*
X132043483Y-108786563D02*
X132995864Y-108977039D01*
X131186340Y-109643706D02*
X131186340Y-108310372D01*
X131186340Y-108691325D02*
X131091102Y-108500848D01*
X131091102Y-108500848D02*
X130995864Y-108405610D01*
X130995864Y-108405610D02*
X130805388Y-108310372D01*
X130805388Y-108310372D02*
X130614911Y-108310372D01*
X129948245Y-109643706D02*
X129948245Y-108310372D01*
X129948245Y-107643706D02*
X130043483Y-107738944D01*
X130043483Y-107738944D02*
X129948245Y-107834182D01*
X129948245Y-107834182D02*
X129853007Y-107738944D01*
X129853007Y-107738944D02*
X129948245Y-107643706D01*
X129948245Y-107643706D02*
X129948245Y-107834182D01*
X128233959Y-109548468D02*
X128424435Y-109643706D01*
X128424435Y-109643706D02*
X128805388Y-109643706D01*
X128805388Y-109643706D02*
X128995864Y-109548468D01*
X128995864Y-109548468D02*
X129091102Y-109357991D01*
X129091102Y-109357991D02*
X129091102Y-108596087D01*
X129091102Y-108596087D02*
X128995864Y-108405610D01*
X128995864Y-108405610D02*
X128805388Y-108310372D01*
X128805388Y-108310372D02*
X128424435Y-108310372D01*
X128424435Y-108310372D02*
X128233959Y-108405610D01*
X128233959Y-108405610D02*
X128138721Y-108596087D01*
X128138721Y-108596087D02*
X128138721Y-108786563D01*
X128138721Y-108786563D02*
X129091102Y-108977039D01*
X127376816Y-109548468D02*
X127186340Y-109643706D01*
X127186340Y-109643706D02*
X126805388Y-109643706D01*
X126805388Y-109643706D02*
X126614911Y-109548468D01*
X126614911Y-109548468D02*
X126519673Y-109357991D01*
X126519673Y-109357991D02*
X126519673Y-109262753D01*
X126519673Y-109262753D02*
X126614911Y-109072277D01*
X126614911Y-109072277D02*
X126805388Y-108977039D01*
X126805388Y-108977039D02*
X127091102Y-108977039D01*
X127091102Y-108977039D02*
X127281578Y-108881801D01*
X127281578Y-108881801D02*
X127376816Y-108691325D01*
X127376816Y-108691325D02*
X127376816Y-108596087D01*
X127376816Y-108596087D02*
X127281578Y-108405610D01*
X127281578Y-108405610D02*
X127091102Y-108310372D01*
X127091102Y-108310372D02*
X126805388Y-108310372D01*
X126805388Y-108310372D02*
X126614911Y-108405610D01*
D13*
G36*
X160668564Y-58156252D02*
G01*
X160751636Y-58197788D01*
X160832789Y-58278941D01*
X160874110Y-58402903D01*
X160874110Y-58582885D01*
X159974110Y-58582885D01*
X159974110Y-58402904D01*
X160015431Y-58278941D01*
X160096584Y-58197788D01*
X160179658Y-58156251D01*
X160358837Y-58111457D01*
X160489384Y-58111457D01*
X160668564Y-58156252D01*
G37*
G36*
X160668564Y-54299109D02*
G01*
X160751636Y-54340645D01*
X160832789Y-54421798D01*
X160874110Y-54545760D01*
X160874110Y-54725742D01*
X159974110Y-54725742D01*
X159974110Y-54545761D01*
X160015431Y-54421798D01*
X160096584Y-54340645D01*
X160179658Y-54299108D01*
X160358837Y-54254314D01*
X160489384Y-54254314D01*
X160668564Y-54299109D01*
G37*
G36*
X160716183Y-46584824D02*
G01*
X160799254Y-46626359D01*
X160835398Y-46662504D01*
X160874110Y-46739927D01*
X160874110Y-46811558D01*
X160835398Y-46888981D01*
X160799254Y-46925126D01*
X160716183Y-46966662D01*
X160537003Y-47011457D01*
X160311218Y-47011457D01*
X160132039Y-46966662D01*
X160048967Y-46925126D01*
X160012822Y-46888982D01*
X159974110Y-46811558D01*
X159974110Y-46739927D01*
X160012822Y-46662503D01*
X160048967Y-46626359D01*
X160132039Y-46584823D01*
X160311218Y-46540029D01*
X160537003Y-46540029D01*
X160716183Y-46584824D01*
G37*
G36*
X160716183Y-43727681D02*
G01*
X160799254Y-43769216D01*
X160835398Y-43805361D01*
X160874110Y-43882784D01*
X160874110Y-43954415D01*
X160835398Y-44031838D01*
X160799254Y-44067983D01*
X160716183Y-44109519D01*
X160537003Y-44154314D01*
X160311218Y-44154314D01*
X160132039Y-44109519D01*
X160048967Y-44067983D01*
X160012822Y-44031839D01*
X159974110Y-43954415D01*
X159974110Y-43882784D01*
X160012822Y-43805360D01*
X160048967Y-43769216D01*
X160132039Y-43727680D01*
X160311218Y-43682886D01*
X160537003Y-43682886D01*
X160716183Y-43727681D01*
G37*
G36*
X161162021Y-60635266D02*
G01*
X159731253Y-60635266D01*
X159731253Y-60442409D01*
X159874110Y-60442409D01*
X159888755Y-60477764D01*
X159924110Y-60492409D01*
X160924110Y-60492409D01*
X160959465Y-60477764D01*
X160974110Y-60442409D01*
X160959465Y-60407054D01*
X160924110Y-60392409D01*
X159974110Y-60392409D01*
X159974110Y-59966219D01*
X159959465Y-59930864D01*
X159924110Y-59916219D01*
X159888755Y-59930864D01*
X159874110Y-59966219D01*
X159874110Y-60442409D01*
X159731253Y-60442409D01*
X159731253Y-59347171D01*
X159874110Y-59347171D01*
X159877259Y-59354774D01*
X159876676Y-59362983D01*
X159924296Y-59505840D01*
X159931921Y-59514631D01*
X159936375Y-59525383D01*
X160031613Y-59620621D01*
X160039215Y-59623770D01*
X160044607Y-59629987D01*
X160139845Y-59677606D01*
X160145513Y-59678008D01*
X160150079Y-59681392D01*
X160340555Y-59729011D01*
X160346825Y-59728077D01*
X160352682Y-59730504D01*
X160495539Y-59730504D01*
X160501395Y-59728077D01*
X160507666Y-59729011D01*
X160698142Y-59681392D01*
X160702707Y-59678008D01*
X160708376Y-59677606D01*
X160803613Y-59629988D01*
X160809005Y-59623770D01*
X160816608Y-59620621D01*
X160911846Y-59525383D01*
X160916299Y-59514630D01*
X160923925Y-59505839D01*
X160971544Y-59362983D01*
X160970960Y-59354774D01*
X160974110Y-59347171D01*
X160974110Y-59251933D01*
X160970960Y-59244329D01*
X160971544Y-59236121D01*
X160923925Y-59093265D01*
X160916299Y-59084473D01*
X160911846Y-59073720D01*
X160864227Y-59026102D01*
X160828872Y-59011457D01*
X160793517Y-59026102D01*
X160778872Y-59061457D01*
X160793517Y-59096812D01*
X160832789Y-59136085D01*
X160874110Y-59260046D01*
X160874110Y-59339058D01*
X160832789Y-59463019D01*
X160751636Y-59544173D01*
X160668564Y-59585709D01*
X160489384Y-59630504D01*
X160358837Y-59630504D01*
X160179658Y-59585709D01*
X160096584Y-59544172D01*
X160015431Y-59463019D01*
X159974110Y-59339056D01*
X159974110Y-59260047D01*
X160015431Y-59136084D01*
X160054704Y-59096813D01*
X160069348Y-59061457D01*
X160054704Y-59026102D01*
X160019349Y-59011458D01*
X159983993Y-59026102D01*
X159936375Y-59073721D01*
X159931921Y-59084472D01*
X159924296Y-59093264D01*
X159876676Y-59236121D01*
X159877259Y-59244329D01*
X159874110Y-59251933D01*
X159874110Y-59347171D01*
X159731253Y-59347171D01*
X159731253Y-58632885D01*
X159874110Y-58632885D01*
X159888755Y-58668240D01*
X159924110Y-58682885D01*
X160924110Y-58682885D01*
X160959465Y-58668240D01*
X160974110Y-58632885D01*
X160974110Y-58394790D01*
X160970960Y-58387186D01*
X160971544Y-58378978D01*
X160923925Y-58236122D01*
X160916299Y-58227330D01*
X160911846Y-58216578D01*
X160816608Y-58121340D01*
X160809005Y-58118190D01*
X160803613Y-58111973D01*
X160708376Y-58064355D01*
X160702707Y-58063952D01*
X160698142Y-58060569D01*
X160507666Y-58012950D01*
X160501395Y-58013883D01*
X160495539Y-58011457D01*
X160352682Y-58011457D01*
X160346825Y-58013883D01*
X160340555Y-58012950D01*
X160150079Y-58060569D01*
X160145513Y-58063952D01*
X160139845Y-58064355D01*
X160044607Y-58111974D01*
X160039215Y-58118190D01*
X160031613Y-58121340D01*
X159936375Y-58216578D01*
X159931921Y-58227329D01*
X159924296Y-58236121D01*
X159876676Y-58378978D01*
X159877259Y-58387186D01*
X159874110Y-58394790D01*
X159874110Y-58632885D01*
X159731253Y-58632885D01*
X159731253Y-56870980D01*
X159874110Y-56870980D01*
X159888755Y-56906335D01*
X159924110Y-56920980D01*
X160924110Y-56920980D01*
X160930454Y-56918352D01*
X160937266Y-56919218D01*
X160947503Y-56911289D01*
X160959465Y-56906335D01*
X160962092Y-56899991D01*
X160967522Y-56895787D01*
X160969154Y-56882942D01*
X160974110Y-56870980D01*
X160971482Y-56864635D01*
X160972348Y-56857824D01*
X160964419Y-56847586D01*
X160959465Y-56835625D01*
X160953121Y-56832997D01*
X160948917Y-56827568D01*
X160112388Y-56349552D01*
X160924110Y-56349552D01*
X160959465Y-56334907D01*
X160974110Y-56299552D01*
X160959465Y-56264197D01*
X160924110Y-56249552D01*
X159924110Y-56249552D01*
X159917765Y-56252179D01*
X159910954Y-56251314D01*
X159900716Y-56259242D01*
X159888755Y-56264197D01*
X159886127Y-56270540D01*
X159880698Y-56274745D01*
X159879065Y-56287589D01*
X159874110Y-56299552D01*
X159876737Y-56305896D01*
X159875872Y-56312708D01*
X159883800Y-56322945D01*
X159888755Y-56334907D01*
X159895098Y-56337534D01*
X159899303Y-56342964D01*
X160735832Y-56820980D01*
X159924110Y-56820980D01*
X159888755Y-56835625D01*
X159874110Y-56870980D01*
X159731253Y-56870980D01*
X159731253Y-55823361D01*
X159874110Y-55823361D01*
X159888755Y-55858716D01*
X159924110Y-55873361D01*
X160447920Y-55873361D01*
X160924110Y-55873361D01*
X160959465Y-55858716D01*
X160974110Y-55823361D01*
X160959465Y-55788006D01*
X160924110Y-55773361D01*
X160497920Y-55773361D01*
X160497920Y-55301933D01*
X160924110Y-55301933D01*
X160959465Y-55287288D01*
X160974110Y-55251933D01*
X160959465Y-55216578D01*
X160924110Y-55201933D01*
X159924110Y-55201933D01*
X159888755Y-55216578D01*
X159874110Y-55251933D01*
X159888755Y-55287288D01*
X159924110Y-55301933D01*
X160397920Y-55301933D01*
X160397920Y-55773361D01*
X159924110Y-55773361D01*
X159888755Y-55788006D01*
X159874110Y-55823361D01*
X159731253Y-55823361D01*
X159731253Y-54775742D01*
X159874110Y-54775742D01*
X159888755Y-54811097D01*
X159924110Y-54825742D01*
X160924110Y-54825742D01*
X160959465Y-54811097D01*
X160974110Y-54775742D01*
X160974110Y-54537647D01*
X160970960Y-54530043D01*
X160971544Y-54521835D01*
X160923925Y-54378979D01*
X160916299Y-54370187D01*
X160911846Y-54359435D01*
X160816608Y-54264197D01*
X160809005Y-54261047D01*
X160803613Y-54254830D01*
X160708376Y-54207212D01*
X160702707Y-54206809D01*
X160698142Y-54203426D01*
X160507666Y-54155807D01*
X160501395Y-54156740D01*
X160495539Y-54154314D01*
X160352682Y-54154314D01*
X160346825Y-54156740D01*
X160340555Y-54155807D01*
X160150079Y-54203426D01*
X160145513Y-54206809D01*
X160139845Y-54207212D01*
X160044607Y-54254831D01*
X160039215Y-54261047D01*
X160031613Y-54264197D01*
X159936375Y-54359435D01*
X159931921Y-54370186D01*
X159924296Y-54378978D01*
X159876676Y-54521835D01*
X159877259Y-54530043D01*
X159874110Y-54537647D01*
X159874110Y-54775742D01*
X159731253Y-54775742D01*
X159731253Y-53775742D01*
X160255063Y-53775742D01*
X160269708Y-53811097D01*
X160305063Y-53825742D01*
X160340418Y-53811097D01*
X160355063Y-53775742D01*
X160355063Y-53013838D01*
X160340418Y-52978483D01*
X160305063Y-52963838D01*
X160269708Y-52978483D01*
X160255063Y-53013838D01*
X160255063Y-53775742D01*
X159731253Y-53775742D01*
X159731253Y-52632885D01*
X159874110Y-52632885D01*
X159888755Y-52668240D01*
X159924110Y-52682885D01*
X159959465Y-52668240D01*
X160522547Y-52105158D01*
X160646509Y-52063838D01*
X160721831Y-52063838D01*
X160799254Y-52102549D01*
X160835398Y-52138694D01*
X160874110Y-52216117D01*
X160874110Y-52430605D01*
X160835398Y-52508028D01*
X160793517Y-52549911D01*
X160778872Y-52585266D01*
X160793517Y-52620621D01*
X160828872Y-52635266D01*
X160864227Y-52620621D01*
X160911846Y-52573003D01*
X160914995Y-52565399D01*
X160921212Y-52560008D01*
X160968831Y-52464770D01*
X160969656Y-52453161D01*
X160974110Y-52442409D01*
X160974110Y-52204314D01*
X160969656Y-52193561D01*
X160968831Y-52181953D01*
X160921212Y-52086715D01*
X160914995Y-52081323D01*
X160911846Y-52073720D01*
X160864227Y-52026102D01*
X160856624Y-52022952D01*
X160851232Y-52016735D01*
X160755995Y-51969117D01*
X160744386Y-51968291D01*
X160733634Y-51963838D01*
X160638396Y-51963838D01*
X160630792Y-51966987D01*
X160622584Y-51966404D01*
X160479728Y-52014023D01*
X160470936Y-52021648D01*
X160460184Y-52026102D01*
X159974110Y-52512175D01*
X159974110Y-52013838D01*
X159959465Y-51978483D01*
X159924110Y-51963838D01*
X159888755Y-51978483D01*
X159874110Y-52013838D01*
X159874110Y-52632885D01*
X159731253Y-52632885D01*
X159731253Y-51585267D01*
X159874110Y-51585267D01*
X159879190Y-51597530D01*
X159888754Y-51620621D01*
X159888755Y-51620622D01*
X159936375Y-51668241D01*
X159954052Y-51675562D01*
X159971730Y-51682885D01*
X159996730Y-51672529D01*
X160007086Y-51668240D01*
X160007086Y-51668238D01*
X160054704Y-51620622D01*
X160058993Y-51610266D01*
X160069349Y-51585266D01*
X160054704Y-51549911D01*
X160054704Y-51549910D01*
X160007086Y-51502293D01*
X160007086Y-51502292D01*
X159996730Y-51498002D01*
X159971730Y-51487647D01*
X159954052Y-51494969D01*
X159936375Y-51502291D01*
X159888755Y-51549910D01*
X159888754Y-51549910D01*
X159888754Y-51549911D01*
X159882688Y-51564555D01*
X159879190Y-51573003D01*
X159874111Y-51585265D01*
X159874110Y-51585267D01*
X159731253Y-51585267D01*
X159731253Y-50680505D01*
X159874110Y-50680505D01*
X159888755Y-50715860D01*
X159924110Y-50730505D01*
X160207444Y-50730505D01*
X160207444Y-51156695D01*
X160210593Y-51164298D01*
X160210010Y-51172506D01*
X160217635Y-51181297D01*
X160222089Y-51192050D01*
X160229692Y-51195199D01*
X160235084Y-51201416D01*
X160246691Y-51202240D01*
X160257444Y-51206695D01*
X160265047Y-51203545D01*
X160273255Y-51204129D01*
X160987541Y-50966034D01*
X161016450Y-50940961D01*
X161019164Y-50902789D01*
X160994090Y-50873879D01*
X160955918Y-50871166D01*
X160307444Y-51087324D01*
X160307444Y-50730505D01*
X160590777Y-50730505D01*
X160626132Y-50715860D01*
X160640777Y-50680505D01*
X160626132Y-50645150D01*
X160590777Y-50630505D01*
X160307444Y-50630505D01*
X160307444Y-50537648D01*
X160292799Y-50502293D01*
X160257444Y-50487648D01*
X160222089Y-50502293D01*
X160207444Y-50537648D01*
X160207444Y-50630505D01*
X159924110Y-50630505D01*
X159888755Y-50645150D01*
X159874110Y-50680505D01*
X159731253Y-50680505D01*
X159731253Y-50156695D01*
X160255063Y-50156695D01*
X160269708Y-50192050D01*
X160305063Y-50206695D01*
X160340418Y-50192050D01*
X160355063Y-50156695D01*
X160355063Y-49394791D01*
X160340418Y-49359436D01*
X160305063Y-49344791D01*
X160269708Y-49359436D01*
X160255063Y-49394791D01*
X160255063Y-50156695D01*
X159731253Y-50156695D01*
X159731253Y-49013838D01*
X159874110Y-49013838D01*
X159888755Y-49049193D01*
X159924110Y-49063838D01*
X159959465Y-49049193D01*
X160522547Y-48486111D01*
X160646509Y-48444791D01*
X160721831Y-48444791D01*
X160799254Y-48483502D01*
X160835398Y-48519647D01*
X160874110Y-48597070D01*
X160874110Y-48811558D01*
X160835398Y-48888981D01*
X160793517Y-48930864D01*
X160778872Y-48966219D01*
X160793517Y-49001574D01*
X160828872Y-49016219D01*
X160864227Y-49001574D01*
X160911846Y-48953956D01*
X160914995Y-48946352D01*
X160921212Y-48940961D01*
X160968831Y-48845723D01*
X160969656Y-48834114D01*
X160974110Y-48823362D01*
X160974110Y-48585267D01*
X160969656Y-48574514D01*
X160968831Y-48562906D01*
X160921212Y-48467668D01*
X160914995Y-48462276D01*
X160911846Y-48454673D01*
X160864227Y-48407055D01*
X160856624Y-48403905D01*
X160851232Y-48397688D01*
X160755995Y-48350070D01*
X160744386Y-48349244D01*
X160733634Y-48344791D01*
X160638396Y-48344791D01*
X160630792Y-48347940D01*
X160622584Y-48347357D01*
X160479728Y-48394976D01*
X160470936Y-48402601D01*
X160460184Y-48407055D01*
X159974110Y-48893128D01*
X159974110Y-48394791D01*
X159959465Y-48359436D01*
X159924110Y-48344791D01*
X159888755Y-48359436D01*
X159874110Y-48394791D01*
X159874110Y-49013838D01*
X159731253Y-49013838D01*
X159731253Y-47537648D01*
X159874110Y-47537648D01*
X159888755Y-47573003D01*
X159924110Y-47587648D01*
X160207444Y-47587648D01*
X160207444Y-48013838D01*
X160210593Y-48021441D01*
X160210010Y-48029649D01*
X160217635Y-48038440D01*
X160222089Y-48049193D01*
X160229692Y-48052342D01*
X160235084Y-48058559D01*
X160246691Y-48059383D01*
X160257444Y-48063838D01*
X160265047Y-48060688D01*
X160273255Y-48061272D01*
X160987541Y-47823177D01*
X161016450Y-47798104D01*
X161019164Y-47759932D01*
X160994090Y-47731022D01*
X160955918Y-47728309D01*
X160307444Y-47944467D01*
X160307444Y-47587648D01*
X160590777Y-47587648D01*
X160626132Y-47573003D01*
X160640777Y-47537648D01*
X160626132Y-47502293D01*
X160590777Y-47487648D01*
X160307444Y-47487648D01*
X160307444Y-47394791D01*
X160292799Y-47359436D01*
X160257444Y-47344791D01*
X160222089Y-47359436D01*
X160207444Y-47394791D01*
X160207444Y-47487648D01*
X159924110Y-47487648D01*
X159888755Y-47502293D01*
X159874110Y-47537648D01*
X159731253Y-47537648D01*
X159731253Y-46823362D01*
X159874110Y-46823362D01*
X159878563Y-46834114D01*
X159879389Y-46845723D01*
X159927009Y-46940961D01*
X159933225Y-46946352D01*
X159936375Y-46953955D01*
X159983993Y-47001574D01*
X159991596Y-47004723D01*
X159996988Y-47010940D01*
X160092226Y-47058559D01*
X160097894Y-47058961D01*
X160102460Y-47062345D01*
X160292936Y-47109964D01*
X160299206Y-47109030D01*
X160305063Y-47111457D01*
X160543158Y-47111457D01*
X160549014Y-47109030D01*
X160555285Y-47109964D01*
X160745761Y-47062345D01*
X160750326Y-47058961D01*
X160755995Y-47058559D01*
X160851232Y-47010941D01*
X160856624Y-47004723D01*
X160864227Y-47001574D01*
X160911846Y-46953956D01*
X160914995Y-46946352D01*
X160921212Y-46940961D01*
X160968831Y-46845723D01*
X160969656Y-46834114D01*
X160974110Y-46823362D01*
X160974110Y-46728124D01*
X160969656Y-46717371D01*
X160968831Y-46705763D01*
X160921212Y-46610525D01*
X160914995Y-46605133D01*
X160911846Y-46597530D01*
X160864227Y-46549912D01*
X160856624Y-46546762D01*
X160851232Y-46540545D01*
X160755995Y-46492927D01*
X160750326Y-46492524D01*
X160745761Y-46489141D01*
X160555285Y-46441522D01*
X160549014Y-46442455D01*
X160543158Y-46440029D01*
X160305063Y-46440029D01*
X160299206Y-46442455D01*
X160292936Y-46441522D01*
X160102460Y-46489141D01*
X160097894Y-46492524D01*
X160092226Y-46492927D01*
X159996988Y-46540546D01*
X159991596Y-46546762D01*
X159983993Y-46549912D01*
X159936375Y-46597531D01*
X159933225Y-46605133D01*
X159927009Y-46610525D01*
X159879389Y-46705763D01*
X159878563Y-46717371D01*
X159874110Y-46728124D01*
X159874110Y-46823362D01*
X159731253Y-46823362D01*
X159731253Y-46013838D01*
X159874110Y-46013838D01*
X159878563Y-46024590D01*
X159879389Y-46036199D01*
X159927009Y-46131437D01*
X159933225Y-46136828D01*
X159936375Y-46144431D01*
X159983993Y-46192050D01*
X160019349Y-46206694D01*
X160054704Y-46192050D01*
X160069348Y-46156695D01*
X160054704Y-46121339D01*
X160012822Y-46079458D01*
X159974110Y-46002034D01*
X159974110Y-45739927D01*
X160012822Y-45662503D01*
X160048967Y-45626359D01*
X160126391Y-45587648D01*
X160340879Y-45587648D01*
X160418302Y-45626359D01*
X160454446Y-45662504D01*
X160493158Y-45739927D01*
X160493158Y-45870981D01*
X160499891Y-45887235D01*
X160505529Y-45903906D01*
X160507122Y-45904694D01*
X160507803Y-45906336D01*
X160524058Y-45913069D01*
X160539832Y-45920870D01*
X160541515Y-45920300D01*
X160543158Y-45920981D01*
X160559412Y-45914247D01*
X160576083Y-45908610D01*
X160874110Y-45647836D01*
X160874110Y-46156695D01*
X160888755Y-46192050D01*
X160924110Y-46206695D01*
X160959465Y-46192050D01*
X160974110Y-46156695D01*
X160974110Y-45537648D01*
X160967376Y-45521393D01*
X160961739Y-45504723D01*
X160960145Y-45503934D01*
X160959465Y-45502293D01*
X160943209Y-45495559D01*
X160927436Y-45487759D01*
X160925752Y-45488328D01*
X160924110Y-45487648D01*
X160907855Y-45494381D01*
X160891185Y-45500019D01*
X160593158Y-45760792D01*
X160593158Y-45728124D01*
X160588704Y-45717371D01*
X160587879Y-45705763D01*
X160540260Y-45610525D01*
X160534043Y-45605133D01*
X160530894Y-45597530D01*
X160483275Y-45549912D01*
X160475672Y-45546762D01*
X160470280Y-45540545D01*
X160375043Y-45492927D01*
X160363434Y-45492101D01*
X160352682Y-45487648D01*
X160114587Y-45487648D01*
X160103834Y-45492101D01*
X160092226Y-45492927D01*
X159996988Y-45540546D01*
X159991596Y-45546762D01*
X159983993Y-45549912D01*
X159936375Y-45597531D01*
X159933225Y-45605133D01*
X159927009Y-45610525D01*
X159879389Y-45705763D01*
X159878563Y-45717371D01*
X159874110Y-45728124D01*
X159874110Y-46013838D01*
X159731253Y-46013838D01*
X159731253Y-45204314D01*
X159874110Y-45204314D01*
X159888755Y-45239669D01*
X159924110Y-45254314D01*
X159959465Y-45239669D01*
X160522547Y-44676587D01*
X160646509Y-44635267D01*
X160721831Y-44635267D01*
X160799254Y-44673978D01*
X160835398Y-44710123D01*
X160874110Y-44787546D01*
X160874110Y-45002034D01*
X160835398Y-45079457D01*
X160793517Y-45121340D01*
X160778872Y-45156695D01*
X160793517Y-45192050D01*
X160828872Y-45206695D01*
X160864227Y-45192050D01*
X160911846Y-45144432D01*
X160914995Y-45136828D01*
X160921212Y-45131437D01*
X160968831Y-45036199D01*
X160969656Y-45024590D01*
X160974110Y-45013838D01*
X160974110Y-44775743D01*
X160969656Y-44764990D01*
X160968831Y-44753382D01*
X160921212Y-44658144D01*
X160914995Y-44652752D01*
X160911846Y-44645149D01*
X160864227Y-44597531D01*
X160856624Y-44594381D01*
X160851232Y-44588164D01*
X160755995Y-44540546D01*
X160744386Y-44539720D01*
X160733634Y-44535267D01*
X160638396Y-44535267D01*
X160630792Y-44538416D01*
X160622584Y-44537833D01*
X160479728Y-44585452D01*
X160470936Y-44593077D01*
X160460184Y-44597531D01*
X159974110Y-45083604D01*
X159974110Y-44585267D01*
X159959465Y-44549912D01*
X159924110Y-44535267D01*
X159888755Y-44549912D01*
X159874110Y-44585267D01*
X159874110Y-45204314D01*
X159731253Y-45204314D01*
X159731253Y-43966219D01*
X159874110Y-43966219D01*
X159878563Y-43976971D01*
X159879389Y-43988580D01*
X159927009Y-44083818D01*
X159933225Y-44089209D01*
X159936375Y-44096812D01*
X159983993Y-44144431D01*
X159991596Y-44147580D01*
X159996988Y-44153797D01*
X160092226Y-44201416D01*
X160097894Y-44201818D01*
X160102460Y-44205202D01*
X160292936Y-44252821D01*
X160299206Y-44251887D01*
X160305063Y-44254314D01*
X160543158Y-44254314D01*
X160549014Y-44251887D01*
X160555285Y-44252821D01*
X160745761Y-44205202D01*
X160750326Y-44201818D01*
X160755995Y-44201416D01*
X160851232Y-44153798D01*
X160856624Y-44147580D01*
X160864227Y-44144431D01*
X160911846Y-44096813D01*
X160914995Y-44089209D01*
X160921212Y-44083818D01*
X160968831Y-43988580D01*
X160969656Y-43976971D01*
X160974110Y-43966219D01*
X160974110Y-43870981D01*
X160969656Y-43860228D01*
X160968831Y-43848620D01*
X160921212Y-43753382D01*
X160914995Y-43747990D01*
X160911846Y-43740387D01*
X160864227Y-43692769D01*
X160856624Y-43689619D01*
X160851232Y-43683402D01*
X160755995Y-43635784D01*
X160750326Y-43635381D01*
X160745761Y-43631998D01*
X160555285Y-43584379D01*
X160549014Y-43585312D01*
X160543158Y-43582886D01*
X160305063Y-43582886D01*
X160299206Y-43585312D01*
X160292936Y-43584379D01*
X160102460Y-43631998D01*
X160097894Y-43635381D01*
X160092226Y-43635784D01*
X159996988Y-43683403D01*
X159991596Y-43689619D01*
X159983993Y-43692769D01*
X159936375Y-43740388D01*
X159933225Y-43747990D01*
X159927009Y-43753382D01*
X159879389Y-43848620D01*
X159878563Y-43860228D01*
X159874110Y-43870981D01*
X159874110Y-43966219D01*
X159731253Y-43966219D01*
X159731253Y-42918600D01*
X159874110Y-42918600D01*
X159877259Y-42926203D01*
X159876676Y-42934412D01*
X159924296Y-43077269D01*
X159931921Y-43086060D01*
X159936375Y-43096812D01*
X160031613Y-43192050D01*
X160039215Y-43195199D01*
X160044607Y-43201416D01*
X160139845Y-43249035D01*
X160145513Y-43249437D01*
X160150079Y-43252821D01*
X160340555Y-43300440D01*
X160346825Y-43299506D01*
X160352682Y-43301933D01*
X160495539Y-43301933D01*
X160501395Y-43299506D01*
X160507666Y-43300440D01*
X160698142Y-43252821D01*
X160702707Y-43249437D01*
X160708376Y-43249035D01*
X160803613Y-43201417D01*
X160809005Y-43195199D01*
X160816608Y-43192050D01*
X160911846Y-43096812D01*
X160916299Y-43086059D01*
X160923925Y-43077268D01*
X160971544Y-42934412D01*
X160970960Y-42926203D01*
X160974110Y-42918600D01*
X160974110Y-42823362D01*
X160970960Y-42815758D01*
X160971544Y-42807550D01*
X160923925Y-42664694D01*
X160916299Y-42655902D01*
X160911846Y-42645149D01*
X160864227Y-42597531D01*
X160828872Y-42582886D01*
X160793517Y-42597531D01*
X160778872Y-42632886D01*
X160793517Y-42668241D01*
X160832789Y-42707514D01*
X160874110Y-42831475D01*
X160874110Y-42910487D01*
X160832789Y-43034448D01*
X160751636Y-43115602D01*
X160668564Y-43157138D01*
X160489384Y-43201933D01*
X160358837Y-43201933D01*
X160179658Y-43157138D01*
X160096584Y-43115601D01*
X160015431Y-43034448D01*
X159974110Y-42910485D01*
X159974110Y-42831476D01*
X160015431Y-42707513D01*
X160054704Y-42668242D01*
X160069348Y-42632886D01*
X160054704Y-42597531D01*
X160019349Y-42582887D01*
X159983993Y-42597531D01*
X159936375Y-42645150D01*
X159931921Y-42655901D01*
X159924296Y-42664693D01*
X159876676Y-42807550D01*
X159877259Y-42815758D01*
X159874110Y-42823362D01*
X159874110Y-42918600D01*
X159731253Y-42918600D01*
X159731253Y-42204314D01*
X159874110Y-42204314D01*
X159888755Y-42239669D01*
X159924110Y-42254314D01*
X160447920Y-42254314D01*
X160924110Y-42254314D01*
X160959465Y-42239669D01*
X160974110Y-42204314D01*
X160974110Y-41728124D01*
X160959465Y-41692769D01*
X160924110Y-41678124D01*
X160888755Y-41692769D01*
X160874110Y-41728124D01*
X160874110Y-42154314D01*
X160497920Y-42154314D01*
X160497920Y-41870981D01*
X160483275Y-41835626D01*
X160447920Y-41820981D01*
X160412565Y-41835626D01*
X160397920Y-41870981D01*
X160397920Y-42154314D01*
X159924110Y-42154314D01*
X159888755Y-42168959D01*
X159874110Y-42204314D01*
X159731253Y-42204314D01*
X159731253Y-41535267D01*
X161162021Y-41535267D01*
X161162021Y-60635266D01*
G37*
D14*
%TO.C,R26*%
X157762742Y-50477500D02*
X158237258Y-50477500D01*
X157762742Y-51522500D02*
X158237258Y-51522500D01*
%TO.C,R29*%
X158237258Y-44522500D02*
X157762742Y-44522500D01*
X158237258Y-43477500D02*
X157762742Y-43477500D01*
%TO.C,R22*%
X157762742Y-55727500D02*
X158237258Y-55727500D01*
X157762742Y-56772500D02*
X158237258Y-56772500D01*
%TO.C,R25*%
X157762742Y-48727500D02*
X158237258Y-48727500D01*
X157762742Y-49772500D02*
X158237258Y-49772500D01*
%TO.C,R24*%
X157762742Y-52227500D02*
X158237258Y-52227500D01*
X157762742Y-53272500D02*
X158237258Y-53272500D01*
%TO.C,R28*%
X158237258Y-42772500D02*
X157762742Y-42772500D01*
X158237258Y-41727500D02*
X157762742Y-41727500D01*
%TO.C,R23*%
X157762742Y-53977500D02*
X158237258Y-53977500D01*
X157762742Y-55022500D02*
X158237258Y-55022500D01*
%TO.C,R14*%
X158237258Y-41022500D02*
X157762742Y-41022500D01*
X158237258Y-39977500D02*
X157762742Y-39977500D01*
D13*
%TO.C,U3*%
X161100000Y-61500000D02*
X159739858Y-61500000D01*
X159739858Y-61500000D02*
X159739858Y-60590445D01*
X159739858Y-60590445D02*
X161100000Y-60590445D01*
X161100000Y-60590445D02*
X161100000Y-61500000D01*
G36*
X161100000Y-61500000D02*
G01*
X159739858Y-61500000D01*
X159739858Y-60590445D01*
X161100000Y-60590445D01*
X161100000Y-61500000D01*
G37*
X161100000Y-61500000D02*
X159736752Y-61500000D01*
X159736752Y-61500000D02*
X159736752Y-40500000D01*
X159736752Y-40500000D02*
X161100000Y-40500000D01*
X161100000Y-40500000D02*
X161100000Y-61500000D01*
X162100000Y-61500000D02*
X161100000Y-61500000D01*
X161100000Y-61500000D02*
X161100000Y-40500000D01*
X161100000Y-40500000D02*
X162100000Y-40500000D01*
X162100000Y-40500000D02*
X162100000Y-61500000D01*
G36*
X162100000Y-61500000D02*
G01*
X161100000Y-61500000D01*
X161100000Y-40500000D01*
X162100000Y-40500000D01*
X162100000Y-61500000D01*
G37*
X161100000Y-41520108D02*
X159768194Y-41520108D01*
X159768194Y-41520108D02*
X159768194Y-40500000D01*
X159768194Y-40500000D02*
X161100000Y-40500000D01*
X161100000Y-40500000D02*
X161100000Y-41520108D01*
G36*
X161100000Y-41520108D02*
G01*
X159768194Y-41520108D01*
X159768194Y-40500000D01*
X161100000Y-40500000D01*
X161100000Y-41520108D01*
G37*
D15*
X162375000Y-60500000D02*
G75*
G03*
X162375000Y-60500000I-275000J0D01*
G01*
D14*
%TO.C,R27*%
X157762742Y-46977500D02*
X158237258Y-46977500D01*
X157762742Y-48022500D02*
X158237258Y-48022500D01*
%TO.C,R30*%
X158237258Y-46272500D02*
X157762742Y-46272500D01*
X158237258Y-45227500D02*
X157762742Y-45227500D01*
%TO.C,G\u002A\u002A\u002A*%
G36*
X152138048Y-31462439D02*
G01*
X152138048Y-32670488D01*
X151890244Y-32670488D01*
X151642439Y-32670488D01*
X151642439Y-31462439D01*
X151642439Y-30254390D01*
X151890244Y-30254390D01*
X152138048Y-30254390D01*
X152138048Y-31462439D01*
G37*
G36*
X119799512Y-31462439D02*
G01*
X119799512Y-32670488D01*
X119551707Y-32670488D01*
X119303902Y-32670488D01*
X119303902Y-31462439D01*
X119303902Y-30254390D01*
X119551707Y-30254390D01*
X119799512Y-30254390D01*
X119799512Y-31462439D01*
G37*
G36*
X165503471Y-29702901D02*
G01*
X165557890Y-29741383D01*
X165578342Y-29842770D01*
X165581463Y-30037561D01*
X165581463Y-30042771D01*
X165578151Y-30235307D01*
X165557161Y-30335075D01*
X165501859Y-30372571D01*
X165395609Y-30378292D01*
X165392767Y-30378292D01*
X165287748Y-30372220D01*
X165233329Y-30333739D01*
X165212877Y-30232352D01*
X165209756Y-30037561D01*
X165209756Y-30032350D01*
X165213068Y-29839814D01*
X165234058Y-29740047D01*
X165289360Y-29702551D01*
X165395609Y-29696829D01*
X165398452Y-29696829D01*
X165503471Y-29702901D01*
G37*
G36*
X164883959Y-28154121D02*
G01*
X164938378Y-28192602D01*
X164958830Y-28293990D01*
X164961951Y-28488780D01*
X164961951Y-28493991D01*
X164958639Y-28686527D01*
X164937649Y-28786295D01*
X164882347Y-28823790D01*
X164776097Y-28829512D01*
X164773255Y-28829512D01*
X164668235Y-28823440D01*
X164613817Y-28784958D01*
X164593364Y-28683571D01*
X164590244Y-28488780D01*
X164590244Y-28483570D01*
X164593556Y-28291034D01*
X164614546Y-28191266D01*
X164669848Y-28153770D01*
X164776097Y-28148049D01*
X164778939Y-28148049D01*
X164883959Y-28154121D01*
G37*
G36*
X163644935Y-29702901D02*
G01*
X163699353Y-29741383D01*
X163719806Y-29842770D01*
X163722927Y-30037561D01*
X163722926Y-30042771D01*
X163719614Y-30235307D01*
X163698625Y-30335075D01*
X163643322Y-30372571D01*
X163537073Y-30378292D01*
X163534231Y-30378292D01*
X163429211Y-30372220D01*
X163374792Y-30333739D01*
X163354340Y-30232352D01*
X163351219Y-30037561D01*
X163351219Y-30032350D01*
X163354531Y-29839814D01*
X163375521Y-29740047D01*
X163430823Y-29702551D01*
X163537073Y-29696829D01*
X163539915Y-29696829D01*
X163644935Y-29702901D01*
G37*
G36*
X162963471Y-28154121D02*
G01*
X163017890Y-28192602D01*
X163038342Y-28293990D01*
X163041463Y-28488780D01*
X163041463Y-28493991D01*
X163038151Y-28686527D01*
X163017161Y-28786295D01*
X162961859Y-28823790D01*
X162855609Y-28829512D01*
X162852767Y-28829512D01*
X162747748Y-28823440D01*
X162693329Y-28784958D01*
X162672877Y-28683571D01*
X162669756Y-28488780D01*
X162669756Y-28483570D01*
X162673068Y-28291034D01*
X162694058Y-28191266D01*
X162749360Y-28153770D01*
X162855609Y-28148049D01*
X162858452Y-28148049D01*
X162963471Y-28154121D01*
G37*
G36*
X167378048Y-29449024D02*
G01*
X167378048Y-30780975D01*
X167378048Y-31834156D01*
X167378048Y-32546585D01*
X167378048Y-34281219D01*
X139500000Y-34281219D01*
X111621951Y-34281219D01*
X111621951Y-32985555D01*
X129221902Y-32985555D01*
X129655410Y-32967411D01*
X130088917Y-32949268D01*
X130294036Y-32498756D01*
X130319526Y-32443132D01*
X130417930Y-32235191D01*
X130496137Y-32080205D01*
X130539089Y-32008309D01*
X130545820Y-32008818D01*
X130562779Y-32083919D01*
X130574591Y-32247762D01*
X130579024Y-32474309D01*
X130579024Y-32980244D01*
X131012683Y-32980244D01*
X131446341Y-32980244D01*
X131446341Y-31493414D01*
X131446341Y-30130488D01*
X132437561Y-30130488D01*
X132440947Y-30171894D01*
X132470732Y-30216537D01*
X132551709Y-30241367D01*
X132708105Y-30252084D01*
X132964146Y-30254390D01*
X133490731Y-30254390D01*
X133490731Y-30561431D01*
X133490731Y-30868473D01*
X132979634Y-31134480D01*
X132468536Y-31400488D01*
X132450549Y-32081951D01*
X132447981Y-32183365D01*
X132444050Y-32452764D01*
X132450189Y-32631092D01*
X132470077Y-32743567D01*
X132507397Y-32815407D01*
X132565827Y-32871829D01*
X132575060Y-32879096D01*
X132651894Y-32922207D01*
X132763360Y-32951365D01*
X132931760Y-32969083D01*
X133179396Y-32977872D01*
X133528570Y-32980244D01*
X134358048Y-32980244D01*
X134358048Y-32825366D01*
X134353350Y-32750959D01*
X134322873Y-32704931D01*
X134242087Y-32680986D01*
X134086460Y-32671910D01*
X133831463Y-32670488D01*
X133304878Y-32670488D01*
X133305158Y-32314268D01*
X133305438Y-31958049D01*
X133831743Y-31689242D01*
X134358048Y-31420436D01*
X134358048Y-30787852D01*
X134357911Y-30737203D01*
X134347983Y-30408715D01*
X134322966Y-30187267D01*
X134283707Y-30080927D01*
X134213645Y-30051440D01*
X134031356Y-30026239D01*
X133736448Y-30011428D01*
X133323463Y-30006585D01*
X135303727Y-30006585D01*
X135509682Y-30889390D01*
X135517489Y-30922870D01*
X135606929Y-31307810D01*
X135699566Y-31708699D01*
X135784904Y-32080011D01*
X135852448Y-32376219D01*
X135989261Y-32980244D01*
X136437436Y-32980244D01*
X136885611Y-32980244D01*
X138508780Y-32980244D01*
X139469024Y-32980244D01*
X140429268Y-32980244D01*
X140429268Y-31493414D01*
X140429268Y-30006585D01*
X141420488Y-30006585D01*
X141420488Y-31493414D01*
X141420488Y-32980244D01*
X141854146Y-32980244D01*
X142287805Y-32980244D01*
X142287805Y-32267805D01*
X142287805Y-31555366D01*
X142535609Y-31555366D01*
X142783414Y-31555366D01*
X142783414Y-32267805D01*
X142783414Y-32980244D01*
X143217073Y-32980244D01*
X143650731Y-32980244D01*
X144641951Y-32980244D01*
X145478292Y-32980244D01*
X145552462Y-32980375D01*
X145871795Y-32981499D01*
X146115864Y-32972944D01*
X146294734Y-32940444D01*
X146418471Y-32869738D01*
X146497140Y-32746559D01*
X146540806Y-32556645D01*
X146559534Y-32285732D01*
X146563390Y-31919556D01*
X146562439Y-31443853D01*
X146562428Y-31408584D01*
X146562357Y-31396975D01*
X147553658Y-31396975D01*
X147553659Y-31426606D01*
X147554077Y-31869313D01*
X147554409Y-31919556D01*
X147556298Y-32205236D01*
X147561819Y-32450544D01*
X147572139Y-32621408D01*
X147588754Y-32733996D01*
X147613162Y-32804478D01*
X147646860Y-32849024D01*
X147691345Y-32883804D01*
X147745356Y-32913184D01*
X147862414Y-32945561D01*
X148041650Y-32966180D01*
X148303595Y-32977065D01*
X148668780Y-32980244D01*
X148767359Y-32980191D01*
X149138165Y-32976089D01*
X149405690Y-32957990D01*
X149586784Y-32915545D01*
X149698301Y-32838402D01*
X149757092Y-32716209D01*
X149780008Y-32538614D01*
X149783902Y-32295267D01*
X149783902Y-31803171D01*
X149350244Y-31803171D01*
X148916585Y-31803171D01*
X148916585Y-32236829D01*
X148916585Y-32670488D01*
X148668780Y-32670488D01*
X148420975Y-32670488D01*
X148420975Y-31471316D01*
X150775122Y-31471316D01*
X150775359Y-31835497D01*
X150777191Y-32182637D01*
X150779437Y-32295267D01*
X150782246Y-32436175D01*
X150792152Y-32612794D01*
X150808535Y-32729182D01*
X150833021Y-32802022D01*
X150867237Y-32848001D01*
X150912809Y-32883804D01*
X150971701Y-32915163D01*
X151090441Y-32946610D01*
X151271822Y-32966617D01*
X151536225Y-32977168D01*
X151904028Y-32980244D01*
X151983825Y-32980393D01*
X152307252Y-32981586D01*
X152554349Y-32973072D01*
X152735336Y-32940589D01*
X152860435Y-32869880D01*
X152939867Y-32746684D01*
X152983855Y-32556743D01*
X153002620Y-32285797D01*
X153006383Y-31919587D01*
X153005366Y-31443853D01*
X153005355Y-31408584D01*
X153002444Y-30932102D01*
X152994039Y-30569969D01*
X152979657Y-30313312D01*
X152958813Y-30153256D01*
X152950065Y-30130488D01*
X153996585Y-30130488D01*
X154000219Y-30173956D01*
X154037830Y-30225760D01*
X154140409Y-30249012D01*
X154337317Y-30254390D01*
X154678048Y-30254390D01*
X154678048Y-31617317D01*
X154678048Y-31919587D01*
X154678048Y-32980244D01*
X155111707Y-32980244D01*
X155545366Y-32980244D01*
X155545366Y-31617317D01*
X155545366Y-30254390D01*
X155917073Y-30254390D01*
X156081709Y-30252112D01*
X156215639Y-30237083D01*
X156275217Y-30199690D01*
X156288780Y-30130488D01*
X157280000Y-30130488D01*
X157283386Y-30171894D01*
X157313171Y-30216537D01*
X157394148Y-30241367D01*
X157550544Y-30252084D01*
X157806585Y-30254390D01*
X158333170Y-30254390D01*
X158333170Y-30561431D01*
X158333170Y-30868473D01*
X157822073Y-31134480D01*
X157310975Y-31400488D01*
X157292988Y-32081951D01*
X157290420Y-32183365D01*
X157286489Y-32452764D01*
X157292628Y-32631092D01*
X157312516Y-32743567D01*
X157349836Y-32815407D01*
X157408266Y-32871829D01*
X157417499Y-32879096D01*
X157494333Y-32922207D01*
X157605799Y-32951365D01*
X157774199Y-32969083D01*
X158021835Y-32977872D01*
X158371009Y-32980244D01*
X159200488Y-32980244D01*
X159200488Y-32825366D01*
X159195789Y-32750959D01*
X159165312Y-32704931D01*
X159084526Y-32680986D01*
X158928899Y-32671910D01*
X158673902Y-32670488D01*
X158147317Y-32670488D01*
X158147546Y-32379296D01*
X161183158Y-32379296D01*
X161224707Y-32609654D01*
X161356724Y-32845692D01*
X161516965Y-32980244D01*
X161552606Y-33010171D01*
X161722428Y-33075166D01*
X161892289Y-33104146D01*
X162050244Y-33104146D01*
X162421951Y-33104146D01*
X162855609Y-33104146D01*
X163289268Y-33104146D01*
X163289268Y-32825366D01*
X163289268Y-32546585D01*
X162855609Y-32546585D01*
X162421951Y-32546585D01*
X162421951Y-32825366D01*
X162421951Y-33104146D01*
X162050244Y-33104146D01*
X162050244Y-32360732D01*
X162050195Y-32242307D01*
X162049381Y-32174878D01*
X162421951Y-32174878D01*
X162855609Y-32174878D01*
X163289268Y-32174878D01*
X163289268Y-31896097D01*
X163289268Y-31617317D01*
X162855609Y-31617317D01*
X162421951Y-31617317D01*
X162421951Y-31896097D01*
X162421951Y-32174878D01*
X162049381Y-32174878D01*
X162046627Y-31946779D01*
X162030437Y-31754562D01*
X161991998Y-31650042D01*
X161921684Y-31617604D01*
X161809869Y-31641634D01*
X161646927Y-31706516D01*
X161577515Y-31741545D01*
X161379648Y-31912574D01*
X161237687Y-32140402D01*
X161183158Y-32379296D01*
X158147546Y-32379296D01*
X158147597Y-32314268D01*
X158147877Y-31958049D01*
X158674182Y-31689242D01*
X159200488Y-31420436D01*
X159200488Y-30787852D01*
X159200350Y-30737203D01*
X159196976Y-30625564D01*
X160571067Y-30625564D01*
X160598448Y-30854403D01*
X160744503Y-31064521D01*
X160925591Y-31245610D01*
X162594684Y-31245610D01*
X162888772Y-31245714D01*
X163325485Y-31246853D01*
X163661990Y-31250120D01*
X163913470Y-31256579D01*
X164095112Y-31267296D01*
X164222102Y-31283332D01*
X164309624Y-31305754D01*
X164372866Y-31335625D01*
X164427011Y-31374008D01*
X164475782Y-31415893D01*
X164565893Y-31551336D01*
X164574159Y-31617317D01*
X164590244Y-31745716D01*
X164579112Y-31904327D01*
X164517379Y-32066854D01*
X164386230Y-32168866D01*
X164168451Y-32221734D01*
X163846829Y-32236829D01*
X163716158Y-32237285D01*
X163519112Y-32243506D01*
X163409223Y-32262000D01*
X163361566Y-32298998D01*
X163351219Y-32360732D01*
X163352477Y-32389046D01*
X163375000Y-32440542D01*
X163445447Y-32468959D01*
X163589126Y-32480696D01*
X163831341Y-32482154D01*
X164019078Y-32476523D01*
X164298562Y-32444565D01*
X164481050Y-32387656D01*
X164600669Y-32301511D01*
X164754674Y-32089844D01*
X164828452Y-31834156D01*
X164814107Y-31571613D01*
X164703744Y-31339384D01*
X164639201Y-31262521D01*
X164550696Y-31180976D01*
X164443199Y-31118052D01*
X164301727Y-31071360D01*
X164111292Y-31038512D01*
X163856911Y-31017121D01*
X163523598Y-31004798D01*
X163096367Y-30999155D01*
X162560233Y-30997805D01*
X162553417Y-30997805D01*
X162044263Y-30997146D01*
X161645395Y-30993581D01*
X161343360Y-30984703D01*
X161124703Y-30968110D01*
X160975972Y-30941397D01*
X160883712Y-30902159D01*
X160834469Y-30847994D01*
X160814789Y-30776495D01*
X160811219Y-30685260D01*
X160816523Y-30605123D01*
X160872194Y-30466764D01*
X161001392Y-30377855D01*
X161220031Y-30330384D01*
X161544024Y-30316341D01*
X161690393Y-30315777D01*
X161884846Y-30309278D01*
X161993186Y-30290582D01*
X162040092Y-30253649D01*
X162050244Y-30192439D01*
X162048285Y-30158837D01*
X162022920Y-30110068D01*
X161948244Y-30082879D01*
X161799408Y-30071093D01*
X161551557Y-30068536D01*
X161543082Y-30068543D01*
X161183448Y-30086866D01*
X160924733Y-30144983D01*
X160748779Y-30249628D01*
X160637427Y-30407537D01*
X160571067Y-30625564D01*
X159196976Y-30625564D01*
X159190422Y-30408715D01*
X159165405Y-30187267D01*
X159126146Y-30080927D01*
X159056084Y-30051440D01*
X158955692Y-30037561D01*
X162421951Y-30037561D01*
X162423604Y-30300036D01*
X162431980Y-30477163D01*
X162451921Y-30575227D01*
X162488266Y-30617210D01*
X162545853Y-30626097D01*
X162601111Y-30618247D01*
X162638401Y-30578460D01*
X162659046Y-30483738D01*
X162667885Y-30311100D01*
X162669756Y-30037561D01*
X163041463Y-30037561D01*
X163041463Y-30626097D01*
X163506097Y-30626097D01*
X163970731Y-30626097D01*
X163970731Y-30037561D01*
X164342439Y-30037561D01*
X164344091Y-30300036D01*
X164352468Y-30477163D01*
X164372409Y-30575227D01*
X164408754Y-30617210D01*
X164466341Y-30626097D01*
X164521599Y-30618247D01*
X164558889Y-30578460D01*
X164579534Y-30483738D01*
X164588373Y-30311100D01*
X164590244Y-30037561D01*
X164961951Y-30037561D01*
X164961951Y-30626097D01*
X165395609Y-30626097D01*
X165829268Y-30626097D01*
X165829268Y-30037561D01*
X165829268Y-29449024D01*
X165395609Y-29449024D01*
X164961951Y-29449024D01*
X164961951Y-30037561D01*
X164590244Y-30037561D01*
X164588591Y-29775086D01*
X164580215Y-29597959D01*
X164560273Y-29499895D01*
X164523928Y-29457911D01*
X164466341Y-29449024D01*
X164411083Y-29456874D01*
X164373793Y-29496662D01*
X164353148Y-29591383D01*
X164344310Y-29764022D01*
X164342439Y-30037561D01*
X163970731Y-30037561D01*
X163970731Y-29449024D01*
X163506097Y-29449024D01*
X163041463Y-29449024D01*
X163041463Y-30037561D01*
X162669756Y-30037561D01*
X162668103Y-29775086D01*
X162659727Y-29597959D01*
X162639785Y-29499895D01*
X162603441Y-29457911D01*
X162545853Y-29449024D01*
X162490596Y-29456874D01*
X162453306Y-29496662D01*
X162432661Y-29591383D01*
X162423822Y-29764022D01*
X162421951Y-30037561D01*
X158955692Y-30037561D01*
X158873795Y-30026239D01*
X158578887Y-30011428D01*
X158165902Y-30006585D01*
X158073034Y-30006616D01*
X157752202Y-30008098D01*
X157531960Y-30013732D01*
X157393462Y-30026152D01*
X157317865Y-30047995D01*
X157286325Y-30081895D01*
X157280000Y-30130488D01*
X156288780Y-30130488D01*
X156288690Y-30121888D01*
X156280948Y-30080533D01*
X156248873Y-30050463D01*
X156175870Y-30029883D01*
X156045344Y-30016999D01*
X155840700Y-30010018D01*
X155545345Y-30007144D01*
X155142683Y-30006585D01*
X155063133Y-30006595D01*
X154680604Y-30007432D01*
X154402454Y-30010899D01*
X154212088Y-30018792D01*
X154092914Y-30032903D01*
X154028335Y-30055026D01*
X154001757Y-30086957D01*
X153996585Y-30130488D01*
X152950065Y-30130488D01*
X152931024Y-30080927D01*
X152917873Y-30072271D01*
X152798539Y-30044131D01*
X152589279Y-30023267D01*
X152316793Y-30009678D01*
X152007784Y-30003364D01*
X151688955Y-30004326D01*
X151387006Y-30012563D01*
X151128639Y-30028076D01*
X150940558Y-30050864D01*
X150849463Y-30080927D01*
X150845248Y-30085958D01*
X150818731Y-30168933D01*
X150798936Y-30340037D01*
X150785388Y-30608188D01*
X150777609Y-30982308D01*
X150775122Y-31471316D01*
X148420975Y-31471316D01*
X148420975Y-31338536D01*
X148420975Y-30006585D01*
X147987317Y-30006585D01*
X147553658Y-30006585D01*
X147553658Y-31396975D01*
X146562357Y-31396975D01*
X146559517Y-30932102D01*
X146551112Y-30569969D01*
X146536730Y-30313312D01*
X146515887Y-30153256D01*
X146488097Y-30080927D01*
X146418035Y-30051440D01*
X146235747Y-30026239D01*
X145940838Y-30011428D01*
X145527853Y-30006585D01*
X145434985Y-30006616D01*
X145114154Y-30008098D01*
X144893911Y-30013732D01*
X144755413Y-30026152D01*
X144679816Y-30047995D01*
X144648277Y-30081895D01*
X144641951Y-30130488D01*
X144645337Y-30171894D01*
X144675122Y-30216537D01*
X144756099Y-30241367D01*
X144912495Y-30252084D01*
X145168536Y-30254390D01*
X145695122Y-30254390D01*
X145695122Y-31462439D01*
X145695122Y-32670488D01*
X145168536Y-32670488D01*
X144915555Y-32671870D01*
X144759057Y-32680833D01*
X144677644Y-32704594D01*
X144646786Y-32750366D01*
X144641951Y-32825366D01*
X144641951Y-32980244D01*
X143650731Y-32980244D01*
X143650731Y-31493414D01*
X143650731Y-30006585D01*
X143217073Y-30006585D01*
X142783414Y-30006585D01*
X142783414Y-30657073D01*
X142783414Y-31307561D01*
X142535609Y-31307561D01*
X142287805Y-31307561D01*
X142287805Y-30657073D01*
X142287805Y-30006585D01*
X141854146Y-30006585D01*
X141420488Y-30006585D01*
X140429268Y-30006585D01*
X139469024Y-30006585D01*
X139265722Y-30006741D01*
X138958973Y-30008819D01*
X138748608Y-30015200D01*
X138616517Y-30028220D01*
X138544589Y-30050217D01*
X138514714Y-30083527D01*
X138508780Y-30130488D01*
X138512166Y-30171894D01*
X138541952Y-30216537D01*
X138622929Y-30241367D01*
X138779324Y-30252084D01*
X139035366Y-30254390D01*
X139561951Y-30254390D01*
X139561951Y-30780975D01*
X139561951Y-31307561D01*
X139035366Y-31307561D01*
X138859387Y-31308357D01*
X138669656Y-31315366D01*
X138564129Y-31334419D01*
X138518580Y-31371218D01*
X138508780Y-31431463D01*
X138512166Y-31472870D01*
X138541952Y-31517513D01*
X138622929Y-31542342D01*
X138779324Y-31553060D01*
X139035366Y-31555366D01*
X139561951Y-31555366D01*
X139561951Y-32112927D01*
X139561951Y-32670488D01*
X139035366Y-32670488D01*
X138782384Y-32671870D01*
X138625886Y-32680833D01*
X138544474Y-32704594D01*
X138513615Y-32750366D01*
X138508780Y-32825366D01*
X138508780Y-32980244D01*
X136885611Y-32980244D01*
X136991554Y-32500122D01*
X137013658Y-32400594D01*
X137075982Y-32123188D01*
X137154526Y-31776453D01*
X137241445Y-31394963D01*
X137328896Y-31013292D01*
X137560296Y-30006585D01*
X137143561Y-30006585D01*
X136726826Y-30006585D01*
X136618444Y-30610610D01*
X136589372Y-30768298D01*
X136538718Y-31024516D01*
X136494632Y-31225796D01*
X136464233Y-31338536D01*
X136448432Y-31374375D01*
X136429241Y-31385192D01*
X136406987Y-31345294D01*
X136377855Y-31240442D01*
X136338028Y-31056399D01*
X136283691Y-30778924D01*
X136211026Y-30393780D01*
X136138514Y-30006585D01*
X135721120Y-30006585D01*
X135303727Y-30006585D01*
X133323463Y-30006585D01*
X133230595Y-30006616D01*
X132909763Y-30008098D01*
X132689521Y-30013732D01*
X132551023Y-30026152D01*
X132475426Y-30047995D01*
X132443886Y-30081895D01*
X132437561Y-30130488D01*
X131446341Y-30130488D01*
X131446341Y-30006585D01*
X131015188Y-30006585D01*
X130584035Y-30006585D01*
X130566042Y-30517683D01*
X130548048Y-31028780D01*
X130306851Y-30517683D01*
X130065653Y-30006585D01*
X129665223Y-30006585D01*
X129634821Y-30006661D01*
X129421231Y-30015086D01*
X129313414Y-30039773D01*
X129295602Y-30084024D01*
X129326566Y-30156857D01*
X129398502Y-30322101D01*
X129499073Y-30551275D01*
X129616950Y-30818481D01*
X129907487Y-31475499D01*
X129564695Y-32230527D01*
X129224313Y-32980244D01*
X129221902Y-32985555D01*
X111621951Y-32985555D01*
X111621951Y-32980244D01*
X113852195Y-32980244D01*
X114285853Y-32980244D01*
X114719512Y-32980244D01*
X114719512Y-31617317D01*
X114719512Y-30254390D01*
X114967317Y-30254390D01*
X115215122Y-30254390D01*
X115215122Y-31617317D01*
X115215122Y-32980244D01*
X115648780Y-32980244D01*
X116082439Y-32980244D01*
X116082439Y-31617317D01*
X116082439Y-30254390D01*
X116330244Y-30254390D01*
X116578048Y-30254390D01*
X116578048Y-31617317D01*
X116578048Y-32980244D01*
X117011707Y-32980244D01*
X117445366Y-32980244D01*
X117445366Y-31567756D01*
X117445216Y-31471316D01*
X118436585Y-31471316D01*
X118436822Y-31835497D01*
X118438654Y-32182637D01*
X118443710Y-32436175D01*
X118453616Y-32612794D01*
X118469998Y-32729182D01*
X118494484Y-32802022D01*
X118528700Y-32848001D01*
X118574272Y-32883804D01*
X118633165Y-32915163D01*
X118751904Y-32946610D01*
X118933286Y-32966617D01*
X119197688Y-32977168D01*
X119565492Y-32980244D01*
X119645288Y-32980393D01*
X119968716Y-32981586D01*
X120215812Y-32973072D01*
X120396799Y-32940589D01*
X120521898Y-32869880D01*
X120601331Y-32746684D01*
X120645319Y-32556743D01*
X120664083Y-32285797D01*
X120667846Y-31919587D01*
X120666829Y-31443853D01*
X120666818Y-31408584D01*
X120663907Y-30932102D01*
X120655503Y-30569969D01*
X120641120Y-30313312D01*
X120620277Y-30153256D01*
X120611529Y-30130488D01*
X121658048Y-30130488D01*
X121661434Y-30171894D01*
X121691220Y-30216537D01*
X121772197Y-30241367D01*
X121928593Y-30252084D01*
X122184634Y-30254390D01*
X122711219Y-30254390D01*
X122711219Y-31462439D01*
X122711219Y-31919587D01*
X122711219Y-32670488D01*
X122184634Y-32670488D01*
X121931653Y-32671870D01*
X121775155Y-32680833D01*
X121693742Y-32704594D01*
X121662883Y-32750366D01*
X121658048Y-32825366D01*
X121658048Y-32980244D01*
X122494390Y-32980244D01*
X122568559Y-32980375D01*
X122887892Y-32981499D01*
X122923696Y-32980244D01*
X124569756Y-32980244D01*
X124941463Y-32980244D01*
X125313170Y-32980244D01*
X125313170Y-32701463D01*
X125313170Y-32422683D01*
X124941463Y-32422683D01*
X124569756Y-32422683D01*
X124569756Y-32701463D01*
X124569756Y-32980244D01*
X122923696Y-32980244D01*
X123131961Y-32972944D01*
X123310832Y-32940444D01*
X123434569Y-32869738D01*
X123513238Y-32746559D01*
X123556904Y-32556645D01*
X123575632Y-32285732D01*
X123579488Y-31919556D01*
X123578536Y-31443853D01*
X123578526Y-31408584D01*
X123575615Y-30932102D01*
X123567210Y-30569969D01*
X123552828Y-30313312D01*
X123531984Y-30153256D01*
X123523236Y-30130488D01*
X126304390Y-30130488D01*
X126304496Y-30139389D01*
X126326573Y-30212620D01*
X126408955Y-30246283D01*
X126583170Y-30254390D01*
X126861951Y-30254390D01*
X126861951Y-31462439D01*
X126861951Y-31919556D01*
X126861951Y-32422683D01*
X126861951Y-32670488D01*
X126583170Y-32670488D01*
X126507977Y-32671079D01*
X126372741Y-32684513D01*
X126315945Y-32729794D01*
X126304390Y-32825366D01*
X126304390Y-32980244D01*
X127295609Y-32980244D01*
X128286829Y-32980244D01*
X128286829Y-32825366D01*
X128285764Y-32783592D01*
X128261584Y-32708461D01*
X128180078Y-32676907D01*
X128008048Y-32670488D01*
X127729268Y-32670488D01*
X127729268Y-31462439D01*
X127729268Y-30254390D01*
X128008048Y-30254390D01*
X128028076Y-30254343D01*
X128192847Y-30244531D01*
X128268588Y-30207917D01*
X128286829Y-30130488D01*
X128284945Y-30099490D01*
X128266369Y-30061816D01*
X128213041Y-30035990D01*
X128107131Y-30019782D01*
X127930808Y-30010965D01*
X127666244Y-30007309D01*
X127295609Y-30006585D01*
X127047626Y-30006821D01*
X126746236Y-30009143D01*
X126539626Y-30015809D01*
X126409966Y-30029047D01*
X126339426Y-30051088D01*
X126310177Y-30084158D01*
X126304390Y-30130488D01*
X123523236Y-30130488D01*
X123504195Y-30080927D01*
X123434133Y-30051440D01*
X123251844Y-30026239D01*
X122956936Y-30011428D01*
X122543951Y-30006585D01*
X122451082Y-30006616D01*
X122130251Y-30008098D01*
X121910009Y-30013732D01*
X121771511Y-30026152D01*
X121695914Y-30047995D01*
X121664374Y-30081895D01*
X121658048Y-30130488D01*
X120611529Y-30130488D01*
X120592488Y-30080927D01*
X120579337Y-30072271D01*
X120460003Y-30044131D01*
X120250742Y-30023267D01*
X119978257Y-30009678D01*
X119669248Y-30003364D01*
X119350418Y-30004326D01*
X119048469Y-30012563D01*
X118790103Y-30028076D01*
X118602021Y-30050864D01*
X118510927Y-30080927D01*
X118506711Y-30085958D01*
X118480194Y-30168933D01*
X118460400Y-30340037D01*
X118446851Y-30608188D01*
X118439072Y-30982308D01*
X118436585Y-31471316D01*
X117445216Y-31471316D01*
X117445040Y-31358537D01*
X117441021Y-30898383D01*
X117432060Y-30549561D01*
X117417708Y-30303055D01*
X117397513Y-30149849D01*
X117371024Y-30080927D01*
X117357266Y-30073162D01*
X117238748Y-30050736D01*
X117022727Y-30032506D01*
X116729324Y-30018470D01*
X116378661Y-30008630D01*
X115990858Y-30002984D01*
X115586038Y-30001534D01*
X115184321Y-30004278D01*
X114805829Y-30011218D01*
X114470684Y-30022352D01*
X114199005Y-30037682D01*
X114010916Y-30057207D01*
X113926536Y-30080927D01*
X113915542Y-30098107D01*
X113891535Y-30198480D01*
X113873647Y-30386615D01*
X113861429Y-30671528D01*
X113854428Y-31062237D01*
X113852195Y-31567756D01*
X113852195Y-32980244D01*
X111621951Y-32980244D01*
X111621951Y-30780975D01*
X111621951Y-28488780D01*
X161182927Y-28488780D01*
X161184579Y-28751255D01*
X161192956Y-28928382D01*
X161212897Y-29026446D01*
X161249242Y-29068430D01*
X161306829Y-29077317D01*
X161362087Y-29069467D01*
X161399377Y-29029679D01*
X161420022Y-28934958D01*
X161428860Y-28762319D01*
X161430731Y-28488780D01*
X161802439Y-28488780D01*
X161804091Y-28751255D01*
X161812468Y-28928382D01*
X161832409Y-29026446D01*
X161868754Y-29068430D01*
X161926341Y-29077317D01*
X161981599Y-29069467D01*
X162018889Y-29029679D01*
X162039534Y-28934958D01*
X162048373Y-28762319D01*
X162050244Y-28488780D01*
X162421951Y-28488780D01*
X162421951Y-29077317D01*
X162886585Y-29077317D01*
X163351219Y-29077317D01*
X163351219Y-28488780D01*
X163722927Y-28488780D01*
X163724579Y-28751255D01*
X163732956Y-28928382D01*
X163752897Y-29026446D01*
X163789242Y-29068430D01*
X163846829Y-29077317D01*
X163902087Y-29069467D01*
X163939377Y-29029679D01*
X163960022Y-28934958D01*
X163968860Y-28762319D01*
X163970731Y-28488780D01*
X164342439Y-28488780D01*
X164342439Y-29077317D01*
X164776097Y-29077317D01*
X165209756Y-29077317D01*
X165209756Y-28488780D01*
X165581463Y-28488780D01*
X165583116Y-28751255D01*
X165591492Y-28928382D01*
X165611433Y-29026446D01*
X165647778Y-29068430D01*
X165705366Y-29077317D01*
X165760623Y-29069467D01*
X165797913Y-29029679D01*
X165818558Y-28934958D01*
X165827397Y-28762319D01*
X165829268Y-28488780D01*
X165827615Y-28226305D01*
X165819239Y-28049178D01*
X165799298Y-27951114D01*
X165762953Y-27909131D01*
X165705366Y-27900244D01*
X165650108Y-27908094D01*
X165612818Y-27947882D01*
X165592173Y-28042603D01*
X165583334Y-28215241D01*
X165581463Y-28488780D01*
X165209756Y-28488780D01*
X165209756Y-27900244D01*
X164776097Y-27900244D01*
X164342439Y-27900244D01*
X164342439Y-28488780D01*
X163970731Y-28488780D01*
X163969079Y-28226305D01*
X163960702Y-28049178D01*
X163940761Y-27951114D01*
X163904416Y-27909131D01*
X163846829Y-27900244D01*
X163791571Y-27908094D01*
X163754281Y-27947882D01*
X163733636Y-28042603D01*
X163724798Y-28215241D01*
X163722927Y-28488780D01*
X163351219Y-28488780D01*
X163351219Y-27900244D01*
X162886585Y-27900244D01*
X162421951Y-27900244D01*
X162421951Y-28488780D01*
X162050244Y-28488780D01*
X162048591Y-28226305D01*
X162040215Y-28049178D01*
X162020273Y-27951114D01*
X161983928Y-27909131D01*
X161926341Y-27900244D01*
X161871083Y-27908094D01*
X161833793Y-27947882D01*
X161813148Y-28042603D01*
X161804310Y-28215241D01*
X161802439Y-28488780D01*
X161430731Y-28488780D01*
X161429079Y-28226305D01*
X161420702Y-28049178D01*
X161400761Y-27951114D01*
X161364416Y-27909131D01*
X161306829Y-27900244D01*
X161251571Y-27908094D01*
X161214281Y-27947882D01*
X161193636Y-28042603D01*
X161184798Y-28215241D01*
X161182927Y-28488780D01*
X111621951Y-28488780D01*
X111621951Y-27280732D01*
X139500000Y-27280732D01*
X167378048Y-27280732D01*
X167378048Y-28488780D01*
X167378048Y-29449024D01*
G37*
%TD*%
M02*
