%TF.GenerationSoftware,KiCad,Pcbnew,7.0.8*%
%TF.CreationDate,2024-02-20T10:29:57+01:00*%
%TF.ProjectId,stopwatchy,73746f70-7761-4746-9368-792e6b696361,rev?*%
%TF.SameCoordinates,Original*%
%TF.FileFunction,Drillmap*%
%TF.FilePolarity,Positive*%
%FSLAX45Y45*%
G04 Gerber Fmt 4.5, Leading zero omitted, Abs format (unit mm)*
G04 Created by KiCad (PCBNEW 7.0.8) date 2024-02-20 10:29:57*
%MOMM*%
%LPD*%
G01*
G04 APERTURE LIST*
%ADD10C,0.100000*%
%ADD11C,0.200000*%
%ADD12C,0.030000*%
%ADD13C,0.040000*%
%ADD14C,0.050000*%
%ADD15C,0.090000*%
%ADD16C,0.110000*%
%ADD17C,0.130000*%
%ADD18C,0.150000*%
%ADD19C,0.180000*%
G04 APERTURE END LIST*
D10*
X11075000Y-2400000D02*
X16875000Y-2400000D01*
X10475000Y-3000000D02*
X10475000Y-11500000D01*
X11075000Y-2400000D02*
G75*
G03*
X10475000Y-3000000I0J-600000D01*
G01*
X11075000Y-12100000D02*
X16875000Y-12100000D01*
X16875000Y-12100000D02*
G75*
G03*
X17475000Y-11500000I0J600000D01*
G01*
X17475000Y-11500000D02*
X17475000Y-3000000D01*
X17475000Y-3000000D02*
G75*
G03*
X16875000Y-2400000I-600000J0D01*
G01*
X10475000Y-11500000D02*
G75*
G03*
X11075000Y-12100000I600000J0D01*
G01*
D11*
D12*
X11305000Y-10595000D02*
X11335000Y-10625000D01*
X11335000Y-10595000D02*
X11305000Y-10625000D01*
X12285000Y-11085000D02*
X12315000Y-11115000D01*
X12315000Y-11085000D02*
X12285000Y-11115000D01*
X12295000Y-11255000D02*
X12325000Y-11285000D01*
X12325000Y-11255000D02*
X12295000Y-11285000D01*
X12625000Y-11195000D02*
X12655000Y-11225000D01*
X12655000Y-11195000D02*
X12625000Y-11225000D01*
X12695000Y-11255000D02*
X12725000Y-11285000D01*
X12725000Y-11255000D02*
X12695000Y-11285000D01*
X12715000Y-10745000D02*
X12745000Y-10775000D01*
X12745000Y-10745000D02*
X12715000Y-10775000D01*
X12785000Y-11105000D02*
X12815000Y-11135000D01*
X12815000Y-11105000D02*
X12785000Y-11135000D01*
X12785000Y-11559950D02*
X12815000Y-11589950D01*
X12815000Y-11559950D02*
X12785000Y-11589950D01*
X12865000Y-11335000D02*
X12895000Y-11365000D01*
X12895000Y-11335000D02*
X12865000Y-11365000D01*
X13245000Y-11075050D02*
X13275000Y-11105050D01*
X13275000Y-11075050D02*
X13245000Y-11105050D01*
X13335000Y-11095000D02*
X13365000Y-11125000D01*
X13365000Y-11095000D02*
X13335000Y-11125000D01*
X13345000Y-11210000D02*
X13375000Y-11240000D01*
X13375000Y-11210000D02*
X13345000Y-11240000D01*
X13423750Y-10135000D02*
X13453750Y-10165000D01*
X13453750Y-10135000D02*
X13423750Y-10165000D01*
X13435000Y-11285000D02*
X13465000Y-11315000D01*
X13465000Y-11285000D02*
X13435000Y-11315000D01*
X13535000Y-11360000D02*
X13565000Y-11390000D01*
X13565000Y-11360000D02*
X13535000Y-11390000D01*
X13605000Y-11050050D02*
X13635000Y-11080050D01*
X13635000Y-11050050D02*
X13605000Y-11080050D01*
X13623750Y-10355000D02*
X13653750Y-10385000D01*
X13653750Y-10355000D02*
X13623750Y-10385000D01*
X14025000Y-9635000D02*
X14055000Y-9665000D01*
X14055000Y-9635000D02*
X14025000Y-9665000D01*
X14135000Y-10615000D02*
X14165000Y-10645000D01*
X14165000Y-10615000D02*
X14135000Y-10645000D01*
X14185000Y-5045000D02*
X14215000Y-5075000D01*
X14215000Y-5045000D02*
X14185000Y-5075000D01*
X14215000Y-10135000D02*
X14245000Y-10165000D01*
X14245000Y-10135000D02*
X14215000Y-10165000D01*
X14215000Y-10345000D02*
X14245000Y-10375000D01*
X14245000Y-10345000D02*
X14215000Y-10375000D01*
X14485000Y-5510000D02*
X14515000Y-5540000D01*
X14515000Y-5510000D02*
X14485000Y-5540000D01*
X14485000Y-5910000D02*
X14515000Y-5940000D01*
X14515000Y-5910000D02*
X14485000Y-5940000D01*
X14585000Y-5310000D02*
X14615000Y-5340000D01*
X14615000Y-5310000D02*
X14585000Y-5340000D01*
X14685000Y-5135000D02*
X14715000Y-5165000D01*
X14715000Y-5135000D02*
X14685000Y-5165000D01*
X14697591Y-5909327D02*
X14727591Y-5939327D01*
X14727591Y-5909327D02*
X14697591Y-5939327D01*
X14855000Y-5045000D02*
X14885000Y-5075000D01*
X14885000Y-5045000D02*
X14855000Y-5075000D01*
X14909754Y-5907163D02*
X14939754Y-5937163D01*
X14939754Y-5907163D02*
X14909754Y-5937163D01*
X15985000Y-10967500D02*
X16015000Y-10997500D01*
X16015000Y-10967500D02*
X15985000Y-10997500D01*
X16275000Y-6105000D02*
X16305000Y-6135000D01*
X16305000Y-6105000D02*
X16275000Y-6135000D01*
X16755000Y-6045000D02*
X16785000Y-6075000D01*
X16785000Y-6045000D02*
X16755000Y-6075000D01*
D13*
X10780000Y-8320000D02*
G75*
G03*
X10780000Y-8320000I-20000J0D01*
G01*
X10780000Y-8600000D02*
G75*
G03*
X10780000Y-8600000I-20000J0D01*
G01*
X10780000Y-8860000D02*
G75*
G03*
X10780000Y-8860000I-20000J0D01*
G01*
X10780000Y-9140000D02*
G75*
G03*
X10780000Y-9140000I-20000J0D01*
G01*
X10780000Y-9400000D02*
G75*
G03*
X10780000Y-9400000I-20000J0D01*
G01*
X10780000Y-9660000D02*
G75*
G03*
X10780000Y-9660000I-20000J0D01*
G01*
X10870000Y-3770000D02*
G75*
G03*
X10870000Y-3770000I-20000J0D01*
G01*
X10870000Y-4050000D02*
G75*
G03*
X10870000Y-4050000I-20000J0D01*
G01*
X10870000Y-4310000D02*
G75*
G03*
X10870000Y-4310000I-20000J0D01*
G01*
X10870000Y-4570000D02*
G75*
G03*
X10870000Y-4570000I-20000J0D01*
G01*
X10870000Y-4850000D02*
G75*
G03*
X10870000Y-4850000I-20000J0D01*
G01*
X10870000Y-5110000D02*
G75*
G03*
X10870000Y-5110000I-20000J0D01*
G01*
X10870000Y-5370000D02*
G75*
G03*
X10870000Y-5370000I-20000J0D01*
G01*
X10870000Y-5650000D02*
G75*
G03*
X10870000Y-5650000I-20000J0D01*
G01*
X10870000Y-5910000D02*
G75*
G03*
X10870000Y-5910000I-20000J0D01*
G01*
X10870000Y-6220000D02*
G75*
G03*
X10870000Y-6220000I-20000J0D01*
G01*
X10870000Y-6500000D02*
G75*
G03*
X10870000Y-6500000I-20000J0D01*
G01*
X10870000Y-6760000D02*
G75*
G03*
X10870000Y-6760000I-20000J0D01*
G01*
X10870000Y-7050000D02*
G75*
G03*
X10870000Y-7050000I-20000J0D01*
G01*
X10880000Y-7320000D02*
G75*
G03*
X10880000Y-7320000I-20000J0D01*
G01*
X10880000Y-7600000D02*
G75*
G03*
X10880000Y-7600000I-20000J0D01*
G01*
X10880000Y-7860000D02*
G75*
G03*
X10880000Y-7860000I-20000J0D01*
G01*
X10880000Y-10480000D02*
G75*
G03*
X10880000Y-10480000I-20000J0D01*
G01*
X10920000Y-11750000D02*
G75*
G03*
X10920000Y-11750000I-20000J0D01*
G01*
X11210000Y-3770000D02*
G75*
G03*
X11210000Y-3770000I-20000J0D01*
G01*
X11210000Y-4050000D02*
G75*
G03*
X11210000Y-4050000I-20000J0D01*
G01*
X11210000Y-4310000D02*
G75*
G03*
X11210000Y-4310000I-20000J0D01*
G01*
X11210000Y-4570000D02*
G75*
G03*
X11210000Y-4570000I-20000J0D01*
G01*
X11210000Y-4850000D02*
G75*
G03*
X11210000Y-4850000I-20000J0D01*
G01*
X11210000Y-5110000D02*
G75*
G03*
X11210000Y-5110000I-20000J0D01*
G01*
X11210000Y-5370000D02*
G75*
G03*
X11210000Y-5370000I-20000J0D01*
G01*
X11210000Y-5650000D02*
G75*
G03*
X11210000Y-5650000I-20000J0D01*
G01*
X11210000Y-5910000D02*
G75*
G03*
X11210000Y-5910000I-20000J0D01*
G01*
X11210000Y-6220000D02*
G75*
G03*
X11210000Y-6220000I-20000J0D01*
G01*
X11210000Y-6500000D02*
G75*
G03*
X11210000Y-6500000I-20000J0D01*
G01*
X11210000Y-6760000D02*
G75*
G03*
X11210000Y-6760000I-20000J0D01*
G01*
X11220000Y-7030000D02*
G75*
G03*
X11220000Y-7030000I-20000J0D01*
G01*
X11220000Y-7320000D02*
G75*
G03*
X11220000Y-7320000I-20000J0D01*
G01*
X11220000Y-7600000D02*
G75*
G03*
X11220000Y-7600000I-20000J0D01*
G01*
X11220000Y-7860000D02*
G75*
G03*
X11220000Y-7860000I-20000J0D01*
G01*
X11220000Y-11750000D02*
G75*
G03*
X11220000Y-11750000I-20000J0D01*
G01*
X11340000Y-10500000D02*
G75*
G03*
X11340000Y-10500000I-20000J0D01*
G01*
X11510000Y-10700000D02*
G75*
G03*
X11510000Y-10700000I-20000J0D01*
G01*
X11520000Y-10047500D02*
G75*
G03*
X11520000Y-10047500I-20000J0D01*
G01*
X11520000Y-10520000D02*
G75*
G03*
X11520000Y-10520000I-20000J0D01*
G01*
X11520000Y-10960000D02*
G75*
G03*
X11520000Y-10960000I-20000J0D01*
G01*
X11520000Y-11160000D02*
G75*
G03*
X11520000Y-11160000I-20000J0D01*
G01*
X11520000Y-11380000D02*
G75*
G03*
X11520000Y-11380000I-20000J0D01*
G01*
X11520000Y-11750000D02*
G75*
G03*
X11520000Y-11750000I-20000J0D01*
G01*
X11540000Y-7320000D02*
G75*
G03*
X11540000Y-7320000I-20000J0D01*
G01*
X11540000Y-7600000D02*
G75*
G03*
X11540000Y-7600000I-20000J0D01*
G01*
X11540000Y-7860000D02*
G75*
G03*
X11540000Y-7860000I-20000J0D01*
G01*
X11560000Y-9680000D02*
G75*
G03*
X11560000Y-9680000I-20000J0D01*
G01*
X11560000Y-9880000D02*
G75*
G03*
X11560000Y-9880000I-20000J0D01*
G01*
X11560000Y-10220000D02*
G75*
G03*
X11560000Y-10220000I-20000J0D01*
G01*
X11570000Y-10400000D02*
G75*
G03*
X11570000Y-10400000I-20000J0D01*
G01*
X11600000Y-7000000D02*
G75*
G03*
X11600000Y-7000000I-20000J0D01*
G01*
X11730000Y-11160000D02*
G75*
G03*
X11730000Y-11160000I-20000J0D01*
G01*
X11740000Y-11380000D02*
G75*
G03*
X11740000Y-11380000I-20000J0D01*
G01*
X11780000Y-6780000D02*
G75*
G03*
X11780000Y-6780000I-20000J0D01*
G01*
X11820000Y-7400000D02*
G75*
G03*
X11820000Y-7400000I-20000J0D01*
G01*
X11820000Y-11750000D02*
G75*
G03*
X11820000Y-11750000I-20000J0D01*
G01*
X11830000Y-10940000D02*
G75*
G03*
X11830000Y-10940000I-20000J0D01*
G01*
X11920000Y-9680000D02*
G75*
G03*
X11920000Y-9680000I-20000J0D01*
G01*
X11945000Y-10525000D02*
G75*
G03*
X11945000Y-10525000I-20000J0D01*
G01*
X11960000Y-7680000D02*
G75*
G03*
X11960000Y-7680000I-20000J0D01*
G01*
X11980000Y-7400000D02*
G75*
G03*
X11980000Y-7400000I-20000J0D01*
G01*
X11980000Y-11150000D02*
G75*
G03*
X11980000Y-11150000I-20000J0D01*
G01*
X12100000Y-6780000D02*
G75*
G03*
X12100000Y-6780000I-20000J0D01*
G01*
X12120000Y-11380000D02*
G75*
G03*
X12120000Y-11380000I-20000J0D01*
G01*
X12120000Y-11750000D02*
G75*
G03*
X12120000Y-11750000I-20000J0D01*
G01*
X12140000Y-7200000D02*
G75*
G03*
X12140000Y-7200000I-20000J0D01*
G01*
X12200000Y-9680000D02*
G75*
G03*
X12200000Y-9680000I-20000J0D01*
G01*
X12230000Y-11190000D02*
G75*
G03*
X12230000Y-11190000I-20000J0D01*
G01*
X12310000Y-11360000D02*
G75*
G03*
X12310000Y-11360000I-20000J0D01*
G01*
X12345000Y-10450000D02*
G75*
G03*
X12345000Y-10450000I-20000J0D01*
G01*
X12380000Y-8270000D02*
G75*
G03*
X12380000Y-8270000I-20000J0D01*
G01*
X12420000Y-11750000D02*
G75*
G03*
X12420000Y-11750000I-20000J0D01*
G01*
X12460000Y-6780000D02*
G75*
G03*
X12460000Y-6780000I-20000J0D01*
G01*
X12460000Y-9680000D02*
G75*
G03*
X12460000Y-9680000I-20000J0D01*
G01*
X12508750Y-10100000D02*
G75*
G03*
X12508750Y-10100000I-20000J0D01*
G01*
X12720000Y-11750000D02*
G75*
G03*
X12720000Y-11750000I-20000J0D01*
G01*
X12730000Y-11590000D02*
G75*
G03*
X12730000Y-11590000I-20000J0D01*
G01*
X12750000Y-10670000D02*
G75*
G03*
X12750000Y-10670000I-20000J0D01*
G01*
X12750000Y-10950000D02*
G75*
G03*
X12750000Y-10950000I-20000J0D01*
G01*
X12780000Y-6780000D02*
G75*
G03*
X12780000Y-6780000I-20000J0D01*
G01*
X12780000Y-8130000D02*
G75*
G03*
X12780000Y-8130000I-20000J0D01*
G01*
X12780000Y-8500000D02*
G75*
G03*
X12780000Y-8500000I-20000J0D01*
G01*
X12783750Y-9135000D02*
G75*
G03*
X12783750Y-9135000I-20000J0D01*
G01*
X12790000Y-9540000D02*
G75*
G03*
X12790000Y-9540000I-20000J0D01*
G01*
X12900000Y-11260000D02*
G75*
G03*
X12900000Y-11260000I-20000J0D01*
G01*
X12910000Y-11100000D02*
G75*
G03*
X12910000Y-11100000I-20000J0D01*
G01*
X13020000Y-11750000D02*
G75*
G03*
X13020000Y-11750000I-20000J0D01*
G01*
X13050000Y-8500000D02*
G75*
G03*
X13050000Y-8500000I-20000J0D01*
G01*
X13060000Y-9610000D02*
G75*
G03*
X13060000Y-9610000I-20000J0D01*
G01*
X13100000Y-8130000D02*
G75*
G03*
X13100000Y-8130000I-20000J0D01*
G01*
X13140000Y-6780000D02*
G75*
G03*
X13140000Y-6780000I-20000J0D01*
G01*
X13210000Y-9840000D02*
G75*
G03*
X13210000Y-9840000I-20000J0D01*
G01*
X13300000Y-10520000D02*
G75*
G03*
X13300000Y-10520000I-20000J0D01*
G01*
X13320000Y-11750000D02*
G75*
G03*
X13320000Y-11750000I-20000J0D01*
G01*
X13420000Y-8950000D02*
G75*
G03*
X13420000Y-8950000I-20000J0D01*
G01*
X13460000Y-6780000D02*
G75*
G03*
X13460000Y-6780000I-20000J0D01*
G01*
X13460000Y-7220000D02*
G75*
G03*
X13460000Y-7220000I-20000J0D01*
G01*
X13500000Y-9620000D02*
G75*
G03*
X13500000Y-9620000I-20000J0D01*
G01*
X13520000Y-9170000D02*
G75*
G03*
X13520000Y-9170000I-20000J0D01*
G01*
X13520000Y-9290000D02*
G75*
G03*
X13520000Y-9290000I-20000J0D01*
G01*
X13560000Y-10270000D02*
G75*
G03*
X13560000Y-10270000I-20000J0D01*
G01*
X13620000Y-11750000D02*
G75*
G03*
X13620000Y-11750000I-20000J0D01*
G01*
X13720000Y-8950000D02*
G75*
G03*
X13720000Y-8950000I-20000J0D01*
G01*
X13720000Y-9420000D02*
G75*
G03*
X13720000Y-9420000I-20000J0D01*
G01*
X13760000Y-10250000D02*
G75*
G03*
X13760000Y-10250000I-20000J0D01*
G01*
X13770000Y-10680000D02*
G75*
G03*
X13770000Y-10680000I-20000J0D01*
G01*
X13770000Y-10850000D02*
G75*
G03*
X13770000Y-10850000I-20000J0D01*
G01*
X13850000Y-6780000D02*
G75*
G03*
X13850000Y-6780000I-20000J0D01*
G01*
X13850000Y-7220000D02*
G75*
G03*
X13850000Y-7220000I-20000J0D01*
G01*
X13920000Y-11750000D02*
G75*
G03*
X13920000Y-11750000I-20000J0D01*
G01*
X13960000Y-9650000D02*
G75*
G03*
X13960000Y-9650000I-20000J0D01*
G01*
X13960000Y-10250000D02*
G75*
G03*
X13960000Y-10250000I-20000J0D01*
G01*
X13960000Y-10460000D02*
G75*
G03*
X13960000Y-10460000I-20000J0D01*
G01*
X13990000Y-5540000D02*
G75*
G03*
X13990000Y-5540000I-20000J0D01*
G01*
X13990000Y-5810000D02*
G75*
G03*
X13990000Y-5810000I-20000J0D01*
G01*
X13990000Y-6110000D02*
G75*
G03*
X13990000Y-6110000I-20000J0D01*
G01*
X14000000Y-5310000D02*
G75*
G03*
X14000000Y-5310000I-20000J0D01*
G01*
X14030000Y-8950000D02*
G75*
G03*
X14030000Y-8950000I-20000J0D01*
G01*
X14030000Y-9240000D02*
G75*
G03*
X14030000Y-9240000I-20000J0D01*
G01*
X14040000Y-11540000D02*
G75*
G03*
X14040000Y-11540000I-20000J0D01*
G01*
X14200000Y-5160000D02*
G75*
G03*
X14200000Y-5160000I-20000J0D01*
G01*
X14210000Y-6620000D02*
G75*
G03*
X14210000Y-6620000I-20000J0D01*
G01*
X14210000Y-6960000D02*
G75*
G03*
X14210000Y-6960000I-20000J0D01*
G01*
X14210000Y-7360000D02*
G75*
G03*
X14210000Y-7360000I-20000J0D01*
G01*
X14210000Y-7640000D02*
G75*
G03*
X14210000Y-7640000I-20000J0D01*
G01*
X14210000Y-7900000D02*
G75*
G03*
X14210000Y-7900000I-20000J0D01*
G01*
X14210000Y-10780000D02*
G75*
G03*
X14210000Y-10780000I-20000J0D01*
G01*
X14220000Y-11540000D02*
G75*
G03*
X14220000Y-11540000I-20000J0D01*
G01*
X14220000Y-11750000D02*
G75*
G03*
X14220000Y-11750000I-20000J0D01*
G01*
X14240000Y-5930000D02*
G75*
G03*
X14240000Y-5930000I-20000J0D01*
G01*
X14250000Y-10470000D02*
G75*
G03*
X14250000Y-10470000I-20000J0D01*
G01*
X14253986Y-10254514D02*
G75*
G03*
X14253986Y-10254514I-20000J0D01*
G01*
X14399081Y-4900919D02*
G75*
G03*
X14399081Y-4900919I-20000J0D01*
G01*
X14410000Y-5530000D02*
G75*
G03*
X14410000Y-5530000I-20000J0D01*
G01*
X14410000Y-5860000D02*
G75*
G03*
X14410000Y-5860000I-20000J0D01*
G01*
X14510000Y-5330000D02*
G75*
G03*
X14510000Y-5330000I-20000J0D01*
G01*
X14520000Y-11750000D02*
G75*
G03*
X14520000Y-11750000I-20000J0D01*
G01*
X14590000Y-4710000D02*
G75*
G03*
X14590000Y-4710000I-20000J0D01*
G01*
X14610000Y-5150000D02*
G75*
G03*
X14610000Y-5150000I-20000J0D01*
G01*
X14610000Y-11430000D02*
G75*
G03*
X14610000Y-11430000I-20000J0D01*
G01*
X14625380Y-5970000D02*
G75*
G03*
X14625380Y-5970000I-20000J0D01*
G01*
X14820000Y-11500000D02*
G75*
G03*
X14820000Y-11500000I-20000J0D01*
G01*
X14820000Y-11750000D02*
G75*
G03*
X14820000Y-11750000I-20000J0D01*
G01*
X14838961Y-5870000D02*
G75*
G03*
X14838961Y-5870000I-20000J0D01*
G01*
X14860000Y-8580000D02*
G75*
G03*
X14860000Y-8580000I-20000J0D01*
G01*
X14860000Y-8930000D02*
G75*
G03*
X14860000Y-8930000I-20000J0D01*
G01*
X14860000Y-9200000D02*
G75*
G03*
X14860000Y-9200000I-20000J0D01*
G01*
X14880000Y-6370000D02*
G75*
G03*
X14880000Y-6370000I-20000J0D01*
G01*
X14880000Y-6640000D02*
G75*
G03*
X14880000Y-6640000I-20000J0D01*
G01*
X14880000Y-6940000D02*
G75*
G03*
X14880000Y-6940000I-20000J0D01*
G01*
X14880000Y-7360000D02*
G75*
G03*
X14880000Y-7360000I-20000J0D01*
G01*
X14880000Y-7640000D02*
G75*
G03*
X14880000Y-7640000I-20000J0D01*
G01*
X14880000Y-7900000D02*
G75*
G03*
X14880000Y-7900000I-20000J0D01*
G01*
X14880000Y-9660000D02*
G75*
G03*
X14880000Y-9660000I-20000J0D01*
G01*
X14880000Y-9900000D02*
G75*
G03*
X14880000Y-9900000I-20000J0D01*
G01*
X14880000Y-10120000D02*
G75*
G03*
X14880000Y-10120000I-20000J0D01*
G01*
X14880000Y-10360000D02*
G75*
G03*
X14880000Y-10360000I-20000J0D01*
G01*
X14970000Y-4640000D02*
G75*
G03*
X14970000Y-4640000I-20000J0D01*
G01*
X14970000Y-4840000D02*
G75*
G03*
X14970000Y-4840000I-20000J0D01*
G01*
X15000000Y-8400000D02*
G75*
G03*
X15000000Y-8400000I-20000J0D01*
G01*
X15020000Y-11300000D02*
G75*
G03*
X15020000Y-11300000I-20000J0D01*
G01*
X15050000Y-5970000D02*
G75*
G03*
X15050000Y-5970000I-20000J0D01*
G01*
X15085061Y-6150797D02*
G75*
G03*
X15085061Y-6150797I-20000J0D01*
G01*
X15100000Y-5750000D02*
G75*
G03*
X15100000Y-5750000I-20000J0D01*
G01*
X15110000Y-5010000D02*
G75*
G03*
X15110000Y-5010000I-20000J0D01*
G01*
X15110000Y-5180000D02*
G75*
G03*
X15110000Y-5180000I-20000J0D01*
G01*
X15110000Y-5370000D02*
G75*
G03*
X15110000Y-5370000I-20000J0D01*
G01*
X15110000Y-5540000D02*
G75*
G03*
X15110000Y-5540000I-20000J0D01*
G01*
X15120000Y-11500000D02*
G75*
G03*
X15120000Y-11500000I-20000J0D01*
G01*
X15120000Y-11750000D02*
G75*
G03*
X15120000Y-11750000I-20000J0D01*
G01*
X15200000Y-7360000D02*
G75*
G03*
X15200000Y-7360000I-20000J0D01*
G01*
X15200000Y-7640000D02*
G75*
G03*
X15200000Y-7640000I-20000J0D01*
G01*
X15200000Y-7900000D02*
G75*
G03*
X15200000Y-7900000I-20000J0D01*
G01*
X15210000Y-9210000D02*
G75*
G03*
X15210000Y-9210000I-20000J0D01*
G01*
X15240000Y-4640000D02*
G75*
G03*
X15240000Y-4640000I-20000J0D01*
G01*
X15240000Y-4840000D02*
G75*
G03*
X15240000Y-4840000I-20000J0D01*
G01*
X15260000Y-9880000D02*
G75*
G03*
X15260000Y-9880000I-20000J0D01*
G01*
X15280000Y-8920000D02*
G75*
G03*
X15280000Y-8920000I-20000J0D01*
G01*
X15360000Y-5010000D02*
G75*
G03*
X15360000Y-5010000I-20000J0D01*
G01*
X15360000Y-5180000D02*
G75*
G03*
X15360000Y-5180000I-20000J0D01*
G01*
X15360000Y-5360000D02*
G75*
G03*
X15360000Y-5360000I-20000J0D01*
G01*
X15360000Y-5540000D02*
G75*
G03*
X15360000Y-5540000I-20000J0D01*
G01*
X15420000Y-11750000D02*
G75*
G03*
X15420000Y-11750000I-20000J0D01*
G01*
X15500000Y-9880000D02*
G75*
G03*
X15500000Y-9880000I-20000J0D01*
G01*
X15520000Y-7360000D02*
G75*
G03*
X15520000Y-7360000I-20000J0D01*
G01*
X15520000Y-7640000D02*
G75*
G03*
X15520000Y-7640000I-20000J0D01*
G01*
X15520000Y-7900000D02*
G75*
G03*
X15520000Y-7900000I-20000J0D01*
G01*
X15530000Y-7110000D02*
G75*
G03*
X15530000Y-7110000I-20000J0D01*
G01*
X15540000Y-4640000D02*
G75*
G03*
X15540000Y-4640000I-20000J0D01*
G01*
X15540000Y-4840000D02*
G75*
G03*
X15540000Y-4840000I-20000J0D01*
G01*
X15540000Y-8920000D02*
G75*
G03*
X15540000Y-8920000I-20000J0D01*
G01*
X15540000Y-9220000D02*
G75*
G03*
X15540000Y-9220000I-20000J0D01*
G01*
X15540000Y-9470000D02*
G75*
G03*
X15540000Y-9470000I-20000J0D01*
G01*
X15650000Y-6910000D02*
G75*
G03*
X15650000Y-6910000I-20000J0D01*
G01*
X15720000Y-9220000D02*
G75*
G03*
X15720000Y-9220000I-20000J0D01*
G01*
X15720000Y-9490000D02*
G75*
G03*
X15720000Y-9490000I-20000J0D01*
G01*
X15720000Y-9880000D02*
G75*
G03*
X15720000Y-9880000I-20000J0D01*
G01*
X15720000Y-11750000D02*
G75*
G03*
X15720000Y-11750000I-20000J0D01*
G01*
X15750000Y-3580000D02*
G75*
G03*
X15750000Y-3580000I-20000J0D01*
G01*
X15750000Y-3860000D02*
G75*
G03*
X15750000Y-3860000I-20000J0D01*
G01*
X15840000Y-7360000D02*
G75*
G03*
X15840000Y-7360000I-20000J0D01*
G01*
X15840000Y-7640000D02*
G75*
G03*
X15840000Y-7640000I-20000J0D01*
G01*
X15840000Y-9470000D02*
G75*
G03*
X15840000Y-9470000I-20000J0D01*
G01*
X15910000Y-8760000D02*
G75*
G03*
X15910000Y-8760000I-20000J0D01*
G01*
X15910000Y-8940000D02*
G75*
G03*
X15910000Y-8940000I-20000J0D01*
G01*
X15910000Y-9120000D02*
G75*
G03*
X15910000Y-9120000I-20000J0D01*
G01*
X15910000Y-9300000D02*
G75*
G03*
X15910000Y-9300000I-20000J0D01*
G01*
X15939474Y-6808114D02*
G75*
G03*
X15939474Y-6808114I-20000J0D01*
G01*
X15960000Y-9880000D02*
G75*
G03*
X15960000Y-9880000I-20000J0D01*
G01*
X15970000Y-3580000D02*
G75*
G03*
X15970000Y-3580000I-20000J0D01*
G01*
X15970000Y-3860000D02*
G75*
G03*
X15970000Y-3860000I-20000J0D01*
G01*
X16090000Y-10410000D02*
G75*
G03*
X16090000Y-10410000I-20000J0D01*
G01*
X16120000Y-7360000D02*
G75*
G03*
X16120000Y-7360000I-20000J0D01*
G01*
X16120000Y-7640000D02*
G75*
G03*
X16120000Y-7640000I-20000J0D01*
G01*
X16120000Y-7900000D02*
G75*
G03*
X16120000Y-7900000I-20000J0D01*
G01*
X16190000Y-3580000D02*
G75*
G03*
X16190000Y-3580000I-20000J0D01*
G01*
X16190000Y-3860000D02*
G75*
G03*
X16190000Y-3860000I-20000J0D01*
G01*
X16228338Y-6808114D02*
G75*
G03*
X16228338Y-6808114I-20000J0D01*
G01*
X16270000Y-9690000D02*
G75*
G03*
X16270000Y-9690000I-20000J0D01*
G01*
X16340000Y-8750000D02*
G75*
G03*
X16340000Y-8750000I-20000J0D01*
G01*
X16340000Y-8930000D02*
G75*
G03*
X16340000Y-8930000I-20000J0D01*
G01*
X16340000Y-9130000D02*
G75*
G03*
X16340000Y-9130000I-20000J0D01*
G01*
X16340000Y-9300000D02*
G75*
G03*
X16340000Y-9300000I-20000J0D01*
G01*
X16340000Y-10720000D02*
G75*
G03*
X16340000Y-10720000I-20000J0D01*
G01*
X16350000Y-9510000D02*
G75*
G03*
X16350000Y-9510000I-20000J0D01*
G01*
X16380000Y-7480000D02*
G75*
G03*
X16380000Y-7480000I-20000J0D01*
G01*
X16410000Y-3580000D02*
G75*
G03*
X16410000Y-3580000I-20000J0D01*
G01*
X16410000Y-3860000D02*
G75*
G03*
X16410000Y-3860000I-20000J0D01*
G01*
X16470000Y-6810000D02*
G75*
G03*
X16470000Y-6810000I-20000J0D01*
G01*
X16500000Y-7720000D02*
G75*
G03*
X16500000Y-7720000I-20000J0D01*
G01*
X16500000Y-7980000D02*
G75*
G03*
X16500000Y-7980000I-20000J0D01*
G01*
X16500000Y-8280000D02*
G75*
G03*
X16500000Y-8280000I-20000J0D01*
G01*
X16540000Y-8520000D02*
G75*
G03*
X16540000Y-8520000I-20000J0D01*
G01*
X16560000Y-10720000D02*
G75*
G03*
X16560000Y-10720000I-20000J0D01*
G01*
X16630000Y-3580000D02*
G75*
G03*
X16630000Y-3580000I-20000J0D01*
G01*
X16630000Y-3860000D02*
G75*
G03*
X16630000Y-3860000I-20000J0D01*
G01*
X16640000Y-7220000D02*
G75*
G03*
X16640000Y-7220000I-20000J0D01*
G01*
X16670000Y-11750000D02*
G75*
G03*
X16670000Y-11750000I-20000J0D01*
G01*
X16720000Y-6810000D02*
G75*
G03*
X16720000Y-6810000I-20000J0D01*
G01*
X16780000Y-4770000D02*
G75*
G03*
X16780000Y-4770000I-20000J0D01*
G01*
X16780000Y-7380000D02*
G75*
G03*
X16780000Y-7380000I-20000J0D01*
G01*
X16780000Y-10720000D02*
G75*
G03*
X16780000Y-10720000I-20000J0D01*
G01*
X16800000Y-9700000D02*
G75*
G03*
X16800000Y-9700000I-20000J0D01*
G01*
X16830000Y-4360000D02*
G75*
G03*
X16830000Y-4360000I-20000J0D01*
G01*
X16830000Y-5080000D02*
G75*
G03*
X16830000Y-5080000I-20000J0D01*
G01*
X16830000Y-5810000D02*
G75*
G03*
X16830000Y-5810000I-20000J0D01*
G01*
X16850000Y-3580000D02*
G75*
G03*
X16850000Y-3580000I-20000J0D01*
G01*
X16850000Y-3860000D02*
G75*
G03*
X16850000Y-3860000I-20000J0D01*
G01*
X17000000Y-10720000D02*
G75*
G03*
X17000000Y-10720000I-20000J0D01*
G01*
X17050000Y-9690000D02*
G75*
G03*
X17050000Y-9690000I-20000J0D01*
G01*
X17120000Y-11080000D02*
G75*
G03*
X17120000Y-11080000I-20000J0D01*
G01*
X17120000Y-11330000D02*
G75*
G03*
X17120000Y-11330000I-20000J0D01*
G01*
X17190000Y-6270000D02*
G75*
G03*
X17190000Y-6270000I-20000J0D01*
G01*
X17190000Y-6550000D02*
G75*
G03*
X17190000Y-6550000I-20000J0D01*
G01*
X17190000Y-6810000D02*
G75*
G03*
X17190000Y-6810000I-20000J0D01*
G01*
X17190000Y-7080000D02*
G75*
G03*
X17190000Y-7080000I-20000J0D01*
G01*
X17200000Y-4930000D02*
G75*
G03*
X17200000Y-4930000I-20000J0D01*
G01*
X17200000Y-5210000D02*
G75*
G03*
X17200000Y-5210000I-20000J0D01*
G01*
X17200000Y-5470000D02*
G75*
G03*
X17200000Y-5470000I-20000J0D01*
G01*
X17200000Y-5720000D02*
G75*
G03*
X17200000Y-5720000I-20000J0D01*
G01*
X17200000Y-6000000D02*
G75*
G03*
X17200000Y-6000000I-20000J0D01*
G01*
X17210000Y-4130000D02*
G75*
G03*
X17210000Y-4130000I-20000J0D01*
G01*
X17210000Y-4380000D02*
G75*
G03*
X17210000Y-4380000I-20000J0D01*
G01*
X17210000Y-4660000D02*
G75*
G03*
X17210000Y-4660000I-20000J0D01*
G01*
X17220000Y-3580000D02*
G75*
G03*
X17220000Y-3580000I-20000J0D01*
G01*
X17220000Y-3860000D02*
G75*
G03*
X17220000Y-3860000I-20000J0D01*
G01*
D14*
X17100000Y-11175000D02*
X17100000Y-11225000D01*
X17075000Y-11200000D02*
X17125000Y-11200000D01*
D15*
X17131820Y-7631820D02*
X17131820Y-7568180D01*
X17068180Y-7568180D01*
X17068180Y-7631820D01*
X17131820Y-7631820D01*
X17131820Y-7831820D02*
X17131820Y-7768180D01*
X17068180Y-7768180D01*
X17068180Y-7831820D01*
X17131820Y-7831820D01*
X17131820Y-8031820D02*
X17131820Y-7968180D01*
X17068180Y-7968180D01*
X17068180Y-8031820D01*
X17131820Y-8031820D01*
D10*
X16623500Y-8844500D02*
X16673500Y-8794500D01*
X16623500Y-8744500D01*
X16573500Y-8794500D01*
X16623500Y-8844500D01*
X16623500Y-9098500D02*
X16673500Y-9048500D01*
X16623500Y-8998500D01*
X16573500Y-9048500D01*
X16623500Y-9098500D01*
X16623500Y-9352500D02*
X16673500Y-9302500D01*
X16623500Y-9252500D01*
X16573500Y-9302500D01*
X16623500Y-9352500D01*
X16877500Y-8844500D02*
X16927500Y-8794500D01*
X16877500Y-8744500D01*
X16827500Y-8794500D01*
X16877500Y-8844500D01*
X16877500Y-9098500D02*
X16927500Y-9048500D01*
X16877500Y-8998500D01*
X16827500Y-9048500D01*
X16877500Y-9098500D01*
X16877500Y-9352500D02*
X16927500Y-9302500D01*
X16877500Y-9252500D01*
X16827500Y-9302500D01*
X16877500Y-9352500D01*
D16*
X11383750Y-8105000D02*
X11493750Y-8215000D01*
X11493750Y-8105000D02*
X11383750Y-8215000D01*
X11493750Y-8160000D02*
G75*
G03*
X11493750Y-8160000I-55000J0D01*
G01*
X11383750Y-8555000D02*
X11493750Y-8665000D01*
X11493750Y-8555000D02*
X11383750Y-8665000D01*
X11493750Y-8610000D02*
G75*
G03*
X11493750Y-8610000I-55000J0D01*
G01*
X12033750Y-8105000D02*
X12143750Y-8215000D01*
X12143750Y-8105000D02*
X12033750Y-8215000D01*
X12143750Y-8160000D02*
G75*
G03*
X12143750Y-8160000I-55000J0D01*
G01*
X12033750Y-8555000D02*
X12143750Y-8665000D01*
X12143750Y-8555000D02*
X12033750Y-8665000D01*
X12143750Y-8610000D02*
G75*
G03*
X12143750Y-8610000I-55000J0D01*
G01*
X12383750Y-7355000D02*
X12493750Y-7465000D01*
X12493750Y-7355000D02*
X12383750Y-7465000D01*
X12493750Y-7410000D02*
G75*
G03*
X12493750Y-7410000I-55000J0D01*
G01*
X12383750Y-7805000D02*
X12493750Y-7915000D01*
X12493750Y-7805000D02*
X12383750Y-7915000D01*
X12493750Y-7860000D02*
G75*
G03*
X12493750Y-7860000I-55000J0D01*
G01*
X12383750Y-8855000D02*
X12493750Y-8965000D01*
X12493750Y-8855000D02*
X12383750Y-8965000D01*
X12493750Y-8910000D02*
G75*
G03*
X12493750Y-8910000I-55000J0D01*
G01*
X12383750Y-9305000D02*
X12493750Y-9415000D01*
X12493750Y-9305000D02*
X12383750Y-9415000D01*
X12493750Y-9360000D02*
G75*
G03*
X12493750Y-9360000I-55000J0D01*
G01*
X13033750Y-7355000D02*
X13143750Y-7465000D01*
X13143750Y-7355000D02*
X13033750Y-7465000D01*
X13143750Y-7410000D02*
G75*
G03*
X13143750Y-7410000I-55000J0D01*
G01*
X13033750Y-7805000D02*
X13143750Y-7915000D01*
X13143750Y-7805000D02*
X13033750Y-7915000D01*
X13143750Y-7860000D02*
G75*
G03*
X13143750Y-7860000I-55000J0D01*
G01*
X13033750Y-8855000D02*
X13143750Y-8965000D01*
X13143750Y-8855000D02*
X13033750Y-8965000D01*
X13143750Y-8910000D02*
G75*
G03*
X13143750Y-8910000I-55000J0D01*
G01*
X13033750Y-9305000D02*
X13143750Y-9415000D01*
X13143750Y-9305000D02*
X13033750Y-9415000D01*
X13143750Y-9360000D02*
G75*
G03*
X13143750Y-9360000I-55000J0D01*
G01*
X13383750Y-8105000D02*
X13493750Y-8215000D01*
X13493750Y-8105000D02*
X13383750Y-8215000D01*
X13493750Y-8160000D02*
G75*
G03*
X13493750Y-8160000I-55000J0D01*
G01*
X13383750Y-8555000D02*
X13493750Y-8665000D01*
X13493750Y-8555000D02*
X13383750Y-8665000D01*
X13493750Y-8610000D02*
G75*
G03*
X13493750Y-8610000I-55000J0D01*
G01*
X14033750Y-8105000D02*
X14143750Y-8215000D01*
X14143750Y-8105000D02*
X14033750Y-8215000D01*
X14143750Y-8160000D02*
G75*
G03*
X14143750Y-8160000I-55000J0D01*
G01*
X14033750Y-8555000D02*
X14143750Y-8665000D01*
X14143750Y-8555000D02*
X14033750Y-8665000D01*
X14143750Y-8610000D02*
G75*
G03*
X14143750Y-8610000I-55000J0D01*
G01*
X15333750Y-8105000D02*
X15443750Y-8215000D01*
X15443750Y-8105000D02*
X15333750Y-8215000D01*
X15443750Y-8160000D02*
G75*
G03*
X15443750Y-8160000I-55000J0D01*
G01*
X15333750Y-8555000D02*
X15443750Y-8665000D01*
X15443750Y-8555000D02*
X15333750Y-8665000D01*
X15443750Y-8610000D02*
G75*
G03*
X15443750Y-8610000I-55000J0D01*
G01*
X15983750Y-8105000D02*
X16093750Y-8215000D01*
X16093750Y-8105000D02*
X15983750Y-8215000D01*
X16093750Y-8160000D02*
G75*
G03*
X16093750Y-8160000I-55000J0D01*
G01*
X15983750Y-8555000D02*
X16093750Y-8665000D01*
X16093750Y-8555000D02*
X15983750Y-8665000D01*
X16093750Y-8610000D02*
G75*
G03*
X16093750Y-8610000I-55000J0D01*
G01*
D17*
X11231000Y-9235000D02*
X11361000Y-9365000D01*
X11361000Y-9235000D02*
X11231000Y-9365000D01*
X11296000Y-9235000D02*
X11296000Y-9365000D01*
X11231000Y-9300000D02*
X11361000Y-9300000D01*
X11739000Y-9235000D02*
X11869000Y-9365000D01*
X11869000Y-9235000D02*
X11739000Y-9365000D01*
X11804000Y-9235000D02*
X11804000Y-9365000D01*
X11739000Y-9300000D02*
X11869000Y-9300000D01*
D18*
X17025000Y-7315000D02*
X17175000Y-7465000D01*
X17175000Y-7315000D02*
X17025000Y-7465000D01*
X17153034Y-7443033D02*
X17153034Y-7336966D01*
X17046967Y-7336966D01*
X17046967Y-7443033D01*
X17153034Y-7443033D01*
X17025000Y-8135000D02*
X17175000Y-8285000D01*
X17175000Y-8135000D02*
X17025000Y-8285000D01*
X17153034Y-8263033D02*
X17153034Y-8156966D01*
X17046967Y-8156966D01*
X17046967Y-8263033D01*
X17153034Y-8263033D01*
D19*
X16093750Y-11591000D02*
X16273750Y-11771000D01*
X16273750Y-11591000D02*
X16093750Y-11771000D01*
X16183750Y-11771000D02*
X16273750Y-11681000D01*
X16183750Y-11591000D01*
X16093750Y-11681000D01*
X16183750Y-11771000D01*
D11*
X10730777Y-12416484D02*
X10730777Y-12216484D01*
X10730777Y-12216484D02*
X10778396Y-12216484D01*
X10778396Y-12216484D02*
X10806967Y-12226008D01*
X10806967Y-12226008D02*
X10826015Y-12245055D01*
X10826015Y-12245055D02*
X10835539Y-12264103D01*
X10835539Y-12264103D02*
X10845063Y-12302198D01*
X10845063Y-12302198D02*
X10845063Y-12330769D01*
X10845063Y-12330769D02*
X10835539Y-12368865D01*
X10835539Y-12368865D02*
X10826015Y-12387912D01*
X10826015Y-12387912D02*
X10806967Y-12406960D01*
X10806967Y-12406960D02*
X10778396Y-12416484D01*
X10778396Y-12416484D02*
X10730777Y-12416484D01*
X10930777Y-12416484D02*
X10930777Y-12283150D01*
X10930777Y-12321246D02*
X10940301Y-12302198D01*
X10940301Y-12302198D02*
X10949824Y-12292674D01*
X10949824Y-12292674D02*
X10968872Y-12283150D01*
X10968872Y-12283150D02*
X10987920Y-12283150D01*
X11054586Y-12416484D02*
X11054586Y-12283150D01*
X11054586Y-12216484D02*
X11045063Y-12226008D01*
X11045063Y-12226008D02*
X11054586Y-12235531D01*
X11054586Y-12235531D02*
X11064110Y-12226008D01*
X11064110Y-12226008D02*
X11054586Y-12216484D01*
X11054586Y-12216484D02*
X11054586Y-12235531D01*
X11178396Y-12416484D02*
X11159348Y-12406960D01*
X11159348Y-12406960D02*
X11149824Y-12387912D01*
X11149824Y-12387912D02*
X11149824Y-12216484D01*
X11283158Y-12416484D02*
X11264110Y-12406960D01*
X11264110Y-12406960D02*
X11254586Y-12387912D01*
X11254586Y-12387912D02*
X11254586Y-12216484D01*
X11511729Y-12416484D02*
X11511729Y-12216484D01*
X11511729Y-12216484D02*
X11578396Y-12359341D01*
X11578396Y-12359341D02*
X11645062Y-12216484D01*
X11645062Y-12216484D02*
X11645062Y-12416484D01*
X11826015Y-12416484D02*
X11826015Y-12311722D01*
X11826015Y-12311722D02*
X11816491Y-12292674D01*
X11816491Y-12292674D02*
X11797443Y-12283150D01*
X11797443Y-12283150D02*
X11759348Y-12283150D01*
X11759348Y-12283150D02*
X11740301Y-12292674D01*
X11826015Y-12406960D02*
X11806967Y-12416484D01*
X11806967Y-12416484D02*
X11759348Y-12416484D01*
X11759348Y-12416484D02*
X11740301Y-12406960D01*
X11740301Y-12406960D02*
X11730777Y-12387912D01*
X11730777Y-12387912D02*
X11730777Y-12368865D01*
X11730777Y-12368865D02*
X11740301Y-12349817D01*
X11740301Y-12349817D02*
X11759348Y-12340293D01*
X11759348Y-12340293D02*
X11806967Y-12340293D01*
X11806967Y-12340293D02*
X11826015Y-12330769D01*
X11921253Y-12283150D02*
X11921253Y-12483150D01*
X11921253Y-12292674D02*
X11940301Y-12283150D01*
X11940301Y-12283150D02*
X11978396Y-12283150D01*
X11978396Y-12283150D02*
X11997443Y-12292674D01*
X11997443Y-12292674D02*
X12006967Y-12302198D01*
X12006967Y-12302198D02*
X12016491Y-12321246D01*
X12016491Y-12321246D02*
X12016491Y-12378388D01*
X12016491Y-12378388D02*
X12006967Y-12397436D01*
X12006967Y-12397436D02*
X11997443Y-12406960D01*
X11997443Y-12406960D02*
X11978396Y-12416484D01*
X11978396Y-12416484D02*
X11940301Y-12416484D01*
X11940301Y-12416484D02*
X11921253Y-12406960D01*
X12102205Y-12397436D02*
X12111729Y-12406960D01*
X12111729Y-12406960D02*
X12102205Y-12416484D01*
X12102205Y-12416484D02*
X12092682Y-12406960D01*
X12092682Y-12406960D02*
X12102205Y-12397436D01*
X12102205Y-12397436D02*
X12102205Y-12416484D01*
X12102205Y-12292674D02*
X12111729Y-12302198D01*
X12111729Y-12302198D02*
X12102205Y-12311722D01*
X12102205Y-12311722D02*
X12092682Y-12302198D01*
X12092682Y-12302198D02*
X12102205Y-12292674D01*
X12102205Y-12292674D02*
X12102205Y-12311722D01*
D12*
X10440000Y-12730000D02*
X10470000Y-12760000D01*
X10470000Y-12730000D02*
X10440000Y-12760000D01*
D11*
X10768872Y-12636484D02*
X10787920Y-12636484D01*
X10787920Y-12636484D02*
X10806967Y-12646008D01*
X10806967Y-12646008D02*
X10816491Y-12655531D01*
X10816491Y-12655531D02*
X10826015Y-12674579D01*
X10826015Y-12674579D02*
X10835539Y-12712674D01*
X10835539Y-12712674D02*
X10835539Y-12760293D01*
X10835539Y-12760293D02*
X10826015Y-12798388D01*
X10826015Y-12798388D02*
X10816491Y-12817436D01*
X10816491Y-12817436D02*
X10806967Y-12826960D01*
X10806967Y-12826960D02*
X10787920Y-12836484D01*
X10787920Y-12836484D02*
X10768872Y-12836484D01*
X10768872Y-12836484D02*
X10749824Y-12826960D01*
X10749824Y-12826960D02*
X10740301Y-12817436D01*
X10740301Y-12817436D02*
X10730777Y-12798388D01*
X10730777Y-12798388D02*
X10721253Y-12760293D01*
X10721253Y-12760293D02*
X10721253Y-12712674D01*
X10721253Y-12712674D02*
X10730777Y-12674579D01*
X10730777Y-12674579D02*
X10740301Y-12655531D01*
X10740301Y-12655531D02*
X10749824Y-12646008D01*
X10749824Y-12646008D02*
X10768872Y-12636484D01*
X10921253Y-12817436D02*
X10930777Y-12826960D01*
X10930777Y-12826960D02*
X10921253Y-12836484D01*
X10921253Y-12836484D02*
X10911729Y-12826960D01*
X10911729Y-12826960D02*
X10921253Y-12817436D01*
X10921253Y-12817436D02*
X10921253Y-12836484D01*
X10997444Y-12636484D02*
X11121253Y-12636484D01*
X11121253Y-12636484D02*
X11054586Y-12712674D01*
X11054586Y-12712674D02*
X11083158Y-12712674D01*
X11083158Y-12712674D02*
X11102205Y-12722198D01*
X11102205Y-12722198D02*
X11111729Y-12731722D01*
X11111729Y-12731722D02*
X11121253Y-12750769D01*
X11121253Y-12750769D02*
X11121253Y-12798388D01*
X11121253Y-12798388D02*
X11111729Y-12817436D01*
X11111729Y-12817436D02*
X11102205Y-12826960D01*
X11102205Y-12826960D02*
X11083158Y-12836484D01*
X11083158Y-12836484D02*
X11026015Y-12836484D01*
X11026015Y-12836484D02*
X11006967Y-12826960D01*
X11006967Y-12826960D02*
X10997444Y-12817436D01*
X11245062Y-12636484D02*
X11264110Y-12636484D01*
X11264110Y-12636484D02*
X11283158Y-12646008D01*
X11283158Y-12646008D02*
X11292682Y-12655531D01*
X11292682Y-12655531D02*
X11302205Y-12674579D01*
X11302205Y-12674579D02*
X11311729Y-12712674D01*
X11311729Y-12712674D02*
X11311729Y-12760293D01*
X11311729Y-12760293D02*
X11302205Y-12798388D01*
X11302205Y-12798388D02*
X11292682Y-12817436D01*
X11292682Y-12817436D02*
X11283158Y-12826960D01*
X11283158Y-12826960D02*
X11264110Y-12836484D01*
X11264110Y-12836484D02*
X11245062Y-12836484D01*
X11245062Y-12836484D02*
X11226015Y-12826960D01*
X11226015Y-12826960D02*
X11216491Y-12817436D01*
X11216491Y-12817436D02*
X11206967Y-12798388D01*
X11206967Y-12798388D02*
X11197443Y-12760293D01*
X11197443Y-12760293D02*
X11197443Y-12712674D01*
X11197443Y-12712674D02*
X11206967Y-12674579D01*
X11206967Y-12674579D02*
X11216491Y-12655531D01*
X11216491Y-12655531D02*
X11226015Y-12646008D01*
X11226015Y-12646008D02*
X11245062Y-12636484D01*
X11435539Y-12636484D02*
X11454586Y-12636484D01*
X11454586Y-12636484D02*
X11473634Y-12646008D01*
X11473634Y-12646008D02*
X11483158Y-12655531D01*
X11483158Y-12655531D02*
X11492682Y-12674579D01*
X11492682Y-12674579D02*
X11502205Y-12712674D01*
X11502205Y-12712674D02*
X11502205Y-12760293D01*
X11502205Y-12760293D02*
X11492682Y-12798388D01*
X11492682Y-12798388D02*
X11483158Y-12817436D01*
X11483158Y-12817436D02*
X11473634Y-12826960D01*
X11473634Y-12826960D02*
X11454586Y-12836484D01*
X11454586Y-12836484D02*
X11435539Y-12836484D01*
X11435539Y-12836484D02*
X11416491Y-12826960D01*
X11416491Y-12826960D02*
X11406967Y-12817436D01*
X11406967Y-12817436D02*
X11397443Y-12798388D01*
X11397443Y-12798388D02*
X11387920Y-12760293D01*
X11387920Y-12760293D02*
X11387920Y-12712674D01*
X11387920Y-12712674D02*
X11397443Y-12674579D01*
X11397443Y-12674579D02*
X11406967Y-12655531D01*
X11406967Y-12655531D02*
X11416491Y-12646008D01*
X11416491Y-12646008D02*
X11435539Y-12636484D01*
X11587920Y-12836484D02*
X11587920Y-12703150D01*
X11587920Y-12722198D02*
X11597443Y-12712674D01*
X11597443Y-12712674D02*
X11616491Y-12703150D01*
X11616491Y-12703150D02*
X11645063Y-12703150D01*
X11645063Y-12703150D02*
X11664110Y-12712674D01*
X11664110Y-12712674D02*
X11673634Y-12731722D01*
X11673634Y-12731722D02*
X11673634Y-12836484D01*
X11673634Y-12731722D02*
X11683158Y-12712674D01*
X11683158Y-12712674D02*
X11702205Y-12703150D01*
X11702205Y-12703150D02*
X11730777Y-12703150D01*
X11730777Y-12703150D02*
X11749824Y-12712674D01*
X11749824Y-12712674D02*
X11759348Y-12731722D01*
X11759348Y-12731722D02*
X11759348Y-12836484D01*
X11854586Y-12836484D02*
X11854586Y-12703150D01*
X11854586Y-12722198D02*
X11864110Y-12712674D01*
X11864110Y-12712674D02*
X11883158Y-12703150D01*
X11883158Y-12703150D02*
X11911729Y-12703150D01*
X11911729Y-12703150D02*
X11930777Y-12712674D01*
X11930777Y-12712674D02*
X11940301Y-12731722D01*
X11940301Y-12731722D02*
X11940301Y-12836484D01*
X11940301Y-12731722D02*
X11949824Y-12712674D01*
X11949824Y-12712674D02*
X11968872Y-12703150D01*
X11968872Y-12703150D02*
X11997443Y-12703150D01*
X11997443Y-12703150D02*
X12016491Y-12712674D01*
X12016491Y-12712674D02*
X12026015Y-12731722D01*
X12026015Y-12731722D02*
X12026015Y-12836484D01*
X12416491Y-12626960D02*
X12245063Y-12884103D01*
X12673634Y-12636484D02*
X12692682Y-12636484D01*
X12692682Y-12636484D02*
X12711729Y-12646008D01*
X12711729Y-12646008D02*
X12721253Y-12655531D01*
X12721253Y-12655531D02*
X12730777Y-12674579D01*
X12730777Y-12674579D02*
X12740301Y-12712674D01*
X12740301Y-12712674D02*
X12740301Y-12760293D01*
X12740301Y-12760293D02*
X12730777Y-12798388D01*
X12730777Y-12798388D02*
X12721253Y-12817436D01*
X12721253Y-12817436D02*
X12711729Y-12826960D01*
X12711729Y-12826960D02*
X12692682Y-12836484D01*
X12692682Y-12836484D02*
X12673634Y-12836484D01*
X12673634Y-12836484D02*
X12654586Y-12826960D01*
X12654586Y-12826960D02*
X12645063Y-12817436D01*
X12645063Y-12817436D02*
X12635539Y-12798388D01*
X12635539Y-12798388D02*
X12626015Y-12760293D01*
X12626015Y-12760293D02*
X12626015Y-12712674D01*
X12626015Y-12712674D02*
X12635539Y-12674579D01*
X12635539Y-12674579D02*
X12645063Y-12655531D01*
X12645063Y-12655531D02*
X12654586Y-12646008D01*
X12654586Y-12646008D02*
X12673634Y-12636484D01*
X12826015Y-12817436D02*
X12835539Y-12826960D01*
X12835539Y-12826960D02*
X12826015Y-12836484D01*
X12826015Y-12836484D02*
X12816491Y-12826960D01*
X12816491Y-12826960D02*
X12826015Y-12817436D01*
X12826015Y-12817436D02*
X12826015Y-12836484D01*
X12959348Y-12636484D02*
X12978396Y-12636484D01*
X12978396Y-12636484D02*
X12997444Y-12646008D01*
X12997444Y-12646008D02*
X13006967Y-12655531D01*
X13006967Y-12655531D02*
X13016491Y-12674579D01*
X13016491Y-12674579D02*
X13026015Y-12712674D01*
X13026015Y-12712674D02*
X13026015Y-12760293D01*
X13026015Y-12760293D02*
X13016491Y-12798388D01*
X13016491Y-12798388D02*
X13006967Y-12817436D01*
X13006967Y-12817436D02*
X12997444Y-12826960D01*
X12997444Y-12826960D02*
X12978396Y-12836484D01*
X12978396Y-12836484D02*
X12959348Y-12836484D01*
X12959348Y-12836484D02*
X12940301Y-12826960D01*
X12940301Y-12826960D02*
X12930777Y-12817436D01*
X12930777Y-12817436D02*
X12921253Y-12798388D01*
X12921253Y-12798388D02*
X12911729Y-12760293D01*
X12911729Y-12760293D02*
X12911729Y-12712674D01*
X12911729Y-12712674D02*
X12921253Y-12674579D01*
X12921253Y-12674579D02*
X12930777Y-12655531D01*
X12930777Y-12655531D02*
X12940301Y-12646008D01*
X12940301Y-12646008D02*
X12959348Y-12636484D01*
X13216491Y-12836484D02*
X13102206Y-12836484D01*
X13159348Y-12836484D02*
X13159348Y-12636484D01*
X13159348Y-12636484D02*
X13140301Y-12665055D01*
X13140301Y-12665055D02*
X13121253Y-12684103D01*
X13121253Y-12684103D02*
X13102206Y-12693627D01*
X13406967Y-12836484D02*
X13292682Y-12836484D01*
X13349825Y-12836484D02*
X13349825Y-12636484D01*
X13349825Y-12636484D02*
X13330777Y-12665055D01*
X13330777Y-12665055D02*
X13311729Y-12684103D01*
X13311729Y-12684103D02*
X13292682Y-12693627D01*
X13521253Y-12722198D02*
X13502206Y-12712674D01*
X13502206Y-12712674D02*
X13492682Y-12703150D01*
X13492682Y-12703150D02*
X13483158Y-12684103D01*
X13483158Y-12684103D02*
X13483158Y-12674579D01*
X13483158Y-12674579D02*
X13492682Y-12655531D01*
X13492682Y-12655531D02*
X13502206Y-12646008D01*
X13502206Y-12646008D02*
X13521253Y-12636484D01*
X13521253Y-12636484D02*
X13559348Y-12636484D01*
X13559348Y-12636484D02*
X13578396Y-12646008D01*
X13578396Y-12646008D02*
X13587920Y-12655531D01*
X13587920Y-12655531D02*
X13597444Y-12674579D01*
X13597444Y-12674579D02*
X13597444Y-12684103D01*
X13597444Y-12684103D02*
X13587920Y-12703150D01*
X13587920Y-12703150D02*
X13578396Y-12712674D01*
X13578396Y-12712674D02*
X13559348Y-12722198D01*
X13559348Y-12722198D02*
X13521253Y-12722198D01*
X13521253Y-12722198D02*
X13502206Y-12731722D01*
X13502206Y-12731722D02*
X13492682Y-12741246D01*
X13492682Y-12741246D02*
X13483158Y-12760293D01*
X13483158Y-12760293D02*
X13483158Y-12798388D01*
X13483158Y-12798388D02*
X13492682Y-12817436D01*
X13492682Y-12817436D02*
X13502206Y-12826960D01*
X13502206Y-12826960D02*
X13521253Y-12836484D01*
X13521253Y-12836484D02*
X13559348Y-12836484D01*
X13559348Y-12836484D02*
X13578396Y-12826960D01*
X13578396Y-12826960D02*
X13587920Y-12817436D01*
X13587920Y-12817436D02*
X13597444Y-12798388D01*
X13597444Y-12798388D02*
X13597444Y-12760293D01*
X13597444Y-12760293D02*
X13587920Y-12741246D01*
X13587920Y-12741246D02*
X13578396Y-12731722D01*
X13578396Y-12731722D02*
X13559348Y-12722198D01*
X13673634Y-12636484D02*
X13673634Y-12674579D01*
X13749825Y-12636484D02*
X13749825Y-12674579D01*
X14045063Y-12912674D02*
X14035539Y-12903150D01*
X14035539Y-12903150D02*
X14016491Y-12874579D01*
X14016491Y-12874579D02*
X14006968Y-12855531D01*
X14006968Y-12855531D02*
X13997444Y-12826960D01*
X13997444Y-12826960D02*
X13987920Y-12779341D01*
X13987920Y-12779341D02*
X13987920Y-12741246D01*
X13987920Y-12741246D02*
X13997444Y-12693627D01*
X13997444Y-12693627D02*
X14006968Y-12665055D01*
X14006968Y-12665055D02*
X14016491Y-12646008D01*
X14016491Y-12646008D02*
X14035539Y-12617436D01*
X14035539Y-12617436D02*
X14045063Y-12607912D01*
X14102206Y-12636484D02*
X14226015Y-12636484D01*
X14226015Y-12636484D02*
X14159348Y-12712674D01*
X14159348Y-12712674D02*
X14187920Y-12712674D01*
X14187920Y-12712674D02*
X14206968Y-12722198D01*
X14206968Y-12722198D02*
X14216491Y-12731722D01*
X14216491Y-12731722D02*
X14226015Y-12750769D01*
X14226015Y-12750769D02*
X14226015Y-12798388D01*
X14226015Y-12798388D02*
X14216491Y-12817436D01*
X14216491Y-12817436D02*
X14206968Y-12826960D01*
X14206968Y-12826960D02*
X14187920Y-12836484D01*
X14187920Y-12836484D02*
X14130777Y-12836484D01*
X14130777Y-12836484D02*
X14111729Y-12826960D01*
X14111729Y-12826960D02*
X14102206Y-12817436D01*
X14302206Y-12655531D02*
X14311729Y-12646008D01*
X14311729Y-12646008D02*
X14330777Y-12636484D01*
X14330777Y-12636484D02*
X14378396Y-12636484D01*
X14378396Y-12636484D02*
X14397444Y-12646008D01*
X14397444Y-12646008D02*
X14406968Y-12655531D01*
X14406968Y-12655531D02*
X14416491Y-12674579D01*
X14416491Y-12674579D02*
X14416491Y-12693627D01*
X14416491Y-12693627D02*
X14406968Y-12722198D01*
X14406968Y-12722198D02*
X14292682Y-12836484D01*
X14292682Y-12836484D02*
X14416491Y-12836484D01*
X14654587Y-12836484D02*
X14654587Y-12636484D01*
X14740301Y-12836484D02*
X14740301Y-12731722D01*
X14740301Y-12731722D02*
X14730777Y-12712674D01*
X14730777Y-12712674D02*
X14711730Y-12703150D01*
X14711730Y-12703150D02*
X14683158Y-12703150D01*
X14683158Y-12703150D02*
X14664110Y-12712674D01*
X14664110Y-12712674D02*
X14654587Y-12722198D01*
X14864110Y-12836484D02*
X14845063Y-12826960D01*
X14845063Y-12826960D02*
X14835539Y-12817436D01*
X14835539Y-12817436D02*
X14826015Y-12798388D01*
X14826015Y-12798388D02*
X14826015Y-12741246D01*
X14826015Y-12741246D02*
X14835539Y-12722198D01*
X14835539Y-12722198D02*
X14845063Y-12712674D01*
X14845063Y-12712674D02*
X14864110Y-12703150D01*
X14864110Y-12703150D02*
X14892682Y-12703150D01*
X14892682Y-12703150D02*
X14911730Y-12712674D01*
X14911730Y-12712674D02*
X14921253Y-12722198D01*
X14921253Y-12722198D02*
X14930777Y-12741246D01*
X14930777Y-12741246D02*
X14930777Y-12798388D01*
X14930777Y-12798388D02*
X14921253Y-12817436D01*
X14921253Y-12817436D02*
X14911730Y-12826960D01*
X14911730Y-12826960D02*
X14892682Y-12836484D01*
X14892682Y-12836484D02*
X14864110Y-12836484D01*
X15045063Y-12836484D02*
X15026015Y-12826960D01*
X15026015Y-12826960D02*
X15016491Y-12807912D01*
X15016491Y-12807912D02*
X15016491Y-12636484D01*
X15197444Y-12826960D02*
X15178396Y-12836484D01*
X15178396Y-12836484D02*
X15140301Y-12836484D01*
X15140301Y-12836484D02*
X15121253Y-12826960D01*
X15121253Y-12826960D02*
X15111730Y-12807912D01*
X15111730Y-12807912D02*
X15111730Y-12731722D01*
X15111730Y-12731722D02*
X15121253Y-12712674D01*
X15121253Y-12712674D02*
X15140301Y-12703150D01*
X15140301Y-12703150D02*
X15178396Y-12703150D01*
X15178396Y-12703150D02*
X15197444Y-12712674D01*
X15197444Y-12712674D02*
X15206968Y-12731722D01*
X15206968Y-12731722D02*
X15206968Y-12750769D01*
X15206968Y-12750769D02*
X15111730Y-12769817D01*
X15283158Y-12826960D02*
X15302206Y-12836484D01*
X15302206Y-12836484D02*
X15340301Y-12836484D01*
X15340301Y-12836484D02*
X15359349Y-12826960D01*
X15359349Y-12826960D02*
X15368872Y-12807912D01*
X15368872Y-12807912D02*
X15368872Y-12798388D01*
X15368872Y-12798388D02*
X15359349Y-12779341D01*
X15359349Y-12779341D02*
X15340301Y-12769817D01*
X15340301Y-12769817D02*
X15311730Y-12769817D01*
X15311730Y-12769817D02*
X15292682Y-12760293D01*
X15292682Y-12760293D02*
X15283158Y-12741246D01*
X15283158Y-12741246D02*
X15283158Y-12731722D01*
X15283158Y-12731722D02*
X15292682Y-12712674D01*
X15292682Y-12712674D02*
X15311730Y-12703150D01*
X15311730Y-12703150D02*
X15340301Y-12703150D01*
X15340301Y-12703150D02*
X15359349Y-12712674D01*
X15435539Y-12912674D02*
X15445063Y-12903150D01*
X15445063Y-12903150D02*
X15464111Y-12874579D01*
X15464111Y-12874579D02*
X15473634Y-12855531D01*
X15473634Y-12855531D02*
X15483158Y-12826960D01*
X15483158Y-12826960D02*
X15492682Y-12779341D01*
X15492682Y-12779341D02*
X15492682Y-12741246D01*
X15492682Y-12741246D02*
X15483158Y-12693627D01*
X15483158Y-12693627D02*
X15473634Y-12665055D01*
X15473634Y-12665055D02*
X15464111Y-12646008D01*
X15464111Y-12646008D02*
X15445063Y-12617436D01*
X15445063Y-12617436D02*
X15435539Y-12607912D01*
D13*
X10470000Y-13009000D02*
G75*
G03*
X10470000Y-13009000I-20000J0D01*
G01*
D11*
X10768872Y-12900484D02*
X10787920Y-12900484D01*
X10787920Y-12900484D02*
X10806967Y-12910008D01*
X10806967Y-12910008D02*
X10816491Y-12919531D01*
X10816491Y-12919531D02*
X10826015Y-12938579D01*
X10826015Y-12938579D02*
X10835539Y-12976674D01*
X10835539Y-12976674D02*
X10835539Y-13024293D01*
X10835539Y-13024293D02*
X10826015Y-13062388D01*
X10826015Y-13062388D02*
X10816491Y-13081436D01*
X10816491Y-13081436D02*
X10806967Y-13090960D01*
X10806967Y-13090960D02*
X10787920Y-13100484D01*
X10787920Y-13100484D02*
X10768872Y-13100484D01*
X10768872Y-13100484D02*
X10749824Y-13090960D01*
X10749824Y-13090960D02*
X10740301Y-13081436D01*
X10740301Y-13081436D02*
X10730777Y-13062388D01*
X10730777Y-13062388D02*
X10721253Y-13024293D01*
X10721253Y-13024293D02*
X10721253Y-12976674D01*
X10721253Y-12976674D02*
X10730777Y-12938579D01*
X10730777Y-12938579D02*
X10740301Y-12919531D01*
X10740301Y-12919531D02*
X10749824Y-12910008D01*
X10749824Y-12910008D02*
X10768872Y-12900484D01*
X10921253Y-13081436D02*
X10930777Y-13090960D01*
X10930777Y-13090960D02*
X10921253Y-13100484D01*
X10921253Y-13100484D02*
X10911729Y-13090960D01*
X10911729Y-13090960D02*
X10921253Y-13081436D01*
X10921253Y-13081436D02*
X10921253Y-13100484D01*
X11102205Y-12967150D02*
X11102205Y-13100484D01*
X11054586Y-12890960D02*
X11006967Y-13033817D01*
X11006967Y-13033817D02*
X11130777Y-13033817D01*
X11245062Y-12900484D02*
X11264110Y-12900484D01*
X11264110Y-12900484D02*
X11283158Y-12910008D01*
X11283158Y-12910008D02*
X11292682Y-12919531D01*
X11292682Y-12919531D02*
X11302205Y-12938579D01*
X11302205Y-12938579D02*
X11311729Y-12976674D01*
X11311729Y-12976674D02*
X11311729Y-13024293D01*
X11311729Y-13024293D02*
X11302205Y-13062388D01*
X11302205Y-13062388D02*
X11292682Y-13081436D01*
X11292682Y-13081436D02*
X11283158Y-13090960D01*
X11283158Y-13090960D02*
X11264110Y-13100484D01*
X11264110Y-13100484D02*
X11245062Y-13100484D01*
X11245062Y-13100484D02*
X11226015Y-13090960D01*
X11226015Y-13090960D02*
X11216491Y-13081436D01*
X11216491Y-13081436D02*
X11206967Y-13062388D01*
X11206967Y-13062388D02*
X11197443Y-13024293D01*
X11197443Y-13024293D02*
X11197443Y-12976674D01*
X11197443Y-12976674D02*
X11206967Y-12938579D01*
X11206967Y-12938579D02*
X11216491Y-12919531D01*
X11216491Y-12919531D02*
X11226015Y-12910008D01*
X11226015Y-12910008D02*
X11245062Y-12900484D01*
X11435539Y-12900484D02*
X11454586Y-12900484D01*
X11454586Y-12900484D02*
X11473634Y-12910008D01*
X11473634Y-12910008D02*
X11483158Y-12919531D01*
X11483158Y-12919531D02*
X11492682Y-12938579D01*
X11492682Y-12938579D02*
X11502205Y-12976674D01*
X11502205Y-12976674D02*
X11502205Y-13024293D01*
X11502205Y-13024293D02*
X11492682Y-13062388D01*
X11492682Y-13062388D02*
X11483158Y-13081436D01*
X11483158Y-13081436D02*
X11473634Y-13090960D01*
X11473634Y-13090960D02*
X11454586Y-13100484D01*
X11454586Y-13100484D02*
X11435539Y-13100484D01*
X11435539Y-13100484D02*
X11416491Y-13090960D01*
X11416491Y-13090960D02*
X11406967Y-13081436D01*
X11406967Y-13081436D02*
X11397443Y-13062388D01*
X11397443Y-13062388D02*
X11387920Y-13024293D01*
X11387920Y-13024293D02*
X11387920Y-12976674D01*
X11387920Y-12976674D02*
X11397443Y-12938579D01*
X11397443Y-12938579D02*
X11406967Y-12919531D01*
X11406967Y-12919531D02*
X11416491Y-12910008D01*
X11416491Y-12910008D02*
X11435539Y-12900484D01*
X11587920Y-13100484D02*
X11587920Y-12967150D01*
X11587920Y-12986198D02*
X11597443Y-12976674D01*
X11597443Y-12976674D02*
X11616491Y-12967150D01*
X11616491Y-12967150D02*
X11645063Y-12967150D01*
X11645063Y-12967150D02*
X11664110Y-12976674D01*
X11664110Y-12976674D02*
X11673634Y-12995722D01*
X11673634Y-12995722D02*
X11673634Y-13100484D01*
X11673634Y-12995722D02*
X11683158Y-12976674D01*
X11683158Y-12976674D02*
X11702205Y-12967150D01*
X11702205Y-12967150D02*
X11730777Y-12967150D01*
X11730777Y-12967150D02*
X11749824Y-12976674D01*
X11749824Y-12976674D02*
X11759348Y-12995722D01*
X11759348Y-12995722D02*
X11759348Y-13100484D01*
X11854586Y-13100484D02*
X11854586Y-12967150D01*
X11854586Y-12986198D02*
X11864110Y-12976674D01*
X11864110Y-12976674D02*
X11883158Y-12967150D01*
X11883158Y-12967150D02*
X11911729Y-12967150D01*
X11911729Y-12967150D02*
X11930777Y-12976674D01*
X11930777Y-12976674D02*
X11940301Y-12995722D01*
X11940301Y-12995722D02*
X11940301Y-13100484D01*
X11940301Y-12995722D02*
X11949824Y-12976674D01*
X11949824Y-12976674D02*
X11968872Y-12967150D01*
X11968872Y-12967150D02*
X11997443Y-12967150D01*
X11997443Y-12967150D02*
X12016491Y-12976674D01*
X12016491Y-12976674D02*
X12026015Y-12995722D01*
X12026015Y-12995722D02*
X12026015Y-13100484D01*
X12416491Y-12890960D02*
X12245063Y-13148103D01*
X12673634Y-12900484D02*
X12692682Y-12900484D01*
X12692682Y-12900484D02*
X12711729Y-12910008D01*
X12711729Y-12910008D02*
X12721253Y-12919531D01*
X12721253Y-12919531D02*
X12730777Y-12938579D01*
X12730777Y-12938579D02*
X12740301Y-12976674D01*
X12740301Y-12976674D02*
X12740301Y-13024293D01*
X12740301Y-13024293D02*
X12730777Y-13062388D01*
X12730777Y-13062388D02*
X12721253Y-13081436D01*
X12721253Y-13081436D02*
X12711729Y-13090960D01*
X12711729Y-13090960D02*
X12692682Y-13100484D01*
X12692682Y-13100484D02*
X12673634Y-13100484D01*
X12673634Y-13100484D02*
X12654586Y-13090960D01*
X12654586Y-13090960D02*
X12645063Y-13081436D01*
X12645063Y-13081436D02*
X12635539Y-13062388D01*
X12635539Y-13062388D02*
X12626015Y-13024293D01*
X12626015Y-13024293D02*
X12626015Y-12976674D01*
X12626015Y-12976674D02*
X12635539Y-12938579D01*
X12635539Y-12938579D02*
X12645063Y-12919531D01*
X12645063Y-12919531D02*
X12654586Y-12910008D01*
X12654586Y-12910008D02*
X12673634Y-12900484D01*
X12826015Y-13081436D02*
X12835539Y-13090960D01*
X12835539Y-13090960D02*
X12826015Y-13100484D01*
X12826015Y-13100484D02*
X12816491Y-13090960D01*
X12816491Y-13090960D02*
X12826015Y-13081436D01*
X12826015Y-13081436D02*
X12826015Y-13100484D01*
X12959348Y-12900484D02*
X12978396Y-12900484D01*
X12978396Y-12900484D02*
X12997444Y-12910008D01*
X12997444Y-12910008D02*
X13006967Y-12919531D01*
X13006967Y-12919531D02*
X13016491Y-12938579D01*
X13016491Y-12938579D02*
X13026015Y-12976674D01*
X13026015Y-12976674D02*
X13026015Y-13024293D01*
X13026015Y-13024293D02*
X13016491Y-13062388D01*
X13016491Y-13062388D02*
X13006967Y-13081436D01*
X13006967Y-13081436D02*
X12997444Y-13090960D01*
X12997444Y-13090960D02*
X12978396Y-13100484D01*
X12978396Y-13100484D02*
X12959348Y-13100484D01*
X12959348Y-13100484D02*
X12940301Y-13090960D01*
X12940301Y-13090960D02*
X12930777Y-13081436D01*
X12930777Y-13081436D02*
X12921253Y-13062388D01*
X12921253Y-13062388D02*
X12911729Y-13024293D01*
X12911729Y-13024293D02*
X12911729Y-12976674D01*
X12911729Y-12976674D02*
X12921253Y-12938579D01*
X12921253Y-12938579D02*
X12930777Y-12919531D01*
X12930777Y-12919531D02*
X12940301Y-12910008D01*
X12940301Y-12910008D02*
X12959348Y-12900484D01*
X13216491Y-13100484D02*
X13102206Y-13100484D01*
X13159348Y-13100484D02*
X13159348Y-12900484D01*
X13159348Y-12900484D02*
X13140301Y-12929055D01*
X13140301Y-12929055D02*
X13121253Y-12948103D01*
X13121253Y-12948103D02*
X13102206Y-12957627D01*
X13397444Y-12900484D02*
X13302206Y-12900484D01*
X13302206Y-12900484D02*
X13292682Y-12995722D01*
X13292682Y-12995722D02*
X13302206Y-12986198D01*
X13302206Y-12986198D02*
X13321253Y-12976674D01*
X13321253Y-12976674D02*
X13368872Y-12976674D01*
X13368872Y-12976674D02*
X13387920Y-12986198D01*
X13387920Y-12986198D02*
X13397444Y-12995722D01*
X13397444Y-12995722D02*
X13406967Y-13014769D01*
X13406967Y-13014769D02*
X13406967Y-13062388D01*
X13406967Y-13062388D02*
X13397444Y-13081436D01*
X13397444Y-13081436D02*
X13387920Y-13090960D01*
X13387920Y-13090960D02*
X13368872Y-13100484D01*
X13368872Y-13100484D02*
X13321253Y-13100484D01*
X13321253Y-13100484D02*
X13302206Y-13090960D01*
X13302206Y-13090960D02*
X13292682Y-13081436D01*
X13473634Y-12900484D02*
X13606967Y-12900484D01*
X13606967Y-12900484D02*
X13521253Y-13100484D01*
X13673634Y-12900484D02*
X13673634Y-12938579D01*
X13749825Y-12900484D02*
X13749825Y-12938579D01*
X14045063Y-13176674D02*
X14035539Y-13167150D01*
X14035539Y-13167150D02*
X14016491Y-13138579D01*
X14016491Y-13138579D02*
X14006968Y-13119531D01*
X14006968Y-13119531D02*
X13997444Y-13090960D01*
X13997444Y-13090960D02*
X13987920Y-13043341D01*
X13987920Y-13043341D02*
X13987920Y-13005246D01*
X13987920Y-13005246D02*
X13997444Y-12957627D01*
X13997444Y-12957627D02*
X14006968Y-12929055D01*
X14006968Y-12929055D02*
X14016491Y-12910008D01*
X14016491Y-12910008D02*
X14035539Y-12881436D01*
X14035539Y-12881436D02*
X14045063Y-12871912D01*
X14111729Y-12919531D02*
X14121253Y-12910008D01*
X14121253Y-12910008D02*
X14140301Y-12900484D01*
X14140301Y-12900484D02*
X14187920Y-12900484D01*
X14187920Y-12900484D02*
X14206968Y-12910008D01*
X14206968Y-12910008D02*
X14216491Y-12919531D01*
X14216491Y-12919531D02*
X14226015Y-12938579D01*
X14226015Y-12938579D02*
X14226015Y-12957627D01*
X14226015Y-12957627D02*
X14216491Y-12986198D01*
X14216491Y-12986198D02*
X14102206Y-13100484D01*
X14102206Y-13100484D02*
X14226015Y-13100484D01*
X14292682Y-12900484D02*
X14426015Y-12900484D01*
X14426015Y-12900484D02*
X14340301Y-13100484D01*
X14492682Y-12919531D02*
X14502206Y-12910008D01*
X14502206Y-12910008D02*
X14521253Y-12900484D01*
X14521253Y-12900484D02*
X14568872Y-12900484D01*
X14568872Y-12900484D02*
X14587920Y-12910008D01*
X14587920Y-12910008D02*
X14597444Y-12919531D01*
X14597444Y-12919531D02*
X14606968Y-12938579D01*
X14606968Y-12938579D02*
X14606968Y-12957627D01*
X14606968Y-12957627D02*
X14597444Y-12986198D01*
X14597444Y-12986198D02*
X14483158Y-13100484D01*
X14483158Y-13100484D02*
X14606968Y-13100484D01*
X14845063Y-13100484D02*
X14845063Y-12900484D01*
X14930777Y-13100484D02*
X14930777Y-12995722D01*
X14930777Y-12995722D02*
X14921253Y-12976674D01*
X14921253Y-12976674D02*
X14902206Y-12967150D01*
X14902206Y-12967150D02*
X14873634Y-12967150D01*
X14873634Y-12967150D02*
X14854587Y-12976674D01*
X14854587Y-12976674D02*
X14845063Y-12986198D01*
X15054587Y-13100484D02*
X15035539Y-13090960D01*
X15035539Y-13090960D02*
X15026015Y-13081436D01*
X15026015Y-13081436D02*
X15016491Y-13062388D01*
X15016491Y-13062388D02*
X15016491Y-13005246D01*
X15016491Y-13005246D02*
X15026015Y-12986198D01*
X15026015Y-12986198D02*
X15035539Y-12976674D01*
X15035539Y-12976674D02*
X15054587Y-12967150D01*
X15054587Y-12967150D02*
X15083158Y-12967150D01*
X15083158Y-12967150D02*
X15102206Y-12976674D01*
X15102206Y-12976674D02*
X15111730Y-12986198D01*
X15111730Y-12986198D02*
X15121253Y-13005246D01*
X15121253Y-13005246D02*
X15121253Y-13062388D01*
X15121253Y-13062388D02*
X15111730Y-13081436D01*
X15111730Y-13081436D02*
X15102206Y-13090960D01*
X15102206Y-13090960D02*
X15083158Y-13100484D01*
X15083158Y-13100484D02*
X15054587Y-13100484D01*
X15235539Y-13100484D02*
X15216491Y-13090960D01*
X15216491Y-13090960D02*
X15206968Y-13071912D01*
X15206968Y-13071912D02*
X15206968Y-12900484D01*
X15387920Y-13090960D02*
X15368872Y-13100484D01*
X15368872Y-13100484D02*
X15330777Y-13100484D01*
X15330777Y-13100484D02*
X15311730Y-13090960D01*
X15311730Y-13090960D02*
X15302206Y-13071912D01*
X15302206Y-13071912D02*
X15302206Y-12995722D01*
X15302206Y-12995722D02*
X15311730Y-12976674D01*
X15311730Y-12976674D02*
X15330777Y-12967150D01*
X15330777Y-12967150D02*
X15368872Y-12967150D01*
X15368872Y-12967150D02*
X15387920Y-12976674D01*
X15387920Y-12976674D02*
X15397444Y-12995722D01*
X15397444Y-12995722D02*
X15397444Y-13014769D01*
X15397444Y-13014769D02*
X15302206Y-13033817D01*
X15473634Y-13090960D02*
X15492682Y-13100484D01*
X15492682Y-13100484D02*
X15530777Y-13100484D01*
X15530777Y-13100484D02*
X15549825Y-13090960D01*
X15549825Y-13090960D02*
X15559349Y-13071912D01*
X15559349Y-13071912D02*
X15559349Y-13062388D01*
X15559349Y-13062388D02*
X15549825Y-13043341D01*
X15549825Y-13043341D02*
X15530777Y-13033817D01*
X15530777Y-13033817D02*
X15502206Y-13033817D01*
X15502206Y-13033817D02*
X15483158Y-13024293D01*
X15483158Y-13024293D02*
X15473634Y-13005246D01*
X15473634Y-13005246D02*
X15473634Y-12995722D01*
X15473634Y-12995722D02*
X15483158Y-12976674D01*
X15483158Y-12976674D02*
X15502206Y-12967150D01*
X15502206Y-12967150D02*
X15530777Y-12967150D01*
X15530777Y-12967150D02*
X15549825Y-12976674D01*
X15626015Y-13176674D02*
X15635539Y-13167150D01*
X15635539Y-13167150D02*
X15654587Y-13138579D01*
X15654587Y-13138579D02*
X15664111Y-13119531D01*
X15664111Y-13119531D02*
X15673634Y-13090960D01*
X15673634Y-13090960D02*
X15683158Y-13043341D01*
X15683158Y-13043341D02*
X15683158Y-13005246D01*
X15683158Y-13005246D02*
X15673634Y-12957627D01*
X15673634Y-12957627D02*
X15664111Y-12929055D01*
X15664111Y-12929055D02*
X15654587Y-12910008D01*
X15654587Y-12910008D02*
X15635539Y-12881436D01*
X15635539Y-12881436D02*
X15626015Y-12871912D01*
D14*
X10445000Y-13248000D02*
X10445000Y-13298000D01*
X10420000Y-13273000D02*
X10470000Y-13273000D01*
D11*
X10768872Y-13164484D02*
X10787920Y-13164484D01*
X10787920Y-13164484D02*
X10806967Y-13174008D01*
X10806967Y-13174008D02*
X10816491Y-13183531D01*
X10816491Y-13183531D02*
X10826015Y-13202579D01*
X10826015Y-13202579D02*
X10835539Y-13240674D01*
X10835539Y-13240674D02*
X10835539Y-13288293D01*
X10835539Y-13288293D02*
X10826015Y-13326388D01*
X10826015Y-13326388D02*
X10816491Y-13345436D01*
X10816491Y-13345436D02*
X10806967Y-13354960D01*
X10806967Y-13354960D02*
X10787920Y-13364484D01*
X10787920Y-13364484D02*
X10768872Y-13364484D01*
X10768872Y-13364484D02*
X10749824Y-13354960D01*
X10749824Y-13354960D02*
X10740301Y-13345436D01*
X10740301Y-13345436D02*
X10730777Y-13326388D01*
X10730777Y-13326388D02*
X10721253Y-13288293D01*
X10721253Y-13288293D02*
X10721253Y-13240674D01*
X10721253Y-13240674D02*
X10730777Y-13202579D01*
X10730777Y-13202579D02*
X10740301Y-13183531D01*
X10740301Y-13183531D02*
X10749824Y-13174008D01*
X10749824Y-13174008D02*
X10768872Y-13164484D01*
X10921253Y-13345436D02*
X10930777Y-13354960D01*
X10930777Y-13354960D02*
X10921253Y-13364484D01*
X10921253Y-13364484D02*
X10911729Y-13354960D01*
X10911729Y-13354960D02*
X10921253Y-13345436D01*
X10921253Y-13345436D02*
X10921253Y-13364484D01*
X11111729Y-13164484D02*
X11016491Y-13164484D01*
X11016491Y-13164484D02*
X11006967Y-13259722D01*
X11006967Y-13259722D02*
X11016491Y-13250198D01*
X11016491Y-13250198D02*
X11035539Y-13240674D01*
X11035539Y-13240674D02*
X11083158Y-13240674D01*
X11083158Y-13240674D02*
X11102205Y-13250198D01*
X11102205Y-13250198D02*
X11111729Y-13259722D01*
X11111729Y-13259722D02*
X11121253Y-13278769D01*
X11121253Y-13278769D02*
X11121253Y-13326388D01*
X11121253Y-13326388D02*
X11111729Y-13345436D01*
X11111729Y-13345436D02*
X11102205Y-13354960D01*
X11102205Y-13354960D02*
X11083158Y-13364484D01*
X11083158Y-13364484D02*
X11035539Y-13364484D01*
X11035539Y-13364484D02*
X11016491Y-13354960D01*
X11016491Y-13354960D02*
X11006967Y-13345436D01*
X11245062Y-13164484D02*
X11264110Y-13164484D01*
X11264110Y-13164484D02*
X11283158Y-13174008D01*
X11283158Y-13174008D02*
X11292682Y-13183531D01*
X11292682Y-13183531D02*
X11302205Y-13202579D01*
X11302205Y-13202579D02*
X11311729Y-13240674D01*
X11311729Y-13240674D02*
X11311729Y-13288293D01*
X11311729Y-13288293D02*
X11302205Y-13326388D01*
X11302205Y-13326388D02*
X11292682Y-13345436D01*
X11292682Y-13345436D02*
X11283158Y-13354960D01*
X11283158Y-13354960D02*
X11264110Y-13364484D01*
X11264110Y-13364484D02*
X11245062Y-13364484D01*
X11245062Y-13364484D02*
X11226015Y-13354960D01*
X11226015Y-13354960D02*
X11216491Y-13345436D01*
X11216491Y-13345436D02*
X11206967Y-13326388D01*
X11206967Y-13326388D02*
X11197443Y-13288293D01*
X11197443Y-13288293D02*
X11197443Y-13240674D01*
X11197443Y-13240674D02*
X11206967Y-13202579D01*
X11206967Y-13202579D02*
X11216491Y-13183531D01*
X11216491Y-13183531D02*
X11226015Y-13174008D01*
X11226015Y-13174008D02*
X11245062Y-13164484D01*
X11435539Y-13164484D02*
X11454586Y-13164484D01*
X11454586Y-13164484D02*
X11473634Y-13174008D01*
X11473634Y-13174008D02*
X11483158Y-13183531D01*
X11483158Y-13183531D02*
X11492682Y-13202579D01*
X11492682Y-13202579D02*
X11502205Y-13240674D01*
X11502205Y-13240674D02*
X11502205Y-13288293D01*
X11502205Y-13288293D02*
X11492682Y-13326388D01*
X11492682Y-13326388D02*
X11483158Y-13345436D01*
X11483158Y-13345436D02*
X11473634Y-13354960D01*
X11473634Y-13354960D02*
X11454586Y-13364484D01*
X11454586Y-13364484D02*
X11435539Y-13364484D01*
X11435539Y-13364484D02*
X11416491Y-13354960D01*
X11416491Y-13354960D02*
X11406967Y-13345436D01*
X11406967Y-13345436D02*
X11397443Y-13326388D01*
X11397443Y-13326388D02*
X11387920Y-13288293D01*
X11387920Y-13288293D02*
X11387920Y-13240674D01*
X11387920Y-13240674D02*
X11397443Y-13202579D01*
X11397443Y-13202579D02*
X11406967Y-13183531D01*
X11406967Y-13183531D02*
X11416491Y-13174008D01*
X11416491Y-13174008D02*
X11435539Y-13164484D01*
X11587920Y-13364484D02*
X11587920Y-13231150D01*
X11587920Y-13250198D02*
X11597443Y-13240674D01*
X11597443Y-13240674D02*
X11616491Y-13231150D01*
X11616491Y-13231150D02*
X11645063Y-13231150D01*
X11645063Y-13231150D02*
X11664110Y-13240674D01*
X11664110Y-13240674D02*
X11673634Y-13259722D01*
X11673634Y-13259722D02*
X11673634Y-13364484D01*
X11673634Y-13259722D02*
X11683158Y-13240674D01*
X11683158Y-13240674D02*
X11702205Y-13231150D01*
X11702205Y-13231150D02*
X11730777Y-13231150D01*
X11730777Y-13231150D02*
X11749824Y-13240674D01*
X11749824Y-13240674D02*
X11759348Y-13259722D01*
X11759348Y-13259722D02*
X11759348Y-13364484D01*
X11854586Y-13364484D02*
X11854586Y-13231150D01*
X11854586Y-13250198D02*
X11864110Y-13240674D01*
X11864110Y-13240674D02*
X11883158Y-13231150D01*
X11883158Y-13231150D02*
X11911729Y-13231150D01*
X11911729Y-13231150D02*
X11930777Y-13240674D01*
X11930777Y-13240674D02*
X11940301Y-13259722D01*
X11940301Y-13259722D02*
X11940301Y-13364484D01*
X11940301Y-13259722D02*
X11949824Y-13240674D01*
X11949824Y-13240674D02*
X11968872Y-13231150D01*
X11968872Y-13231150D02*
X11997443Y-13231150D01*
X11997443Y-13231150D02*
X12016491Y-13240674D01*
X12016491Y-13240674D02*
X12026015Y-13259722D01*
X12026015Y-13259722D02*
X12026015Y-13364484D01*
X12416491Y-13154960D02*
X12245063Y-13412103D01*
X12673634Y-13164484D02*
X12692682Y-13164484D01*
X12692682Y-13164484D02*
X12711729Y-13174008D01*
X12711729Y-13174008D02*
X12721253Y-13183531D01*
X12721253Y-13183531D02*
X12730777Y-13202579D01*
X12730777Y-13202579D02*
X12740301Y-13240674D01*
X12740301Y-13240674D02*
X12740301Y-13288293D01*
X12740301Y-13288293D02*
X12730777Y-13326388D01*
X12730777Y-13326388D02*
X12721253Y-13345436D01*
X12721253Y-13345436D02*
X12711729Y-13354960D01*
X12711729Y-13354960D02*
X12692682Y-13364484D01*
X12692682Y-13364484D02*
X12673634Y-13364484D01*
X12673634Y-13364484D02*
X12654586Y-13354960D01*
X12654586Y-13354960D02*
X12645063Y-13345436D01*
X12645063Y-13345436D02*
X12635539Y-13326388D01*
X12635539Y-13326388D02*
X12626015Y-13288293D01*
X12626015Y-13288293D02*
X12626015Y-13240674D01*
X12626015Y-13240674D02*
X12635539Y-13202579D01*
X12635539Y-13202579D02*
X12645063Y-13183531D01*
X12645063Y-13183531D02*
X12654586Y-13174008D01*
X12654586Y-13174008D02*
X12673634Y-13164484D01*
X12826015Y-13345436D02*
X12835539Y-13354960D01*
X12835539Y-13354960D02*
X12826015Y-13364484D01*
X12826015Y-13364484D02*
X12816491Y-13354960D01*
X12816491Y-13354960D02*
X12826015Y-13345436D01*
X12826015Y-13345436D02*
X12826015Y-13364484D01*
X12959348Y-13164484D02*
X12978396Y-13164484D01*
X12978396Y-13164484D02*
X12997444Y-13174008D01*
X12997444Y-13174008D02*
X13006967Y-13183531D01*
X13006967Y-13183531D02*
X13016491Y-13202579D01*
X13016491Y-13202579D02*
X13026015Y-13240674D01*
X13026015Y-13240674D02*
X13026015Y-13288293D01*
X13026015Y-13288293D02*
X13016491Y-13326388D01*
X13016491Y-13326388D02*
X13006967Y-13345436D01*
X13006967Y-13345436D02*
X12997444Y-13354960D01*
X12997444Y-13354960D02*
X12978396Y-13364484D01*
X12978396Y-13364484D02*
X12959348Y-13364484D01*
X12959348Y-13364484D02*
X12940301Y-13354960D01*
X12940301Y-13354960D02*
X12930777Y-13345436D01*
X12930777Y-13345436D02*
X12921253Y-13326388D01*
X12921253Y-13326388D02*
X12911729Y-13288293D01*
X12911729Y-13288293D02*
X12911729Y-13240674D01*
X12911729Y-13240674D02*
X12921253Y-13202579D01*
X12921253Y-13202579D02*
X12930777Y-13183531D01*
X12930777Y-13183531D02*
X12940301Y-13174008D01*
X12940301Y-13174008D02*
X12959348Y-13164484D01*
X13216491Y-13364484D02*
X13102206Y-13364484D01*
X13159348Y-13364484D02*
X13159348Y-13164484D01*
X13159348Y-13164484D02*
X13140301Y-13193055D01*
X13140301Y-13193055D02*
X13121253Y-13212103D01*
X13121253Y-13212103D02*
X13102206Y-13221627D01*
X13311729Y-13364484D02*
X13349825Y-13364484D01*
X13349825Y-13364484D02*
X13368872Y-13354960D01*
X13368872Y-13354960D02*
X13378396Y-13345436D01*
X13378396Y-13345436D02*
X13397444Y-13316865D01*
X13397444Y-13316865D02*
X13406967Y-13278769D01*
X13406967Y-13278769D02*
X13406967Y-13202579D01*
X13406967Y-13202579D02*
X13397444Y-13183531D01*
X13397444Y-13183531D02*
X13387920Y-13174008D01*
X13387920Y-13174008D02*
X13368872Y-13164484D01*
X13368872Y-13164484D02*
X13330777Y-13164484D01*
X13330777Y-13164484D02*
X13311729Y-13174008D01*
X13311729Y-13174008D02*
X13302206Y-13183531D01*
X13302206Y-13183531D02*
X13292682Y-13202579D01*
X13292682Y-13202579D02*
X13292682Y-13250198D01*
X13292682Y-13250198D02*
X13302206Y-13269246D01*
X13302206Y-13269246D02*
X13311729Y-13278769D01*
X13311729Y-13278769D02*
X13330777Y-13288293D01*
X13330777Y-13288293D02*
X13368872Y-13288293D01*
X13368872Y-13288293D02*
X13387920Y-13278769D01*
X13387920Y-13278769D02*
X13397444Y-13269246D01*
X13397444Y-13269246D02*
X13406967Y-13250198D01*
X13473634Y-13164484D02*
X13606967Y-13164484D01*
X13606967Y-13164484D02*
X13521253Y-13364484D01*
X13673634Y-13164484D02*
X13673634Y-13202579D01*
X13749825Y-13164484D02*
X13749825Y-13202579D01*
X14045063Y-13440674D02*
X14035539Y-13431150D01*
X14035539Y-13431150D02*
X14016491Y-13402579D01*
X14016491Y-13402579D02*
X14006968Y-13383531D01*
X14006968Y-13383531D02*
X13997444Y-13354960D01*
X13997444Y-13354960D02*
X13987920Y-13307341D01*
X13987920Y-13307341D02*
X13987920Y-13269246D01*
X13987920Y-13269246D02*
X13997444Y-13221627D01*
X13997444Y-13221627D02*
X14006968Y-13193055D01*
X14006968Y-13193055D02*
X14016491Y-13174008D01*
X14016491Y-13174008D02*
X14035539Y-13145436D01*
X14035539Y-13145436D02*
X14045063Y-13135912D01*
X14226015Y-13364484D02*
X14111729Y-13364484D01*
X14168872Y-13364484D02*
X14168872Y-13164484D01*
X14168872Y-13164484D02*
X14149825Y-13193055D01*
X14149825Y-13193055D02*
X14130777Y-13212103D01*
X14130777Y-13212103D02*
X14111729Y-13221627D01*
X14464110Y-13364484D02*
X14464110Y-13164484D01*
X14549825Y-13364484D02*
X14549825Y-13259722D01*
X14549825Y-13259722D02*
X14540301Y-13240674D01*
X14540301Y-13240674D02*
X14521253Y-13231150D01*
X14521253Y-13231150D02*
X14492682Y-13231150D01*
X14492682Y-13231150D02*
X14473634Y-13240674D01*
X14473634Y-13240674D02*
X14464110Y-13250198D01*
X14673634Y-13364484D02*
X14654587Y-13354960D01*
X14654587Y-13354960D02*
X14645063Y-13345436D01*
X14645063Y-13345436D02*
X14635539Y-13326388D01*
X14635539Y-13326388D02*
X14635539Y-13269246D01*
X14635539Y-13269246D02*
X14645063Y-13250198D01*
X14645063Y-13250198D02*
X14654587Y-13240674D01*
X14654587Y-13240674D02*
X14673634Y-13231150D01*
X14673634Y-13231150D02*
X14702206Y-13231150D01*
X14702206Y-13231150D02*
X14721253Y-13240674D01*
X14721253Y-13240674D02*
X14730777Y-13250198D01*
X14730777Y-13250198D02*
X14740301Y-13269246D01*
X14740301Y-13269246D02*
X14740301Y-13326388D01*
X14740301Y-13326388D02*
X14730777Y-13345436D01*
X14730777Y-13345436D02*
X14721253Y-13354960D01*
X14721253Y-13354960D02*
X14702206Y-13364484D01*
X14702206Y-13364484D02*
X14673634Y-13364484D01*
X14854587Y-13364484D02*
X14835539Y-13354960D01*
X14835539Y-13354960D02*
X14826015Y-13335912D01*
X14826015Y-13335912D02*
X14826015Y-13164484D01*
X15006968Y-13354960D02*
X14987920Y-13364484D01*
X14987920Y-13364484D02*
X14949825Y-13364484D01*
X14949825Y-13364484D02*
X14930777Y-13354960D01*
X14930777Y-13354960D02*
X14921253Y-13335912D01*
X14921253Y-13335912D02*
X14921253Y-13259722D01*
X14921253Y-13259722D02*
X14930777Y-13240674D01*
X14930777Y-13240674D02*
X14949825Y-13231150D01*
X14949825Y-13231150D02*
X14987920Y-13231150D01*
X14987920Y-13231150D02*
X15006968Y-13240674D01*
X15006968Y-13240674D02*
X15016491Y-13259722D01*
X15016491Y-13259722D02*
X15016491Y-13278769D01*
X15016491Y-13278769D02*
X14921253Y-13297817D01*
X15083158Y-13440674D02*
X15092682Y-13431150D01*
X15092682Y-13431150D02*
X15111730Y-13402579D01*
X15111730Y-13402579D02*
X15121253Y-13383531D01*
X15121253Y-13383531D02*
X15130777Y-13354960D01*
X15130777Y-13354960D02*
X15140301Y-13307341D01*
X15140301Y-13307341D02*
X15140301Y-13269246D01*
X15140301Y-13269246D02*
X15130777Y-13221627D01*
X15130777Y-13221627D02*
X15121253Y-13193055D01*
X15121253Y-13193055D02*
X15111730Y-13174008D01*
X15111730Y-13174008D02*
X15092682Y-13145436D01*
X15092682Y-13145436D02*
X15083158Y-13135912D01*
D15*
X10456820Y-13568820D02*
X10456820Y-13505180D01*
X10393180Y-13505180D01*
X10393180Y-13568820D01*
X10456820Y-13568820D01*
D11*
X10768872Y-13428484D02*
X10787920Y-13428484D01*
X10787920Y-13428484D02*
X10806967Y-13438008D01*
X10806967Y-13438008D02*
X10816491Y-13447531D01*
X10816491Y-13447531D02*
X10826015Y-13466579D01*
X10826015Y-13466579D02*
X10835539Y-13504674D01*
X10835539Y-13504674D02*
X10835539Y-13552293D01*
X10835539Y-13552293D02*
X10826015Y-13590388D01*
X10826015Y-13590388D02*
X10816491Y-13609436D01*
X10816491Y-13609436D02*
X10806967Y-13618960D01*
X10806967Y-13618960D02*
X10787920Y-13628484D01*
X10787920Y-13628484D02*
X10768872Y-13628484D01*
X10768872Y-13628484D02*
X10749824Y-13618960D01*
X10749824Y-13618960D02*
X10740301Y-13609436D01*
X10740301Y-13609436D02*
X10730777Y-13590388D01*
X10730777Y-13590388D02*
X10721253Y-13552293D01*
X10721253Y-13552293D02*
X10721253Y-13504674D01*
X10721253Y-13504674D02*
X10730777Y-13466579D01*
X10730777Y-13466579D02*
X10740301Y-13447531D01*
X10740301Y-13447531D02*
X10749824Y-13438008D01*
X10749824Y-13438008D02*
X10768872Y-13428484D01*
X10921253Y-13609436D02*
X10930777Y-13618960D01*
X10930777Y-13618960D02*
X10921253Y-13628484D01*
X10921253Y-13628484D02*
X10911729Y-13618960D01*
X10911729Y-13618960D02*
X10921253Y-13609436D01*
X10921253Y-13609436D02*
X10921253Y-13628484D01*
X11026015Y-13628484D02*
X11064110Y-13628484D01*
X11064110Y-13628484D02*
X11083158Y-13618960D01*
X11083158Y-13618960D02*
X11092682Y-13609436D01*
X11092682Y-13609436D02*
X11111729Y-13580865D01*
X11111729Y-13580865D02*
X11121253Y-13542769D01*
X11121253Y-13542769D02*
X11121253Y-13466579D01*
X11121253Y-13466579D02*
X11111729Y-13447531D01*
X11111729Y-13447531D02*
X11102205Y-13438008D01*
X11102205Y-13438008D02*
X11083158Y-13428484D01*
X11083158Y-13428484D02*
X11045063Y-13428484D01*
X11045063Y-13428484D02*
X11026015Y-13438008D01*
X11026015Y-13438008D02*
X11016491Y-13447531D01*
X11016491Y-13447531D02*
X11006967Y-13466579D01*
X11006967Y-13466579D02*
X11006967Y-13514198D01*
X11006967Y-13514198D02*
X11016491Y-13533246D01*
X11016491Y-13533246D02*
X11026015Y-13542769D01*
X11026015Y-13542769D02*
X11045063Y-13552293D01*
X11045063Y-13552293D02*
X11083158Y-13552293D01*
X11083158Y-13552293D02*
X11102205Y-13542769D01*
X11102205Y-13542769D02*
X11111729Y-13533246D01*
X11111729Y-13533246D02*
X11121253Y-13514198D01*
X11245062Y-13428484D02*
X11264110Y-13428484D01*
X11264110Y-13428484D02*
X11283158Y-13438008D01*
X11283158Y-13438008D02*
X11292682Y-13447531D01*
X11292682Y-13447531D02*
X11302205Y-13466579D01*
X11302205Y-13466579D02*
X11311729Y-13504674D01*
X11311729Y-13504674D02*
X11311729Y-13552293D01*
X11311729Y-13552293D02*
X11302205Y-13590388D01*
X11302205Y-13590388D02*
X11292682Y-13609436D01*
X11292682Y-13609436D02*
X11283158Y-13618960D01*
X11283158Y-13618960D02*
X11264110Y-13628484D01*
X11264110Y-13628484D02*
X11245062Y-13628484D01*
X11245062Y-13628484D02*
X11226015Y-13618960D01*
X11226015Y-13618960D02*
X11216491Y-13609436D01*
X11216491Y-13609436D02*
X11206967Y-13590388D01*
X11206967Y-13590388D02*
X11197443Y-13552293D01*
X11197443Y-13552293D02*
X11197443Y-13504674D01*
X11197443Y-13504674D02*
X11206967Y-13466579D01*
X11206967Y-13466579D02*
X11216491Y-13447531D01*
X11216491Y-13447531D02*
X11226015Y-13438008D01*
X11226015Y-13438008D02*
X11245062Y-13428484D01*
X11435539Y-13428484D02*
X11454586Y-13428484D01*
X11454586Y-13428484D02*
X11473634Y-13438008D01*
X11473634Y-13438008D02*
X11483158Y-13447531D01*
X11483158Y-13447531D02*
X11492682Y-13466579D01*
X11492682Y-13466579D02*
X11502205Y-13504674D01*
X11502205Y-13504674D02*
X11502205Y-13552293D01*
X11502205Y-13552293D02*
X11492682Y-13590388D01*
X11492682Y-13590388D02*
X11483158Y-13609436D01*
X11483158Y-13609436D02*
X11473634Y-13618960D01*
X11473634Y-13618960D02*
X11454586Y-13628484D01*
X11454586Y-13628484D02*
X11435539Y-13628484D01*
X11435539Y-13628484D02*
X11416491Y-13618960D01*
X11416491Y-13618960D02*
X11406967Y-13609436D01*
X11406967Y-13609436D02*
X11397443Y-13590388D01*
X11397443Y-13590388D02*
X11387920Y-13552293D01*
X11387920Y-13552293D02*
X11387920Y-13504674D01*
X11387920Y-13504674D02*
X11397443Y-13466579D01*
X11397443Y-13466579D02*
X11406967Y-13447531D01*
X11406967Y-13447531D02*
X11416491Y-13438008D01*
X11416491Y-13438008D02*
X11435539Y-13428484D01*
X11587920Y-13628484D02*
X11587920Y-13495150D01*
X11587920Y-13514198D02*
X11597443Y-13504674D01*
X11597443Y-13504674D02*
X11616491Y-13495150D01*
X11616491Y-13495150D02*
X11645063Y-13495150D01*
X11645063Y-13495150D02*
X11664110Y-13504674D01*
X11664110Y-13504674D02*
X11673634Y-13523722D01*
X11673634Y-13523722D02*
X11673634Y-13628484D01*
X11673634Y-13523722D02*
X11683158Y-13504674D01*
X11683158Y-13504674D02*
X11702205Y-13495150D01*
X11702205Y-13495150D02*
X11730777Y-13495150D01*
X11730777Y-13495150D02*
X11749824Y-13504674D01*
X11749824Y-13504674D02*
X11759348Y-13523722D01*
X11759348Y-13523722D02*
X11759348Y-13628484D01*
X11854586Y-13628484D02*
X11854586Y-13495150D01*
X11854586Y-13514198D02*
X11864110Y-13504674D01*
X11864110Y-13504674D02*
X11883158Y-13495150D01*
X11883158Y-13495150D02*
X11911729Y-13495150D01*
X11911729Y-13495150D02*
X11930777Y-13504674D01*
X11930777Y-13504674D02*
X11940301Y-13523722D01*
X11940301Y-13523722D02*
X11940301Y-13628484D01*
X11940301Y-13523722D02*
X11949824Y-13504674D01*
X11949824Y-13504674D02*
X11968872Y-13495150D01*
X11968872Y-13495150D02*
X11997443Y-13495150D01*
X11997443Y-13495150D02*
X12016491Y-13504674D01*
X12016491Y-13504674D02*
X12026015Y-13523722D01*
X12026015Y-13523722D02*
X12026015Y-13628484D01*
X12416491Y-13418960D02*
X12245063Y-13676103D01*
X12673634Y-13428484D02*
X12692682Y-13428484D01*
X12692682Y-13428484D02*
X12711729Y-13438008D01*
X12711729Y-13438008D02*
X12721253Y-13447531D01*
X12721253Y-13447531D02*
X12730777Y-13466579D01*
X12730777Y-13466579D02*
X12740301Y-13504674D01*
X12740301Y-13504674D02*
X12740301Y-13552293D01*
X12740301Y-13552293D02*
X12730777Y-13590388D01*
X12730777Y-13590388D02*
X12721253Y-13609436D01*
X12721253Y-13609436D02*
X12711729Y-13618960D01*
X12711729Y-13618960D02*
X12692682Y-13628484D01*
X12692682Y-13628484D02*
X12673634Y-13628484D01*
X12673634Y-13628484D02*
X12654586Y-13618960D01*
X12654586Y-13618960D02*
X12645063Y-13609436D01*
X12645063Y-13609436D02*
X12635539Y-13590388D01*
X12635539Y-13590388D02*
X12626015Y-13552293D01*
X12626015Y-13552293D02*
X12626015Y-13504674D01*
X12626015Y-13504674D02*
X12635539Y-13466579D01*
X12635539Y-13466579D02*
X12645063Y-13447531D01*
X12645063Y-13447531D02*
X12654586Y-13438008D01*
X12654586Y-13438008D02*
X12673634Y-13428484D01*
X12826015Y-13609436D02*
X12835539Y-13618960D01*
X12835539Y-13618960D02*
X12826015Y-13628484D01*
X12826015Y-13628484D02*
X12816491Y-13618960D01*
X12816491Y-13618960D02*
X12826015Y-13609436D01*
X12826015Y-13609436D02*
X12826015Y-13628484D01*
X12959348Y-13428484D02*
X12978396Y-13428484D01*
X12978396Y-13428484D02*
X12997444Y-13438008D01*
X12997444Y-13438008D02*
X13006967Y-13447531D01*
X13006967Y-13447531D02*
X13016491Y-13466579D01*
X13016491Y-13466579D02*
X13026015Y-13504674D01*
X13026015Y-13504674D02*
X13026015Y-13552293D01*
X13026015Y-13552293D02*
X13016491Y-13590388D01*
X13016491Y-13590388D02*
X13006967Y-13609436D01*
X13006967Y-13609436D02*
X12997444Y-13618960D01*
X12997444Y-13618960D02*
X12978396Y-13628484D01*
X12978396Y-13628484D02*
X12959348Y-13628484D01*
X12959348Y-13628484D02*
X12940301Y-13618960D01*
X12940301Y-13618960D02*
X12930777Y-13609436D01*
X12930777Y-13609436D02*
X12921253Y-13590388D01*
X12921253Y-13590388D02*
X12911729Y-13552293D01*
X12911729Y-13552293D02*
X12911729Y-13504674D01*
X12911729Y-13504674D02*
X12921253Y-13466579D01*
X12921253Y-13466579D02*
X12930777Y-13447531D01*
X12930777Y-13447531D02*
X12940301Y-13438008D01*
X12940301Y-13438008D02*
X12959348Y-13428484D01*
X13092682Y-13428484D02*
X13216491Y-13428484D01*
X13216491Y-13428484D02*
X13149825Y-13504674D01*
X13149825Y-13504674D02*
X13178396Y-13504674D01*
X13178396Y-13504674D02*
X13197444Y-13514198D01*
X13197444Y-13514198D02*
X13206967Y-13523722D01*
X13206967Y-13523722D02*
X13216491Y-13542769D01*
X13216491Y-13542769D02*
X13216491Y-13590388D01*
X13216491Y-13590388D02*
X13206967Y-13609436D01*
X13206967Y-13609436D02*
X13197444Y-13618960D01*
X13197444Y-13618960D02*
X13178396Y-13628484D01*
X13178396Y-13628484D02*
X13121253Y-13628484D01*
X13121253Y-13628484D02*
X13102206Y-13618960D01*
X13102206Y-13618960D02*
X13092682Y-13609436D01*
X13397444Y-13428484D02*
X13302206Y-13428484D01*
X13302206Y-13428484D02*
X13292682Y-13523722D01*
X13292682Y-13523722D02*
X13302206Y-13514198D01*
X13302206Y-13514198D02*
X13321253Y-13504674D01*
X13321253Y-13504674D02*
X13368872Y-13504674D01*
X13368872Y-13504674D02*
X13387920Y-13514198D01*
X13387920Y-13514198D02*
X13397444Y-13523722D01*
X13397444Y-13523722D02*
X13406967Y-13542769D01*
X13406967Y-13542769D02*
X13406967Y-13590388D01*
X13406967Y-13590388D02*
X13397444Y-13609436D01*
X13397444Y-13609436D02*
X13387920Y-13618960D01*
X13387920Y-13618960D02*
X13368872Y-13628484D01*
X13368872Y-13628484D02*
X13321253Y-13628484D01*
X13321253Y-13628484D02*
X13302206Y-13618960D01*
X13302206Y-13618960D02*
X13292682Y-13609436D01*
X13578396Y-13495150D02*
X13578396Y-13628484D01*
X13530777Y-13418960D02*
X13483158Y-13561817D01*
X13483158Y-13561817D02*
X13606967Y-13561817D01*
X13673634Y-13428484D02*
X13673634Y-13466579D01*
X13749825Y-13428484D02*
X13749825Y-13466579D01*
X14045063Y-13704674D02*
X14035539Y-13695150D01*
X14035539Y-13695150D02*
X14016491Y-13666579D01*
X14016491Y-13666579D02*
X14006968Y-13647531D01*
X14006968Y-13647531D02*
X13997444Y-13618960D01*
X13997444Y-13618960D02*
X13987920Y-13571341D01*
X13987920Y-13571341D02*
X13987920Y-13533246D01*
X13987920Y-13533246D02*
X13997444Y-13485627D01*
X13997444Y-13485627D02*
X14006968Y-13457055D01*
X14006968Y-13457055D02*
X14016491Y-13438008D01*
X14016491Y-13438008D02*
X14035539Y-13409436D01*
X14035539Y-13409436D02*
X14045063Y-13399912D01*
X14102206Y-13428484D02*
X14226015Y-13428484D01*
X14226015Y-13428484D02*
X14159348Y-13504674D01*
X14159348Y-13504674D02*
X14187920Y-13504674D01*
X14187920Y-13504674D02*
X14206968Y-13514198D01*
X14206968Y-13514198D02*
X14216491Y-13523722D01*
X14216491Y-13523722D02*
X14226015Y-13542769D01*
X14226015Y-13542769D02*
X14226015Y-13590388D01*
X14226015Y-13590388D02*
X14216491Y-13609436D01*
X14216491Y-13609436D02*
X14206968Y-13618960D01*
X14206968Y-13618960D02*
X14187920Y-13628484D01*
X14187920Y-13628484D02*
X14130777Y-13628484D01*
X14130777Y-13628484D02*
X14111729Y-13618960D01*
X14111729Y-13618960D02*
X14102206Y-13609436D01*
X14464110Y-13628484D02*
X14464110Y-13428484D01*
X14549825Y-13628484D02*
X14549825Y-13523722D01*
X14549825Y-13523722D02*
X14540301Y-13504674D01*
X14540301Y-13504674D02*
X14521253Y-13495150D01*
X14521253Y-13495150D02*
X14492682Y-13495150D01*
X14492682Y-13495150D02*
X14473634Y-13504674D01*
X14473634Y-13504674D02*
X14464110Y-13514198D01*
X14673634Y-13628484D02*
X14654587Y-13618960D01*
X14654587Y-13618960D02*
X14645063Y-13609436D01*
X14645063Y-13609436D02*
X14635539Y-13590388D01*
X14635539Y-13590388D02*
X14635539Y-13533246D01*
X14635539Y-13533246D02*
X14645063Y-13514198D01*
X14645063Y-13514198D02*
X14654587Y-13504674D01*
X14654587Y-13504674D02*
X14673634Y-13495150D01*
X14673634Y-13495150D02*
X14702206Y-13495150D01*
X14702206Y-13495150D02*
X14721253Y-13504674D01*
X14721253Y-13504674D02*
X14730777Y-13514198D01*
X14730777Y-13514198D02*
X14740301Y-13533246D01*
X14740301Y-13533246D02*
X14740301Y-13590388D01*
X14740301Y-13590388D02*
X14730777Y-13609436D01*
X14730777Y-13609436D02*
X14721253Y-13618960D01*
X14721253Y-13618960D02*
X14702206Y-13628484D01*
X14702206Y-13628484D02*
X14673634Y-13628484D01*
X14854587Y-13628484D02*
X14835539Y-13618960D01*
X14835539Y-13618960D02*
X14826015Y-13599912D01*
X14826015Y-13599912D02*
X14826015Y-13428484D01*
X15006968Y-13618960D02*
X14987920Y-13628484D01*
X14987920Y-13628484D02*
X14949825Y-13628484D01*
X14949825Y-13628484D02*
X14930777Y-13618960D01*
X14930777Y-13618960D02*
X14921253Y-13599912D01*
X14921253Y-13599912D02*
X14921253Y-13523722D01*
X14921253Y-13523722D02*
X14930777Y-13504674D01*
X14930777Y-13504674D02*
X14949825Y-13495150D01*
X14949825Y-13495150D02*
X14987920Y-13495150D01*
X14987920Y-13495150D02*
X15006968Y-13504674D01*
X15006968Y-13504674D02*
X15016491Y-13523722D01*
X15016491Y-13523722D02*
X15016491Y-13542769D01*
X15016491Y-13542769D02*
X14921253Y-13561817D01*
X15092682Y-13618960D02*
X15111730Y-13628484D01*
X15111730Y-13628484D02*
X15149825Y-13628484D01*
X15149825Y-13628484D02*
X15168872Y-13618960D01*
X15168872Y-13618960D02*
X15178396Y-13599912D01*
X15178396Y-13599912D02*
X15178396Y-13590388D01*
X15178396Y-13590388D02*
X15168872Y-13571341D01*
X15168872Y-13571341D02*
X15149825Y-13561817D01*
X15149825Y-13561817D02*
X15121253Y-13561817D01*
X15121253Y-13561817D02*
X15102206Y-13552293D01*
X15102206Y-13552293D02*
X15092682Y-13533246D01*
X15092682Y-13533246D02*
X15092682Y-13523722D01*
X15092682Y-13523722D02*
X15102206Y-13504674D01*
X15102206Y-13504674D02*
X15121253Y-13495150D01*
X15121253Y-13495150D02*
X15149825Y-13495150D01*
X15149825Y-13495150D02*
X15168872Y-13504674D01*
X15245063Y-13704674D02*
X15254587Y-13695150D01*
X15254587Y-13695150D02*
X15273634Y-13666579D01*
X15273634Y-13666579D02*
X15283158Y-13647531D01*
X15283158Y-13647531D02*
X15292682Y-13618960D01*
X15292682Y-13618960D02*
X15302206Y-13571341D01*
X15302206Y-13571341D02*
X15302206Y-13533246D01*
X15302206Y-13533246D02*
X15292682Y-13485627D01*
X15292682Y-13485627D02*
X15283158Y-13457055D01*
X15283158Y-13457055D02*
X15273634Y-13438008D01*
X15273634Y-13438008D02*
X15254587Y-13409436D01*
X15254587Y-13409436D02*
X15245063Y-13399912D01*
D10*
X10420000Y-13851000D02*
X10470000Y-13801000D01*
X10420000Y-13751000D01*
X10370000Y-13801000D01*
X10420000Y-13851000D01*
D11*
X10835539Y-13892484D02*
X10721253Y-13892484D01*
X10778396Y-13892484D02*
X10778396Y-13692484D01*
X10778396Y-13692484D02*
X10759348Y-13721055D01*
X10759348Y-13721055D02*
X10740301Y-13740103D01*
X10740301Y-13740103D02*
X10721253Y-13749627D01*
X10921253Y-13873436D02*
X10930777Y-13882960D01*
X10930777Y-13882960D02*
X10921253Y-13892484D01*
X10921253Y-13892484D02*
X10911729Y-13882960D01*
X10911729Y-13882960D02*
X10921253Y-13873436D01*
X10921253Y-13873436D02*
X10921253Y-13892484D01*
X11054586Y-13692484D02*
X11073634Y-13692484D01*
X11073634Y-13692484D02*
X11092682Y-13702008D01*
X11092682Y-13702008D02*
X11102205Y-13711531D01*
X11102205Y-13711531D02*
X11111729Y-13730579D01*
X11111729Y-13730579D02*
X11121253Y-13768674D01*
X11121253Y-13768674D02*
X11121253Y-13816293D01*
X11121253Y-13816293D02*
X11111729Y-13854388D01*
X11111729Y-13854388D02*
X11102205Y-13873436D01*
X11102205Y-13873436D02*
X11092682Y-13882960D01*
X11092682Y-13882960D02*
X11073634Y-13892484D01*
X11073634Y-13892484D02*
X11054586Y-13892484D01*
X11054586Y-13892484D02*
X11035539Y-13882960D01*
X11035539Y-13882960D02*
X11026015Y-13873436D01*
X11026015Y-13873436D02*
X11016491Y-13854388D01*
X11016491Y-13854388D02*
X11006967Y-13816293D01*
X11006967Y-13816293D02*
X11006967Y-13768674D01*
X11006967Y-13768674D02*
X11016491Y-13730579D01*
X11016491Y-13730579D02*
X11026015Y-13711531D01*
X11026015Y-13711531D02*
X11035539Y-13702008D01*
X11035539Y-13702008D02*
X11054586Y-13692484D01*
X11245062Y-13692484D02*
X11264110Y-13692484D01*
X11264110Y-13692484D02*
X11283158Y-13702008D01*
X11283158Y-13702008D02*
X11292682Y-13711531D01*
X11292682Y-13711531D02*
X11302205Y-13730579D01*
X11302205Y-13730579D02*
X11311729Y-13768674D01*
X11311729Y-13768674D02*
X11311729Y-13816293D01*
X11311729Y-13816293D02*
X11302205Y-13854388D01*
X11302205Y-13854388D02*
X11292682Y-13873436D01*
X11292682Y-13873436D02*
X11283158Y-13882960D01*
X11283158Y-13882960D02*
X11264110Y-13892484D01*
X11264110Y-13892484D02*
X11245062Y-13892484D01*
X11245062Y-13892484D02*
X11226015Y-13882960D01*
X11226015Y-13882960D02*
X11216491Y-13873436D01*
X11216491Y-13873436D02*
X11206967Y-13854388D01*
X11206967Y-13854388D02*
X11197443Y-13816293D01*
X11197443Y-13816293D02*
X11197443Y-13768674D01*
X11197443Y-13768674D02*
X11206967Y-13730579D01*
X11206967Y-13730579D02*
X11216491Y-13711531D01*
X11216491Y-13711531D02*
X11226015Y-13702008D01*
X11226015Y-13702008D02*
X11245062Y-13692484D01*
X11435539Y-13692484D02*
X11454586Y-13692484D01*
X11454586Y-13692484D02*
X11473634Y-13702008D01*
X11473634Y-13702008D02*
X11483158Y-13711531D01*
X11483158Y-13711531D02*
X11492682Y-13730579D01*
X11492682Y-13730579D02*
X11502205Y-13768674D01*
X11502205Y-13768674D02*
X11502205Y-13816293D01*
X11502205Y-13816293D02*
X11492682Y-13854388D01*
X11492682Y-13854388D02*
X11483158Y-13873436D01*
X11483158Y-13873436D02*
X11473634Y-13882960D01*
X11473634Y-13882960D02*
X11454586Y-13892484D01*
X11454586Y-13892484D02*
X11435539Y-13892484D01*
X11435539Y-13892484D02*
X11416491Y-13882960D01*
X11416491Y-13882960D02*
X11406967Y-13873436D01*
X11406967Y-13873436D02*
X11397443Y-13854388D01*
X11397443Y-13854388D02*
X11387920Y-13816293D01*
X11387920Y-13816293D02*
X11387920Y-13768674D01*
X11387920Y-13768674D02*
X11397443Y-13730579D01*
X11397443Y-13730579D02*
X11406967Y-13711531D01*
X11406967Y-13711531D02*
X11416491Y-13702008D01*
X11416491Y-13702008D02*
X11435539Y-13692484D01*
X11587920Y-13892484D02*
X11587920Y-13759150D01*
X11587920Y-13778198D02*
X11597443Y-13768674D01*
X11597443Y-13768674D02*
X11616491Y-13759150D01*
X11616491Y-13759150D02*
X11645063Y-13759150D01*
X11645063Y-13759150D02*
X11664110Y-13768674D01*
X11664110Y-13768674D02*
X11673634Y-13787722D01*
X11673634Y-13787722D02*
X11673634Y-13892484D01*
X11673634Y-13787722D02*
X11683158Y-13768674D01*
X11683158Y-13768674D02*
X11702205Y-13759150D01*
X11702205Y-13759150D02*
X11730777Y-13759150D01*
X11730777Y-13759150D02*
X11749824Y-13768674D01*
X11749824Y-13768674D02*
X11759348Y-13787722D01*
X11759348Y-13787722D02*
X11759348Y-13892484D01*
X11854586Y-13892484D02*
X11854586Y-13759150D01*
X11854586Y-13778198D02*
X11864110Y-13768674D01*
X11864110Y-13768674D02*
X11883158Y-13759150D01*
X11883158Y-13759150D02*
X11911729Y-13759150D01*
X11911729Y-13759150D02*
X11930777Y-13768674D01*
X11930777Y-13768674D02*
X11940301Y-13787722D01*
X11940301Y-13787722D02*
X11940301Y-13892484D01*
X11940301Y-13787722D02*
X11949824Y-13768674D01*
X11949824Y-13768674D02*
X11968872Y-13759150D01*
X11968872Y-13759150D02*
X11997443Y-13759150D01*
X11997443Y-13759150D02*
X12016491Y-13768674D01*
X12016491Y-13768674D02*
X12026015Y-13787722D01*
X12026015Y-13787722D02*
X12026015Y-13892484D01*
X12416491Y-13682960D02*
X12245063Y-13940103D01*
X12673634Y-13692484D02*
X12692682Y-13692484D01*
X12692682Y-13692484D02*
X12711729Y-13702008D01*
X12711729Y-13702008D02*
X12721253Y-13711531D01*
X12721253Y-13711531D02*
X12730777Y-13730579D01*
X12730777Y-13730579D02*
X12740301Y-13768674D01*
X12740301Y-13768674D02*
X12740301Y-13816293D01*
X12740301Y-13816293D02*
X12730777Y-13854388D01*
X12730777Y-13854388D02*
X12721253Y-13873436D01*
X12721253Y-13873436D02*
X12711729Y-13882960D01*
X12711729Y-13882960D02*
X12692682Y-13892484D01*
X12692682Y-13892484D02*
X12673634Y-13892484D01*
X12673634Y-13892484D02*
X12654586Y-13882960D01*
X12654586Y-13882960D02*
X12645063Y-13873436D01*
X12645063Y-13873436D02*
X12635539Y-13854388D01*
X12635539Y-13854388D02*
X12626015Y-13816293D01*
X12626015Y-13816293D02*
X12626015Y-13768674D01*
X12626015Y-13768674D02*
X12635539Y-13730579D01*
X12635539Y-13730579D02*
X12645063Y-13711531D01*
X12645063Y-13711531D02*
X12654586Y-13702008D01*
X12654586Y-13702008D02*
X12673634Y-13692484D01*
X12826015Y-13873436D02*
X12835539Y-13882960D01*
X12835539Y-13882960D02*
X12826015Y-13892484D01*
X12826015Y-13892484D02*
X12816491Y-13882960D01*
X12816491Y-13882960D02*
X12826015Y-13873436D01*
X12826015Y-13873436D02*
X12826015Y-13892484D01*
X12959348Y-13692484D02*
X12978396Y-13692484D01*
X12978396Y-13692484D02*
X12997444Y-13702008D01*
X12997444Y-13702008D02*
X13006967Y-13711531D01*
X13006967Y-13711531D02*
X13016491Y-13730579D01*
X13016491Y-13730579D02*
X13026015Y-13768674D01*
X13026015Y-13768674D02*
X13026015Y-13816293D01*
X13026015Y-13816293D02*
X13016491Y-13854388D01*
X13016491Y-13854388D02*
X13006967Y-13873436D01*
X13006967Y-13873436D02*
X12997444Y-13882960D01*
X12997444Y-13882960D02*
X12978396Y-13892484D01*
X12978396Y-13892484D02*
X12959348Y-13892484D01*
X12959348Y-13892484D02*
X12940301Y-13882960D01*
X12940301Y-13882960D02*
X12930777Y-13873436D01*
X12930777Y-13873436D02*
X12921253Y-13854388D01*
X12921253Y-13854388D02*
X12911729Y-13816293D01*
X12911729Y-13816293D02*
X12911729Y-13768674D01*
X12911729Y-13768674D02*
X12921253Y-13730579D01*
X12921253Y-13730579D02*
X12930777Y-13711531D01*
X12930777Y-13711531D02*
X12940301Y-13702008D01*
X12940301Y-13702008D02*
X12959348Y-13692484D01*
X13092682Y-13692484D02*
X13216491Y-13692484D01*
X13216491Y-13692484D02*
X13149825Y-13768674D01*
X13149825Y-13768674D02*
X13178396Y-13768674D01*
X13178396Y-13768674D02*
X13197444Y-13778198D01*
X13197444Y-13778198D02*
X13206967Y-13787722D01*
X13206967Y-13787722D02*
X13216491Y-13806769D01*
X13216491Y-13806769D02*
X13216491Y-13854388D01*
X13216491Y-13854388D02*
X13206967Y-13873436D01*
X13206967Y-13873436D02*
X13197444Y-13882960D01*
X13197444Y-13882960D02*
X13178396Y-13892484D01*
X13178396Y-13892484D02*
X13121253Y-13892484D01*
X13121253Y-13892484D02*
X13102206Y-13882960D01*
X13102206Y-13882960D02*
X13092682Y-13873436D01*
X13311729Y-13892484D02*
X13349825Y-13892484D01*
X13349825Y-13892484D02*
X13368872Y-13882960D01*
X13368872Y-13882960D02*
X13378396Y-13873436D01*
X13378396Y-13873436D02*
X13397444Y-13844865D01*
X13397444Y-13844865D02*
X13406967Y-13806769D01*
X13406967Y-13806769D02*
X13406967Y-13730579D01*
X13406967Y-13730579D02*
X13397444Y-13711531D01*
X13397444Y-13711531D02*
X13387920Y-13702008D01*
X13387920Y-13702008D02*
X13368872Y-13692484D01*
X13368872Y-13692484D02*
X13330777Y-13692484D01*
X13330777Y-13692484D02*
X13311729Y-13702008D01*
X13311729Y-13702008D02*
X13302206Y-13711531D01*
X13302206Y-13711531D02*
X13292682Y-13730579D01*
X13292682Y-13730579D02*
X13292682Y-13778198D01*
X13292682Y-13778198D02*
X13302206Y-13797246D01*
X13302206Y-13797246D02*
X13311729Y-13806769D01*
X13311729Y-13806769D02*
X13330777Y-13816293D01*
X13330777Y-13816293D02*
X13368872Y-13816293D01*
X13368872Y-13816293D02*
X13387920Y-13806769D01*
X13387920Y-13806769D02*
X13397444Y-13797246D01*
X13397444Y-13797246D02*
X13406967Y-13778198D01*
X13578396Y-13759150D02*
X13578396Y-13892484D01*
X13530777Y-13682960D02*
X13483158Y-13825817D01*
X13483158Y-13825817D02*
X13606967Y-13825817D01*
X13673634Y-13692484D02*
X13673634Y-13730579D01*
X13749825Y-13692484D02*
X13749825Y-13730579D01*
X14045063Y-13968674D02*
X14035539Y-13959150D01*
X14035539Y-13959150D02*
X14016491Y-13930579D01*
X14016491Y-13930579D02*
X14006968Y-13911531D01*
X14006968Y-13911531D02*
X13997444Y-13882960D01*
X13997444Y-13882960D02*
X13987920Y-13835341D01*
X13987920Y-13835341D02*
X13987920Y-13797246D01*
X13987920Y-13797246D02*
X13997444Y-13749627D01*
X13997444Y-13749627D02*
X14006968Y-13721055D01*
X14006968Y-13721055D02*
X14016491Y-13702008D01*
X14016491Y-13702008D02*
X14035539Y-13673436D01*
X14035539Y-13673436D02*
X14045063Y-13663912D01*
X14206968Y-13692484D02*
X14168872Y-13692484D01*
X14168872Y-13692484D02*
X14149825Y-13702008D01*
X14149825Y-13702008D02*
X14140301Y-13711531D01*
X14140301Y-13711531D02*
X14121253Y-13740103D01*
X14121253Y-13740103D02*
X14111729Y-13778198D01*
X14111729Y-13778198D02*
X14111729Y-13854388D01*
X14111729Y-13854388D02*
X14121253Y-13873436D01*
X14121253Y-13873436D02*
X14130777Y-13882960D01*
X14130777Y-13882960D02*
X14149825Y-13892484D01*
X14149825Y-13892484D02*
X14187920Y-13892484D01*
X14187920Y-13892484D02*
X14206968Y-13882960D01*
X14206968Y-13882960D02*
X14216491Y-13873436D01*
X14216491Y-13873436D02*
X14226015Y-13854388D01*
X14226015Y-13854388D02*
X14226015Y-13806769D01*
X14226015Y-13806769D02*
X14216491Y-13787722D01*
X14216491Y-13787722D02*
X14206968Y-13778198D01*
X14206968Y-13778198D02*
X14187920Y-13768674D01*
X14187920Y-13768674D02*
X14149825Y-13768674D01*
X14149825Y-13768674D02*
X14130777Y-13778198D01*
X14130777Y-13778198D02*
X14121253Y-13787722D01*
X14121253Y-13787722D02*
X14111729Y-13806769D01*
X14464110Y-13892484D02*
X14464110Y-13692484D01*
X14549825Y-13892484D02*
X14549825Y-13787722D01*
X14549825Y-13787722D02*
X14540301Y-13768674D01*
X14540301Y-13768674D02*
X14521253Y-13759150D01*
X14521253Y-13759150D02*
X14492682Y-13759150D01*
X14492682Y-13759150D02*
X14473634Y-13768674D01*
X14473634Y-13768674D02*
X14464110Y-13778198D01*
X14673634Y-13892484D02*
X14654587Y-13882960D01*
X14654587Y-13882960D02*
X14645063Y-13873436D01*
X14645063Y-13873436D02*
X14635539Y-13854388D01*
X14635539Y-13854388D02*
X14635539Y-13797246D01*
X14635539Y-13797246D02*
X14645063Y-13778198D01*
X14645063Y-13778198D02*
X14654587Y-13768674D01*
X14654587Y-13768674D02*
X14673634Y-13759150D01*
X14673634Y-13759150D02*
X14702206Y-13759150D01*
X14702206Y-13759150D02*
X14721253Y-13768674D01*
X14721253Y-13768674D02*
X14730777Y-13778198D01*
X14730777Y-13778198D02*
X14740301Y-13797246D01*
X14740301Y-13797246D02*
X14740301Y-13854388D01*
X14740301Y-13854388D02*
X14730777Y-13873436D01*
X14730777Y-13873436D02*
X14721253Y-13882960D01*
X14721253Y-13882960D02*
X14702206Y-13892484D01*
X14702206Y-13892484D02*
X14673634Y-13892484D01*
X14854587Y-13892484D02*
X14835539Y-13882960D01*
X14835539Y-13882960D02*
X14826015Y-13863912D01*
X14826015Y-13863912D02*
X14826015Y-13692484D01*
X15006968Y-13882960D02*
X14987920Y-13892484D01*
X14987920Y-13892484D02*
X14949825Y-13892484D01*
X14949825Y-13892484D02*
X14930777Y-13882960D01*
X14930777Y-13882960D02*
X14921253Y-13863912D01*
X14921253Y-13863912D02*
X14921253Y-13787722D01*
X14921253Y-13787722D02*
X14930777Y-13768674D01*
X14930777Y-13768674D02*
X14949825Y-13759150D01*
X14949825Y-13759150D02*
X14987920Y-13759150D01*
X14987920Y-13759150D02*
X15006968Y-13768674D01*
X15006968Y-13768674D02*
X15016491Y-13787722D01*
X15016491Y-13787722D02*
X15016491Y-13806769D01*
X15016491Y-13806769D02*
X14921253Y-13825817D01*
X15092682Y-13882960D02*
X15111730Y-13892484D01*
X15111730Y-13892484D02*
X15149825Y-13892484D01*
X15149825Y-13892484D02*
X15168872Y-13882960D01*
X15168872Y-13882960D02*
X15178396Y-13863912D01*
X15178396Y-13863912D02*
X15178396Y-13854388D01*
X15178396Y-13854388D02*
X15168872Y-13835341D01*
X15168872Y-13835341D02*
X15149825Y-13825817D01*
X15149825Y-13825817D02*
X15121253Y-13825817D01*
X15121253Y-13825817D02*
X15102206Y-13816293D01*
X15102206Y-13816293D02*
X15092682Y-13797246D01*
X15092682Y-13797246D02*
X15092682Y-13787722D01*
X15092682Y-13787722D02*
X15102206Y-13768674D01*
X15102206Y-13768674D02*
X15121253Y-13759150D01*
X15121253Y-13759150D02*
X15149825Y-13759150D01*
X15149825Y-13759150D02*
X15168872Y-13768674D01*
X15245063Y-13968674D02*
X15254587Y-13959150D01*
X15254587Y-13959150D02*
X15273634Y-13930579D01*
X15273634Y-13930579D02*
X15283158Y-13911531D01*
X15283158Y-13911531D02*
X15292682Y-13882960D01*
X15292682Y-13882960D02*
X15302206Y-13835341D01*
X15302206Y-13835341D02*
X15302206Y-13797246D01*
X15302206Y-13797246D02*
X15292682Y-13749627D01*
X15292682Y-13749627D02*
X15283158Y-13721055D01*
X15283158Y-13721055D02*
X15273634Y-13702008D01*
X15273634Y-13702008D02*
X15254587Y-13673436D01*
X15254587Y-13673436D02*
X15245063Y-13663912D01*
D16*
X10360000Y-14010000D02*
X10470000Y-14120000D01*
X10470000Y-14010000D02*
X10360000Y-14120000D01*
X10470000Y-14065000D02*
G75*
G03*
X10470000Y-14065000I-55000J0D01*
G01*
D11*
X10835539Y-14156484D02*
X10721253Y-14156484D01*
X10778396Y-14156484D02*
X10778396Y-13956484D01*
X10778396Y-13956484D02*
X10759348Y-13985055D01*
X10759348Y-13985055D02*
X10740301Y-14004103D01*
X10740301Y-14004103D02*
X10721253Y-14013627D01*
X10921253Y-14137436D02*
X10930777Y-14146960D01*
X10930777Y-14146960D02*
X10921253Y-14156484D01*
X10921253Y-14156484D02*
X10911729Y-14146960D01*
X10911729Y-14146960D02*
X10921253Y-14137436D01*
X10921253Y-14137436D02*
X10921253Y-14156484D01*
X11121253Y-14156484D02*
X11006967Y-14156484D01*
X11064110Y-14156484D02*
X11064110Y-13956484D01*
X11064110Y-13956484D02*
X11045063Y-13985055D01*
X11045063Y-13985055D02*
X11026015Y-14004103D01*
X11026015Y-14004103D02*
X11006967Y-14013627D01*
X11245062Y-13956484D02*
X11264110Y-13956484D01*
X11264110Y-13956484D02*
X11283158Y-13966008D01*
X11283158Y-13966008D02*
X11292682Y-13975531D01*
X11292682Y-13975531D02*
X11302205Y-13994579D01*
X11302205Y-13994579D02*
X11311729Y-14032674D01*
X11311729Y-14032674D02*
X11311729Y-14080293D01*
X11311729Y-14080293D02*
X11302205Y-14118388D01*
X11302205Y-14118388D02*
X11292682Y-14137436D01*
X11292682Y-14137436D02*
X11283158Y-14146960D01*
X11283158Y-14146960D02*
X11264110Y-14156484D01*
X11264110Y-14156484D02*
X11245062Y-14156484D01*
X11245062Y-14156484D02*
X11226015Y-14146960D01*
X11226015Y-14146960D02*
X11216491Y-14137436D01*
X11216491Y-14137436D02*
X11206967Y-14118388D01*
X11206967Y-14118388D02*
X11197443Y-14080293D01*
X11197443Y-14080293D02*
X11197443Y-14032674D01*
X11197443Y-14032674D02*
X11206967Y-13994579D01*
X11206967Y-13994579D02*
X11216491Y-13975531D01*
X11216491Y-13975531D02*
X11226015Y-13966008D01*
X11226015Y-13966008D02*
X11245062Y-13956484D01*
X11435539Y-13956484D02*
X11454586Y-13956484D01*
X11454586Y-13956484D02*
X11473634Y-13966008D01*
X11473634Y-13966008D02*
X11483158Y-13975531D01*
X11483158Y-13975531D02*
X11492682Y-13994579D01*
X11492682Y-13994579D02*
X11502205Y-14032674D01*
X11502205Y-14032674D02*
X11502205Y-14080293D01*
X11502205Y-14080293D02*
X11492682Y-14118388D01*
X11492682Y-14118388D02*
X11483158Y-14137436D01*
X11483158Y-14137436D02*
X11473634Y-14146960D01*
X11473634Y-14146960D02*
X11454586Y-14156484D01*
X11454586Y-14156484D02*
X11435539Y-14156484D01*
X11435539Y-14156484D02*
X11416491Y-14146960D01*
X11416491Y-14146960D02*
X11406967Y-14137436D01*
X11406967Y-14137436D02*
X11397443Y-14118388D01*
X11397443Y-14118388D02*
X11387920Y-14080293D01*
X11387920Y-14080293D02*
X11387920Y-14032674D01*
X11387920Y-14032674D02*
X11397443Y-13994579D01*
X11397443Y-13994579D02*
X11406967Y-13975531D01*
X11406967Y-13975531D02*
X11416491Y-13966008D01*
X11416491Y-13966008D02*
X11435539Y-13956484D01*
X11587920Y-14156484D02*
X11587920Y-14023150D01*
X11587920Y-14042198D02*
X11597443Y-14032674D01*
X11597443Y-14032674D02*
X11616491Y-14023150D01*
X11616491Y-14023150D02*
X11645063Y-14023150D01*
X11645063Y-14023150D02*
X11664110Y-14032674D01*
X11664110Y-14032674D02*
X11673634Y-14051722D01*
X11673634Y-14051722D02*
X11673634Y-14156484D01*
X11673634Y-14051722D02*
X11683158Y-14032674D01*
X11683158Y-14032674D02*
X11702205Y-14023150D01*
X11702205Y-14023150D02*
X11730777Y-14023150D01*
X11730777Y-14023150D02*
X11749824Y-14032674D01*
X11749824Y-14032674D02*
X11759348Y-14051722D01*
X11759348Y-14051722D02*
X11759348Y-14156484D01*
X11854586Y-14156484D02*
X11854586Y-14023150D01*
X11854586Y-14042198D02*
X11864110Y-14032674D01*
X11864110Y-14032674D02*
X11883158Y-14023150D01*
X11883158Y-14023150D02*
X11911729Y-14023150D01*
X11911729Y-14023150D02*
X11930777Y-14032674D01*
X11930777Y-14032674D02*
X11940301Y-14051722D01*
X11940301Y-14051722D02*
X11940301Y-14156484D01*
X11940301Y-14051722D02*
X11949824Y-14032674D01*
X11949824Y-14032674D02*
X11968872Y-14023150D01*
X11968872Y-14023150D02*
X11997443Y-14023150D01*
X11997443Y-14023150D02*
X12016491Y-14032674D01*
X12016491Y-14032674D02*
X12026015Y-14051722D01*
X12026015Y-14051722D02*
X12026015Y-14156484D01*
X12416491Y-13946960D02*
X12245063Y-14204103D01*
X12673634Y-13956484D02*
X12692682Y-13956484D01*
X12692682Y-13956484D02*
X12711729Y-13966008D01*
X12711729Y-13966008D02*
X12721253Y-13975531D01*
X12721253Y-13975531D02*
X12730777Y-13994579D01*
X12730777Y-13994579D02*
X12740301Y-14032674D01*
X12740301Y-14032674D02*
X12740301Y-14080293D01*
X12740301Y-14080293D02*
X12730777Y-14118388D01*
X12730777Y-14118388D02*
X12721253Y-14137436D01*
X12721253Y-14137436D02*
X12711729Y-14146960D01*
X12711729Y-14146960D02*
X12692682Y-14156484D01*
X12692682Y-14156484D02*
X12673634Y-14156484D01*
X12673634Y-14156484D02*
X12654586Y-14146960D01*
X12654586Y-14146960D02*
X12645063Y-14137436D01*
X12645063Y-14137436D02*
X12635539Y-14118388D01*
X12635539Y-14118388D02*
X12626015Y-14080293D01*
X12626015Y-14080293D02*
X12626015Y-14032674D01*
X12626015Y-14032674D02*
X12635539Y-13994579D01*
X12635539Y-13994579D02*
X12645063Y-13975531D01*
X12645063Y-13975531D02*
X12654586Y-13966008D01*
X12654586Y-13966008D02*
X12673634Y-13956484D01*
X12826015Y-14137436D02*
X12835539Y-14146960D01*
X12835539Y-14146960D02*
X12826015Y-14156484D01*
X12826015Y-14156484D02*
X12816491Y-14146960D01*
X12816491Y-14146960D02*
X12826015Y-14137436D01*
X12826015Y-14137436D02*
X12826015Y-14156484D01*
X12959348Y-13956484D02*
X12978396Y-13956484D01*
X12978396Y-13956484D02*
X12997444Y-13966008D01*
X12997444Y-13966008D02*
X13006967Y-13975531D01*
X13006967Y-13975531D02*
X13016491Y-13994579D01*
X13016491Y-13994579D02*
X13026015Y-14032674D01*
X13026015Y-14032674D02*
X13026015Y-14080293D01*
X13026015Y-14080293D02*
X13016491Y-14118388D01*
X13016491Y-14118388D02*
X13006967Y-14137436D01*
X13006967Y-14137436D02*
X12997444Y-14146960D01*
X12997444Y-14146960D02*
X12978396Y-14156484D01*
X12978396Y-14156484D02*
X12959348Y-14156484D01*
X12959348Y-14156484D02*
X12940301Y-14146960D01*
X12940301Y-14146960D02*
X12930777Y-14137436D01*
X12930777Y-14137436D02*
X12921253Y-14118388D01*
X12921253Y-14118388D02*
X12911729Y-14080293D01*
X12911729Y-14080293D02*
X12911729Y-14032674D01*
X12911729Y-14032674D02*
X12921253Y-13994579D01*
X12921253Y-13994579D02*
X12930777Y-13975531D01*
X12930777Y-13975531D02*
X12940301Y-13966008D01*
X12940301Y-13966008D02*
X12959348Y-13956484D01*
X13197444Y-14023150D02*
X13197444Y-14156484D01*
X13149825Y-13946960D02*
X13102206Y-14089817D01*
X13102206Y-14089817D02*
X13226015Y-14089817D01*
X13283158Y-13956484D02*
X13406967Y-13956484D01*
X13406967Y-13956484D02*
X13340301Y-14032674D01*
X13340301Y-14032674D02*
X13368872Y-14032674D01*
X13368872Y-14032674D02*
X13387920Y-14042198D01*
X13387920Y-14042198D02*
X13397444Y-14051722D01*
X13397444Y-14051722D02*
X13406967Y-14070769D01*
X13406967Y-14070769D02*
X13406967Y-14118388D01*
X13406967Y-14118388D02*
X13397444Y-14137436D01*
X13397444Y-14137436D02*
X13387920Y-14146960D01*
X13387920Y-14146960D02*
X13368872Y-14156484D01*
X13368872Y-14156484D02*
X13311729Y-14156484D01*
X13311729Y-14156484D02*
X13292682Y-14146960D01*
X13292682Y-14146960D02*
X13283158Y-14137436D01*
X13473634Y-13956484D02*
X13597444Y-13956484D01*
X13597444Y-13956484D02*
X13530777Y-14032674D01*
X13530777Y-14032674D02*
X13559348Y-14032674D01*
X13559348Y-14032674D02*
X13578396Y-14042198D01*
X13578396Y-14042198D02*
X13587920Y-14051722D01*
X13587920Y-14051722D02*
X13597444Y-14070769D01*
X13597444Y-14070769D02*
X13597444Y-14118388D01*
X13597444Y-14118388D02*
X13587920Y-14137436D01*
X13587920Y-14137436D02*
X13578396Y-14146960D01*
X13578396Y-14146960D02*
X13559348Y-14156484D01*
X13559348Y-14156484D02*
X13502206Y-14156484D01*
X13502206Y-14156484D02*
X13483158Y-14146960D01*
X13483158Y-14146960D02*
X13473634Y-14137436D01*
X13673634Y-13956484D02*
X13673634Y-13994579D01*
X13749825Y-13956484D02*
X13749825Y-13994579D01*
X14045063Y-14232674D02*
X14035539Y-14223150D01*
X14035539Y-14223150D02*
X14016491Y-14194579D01*
X14016491Y-14194579D02*
X14006968Y-14175531D01*
X14006968Y-14175531D02*
X13997444Y-14146960D01*
X13997444Y-14146960D02*
X13987920Y-14099341D01*
X13987920Y-14099341D02*
X13987920Y-14061246D01*
X13987920Y-14061246D02*
X13997444Y-14013627D01*
X13997444Y-14013627D02*
X14006968Y-13985055D01*
X14006968Y-13985055D02*
X14016491Y-13966008D01*
X14016491Y-13966008D02*
X14035539Y-13937436D01*
X14035539Y-13937436D02*
X14045063Y-13927912D01*
X14111729Y-13975531D02*
X14121253Y-13966008D01*
X14121253Y-13966008D02*
X14140301Y-13956484D01*
X14140301Y-13956484D02*
X14187920Y-13956484D01*
X14187920Y-13956484D02*
X14206968Y-13966008D01*
X14206968Y-13966008D02*
X14216491Y-13975531D01*
X14216491Y-13975531D02*
X14226015Y-13994579D01*
X14226015Y-13994579D02*
X14226015Y-14013627D01*
X14226015Y-14013627D02*
X14216491Y-14042198D01*
X14216491Y-14042198D02*
X14102206Y-14156484D01*
X14102206Y-14156484D02*
X14226015Y-14156484D01*
X14349825Y-13956484D02*
X14368872Y-13956484D01*
X14368872Y-13956484D02*
X14387920Y-13966008D01*
X14387920Y-13966008D02*
X14397444Y-13975531D01*
X14397444Y-13975531D02*
X14406968Y-13994579D01*
X14406968Y-13994579D02*
X14416491Y-14032674D01*
X14416491Y-14032674D02*
X14416491Y-14080293D01*
X14416491Y-14080293D02*
X14406968Y-14118388D01*
X14406968Y-14118388D02*
X14397444Y-14137436D01*
X14397444Y-14137436D02*
X14387920Y-14146960D01*
X14387920Y-14146960D02*
X14368872Y-14156484D01*
X14368872Y-14156484D02*
X14349825Y-14156484D01*
X14349825Y-14156484D02*
X14330777Y-14146960D01*
X14330777Y-14146960D02*
X14321253Y-14137436D01*
X14321253Y-14137436D02*
X14311729Y-14118388D01*
X14311729Y-14118388D02*
X14302206Y-14080293D01*
X14302206Y-14080293D02*
X14302206Y-14032674D01*
X14302206Y-14032674D02*
X14311729Y-13994579D01*
X14311729Y-13994579D02*
X14321253Y-13975531D01*
X14321253Y-13975531D02*
X14330777Y-13966008D01*
X14330777Y-13966008D02*
X14349825Y-13956484D01*
X14654587Y-14156484D02*
X14654587Y-13956484D01*
X14740301Y-14156484D02*
X14740301Y-14051722D01*
X14740301Y-14051722D02*
X14730777Y-14032674D01*
X14730777Y-14032674D02*
X14711730Y-14023150D01*
X14711730Y-14023150D02*
X14683158Y-14023150D01*
X14683158Y-14023150D02*
X14664110Y-14032674D01*
X14664110Y-14032674D02*
X14654587Y-14042198D01*
X14864110Y-14156484D02*
X14845063Y-14146960D01*
X14845063Y-14146960D02*
X14835539Y-14137436D01*
X14835539Y-14137436D02*
X14826015Y-14118388D01*
X14826015Y-14118388D02*
X14826015Y-14061246D01*
X14826015Y-14061246D02*
X14835539Y-14042198D01*
X14835539Y-14042198D02*
X14845063Y-14032674D01*
X14845063Y-14032674D02*
X14864110Y-14023150D01*
X14864110Y-14023150D02*
X14892682Y-14023150D01*
X14892682Y-14023150D02*
X14911730Y-14032674D01*
X14911730Y-14032674D02*
X14921253Y-14042198D01*
X14921253Y-14042198D02*
X14930777Y-14061246D01*
X14930777Y-14061246D02*
X14930777Y-14118388D01*
X14930777Y-14118388D02*
X14921253Y-14137436D01*
X14921253Y-14137436D02*
X14911730Y-14146960D01*
X14911730Y-14146960D02*
X14892682Y-14156484D01*
X14892682Y-14156484D02*
X14864110Y-14156484D01*
X15045063Y-14156484D02*
X15026015Y-14146960D01*
X15026015Y-14146960D02*
X15016491Y-14127912D01*
X15016491Y-14127912D02*
X15016491Y-13956484D01*
X15197444Y-14146960D02*
X15178396Y-14156484D01*
X15178396Y-14156484D02*
X15140301Y-14156484D01*
X15140301Y-14156484D02*
X15121253Y-14146960D01*
X15121253Y-14146960D02*
X15111730Y-14127912D01*
X15111730Y-14127912D02*
X15111730Y-14051722D01*
X15111730Y-14051722D02*
X15121253Y-14032674D01*
X15121253Y-14032674D02*
X15140301Y-14023150D01*
X15140301Y-14023150D02*
X15178396Y-14023150D01*
X15178396Y-14023150D02*
X15197444Y-14032674D01*
X15197444Y-14032674D02*
X15206968Y-14051722D01*
X15206968Y-14051722D02*
X15206968Y-14070769D01*
X15206968Y-14070769D02*
X15111730Y-14089817D01*
X15283158Y-14146960D02*
X15302206Y-14156484D01*
X15302206Y-14156484D02*
X15340301Y-14156484D01*
X15340301Y-14156484D02*
X15359349Y-14146960D01*
X15359349Y-14146960D02*
X15368872Y-14127912D01*
X15368872Y-14127912D02*
X15368872Y-14118388D01*
X15368872Y-14118388D02*
X15359349Y-14099341D01*
X15359349Y-14099341D02*
X15340301Y-14089817D01*
X15340301Y-14089817D02*
X15311730Y-14089817D01*
X15311730Y-14089817D02*
X15292682Y-14080293D01*
X15292682Y-14080293D02*
X15283158Y-14061246D01*
X15283158Y-14061246D02*
X15283158Y-14051722D01*
X15283158Y-14051722D02*
X15292682Y-14032674D01*
X15292682Y-14032674D02*
X15311730Y-14023150D01*
X15311730Y-14023150D02*
X15340301Y-14023150D01*
X15340301Y-14023150D02*
X15359349Y-14032674D01*
X15435539Y-14232674D02*
X15445063Y-14223150D01*
X15445063Y-14223150D02*
X15464111Y-14194579D01*
X15464111Y-14194579D02*
X15473634Y-14175531D01*
X15473634Y-14175531D02*
X15483158Y-14146960D01*
X15483158Y-14146960D02*
X15492682Y-14099341D01*
X15492682Y-14099341D02*
X15492682Y-14061246D01*
X15492682Y-14061246D02*
X15483158Y-14013627D01*
X15483158Y-14013627D02*
X15473634Y-13985055D01*
X15473634Y-13985055D02*
X15464111Y-13966008D01*
X15464111Y-13966008D02*
X15445063Y-13937436D01*
X15445063Y-13937436D02*
X15435539Y-13927912D01*
D17*
X10340000Y-14264000D02*
X10470000Y-14394000D01*
X10470000Y-14264000D02*
X10340000Y-14394000D01*
X10405000Y-14264000D02*
X10405000Y-14394000D01*
X10340000Y-14329000D02*
X10470000Y-14329000D01*
D11*
X10835539Y-14420484D02*
X10721253Y-14420484D01*
X10778396Y-14420484D02*
X10778396Y-14220484D01*
X10778396Y-14220484D02*
X10759348Y-14249055D01*
X10759348Y-14249055D02*
X10740301Y-14268103D01*
X10740301Y-14268103D02*
X10721253Y-14277627D01*
X10921253Y-14401436D02*
X10930777Y-14410960D01*
X10930777Y-14410960D02*
X10921253Y-14420484D01*
X10921253Y-14420484D02*
X10911729Y-14410960D01*
X10911729Y-14410960D02*
X10921253Y-14401436D01*
X10921253Y-14401436D02*
X10921253Y-14420484D01*
X10997444Y-14220484D02*
X11121253Y-14220484D01*
X11121253Y-14220484D02*
X11054586Y-14296674D01*
X11054586Y-14296674D02*
X11083158Y-14296674D01*
X11083158Y-14296674D02*
X11102205Y-14306198D01*
X11102205Y-14306198D02*
X11111729Y-14315722D01*
X11111729Y-14315722D02*
X11121253Y-14334769D01*
X11121253Y-14334769D02*
X11121253Y-14382388D01*
X11121253Y-14382388D02*
X11111729Y-14401436D01*
X11111729Y-14401436D02*
X11102205Y-14410960D01*
X11102205Y-14410960D02*
X11083158Y-14420484D01*
X11083158Y-14420484D02*
X11026015Y-14420484D01*
X11026015Y-14420484D02*
X11006967Y-14410960D01*
X11006967Y-14410960D02*
X10997444Y-14401436D01*
X11245062Y-14220484D02*
X11264110Y-14220484D01*
X11264110Y-14220484D02*
X11283158Y-14230008D01*
X11283158Y-14230008D02*
X11292682Y-14239531D01*
X11292682Y-14239531D02*
X11302205Y-14258579D01*
X11302205Y-14258579D02*
X11311729Y-14296674D01*
X11311729Y-14296674D02*
X11311729Y-14344293D01*
X11311729Y-14344293D02*
X11302205Y-14382388D01*
X11302205Y-14382388D02*
X11292682Y-14401436D01*
X11292682Y-14401436D02*
X11283158Y-14410960D01*
X11283158Y-14410960D02*
X11264110Y-14420484D01*
X11264110Y-14420484D02*
X11245062Y-14420484D01*
X11245062Y-14420484D02*
X11226015Y-14410960D01*
X11226015Y-14410960D02*
X11216491Y-14401436D01*
X11216491Y-14401436D02*
X11206967Y-14382388D01*
X11206967Y-14382388D02*
X11197443Y-14344293D01*
X11197443Y-14344293D02*
X11197443Y-14296674D01*
X11197443Y-14296674D02*
X11206967Y-14258579D01*
X11206967Y-14258579D02*
X11216491Y-14239531D01*
X11216491Y-14239531D02*
X11226015Y-14230008D01*
X11226015Y-14230008D02*
X11245062Y-14220484D01*
X11435539Y-14220484D02*
X11454586Y-14220484D01*
X11454586Y-14220484D02*
X11473634Y-14230008D01*
X11473634Y-14230008D02*
X11483158Y-14239531D01*
X11483158Y-14239531D02*
X11492682Y-14258579D01*
X11492682Y-14258579D02*
X11502205Y-14296674D01*
X11502205Y-14296674D02*
X11502205Y-14344293D01*
X11502205Y-14344293D02*
X11492682Y-14382388D01*
X11492682Y-14382388D02*
X11483158Y-14401436D01*
X11483158Y-14401436D02*
X11473634Y-14410960D01*
X11473634Y-14410960D02*
X11454586Y-14420484D01*
X11454586Y-14420484D02*
X11435539Y-14420484D01*
X11435539Y-14420484D02*
X11416491Y-14410960D01*
X11416491Y-14410960D02*
X11406967Y-14401436D01*
X11406967Y-14401436D02*
X11397443Y-14382388D01*
X11397443Y-14382388D02*
X11387920Y-14344293D01*
X11387920Y-14344293D02*
X11387920Y-14296674D01*
X11387920Y-14296674D02*
X11397443Y-14258579D01*
X11397443Y-14258579D02*
X11406967Y-14239531D01*
X11406967Y-14239531D02*
X11416491Y-14230008D01*
X11416491Y-14230008D02*
X11435539Y-14220484D01*
X11587920Y-14420484D02*
X11587920Y-14287150D01*
X11587920Y-14306198D02*
X11597443Y-14296674D01*
X11597443Y-14296674D02*
X11616491Y-14287150D01*
X11616491Y-14287150D02*
X11645063Y-14287150D01*
X11645063Y-14287150D02*
X11664110Y-14296674D01*
X11664110Y-14296674D02*
X11673634Y-14315722D01*
X11673634Y-14315722D02*
X11673634Y-14420484D01*
X11673634Y-14315722D02*
X11683158Y-14296674D01*
X11683158Y-14296674D02*
X11702205Y-14287150D01*
X11702205Y-14287150D02*
X11730777Y-14287150D01*
X11730777Y-14287150D02*
X11749824Y-14296674D01*
X11749824Y-14296674D02*
X11759348Y-14315722D01*
X11759348Y-14315722D02*
X11759348Y-14420484D01*
X11854586Y-14420484D02*
X11854586Y-14287150D01*
X11854586Y-14306198D02*
X11864110Y-14296674D01*
X11864110Y-14296674D02*
X11883158Y-14287150D01*
X11883158Y-14287150D02*
X11911729Y-14287150D01*
X11911729Y-14287150D02*
X11930777Y-14296674D01*
X11930777Y-14296674D02*
X11940301Y-14315722D01*
X11940301Y-14315722D02*
X11940301Y-14420484D01*
X11940301Y-14315722D02*
X11949824Y-14296674D01*
X11949824Y-14296674D02*
X11968872Y-14287150D01*
X11968872Y-14287150D02*
X11997443Y-14287150D01*
X11997443Y-14287150D02*
X12016491Y-14296674D01*
X12016491Y-14296674D02*
X12026015Y-14315722D01*
X12026015Y-14315722D02*
X12026015Y-14420484D01*
X12416491Y-14210960D02*
X12245063Y-14468103D01*
X12673634Y-14220484D02*
X12692682Y-14220484D01*
X12692682Y-14220484D02*
X12711729Y-14230008D01*
X12711729Y-14230008D02*
X12721253Y-14239531D01*
X12721253Y-14239531D02*
X12730777Y-14258579D01*
X12730777Y-14258579D02*
X12740301Y-14296674D01*
X12740301Y-14296674D02*
X12740301Y-14344293D01*
X12740301Y-14344293D02*
X12730777Y-14382388D01*
X12730777Y-14382388D02*
X12721253Y-14401436D01*
X12721253Y-14401436D02*
X12711729Y-14410960D01*
X12711729Y-14410960D02*
X12692682Y-14420484D01*
X12692682Y-14420484D02*
X12673634Y-14420484D01*
X12673634Y-14420484D02*
X12654586Y-14410960D01*
X12654586Y-14410960D02*
X12645063Y-14401436D01*
X12645063Y-14401436D02*
X12635539Y-14382388D01*
X12635539Y-14382388D02*
X12626015Y-14344293D01*
X12626015Y-14344293D02*
X12626015Y-14296674D01*
X12626015Y-14296674D02*
X12635539Y-14258579D01*
X12635539Y-14258579D02*
X12645063Y-14239531D01*
X12645063Y-14239531D02*
X12654586Y-14230008D01*
X12654586Y-14230008D02*
X12673634Y-14220484D01*
X12826015Y-14401436D02*
X12835539Y-14410960D01*
X12835539Y-14410960D02*
X12826015Y-14420484D01*
X12826015Y-14420484D02*
X12816491Y-14410960D01*
X12816491Y-14410960D02*
X12826015Y-14401436D01*
X12826015Y-14401436D02*
X12826015Y-14420484D01*
X12959348Y-14220484D02*
X12978396Y-14220484D01*
X12978396Y-14220484D02*
X12997444Y-14230008D01*
X12997444Y-14230008D02*
X13006967Y-14239531D01*
X13006967Y-14239531D02*
X13016491Y-14258579D01*
X13016491Y-14258579D02*
X13026015Y-14296674D01*
X13026015Y-14296674D02*
X13026015Y-14344293D01*
X13026015Y-14344293D02*
X13016491Y-14382388D01*
X13016491Y-14382388D02*
X13006967Y-14401436D01*
X13006967Y-14401436D02*
X12997444Y-14410960D01*
X12997444Y-14410960D02*
X12978396Y-14420484D01*
X12978396Y-14420484D02*
X12959348Y-14420484D01*
X12959348Y-14420484D02*
X12940301Y-14410960D01*
X12940301Y-14410960D02*
X12930777Y-14401436D01*
X12930777Y-14401436D02*
X12921253Y-14382388D01*
X12921253Y-14382388D02*
X12911729Y-14344293D01*
X12911729Y-14344293D02*
X12911729Y-14296674D01*
X12911729Y-14296674D02*
X12921253Y-14258579D01*
X12921253Y-14258579D02*
X12930777Y-14239531D01*
X12930777Y-14239531D02*
X12940301Y-14230008D01*
X12940301Y-14230008D02*
X12959348Y-14220484D01*
X13206967Y-14220484D02*
X13111729Y-14220484D01*
X13111729Y-14220484D02*
X13102206Y-14315722D01*
X13102206Y-14315722D02*
X13111729Y-14306198D01*
X13111729Y-14306198D02*
X13130777Y-14296674D01*
X13130777Y-14296674D02*
X13178396Y-14296674D01*
X13178396Y-14296674D02*
X13197444Y-14306198D01*
X13197444Y-14306198D02*
X13206967Y-14315722D01*
X13206967Y-14315722D02*
X13216491Y-14334769D01*
X13216491Y-14334769D02*
X13216491Y-14382388D01*
X13216491Y-14382388D02*
X13206967Y-14401436D01*
X13206967Y-14401436D02*
X13197444Y-14410960D01*
X13197444Y-14410960D02*
X13178396Y-14420484D01*
X13178396Y-14420484D02*
X13130777Y-14420484D01*
X13130777Y-14420484D02*
X13111729Y-14410960D01*
X13111729Y-14410960D02*
X13102206Y-14401436D01*
X13406967Y-14420484D02*
X13292682Y-14420484D01*
X13349825Y-14420484D02*
X13349825Y-14220484D01*
X13349825Y-14220484D02*
X13330777Y-14249055D01*
X13330777Y-14249055D02*
X13311729Y-14268103D01*
X13311729Y-14268103D02*
X13292682Y-14277627D01*
X13483158Y-14239531D02*
X13492682Y-14230008D01*
X13492682Y-14230008D02*
X13511729Y-14220484D01*
X13511729Y-14220484D02*
X13559348Y-14220484D01*
X13559348Y-14220484D02*
X13578396Y-14230008D01*
X13578396Y-14230008D02*
X13587920Y-14239531D01*
X13587920Y-14239531D02*
X13597444Y-14258579D01*
X13597444Y-14258579D02*
X13597444Y-14277627D01*
X13597444Y-14277627D02*
X13587920Y-14306198D01*
X13587920Y-14306198D02*
X13473634Y-14420484D01*
X13473634Y-14420484D02*
X13597444Y-14420484D01*
X13673634Y-14220484D02*
X13673634Y-14258579D01*
X13749825Y-14220484D02*
X13749825Y-14258579D01*
X14045063Y-14496674D02*
X14035539Y-14487150D01*
X14035539Y-14487150D02*
X14016491Y-14458579D01*
X14016491Y-14458579D02*
X14006968Y-14439531D01*
X14006968Y-14439531D02*
X13997444Y-14410960D01*
X13997444Y-14410960D02*
X13987920Y-14363341D01*
X13987920Y-14363341D02*
X13987920Y-14325246D01*
X13987920Y-14325246D02*
X13997444Y-14277627D01*
X13997444Y-14277627D02*
X14006968Y-14249055D01*
X14006968Y-14249055D02*
X14016491Y-14230008D01*
X14016491Y-14230008D02*
X14035539Y-14201436D01*
X14035539Y-14201436D02*
X14045063Y-14191912D01*
X14111729Y-14239531D02*
X14121253Y-14230008D01*
X14121253Y-14230008D02*
X14140301Y-14220484D01*
X14140301Y-14220484D02*
X14187920Y-14220484D01*
X14187920Y-14220484D02*
X14206968Y-14230008D01*
X14206968Y-14230008D02*
X14216491Y-14239531D01*
X14216491Y-14239531D02*
X14226015Y-14258579D01*
X14226015Y-14258579D02*
X14226015Y-14277627D01*
X14226015Y-14277627D02*
X14216491Y-14306198D01*
X14216491Y-14306198D02*
X14102206Y-14420484D01*
X14102206Y-14420484D02*
X14226015Y-14420484D01*
X14464110Y-14420484D02*
X14464110Y-14220484D01*
X14549825Y-14420484D02*
X14549825Y-14315722D01*
X14549825Y-14315722D02*
X14540301Y-14296674D01*
X14540301Y-14296674D02*
X14521253Y-14287150D01*
X14521253Y-14287150D02*
X14492682Y-14287150D01*
X14492682Y-14287150D02*
X14473634Y-14296674D01*
X14473634Y-14296674D02*
X14464110Y-14306198D01*
X14673634Y-14420484D02*
X14654587Y-14410960D01*
X14654587Y-14410960D02*
X14645063Y-14401436D01*
X14645063Y-14401436D02*
X14635539Y-14382388D01*
X14635539Y-14382388D02*
X14635539Y-14325246D01*
X14635539Y-14325246D02*
X14645063Y-14306198D01*
X14645063Y-14306198D02*
X14654587Y-14296674D01*
X14654587Y-14296674D02*
X14673634Y-14287150D01*
X14673634Y-14287150D02*
X14702206Y-14287150D01*
X14702206Y-14287150D02*
X14721253Y-14296674D01*
X14721253Y-14296674D02*
X14730777Y-14306198D01*
X14730777Y-14306198D02*
X14740301Y-14325246D01*
X14740301Y-14325246D02*
X14740301Y-14382388D01*
X14740301Y-14382388D02*
X14730777Y-14401436D01*
X14730777Y-14401436D02*
X14721253Y-14410960D01*
X14721253Y-14410960D02*
X14702206Y-14420484D01*
X14702206Y-14420484D02*
X14673634Y-14420484D01*
X14854587Y-14420484D02*
X14835539Y-14410960D01*
X14835539Y-14410960D02*
X14826015Y-14391912D01*
X14826015Y-14391912D02*
X14826015Y-14220484D01*
X15006968Y-14410960D02*
X14987920Y-14420484D01*
X14987920Y-14420484D02*
X14949825Y-14420484D01*
X14949825Y-14420484D02*
X14930777Y-14410960D01*
X14930777Y-14410960D02*
X14921253Y-14391912D01*
X14921253Y-14391912D02*
X14921253Y-14315722D01*
X14921253Y-14315722D02*
X14930777Y-14296674D01*
X14930777Y-14296674D02*
X14949825Y-14287150D01*
X14949825Y-14287150D02*
X14987920Y-14287150D01*
X14987920Y-14287150D02*
X15006968Y-14296674D01*
X15006968Y-14296674D02*
X15016491Y-14315722D01*
X15016491Y-14315722D02*
X15016491Y-14334769D01*
X15016491Y-14334769D02*
X14921253Y-14353817D01*
X15092682Y-14410960D02*
X15111730Y-14420484D01*
X15111730Y-14420484D02*
X15149825Y-14420484D01*
X15149825Y-14420484D02*
X15168872Y-14410960D01*
X15168872Y-14410960D02*
X15178396Y-14391912D01*
X15178396Y-14391912D02*
X15178396Y-14382388D01*
X15178396Y-14382388D02*
X15168872Y-14363341D01*
X15168872Y-14363341D02*
X15149825Y-14353817D01*
X15149825Y-14353817D02*
X15121253Y-14353817D01*
X15121253Y-14353817D02*
X15102206Y-14344293D01*
X15102206Y-14344293D02*
X15092682Y-14325246D01*
X15092682Y-14325246D02*
X15092682Y-14315722D01*
X15092682Y-14315722D02*
X15102206Y-14296674D01*
X15102206Y-14296674D02*
X15121253Y-14287150D01*
X15121253Y-14287150D02*
X15149825Y-14287150D01*
X15149825Y-14287150D02*
X15168872Y-14296674D01*
X15245063Y-14496674D02*
X15254587Y-14487150D01*
X15254587Y-14487150D02*
X15273634Y-14458579D01*
X15273634Y-14458579D02*
X15283158Y-14439531D01*
X15283158Y-14439531D02*
X15292682Y-14410960D01*
X15292682Y-14410960D02*
X15302206Y-14363341D01*
X15302206Y-14363341D02*
X15302206Y-14325246D01*
X15302206Y-14325246D02*
X15292682Y-14277627D01*
X15292682Y-14277627D02*
X15283158Y-14249055D01*
X15283158Y-14249055D02*
X15273634Y-14230008D01*
X15273634Y-14230008D02*
X15254587Y-14201436D01*
X15254587Y-14201436D02*
X15245063Y-14191912D01*
D18*
X10320000Y-14518000D02*
X10470000Y-14668000D01*
X10470000Y-14518000D02*
X10320000Y-14668000D01*
X10448034Y-14646033D02*
X10448034Y-14539966D01*
X10341967Y-14539966D01*
X10341967Y-14646033D01*
X10448034Y-14646033D01*
D11*
X10835539Y-14684484D02*
X10721253Y-14684484D01*
X10778396Y-14684484D02*
X10778396Y-14484484D01*
X10778396Y-14484484D02*
X10759348Y-14513055D01*
X10759348Y-14513055D02*
X10740301Y-14532103D01*
X10740301Y-14532103D02*
X10721253Y-14541627D01*
X10921253Y-14665436D02*
X10930777Y-14674960D01*
X10930777Y-14674960D02*
X10921253Y-14684484D01*
X10921253Y-14684484D02*
X10911729Y-14674960D01*
X10911729Y-14674960D02*
X10921253Y-14665436D01*
X10921253Y-14665436D02*
X10921253Y-14684484D01*
X11111729Y-14484484D02*
X11016491Y-14484484D01*
X11016491Y-14484484D02*
X11006967Y-14579722D01*
X11006967Y-14579722D02*
X11016491Y-14570198D01*
X11016491Y-14570198D02*
X11035539Y-14560674D01*
X11035539Y-14560674D02*
X11083158Y-14560674D01*
X11083158Y-14560674D02*
X11102205Y-14570198D01*
X11102205Y-14570198D02*
X11111729Y-14579722D01*
X11111729Y-14579722D02*
X11121253Y-14598769D01*
X11121253Y-14598769D02*
X11121253Y-14646388D01*
X11121253Y-14646388D02*
X11111729Y-14665436D01*
X11111729Y-14665436D02*
X11102205Y-14674960D01*
X11102205Y-14674960D02*
X11083158Y-14684484D01*
X11083158Y-14684484D02*
X11035539Y-14684484D01*
X11035539Y-14684484D02*
X11016491Y-14674960D01*
X11016491Y-14674960D02*
X11006967Y-14665436D01*
X11245062Y-14484484D02*
X11264110Y-14484484D01*
X11264110Y-14484484D02*
X11283158Y-14494008D01*
X11283158Y-14494008D02*
X11292682Y-14503531D01*
X11292682Y-14503531D02*
X11302205Y-14522579D01*
X11302205Y-14522579D02*
X11311729Y-14560674D01*
X11311729Y-14560674D02*
X11311729Y-14608293D01*
X11311729Y-14608293D02*
X11302205Y-14646388D01*
X11302205Y-14646388D02*
X11292682Y-14665436D01*
X11292682Y-14665436D02*
X11283158Y-14674960D01*
X11283158Y-14674960D02*
X11264110Y-14684484D01*
X11264110Y-14684484D02*
X11245062Y-14684484D01*
X11245062Y-14684484D02*
X11226015Y-14674960D01*
X11226015Y-14674960D02*
X11216491Y-14665436D01*
X11216491Y-14665436D02*
X11206967Y-14646388D01*
X11206967Y-14646388D02*
X11197443Y-14608293D01*
X11197443Y-14608293D02*
X11197443Y-14560674D01*
X11197443Y-14560674D02*
X11206967Y-14522579D01*
X11206967Y-14522579D02*
X11216491Y-14503531D01*
X11216491Y-14503531D02*
X11226015Y-14494008D01*
X11226015Y-14494008D02*
X11245062Y-14484484D01*
X11435539Y-14484484D02*
X11454586Y-14484484D01*
X11454586Y-14484484D02*
X11473634Y-14494008D01*
X11473634Y-14494008D02*
X11483158Y-14503531D01*
X11483158Y-14503531D02*
X11492682Y-14522579D01*
X11492682Y-14522579D02*
X11502205Y-14560674D01*
X11502205Y-14560674D02*
X11502205Y-14608293D01*
X11502205Y-14608293D02*
X11492682Y-14646388D01*
X11492682Y-14646388D02*
X11483158Y-14665436D01*
X11483158Y-14665436D02*
X11473634Y-14674960D01*
X11473634Y-14674960D02*
X11454586Y-14684484D01*
X11454586Y-14684484D02*
X11435539Y-14684484D01*
X11435539Y-14684484D02*
X11416491Y-14674960D01*
X11416491Y-14674960D02*
X11406967Y-14665436D01*
X11406967Y-14665436D02*
X11397443Y-14646388D01*
X11397443Y-14646388D02*
X11387920Y-14608293D01*
X11387920Y-14608293D02*
X11387920Y-14560674D01*
X11387920Y-14560674D02*
X11397443Y-14522579D01*
X11397443Y-14522579D02*
X11406967Y-14503531D01*
X11406967Y-14503531D02*
X11416491Y-14494008D01*
X11416491Y-14494008D02*
X11435539Y-14484484D01*
X11587920Y-14684484D02*
X11587920Y-14551150D01*
X11587920Y-14570198D02*
X11597443Y-14560674D01*
X11597443Y-14560674D02*
X11616491Y-14551150D01*
X11616491Y-14551150D02*
X11645063Y-14551150D01*
X11645063Y-14551150D02*
X11664110Y-14560674D01*
X11664110Y-14560674D02*
X11673634Y-14579722D01*
X11673634Y-14579722D02*
X11673634Y-14684484D01*
X11673634Y-14579722D02*
X11683158Y-14560674D01*
X11683158Y-14560674D02*
X11702205Y-14551150D01*
X11702205Y-14551150D02*
X11730777Y-14551150D01*
X11730777Y-14551150D02*
X11749824Y-14560674D01*
X11749824Y-14560674D02*
X11759348Y-14579722D01*
X11759348Y-14579722D02*
X11759348Y-14684484D01*
X11854586Y-14684484D02*
X11854586Y-14551150D01*
X11854586Y-14570198D02*
X11864110Y-14560674D01*
X11864110Y-14560674D02*
X11883158Y-14551150D01*
X11883158Y-14551150D02*
X11911729Y-14551150D01*
X11911729Y-14551150D02*
X11930777Y-14560674D01*
X11930777Y-14560674D02*
X11940301Y-14579722D01*
X11940301Y-14579722D02*
X11940301Y-14684484D01*
X11940301Y-14579722D02*
X11949824Y-14560674D01*
X11949824Y-14560674D02*
X11968872Y-14551150D01*
X11968872Y-14551150D02*
X11997443Y-14551150D01*
X11997443Y-14551150D02*
X12016491Y-14560674D01*
X12016491Y-14560674D02*
X12026015Y-14579722D01*
X12026015Y-14579722D02*
X12026015Y-14684484D01*
X12416491Y-14474960D02*
X12245063Y-14732103D01*
X12673634Y-14484484D02*
X12692682Y-14484484D01*
X12692682Y-14484484D02*
X12711729Y-14494008D01*
X12711729Y-14494008D02*
X12721253Y-14503531D01*
X12721253Y-14503531D02*
X12730777Y-14522579D01*
X12730777Y-14522579D02*
X12740301Y-14560674D01*
X12740301Y-14560674D02*
X12740301Y-14608293D01*
X12740301Y-14608293D02*
X12730777Y-14646388D01*
X12730777Y-14646388D02*
X12721253Y-14665436D01*
X12721253Y-14665436D02*
X12711729Y-14674960D01*
X12711729Y-14674960D02*
X12692682Y-14684484D01*
X12692682Y-14684484D02*
X12673634Y-14684484D01*
X12673634Y-14684484D02*
X12654586Y-14674960D01*
X12654586Y-14674960D02*
X12645063Y-14665436D01*
X12645063Y-14665436D02*
X12635539Y-14646388D01*
X12635539Y-14646388D02*
X12626015Y-14608293D01*
X12626015Y-14608293D02*
X12626015Y-14560674D01*
X12626015Y-14560674D02*
X12635539Y-14522579D01*
X12635539Y-14522579D02*
X12645063Y-14503531D01*
X12645063Y-14503531D02*
X12654586Y-14494008D01*
X12654586Y-14494008D02*
X12673634Y-14484484D01*
X12826015Y-14665436D02*
X12835539Y-14674960D01*
X12835539Y-14674960D02*
X12826015Y-14684484D01*
X12826015Y-14684484D02*
X12816491Y-14674960D01*
X12816491Y-14674960D02*
X12826015Y-14665436D01*
X12826015Y-14665436D02*
X12826015Y-14684484D01*
X12959348Y-14484484D02*
X12978396Y-14484484D01*
X12978396Y-14484484D02*
X12997444Y-14494008D01*
X12997444Y-14494008D02*
X13006967Y-14503531D01*
X13006967Y-14503531D02*
X13016491Y-14522579D01*
X13016491Y-14522579D02*
X13026015Y-14560674D01*
X13026015Y-14560674D02*
X13026015Y-14608293D01*
X13026015Y-14608293D02*
X13016491Y-14646388D01*
X13016491Y-14646388D02*
X13006967Y-14665436D01*
X13006967Y-14665436D02*
X12997444Y-14674960D01*
X12997444Y-14674960D02*
X12978396Y-14684484D01*
X12978396Y-14684484D02*
X12959348Y-14684484D01*
X12959348Y-14684484D02*
X12940301Y-14674960D01*
X12940301Y-14674960D02*
X12930777Y-14665436D01*
X12930777Y-14665436D02*
X12921253Y-14646388D01*
X12921253Y-14646388D02*
X12911729Y-14608293D01*
X12911729Y-14608293D02*
X12911729Y-14560674D01*
X12911729Y-14560674D02*
X12921253Y-14522579D01*
X12921253Y-14522579D02*
X12930777Y-14503531D01*
X12930777Y-14503531D02*
X12940301Y-14494008D01*
X12940301Y-14494008D02*
X12959348Y-14484484D01*
X13206967Y-14484484D02*
X13111729Y-14484484D01*
X13111729Y-14484484D02*
X13102206Y-14579722D01*
X13102206Y-14579722D02*
X13111729Y-14570198D01*
X13111729Y-14570198D02*
X13130777Y-14560674D01*
X13130777Y-14560674D02*
X13178396Y-14560674D01*
X13178396Y-14560674D02*
X13197444Y-14570198D01*
X13197444Y-14570198D02*
X13206967Y-14579722D01*
X13206967Y-14579722D02*
X13216491Y-14598769D01*
X13216491Y-14598769D02*
X13216491Y-14646388D01*
X13216491Y-14646388D02*
X13206967Y-14665436D01*
X13206967Y-14665436D02*
X13197444Y-14674960D01*
X13197444Y-14674960D02*
X13178396Y-14684484D01*
X13178396Y-14684484D02*
X13130777Y-14684484D01*
X13130777Y-14684484D02*
X13111729Y-14674960D01*
X13111729Y-14674960D02*
X13102206Y-14665436D01*
X13311729Y-14684484D02*
X13349825Y-14684484D01*
X13349825Y-14684484D02*
X13368872Y-14674960D01*
X13368872Y-14674960D02*
X13378396Y-14665436D01*
X13378396Y-14665436D02*
X13397444Y-14636865D01*
X13397444Y-14636865D02*
X13406967Y-14598769D01*
X13406967Y-14598769D02*
X13406967Y-14522579D01*
X13406967Y-14522579D02*
X13397444Y-14503531D01*
X13397444Y-14503531D02*
X13387920Y-14494008D01*
X13387920Y-14494008D02*
X13368872Y-14484484D01*
X13368872Y-14484484D02*
X13330777Y-14484484D01*
X13330777Y-14484484D02*
X13311729Y-14494008D01*
X13311729Y-14494008D02*
X13302206Y-14503531D01*
X13302206Y-14503531D02*
X13292682Y-14522579D01*
X13292682Y-14522579D02*
X13292682Y-14570198D01*
X13292682Y-14570198D02*
X13302206Y-14589246D01*
X13302206Y-14589246D02*
X13311729Y-14598769D01*
X13311729Y-14598769D02*
X13330777Y-14608293D01*
X13330777Y-14608293D02*
X13368872Y-14608293D01*
X13368872Y-14608293D02*
X13387920Y-14598769D01*
X13387920Y-14598769D02*
X13397444Y-14589246D01*
X13397444Y-14589246D02*
X13406967Y-14570198D01*
X13597444Y-14684484D02*
X13483158Y-14684484D01*
X13540301Y-14684484D02*
X13540301Y-14484484D01*
X13540301Y-14484484D02*
X13521253Y-14513055D01*
X13521253Y-14513055D02*
X13502206Y-14532103D01*
X13502206Y-14532103D02*
X13483158Y-14541627D01*
X13673634Y-14484484D02*
X13673634Y-14522579D01*
X13749825Y-14484484D02*
X13749825Y-14522579D01*
X14045063Y-14760674D02*
X14035539Y-14751150D01*
X14035539Y-14751150D02*
X14016491Y-14722579D01*
X14016491Y-14722579D02*
X14006968Y-14703531D01*
X14006968Y-14703531D02*
X13997444Y-14674960D01*
X13997444Y-14674960D02*
X13987920Y-14627341D01*
X13987920Y-14627341D02*
X13987920Y-14589246D01*
X13987920Y-14589246D02*
X13997444Y-14541627D01*
X13997444Y-14541627D02*
X14006968Y-14513055D01*
X14006968Y-14513055D02*
X14016491Y-14494008D01*
X14016491Y-14494008D02*
X14035539Y-14465436D01*
X14035539Y-14465436D02*
X14045063Y-14455912D01*
X14111729Y-14503531D02*
X14121253Y-14494008D01*
X14121253Y-14494008D02*
X14140301Y-14484484D01*
X14140301Y-14484484D02*
X14187920Y-14484484D01*
X14187920Y-14484484D02*
X14206968Y-14494008D01*
X14206968Y-14494008D02*
X14216491Y-14503531D01*
X14216491Y-14503531D02*
X14226015Y-14522579D01*
X14226015Y-14522579D02*
X14226015Y-14541627D01*
X14226015Y-14541627D02*
X14216491Y-14570198D01*
X14216491Y-14570198D02*
X14102206Y-14684484D01*
X14102206Y-14684484D02*
X14226015Y-14684484D01*
X14464110Y-14684484D02*
X14464110Y-14484484D01*
X14549825Y-14684484D02*
X14549825Y-14579722D01*
X14549825Y-14579722D02*
X14540301Y-14560674D01*
X14540301Y-14560674D02*
X14521253Y-14551150D01*
X14521253Y-14551150D02*
X14492682Y-14551150D01*
X14492682Y-14551150D02*
X14473634Y-14560674D01*
X14473634Y-14560674D02*
X14464110Y-14570198D01*
X14673634Y-14684484D02*
X14654587Y-14674960D01*
X14654587Y-14674960D02*
X14645063Y-14665436D01*
X14645063Y-14665436D02*
X14635539Y-14646388D01*
X14635539Y-14646388D02*
X14635539Y-14589246D01*
X14635539Y-14589246D02*
X14645063Y-14570198D01*
X14645063Y-14570198D02*
X14654587Y-14560674D01*
X14654587Y-14560674D02*
X14673634Y-14551150D01*
X14673634Y-14551150D02*
X14702206Y-14551150D01*
X14702206Y-14551150D02*
X14721253Y-14560674D01*
X14721253Y-14560674D02*
X14730777Y-14570198D01*
X14730777Y-14570198D02*
X14740301Y-14589246D01*
X14740301Y-14589246D02*
X14740301Y-14646388D01*
X14740301Y-14646388D02*
X14730777Y-14665436D01*
X14730777Y-14665436D02*
X14721253Y-14674960D01*
X14721253Y-14674960D02*
X14702206Y-14684484D01*
X14702206Y-14684484D02*
X14673634Y-14684484D01*
X14854587Y-14684484D02*
X14835539Y-14674960D01*
X14835539Y-14674960D02*
X14826015Y-14655912D01*
X14826015Y-14655912D02*
X14826015Y-14484484D01*
X15006968Y-14674960D02*
X14987920Y-14684484D01*
X14987920Y-14684484D02*
X14949825Y-14684484D01*
X14949825Y-14684484D02*
X14930777Y-14674960D01*
X14930777Y-14674960D02*
X14921253Y-14655912D01*
X14921253Y-14655912D02*
X14921253Y-14579722D01*
X14921253Y-14579722D02*
X14930777Y-14560674D01*
X14930777Y-14560674D02*
X14949825Y-14551150D01*
X14949825Y-14551150D02*
X14987920Y-14551150D01*
X14987920Y-14551150D02*
X15006968Y-14560674D01*
X15006968Y-14560674D02*
X15016491Y-14579722D01*
X15016491Y-14579722D02*
X15016491Y-14598769D01*
X15016491Y-14598769D02*
X14921253Y-14617817D01*
X15092682Y-14674960D02*
X15111730Y-14684484D01*
X15111730Y-14684484D02*
X15149825Y-14684484D01*
X15149825Y-14684484D02*
X15168872Y-14674960D01*
X15168872Y-14674960D02*
X15178396Y-14655912D01*
X15178396Y-14655912D02*
X15178396Y-14646388D01*
X15178396Y-14646388D02*
X15168872Y-14627341D01*
X15168872Y-14627341D02*
X15149825Y-14617817D01*
X15149825Y-14617817D02*
X15121253Y-14617817D01*
X15121253Y-14617817D02*
X15102206Y-14608293D01*
X15102206Y-14608293D02*
X15092682Y-14589246D01*
X15092682Y-14589246D02*
X15092682Y-14579722D01*
X15092682Y-14579722D02*
X15102206Y-14560674D01*
X15102206Y-14560674D02*
X15121253Y-14551150D01*
X15121253Y-14551150D02*
X15149825Y-14551150D01*
X15149825Y-14551150D02*
X15168872Y-14560674D01*
X15245063Y-14760674D02*
X15254587Y-14751150D01*
X15254587Y-14751150D02*
X15273634Y-14722579D01*
X15273634Y-14722579D02*
X15283158Y-14703531D01*
X15283158Y-14703531D02*
X15292682Y-14674960D01*
X15292682Y-14674960D02*
X15302206Y-14627341D01*
X15302206Y-14627341D02*
X15302206Y-14589246D01*
X15302206Y-14589246D02*
X15292682Y-14541627D01*
X15292682Y-14541627D02*
X15283158Y-14513055D01*
X15283158Y-14513055D02*
X15273634Y-14494008D01*
X15273634Y-14494008D02*
X15254587Y-14465436D01*
X15254587Y-14465436D02*
X15245063Y-14455912D01*
D19*
X10290000Y-14773000D02*
X10470000Y-14953000D01*
X10470000Y-14773000D02*
X10290000Y-14953000D01*
X10380000Y-14953000D02*
X10470000Y-14863000D01*
X10380000Y-14773000D01*
X10290000Y-14863000D01*
X10380000Y-14953000D01*
D11*
X10835539Y-14954484D02*
X10721253Y-14954484D01*
X10778396Y-14954484D02*
X10778396Y-14754484D01*
X10778396Y-14754484D02*
X10759348Y-14783055D01*
X10759348Y-14783055D02*
X10740301Y-14802103D01*
X10740301Y-14802103D02*
X10721253Y-14811627D01*
X10921253Y-14935436D02*
X10930777Y-14944960D01*
X10930777Y-14944960D02*
X10921253Y-14954484D01*
X10921253Y-14954484D02*
X10911729Y-14944960D01*
X10911729Y-14944960D02*
X10921253Y-14935436D01*
X10921253Y-14935436D02*
X10921253Y-14954484D01*
X11045063Y-14840198D02*
X11026015Y-14830674D01*
X11026015Y-14830674D02*
X11016491Y-14821150D01*
X11016491Y-14821150D02*
X11006967Y-14802103D01*
X11006967Y-14802103D02*
X11006967Y-14792579D01*
X11006967Y-14792579D02*
X11016491Y-14773531D01*
X11016491Y-14773531D02*
X11026015Y-14764008D01*
X11026015Y-14764008D02*
X11045063Y-14754484D01*
X11045063Y-14754484D02*
X11083158Y-14754484D01*
X11083158Y-14754484D02*
X11102205Y-14764008D01*
X11102205Y-14764008D02*
X11111729Y-14773531D01*
X11111729Y-14773531D02*
X11121253Y-14792579D01*
X11121253Y-14792579D02*
X11121253Y-14802103D01*
X11121253Y-14802103D02*
X11111729Y-14821150D01*
X11111729Y-14821150D02*
X11102205Y-14830674D01*
X11102205Y-14830674D02*
X11083158Y-14840198D01*
X11083158Y-14840198D02*
X11045063Y-14840198D01*
X11045063Y-14840198D02*
X11026015Y-14849722D01*
X11026015Y-14849722D02*
X11016491Y-14859246D01*
X11016491Y-14859246D02*
X11006967Y-14878293D01*
X11006967Y-14878293D02*
X11006967Y-14916388D01*
X11006967Y-14916388D02*
X11016491Y-14935436D01*
X11016491Y-14935436D02*
X11026015Y-14944960D01*
X11026015Y-14944960D02*
X11045063Y-14954484D01*
X11045063Y-14954484D02*
X11083158Y-14954484D01*
X11083158Y-14954484D02*
X11102205Y-14944960D01*
X11102205Y-14944960D02*
X11111729Y-14935436D01*
X11111729Y-14935436D02*
X11121253Y-14916388D01*
X11121253Y-14916388D02*
X11121253Y-14878293D01*
X11121253Y-14878293D02*
X11111729Y-14859246D01*
X11111729Y-14859246D02*
X11102205Y-14849722D01*
X11102205Y-14849722D02*
X11083158Y-14840198D01*
X11245062Y-14754484D02*
X11264110Y-14754484D01*
X11264110Y-14754484D02*
X11283158Y-14764008D01*
X11283158Y-14764008D02*
X11292682Y-14773531D01*
X11292682Y-14773531D02*
X11302205Y-14792579D01*
X11302205Y-14792579D02*
X11311729Y-14830674D01*
X11311729Y-14830674D02*
X11311729Y-14878293D01*
X11311729Y-14878293D02*
X11302205Y-14916388D01*
X11302205Y-14916388D02*
X11292682Y-14935436D01*
X11292682Y-14935436D02*
X11283158Y-14944960D01*
X11283158Y-14944960D02*
X11264110Y-14954484D01*
X11264110Y-14954484D02*
X11245062Y-14954484D01*
X11245062Y-14954484D02*
X11226015Y-14944960D01*
X11226015Y-14944960D02*
X11216491Y-14935436D01*
X11216491Y-14935436D02*
X11206967Y-14916388D01*
X11206967Y-14916388D02*
X11197443Y-14878293D01*
X11197443Y-14878293D02*
X11197443Y-14830674D01*
X11197443Y-14830674D02*
X11206967Y-14792579D01*
X11206967Y-14792579D02*
X11216491Y-14773531D01*
X11216491Y-14773531D02*
X11226015Y-14764008D01*
X11226015Y-14764008D02*
X11245062Y-14754484D01*
X11435539Y-14754484D02*
X11454586Y-14754484D01*
X11454586Y-14754484D02*
X11473634Y-14764008D01*
X11473634Y-14764008D02*
X11483158Y-14773531D01*
X11483158Y-14773531D02*
X11492682Y-14792579D01*
X11492682Y-14792579D02*
X11502205Y-14830674D01*
X11502205Y-14830674D02*
X11502205Y-14878293D01*
X11502205Y-14878293D02*
X11492682Y-14916388D01*
X11492682Y-14916388D02*
X11483158Y-14935436D01*
X11483158Y-14935436D02*
X11473634Y-14944960D01*
X11473634Y-14944960D02*
X11454586Y-14954484D01*
X11454586Y-14954484D02*
X11435539Y-14954484D01*
X11435539Y-14954484D02*
X11416491Y-14944960D01*
X11416491Y-14944960D02*
X11406967Y-14935436D01*
X11406967Y-14935436D02*
X11397443Y-14916388D01*
X11397443Y-14916388D02*
X11387920Y-14878293D01*
X11387920Y-14878293D02*
X11387920Y-14830674D01*
X11387920Y-14830674D02*
X11397443Y-14792579D01*
X11397443Y-14792579D02*
X11406967Y-14773531D01*
X11406967Y-14773531D02*
X11416491Y-14764008D01*
X11416491Y-14764008D02*
X11435539Y-14754484D01*
X11587920Y-14954484D02*
X11587920Y-14821150D01*
X11587920Y-14840198D02*
X11597443Y-14830674D01*
X11597443Y-14830674D02*
X11616491Y-14821150D01*
X11616491Y-14821150D02*
X11645063Y-14821150D01*
X11645063Y-14821150D02*
X11664110Y-14830674D01*
X11664110Y-14830674D02*
X11673634Y-14849722D01*
X11673634Y-14849722D02*
X11673634Y-14954484D01*
X11673634Y-14849722D02*
X11683158Y-14830674D01*
X11683158Y-14830674D02*
X11702205Y-14821150D01*
X11702205Y-14821150D02*
X11730777Y-14821150D01*
X11730777Y-14821150D02*
X11749824Y-14830674D01*
X11749824Y-14830674D02*
X11759348Y-14849722D01*
X11759348Y-14849722D02*
X11759348Y-14954484D01*
X11854586Y-14954484D02*
X11854586Y-14821150D01*
X11854586Y-14840198D02*
X11864110Y-14830674D01*
X11864110Y-14830674D02*
X11883158Y-14821150D01*
X11883158Y-14821150D02*
X11911729Y-14821150D01*
X11911729Y-14821150D02*
X11930777Y-14830674D01*
X11930777Y-14830674D02*
X11940301Y-14849722D01*
X11940301Y-14849722D02*
X11940301Y-14954484D01*
X11940301Y-14849722D02*
X11949824Y-14830674D01*
X11949824Y-14830674D02*
X11968872Y-14821150D01*
X11968872Y-14821150D02*
X11997443Y-14821150D01*
X11997443Y-14821150D02*
X12016491Y-14830674D01*
X12016491Y-14830674D02*
X12026015Y-14849722D01*
X12026015Y-14849722D02*
X12026015Y-14954484D01*
X12416491Y-14744960D02*
X12245063Y-15002103D01*
X12673634Y-14754484D02*
X12692682Y-14754484D01*
X12692682Y-14754484D02*
X12711729Y-14764008D01*
X12711729Y-14764008D02*
X12721253Y-14773531D01*
X12721253Y-14773531D02*
X12730777Y-14792579D01*
X12730777Y-14792579D02*
X12740301Y-14830674D01*
X12740301Y-14830674D02*
X12740301Y-14878293D01*
X12740301Y-14878293D02*
X12730777Y-14916388D01*
X12730777Y-14916388D02*
X12721253Y-14935436D01*
X12721253Y-14935436D02*
X12711729Y-14944960D01*
X12711729Y-14944960D02*
X12692682Y-14954484D01*
X12692682Y-14954484D02*
X12673634Y-14954484D01*
X12673634Y-14954484D02*
X12654586Y-14944960D01*
X12654586Y-14944960D02*
X12645063Y-14935436D01*
X12645063Y-14935436D02*
X12635539Y-14916388D01*
X12635539Y-14916388D02*
X12626015Y-14878293D01*
X12626015Y-14878293D02*
X12626015Y-14830674D01*
X12626015Y-14830674D02*
X12635539Y-14792579D01*
X12635539Y-14792579D02*
X12645063Y-14773531D01*
X12645063Y-14773531D02*
X12654586Y-14764008D01*
X12654586Y-14764008D02*
X12673634Y-14754484D01*
X12826015Y-14935436D02*
X12835539Y-14944960D01*
X12835539Y-14944960D02*
X12826015Y-14954484D01*
X12826015Y-14954484D02*
X12816491Y-14944960D01*
X12816491Y-14944960D02*
X12826015Y-14935436D01*
X12826015Y-14935436D02*
X12826015Y-14954484D01*
X12959348Y-14754484D02*
X12978396Y-14754484D01*
X12978396Y-14754484D02*
X12997444Y-14764008D01*
X12997444Y-14764008D02*
X13006967Y-14773531D01*
X13006967Y-14773531D02*
X13016491Y-14792579D01*
X13016491Y-14792579D02*
X13026015Y-14830674D01*
X13026015Y-14830674D02*
X13026015Y-14878293D01*
X13026015Y-14878293D02*
X13016491Y-14916388D01*
X13016491Y-14916388D02*
X13006967Y-14935436D01*
X13006967Y-14935436D02*
X12997444Y-14944960D01*
X12997444Y-14944960D02*
X12978396Y-14954484D01*
X12978396Y-14954484D02*
X12959348Y-14954484D01*
X12959348Y-14954484D02*
X12940301Y-14944960D01*
X12940301Y-14944960D02*
X12930777Y-14935436D01*
X12930777Y-14935436D02*
X12921253Y-14916388D01*
X12921253Y-14916388D02*
X12911729Y-14878293D01*
X12911729Y-14878293D02*
X12911729Y-14830674D01*
X12911729Y-14830674D02*
X12921253Y-14792579D01*
X12921253Y-14792579D02*
X12930777Y-14773531D01*
X12930777Y-14773531D02*
X12940301Y-14764008D01*
X12940301Y-14764008D02*
X12959348Y-14754484D01*
X13092682Y-14754484D02*
X13226015Y-14754484D01*
X13226015Y-14754484D02*
X13140301Y-14954484D01*
X13340301Y-14754484D02*
X13359348Y-14754484D01*
X13359348Y-14754484D02*
X13378396Y-14764008D01*
X13378396Y-14764008D02*
X13387920Y-14773531D01*
X13387920Y-14773531D02*
X13397444Y-14792579D01*
X13397444Y-14792579D02*
X13406967Y-14830674D01*
X13406967Y-14830674D02*
X13406967Y-14878293D01*
X13406967Y-14878293D02*
X13397444Y-14916388D01*
X13397444Y-14916388D02*
X13387920Y-14935436D01*
X13387920Y-14935436D02*
X13378396Y-14944960D01*
X13378396Y-14944960D02*
X13359348Y-14954484D01*
X13359348Y-14954484D02*
X13340301Y-14954484D01*
X13340301Y-14954484D02*
X13321253Y-14944960D01*
X13321253Y-14944960D02*
X13311729Y-14935436D01*
X13311729Y-14935436D02*
X13302206Y-14916388D01*
X13302206Y-14916388D02*
X13292682Y-14878293D01*
X13292682Y-14878293D02*
X13292682Y-14830674D01*
X13292682Y-14830674D02*
X13302206Y-14792579D01*
X13302206Y-14792579D02*
X13311729Y-14773531D01*
X13311729Y-14773531D02*
X13321253Y-14764008D01*
X13321253Y-14764008D02*
X13340301Y-14754484D01*
X13502206Y-14954484D02*
X13540301Y-14954484D01*
X13540301Y-14954484D02*
X13559348Y-14944960D01*
X13559348Y-14944960D02*
X13568872Y-14935436D01*
X13568872Y-14935436D02*
X13587920Y-14906865D01*
X13587920Y-14906865D02*
X13597444Y-14868769D01*
X13597444Y-14868769D02*
X13597444Y-14792579D01*
X13597444Y-14792579D02*
X13587920Y-14773531D01*
X13587920Y-14773531D02*
X13578396Y-14764008D01*
X13578396Y-14764008D02*
X13559348Y-14754484D01*
X13559348Y-14754484D02*
X13521253Y-14754484D01*
X13521253Y-14754484D02*
X13502206Y-14764008D01*
X13502206Y-14764008D02*
X13492682Y-14773531D01*
X13492682Y-14773531D02*
X13483158Y-14792579D01*
X13483158Y-14792579D02*
X13483158Y-14840198D01*
X13483158Y-14840198D02*
X13492682Y-14859246D01*
X13492682Y-14859246D02*
X13502206Y-14868769D01*
X13502206Y-14868769D02*
X13521253Y-14878293D01*
X13521253Y-14878293D02*
X13559348Y-14878293D01*
X13559348Y-14878293D02*
X13578396Y-14868769D01*
X13578396Y-14868769D02*
X13587920Y-14859246D01*
X13587920Y-14859246D02*
X13597444Y-14840198D01*
X13673634Y-14754484D02*
X13673634Y-14792579D01*
X13749825Y-14754484D02*
X13749825Y-14792579D01*
X14045063Y-15030674D02*
X14035539Y-15021150D01*
X14035539Y-15021150D02*
X14016491Y-14992579D01*
X14016491Y-14992579D02*
X14006968Y-14973531D01*
X14006968Y-14973531D02*
X13997444Y-14944960D01*
X13997444Y-14944960D02*
X13987920Y-14897341D01*
X13987920Y-14897341D02*
X13987920Y-14859246D01*
X13987920Y-14859246D02*
X13997444Y-14811627D01*
X13997444Y-14811627D02*
X14006968Y-14783055D01*
X14006968Y-14783055D02*
X14016491Y-14764008D01*
X14016491Y-14764008D02*
X14035539Y-14735436D01*
X14035539Y-14735436D02*
X14045063Y-14725912D01*
X14226015Y-14954484D02*
X14111729Y-14954484D01*
X14168872Y-14954484D02*
X14168872Y-14754484D01*
X14168872Y-14754484D02*
X14149825Y-14783055D01*
X14149825Y-14783055D02*
X14130777Y-14802103D01*
X14130777Y-14802103D02*
X14111729Y-14811627D01*
X14464110Y-14954484D02*
X14464110Y-14754484D01*
X14549825Y-14954484D02*
X14549825Y-14849722D01*
X14549825Y-14849722D02*
X14540301Y-14830674D01*
X14540301Y-14830674D02*
X14521253Y-14821150D01*
X14521253Y-14821150D02*
X14492682Y-14821150D01*
X14492682Y-14821150D02*
X14473634Y-14830674D01*
X14473634Y-14830674D02*
X14464110Y-14840198D01*
X14673634Y-14954484D02*
X14654587Y-14944960D01*
X14654587Y-14944960D02*
X14645063Y-14935436D01*
X14645063Y-14935436D02*
X14635539Y-14916388D01*
X14635539Y-14916388D02*
X14635539Y-14859246D01*
X14635539Y-14859246D02*
X14645063Y-14840198D01*
X14645063Y-14840198D02*
X14654587Y-14830674D01*
X14654587Y-14830674D02*
X14673634Y-14821150D01*
X14673634Y-14821150D02*
X14702206Y-14821150D01*
X14702206Y-14821150D02*
X14721253Y-14830674D01*
X14721253Y-14830674D02*
X14730777Y-14840198D01*
X14730777Y-14840198D02*
X14740301Y-14859246D01*
X14740301Y-14859246D02*
X14740301Y-14916388D01*
X14740301Y-14916388D02*
X14730777Y-14935436D01*
X14730777Y-14935436D02*
X14721253Y-14944960D01*
X14721253Y-14944960D02*
X14702206Y-14954484D01*
X14702206Y-14954484D02*
X14673634Y-14954484D01*
X14854587Y-14954484D02*
X14835539Y-14944960D01*
X14835539Y-14944960D02*
X14826015Y-14925912D01*
X14826015Y-14925912D02*
X14826015Y-14754484D01*
X15006968Y-14944960D02*
X14987920Y-14954484D01*
X14987920Y-14954484D02*
X14949825Y-14954484D01*
X14949825Y-14954484D02*
X14930777Y-14944960D01*
X14930777Y-14944960D02*
X14921253Y-14925912D01*
X14921253Y-14925912D02*
X14921253Y-14849722D01*
X14921253Y-14849722D02*
X14930777Y-14830674D01*
X14930777Y-14830674D02*
X14949825Y-14821150D01*
X14949825Y-14821150D02*
X14987920Y-14821150D01*
X14987920Y-14821150D02*
X15006968Y-14830674D01*
X15006968Y-14830674D02*
X15016491Y-14849722D01*
X15016491Y-14849722D02*
X15016491Y-14868769D01*
X15016491Y-14868769D02*
X14921253Y-14887817D01*
X15083158Y-15030674D02*
X15092682Y-15021150D01*
X15092682Y-15021150D02*
X15111730Y-14992579D01*
X15111730Y-14992579D02*
X15121253Y-14973531D01*
X15121253Y-14973531D02*
X15130777Y-14944960D01*
X15130777Y-14944960D02*
X15140301Y-14897341D01*
X15140301Y-14897341D02*
X15140301Y-14859246D01*
X15140301Y-14859246D02*
X15130777Y-14811627D01*
X15130777Y-14811627D02*
X15121253Y-14783055D01*
X15121253Y-14783055D02*
X15111730Y-14764008D01*
X15111730Y-14764008D02*
X15092682Y-14735436D01*
X15092682Y-14735436D02*
X15083158Y-14725912D01*
X15445063Y-15030674D02*
X15435539Y-15021150D01*
X15435539Y-15021150D02*
X15416491Y-14992579D01*
X15416491Y-14992579D02*
X15406968Y-14973531D01*
X15406968Y-14973531D02*
X15397444Y-14944960D01*
X15397444Y-14944960D02*
X15387920Y-14897341D01*
X15387920Y-14897341D02*
X15387920Y-14859246D01*
X15387920Y-14859246D02*
X15397444Y-14811627D01*
X15397444Y-14811627D02*
X15406968Y-14783055D01*
X15406968Y-14783055D02*
X15416491Y-14764008D01*
X15416491Y-14764008D02*
X15435539Y-14735436D01*
X15435539Y-14735436D02*
X15445063Y-14725912D01*
X15521253Y-14821150D02*
X15521253Y-14954484D01*
X15521253Y-14840198D02*
X15530777Y-14830674D01*
X15530777Y-14830674D02*
X15549825Y-14821150D01*
X15549825Y-14821150D02*
X15578396Y-14821150D01*
X15578396Y-14821150D02*
X15597444Y-14830674D01*
X15597444Y-14830674D02*
X15606968Y-14849722D01*
X15606968Y-14849722D02*
X15606968Y-14954484D01*
X15730777Y-14954484D02*
X15711730Y-14944960D01*
X15711730Y-14944960D02*
X15702206Y-14935436D01*
X15702206Y-14935436D02*
X15692682Y-14916388D01*
X15692682Y-14916388D02*
X15692682Y-14859246D01*
X15692682Y-14859246D02*
X15702206Y-14840198D01*
X15702206Y-14840198D02*
X15711730Y-14830674D01*
X15711730Y-14830674D02*
X15730777Y-14821150D01*
X15730777Y-14821150D02*
X15759349Y-14821150D01*
X15759349Y-14821150D02*
X15778396Y-14830674D01*
X15778396Y-14830674D02*
X15787920Y-14840198D01*
X15787920Y-14840198D02*
X15797444Y-14859246D01*
X15797444Y-14859246D02*
X15797444Y-14916388D01*
X15797444Y-14916388D02*
X15787920Y-14935436D01*
X15787920Y-14935436D02*
X15778396Y-14944960D01*
X15778396Y-14944960D02*
X15759349Y-14954484D01*
X15759349Y-14954484D02*
X15730777Y-14954484D01*
X15854587Y-14821150D02*
X15930777Y-14821150D01*
X15883158Y-14754484D02*
X15883158Y-14925912D01*
X15883158Y-14925912D02*
X15892682Y-14944960D01*
X15892682Y-14944960D02*
X15911730Y-14954484D01*
X15911730Y-14954484D02*
X15930777Y-14954484D01*
X16149825Y-14821150D02*
X16149825Y-15021150D01*
X16149825Y-14830674D02*
X16168872Y-14821150D01*
X16168872Y-14821150D02*
X16206968Y-14821150D01*
X16206968Y-14821150D02*
X16226015Y-14830674D01*
X16226015Y-14830674D02*
X16235539Y-14840198D01*
X16235539Y-14840198D02*
X16245063Y-14859246D01*
X16245063Y-14859246D02*
X16245063Y-14916388D01*
X16245063Y-14916388D02*
X16235539Y-14935436D01*
X16235539Y-14935436D02*
X16226015Y-14944960D01*
X16226015Y-14944960D02*
X16206968Y-14954484D01*
X16206968Y-14954484D02*
X16168872Y-14954484D01*
X16168872Y-14954484D02*
X16149825Y-14944960D01*
X16359349Y-14954484D02*
X16340301Y-14944960D01*
X16340301Y-14944960D02*
X16330777Y-14925912D01*
X16330777Y-14925912D02*
X16330777Y-14754484D01*
X16521253Y-14954484D02*
X16521253Y-14849722D01*
X16521253Y-14849722D02*
X16511730Y-14830674D01*
X16511730Y-14830674D02*
X16492682Y-14821150D01*
X16492682Y-14821150D02*
X16454587Y-14821150D01*
X16454587Y-14821150D02*
X16435539Y-14830674D01*
X16521253Y-14944960D02*
X16502206Y-14954484D01*
X16502206Y-14954484D02*
X16454587Y-14954484D01*
X16454587Y-14954484D02*
X16435539Y-14944960D01*
X16435539Y-14944960D02*
X16426015Y-14925912D01*
X16426015Y-14925912D02*
X16426015Y-14906865D01*
X16426015Y-14906865D02*
X16435539Y-14887817D01*
X16435539Y-14887817D02*
X16454587Y-14878293D01*
X16454587Y-14878293D02*
X16502206Y-14878293D01*
X16502206Y-14878293D02*
X16521253Y-14868769D01*
X16587920Y-14821150D02*
X16664111Y-14821150D01*
X16616492Y-14754484D02*
X16616492Y-14925912D01*
X16616492Y-14925912D02*
X16626015Y-14944960D01*
X16626015Y-14944960D02*
X16645063Y-14954484D01*
X16645063Y-14954484D02*
X16664111Y-14954484D01*
X16806968Y-14944960D02*
X16787920Y-14954484D01*
X16787920Y-14954484D02*
X16749825Y-14954484D01*
X16749825Y-14954484D02*
X16730777Y-14944960D01*
X16730777Y-14944960D02*
X16721253Y-14925912D01*
X16721253Y-14925912D02*
X16721253Y-14849722D01*
X16721253Y-14849722D02*
X16730777Y-14830674D01*
X16730777Y-14830674D02*
X16749825Y-14821150D01*
X16749825Y-14821150D02*
X16787920Y-14821150D01*
X16787920Y-14821150D02*
X16806968Y-14830674D01*
X16806968Y-14830674D02*
X16816492Y-14849722D01*
X16816492Y-14849722D02*
X16816492Y-14868769D01*
X16816492Y-14868769D02*
X16721253Y-14887817D01*
X16987920Y-14954484D02*
X16987920Y-14754484D01*
X16987920Y-14944960D02*
X16968873Y-14954484D01*
X16968873Y-14954484D02*
X16930777Y-14954484D01*
X16930777Y-14954484D02*
X16911730Y-14944960D01*
X16911730Y-14944960D02*
X16902206Y-14935436D01*
X16902206Y-14935436D02*
X16892682Y-14916388D01*
X16892682Y-14916388D02*
X16892682Y-14859246D01*
X16892682Y-14859246D02*
X16902206Y-14840198D01*
X16902206Y-14840198D02*
X16911730Y-14830674D01*
X16911730Y-14830674D02*
X16930777Y-14821150D01*
X16930777Y-14821150D02*
X16968873Y-14821150D01*
X16968873Y-14821150D02*
X16987920Y-14830674D01*
X17064111Y-15030674D02*
X17073635Y-15021150D01*
X17073635Y-15021150D02*
X17092682Y-14992579D01*
X17092682Y-14992579D02*
X17102206Y-14973531D01*
X17102206Y-14973531D02*
X17111730Y-14944960D01*
X17111730Y-14944960D02*
X17121254Y-14897341D01*
X17121254Y-14897341D02*
X17121254Y-14859246D01*
X17121254Y-14859246D02*
X17111730Y-14811627D01*
X17111730Y-14811627D02*
X17102206Y-14783055D01*
X17102206Y-14783055D02*
X17092682Y-14764008D01*
X17092682Y-14764008D02*
X17073635Y-14735436D01*
X17073635Y-14735436D02*
X17064111Y-14725912D01*
M02*
